%TF.GenerationSoftware,KiCad,Pcbnew,8.0.5*%
%TF.CreationDate,2024-10-03T21:29:44+02:00*%
%TF.ProjectId,knowabunga-macro,6b6e6f77-6162-4756-9e67-612d6d616372,rev?*%
%TF.SameCoordinates,Original*%
%TF.FileFunction,Drillmap*%
%TF.FilePolarity,Positive*%
%FSLAX45Y45*%
G04 Gerber Fmt 4.5, Leading zero omitted, Abs format (unit mm)*
G04 Created by KiCad (PCBNEW 8.0.5) date 2024-10-03 21:29:44*
%MOMM*%
%LPD*%
G01*
G04 APERTURE LIST*
%ADD10C,0.050000*%
%ADD11C,0.200000*%
%ADD12C,0.100000*%
%ADD13C,0.110000*%
%ADD14C,0.150000*%
G04 APERTURE END LIST*
D10*
X6197600Y-4292600D02*
X17627600Y-4292600D01*
X5994400Y-9423400D02*
X5994400Y-4495800D01*
X17627600Y-9626600D02*
X6197600Y-9626600D01*
X17830800Y-4495800D02*
X17830800Y-9423400D01*
X17627600Y-4292600D02*
G75*
G02*
X17830800Y-4495800I0J-203200D01*
G01*
X17830800Y-9423400D02*
G75*
G02*
X17627600Y-9626600I-203200J0D01*
G01*
X6197600Y-9626600D02*
G75*
G02*
X5994400Y-9423400I0J203200D01*
G01*
X5994400Y-4495800D02*
G75*
G02*
X6197600Y-4292600I203200J0D01*
G01*
D11*
D12*
X8671800Y-7097000D02*
X8701800Y-7127000D01*
X8701800Y-7097000D02*
X8671800Y-7127000D01*
X10576800Y-6970000D02*
X10606800Y-7000000D01*
X10606800Y-6970000D02*
X10576800Y-7000000D01*
X12481800Y-6843000D02*
X12511800Y-6873000D01*
X12511800Y-6843000D02*
X12481800Y-6873000D01*
X15645600Y-8966200D02*
G75*
G02*
X15545600Y-8966200I-50000J0D01*
G01*
X15545600Y-8966200D02*
G75*
G02*
X15645600Y-8966200I50000J0D01*
G01*
X15899600Y-8966200D02*
G75*
G02*
X15799600Y-8966200I-50000J0D01*
G01*
X15799600Y-8966200D02*
G75*
G02*
X15899600Y-8966200I50000J0D01*
G01*
X16153600Y-8966200D02*
G75*
G02*
X16053600Y-8966200I-50000J0D01*
G01*
X16053600Y-8966200D02*
G75*
G02*
X16153600Y-8966200I50000J0D01*
G01*
X16407600Y-8966200D02*
G75*
G02*
X16307600Y-8966200I-50000J0D01*
G01*
X16307600Y-8966200D02*
G75*
G02*
X16407600Y-8966200I50000J0D01*
G01*
D13*
X7289800Y-4771000D02*
X7289800Y-4881000D01*
X7234800Y-4826000D02*
X7344800Y-4826000D01*
X7289800Y-9063600D02*
X7289800Y-9173600D01*
X7234800Y-9118600D02*
X7344800Y-9118600D01*
X8305800Y-4771000D02*
X8305800Y-4881000D01*
X8250800Y-4826000D02*
X8360800Y-4826000D01*
X8305800Y-9063600D02*
X8305800Y-9173600D01*
X8250800Y-9118600D02*
X8360800Y-9118600D01*
X9169400Y-9063600D02*
X9169400Y-9173600D01*
X9114400Y-9118600D02*
X9224400Y-9118600D01*
X9194800Y-4771000D02*
X9194800Y-4881000D01*
X9139800Y-4826000D02*
X9249800Y-4826000D01*
X10185400Y-9063600D02*
X10185400Y-9173600D01*
X10130400Y-9118600D02*
X10240400Y-9118600D01*
X10210800Y-4771000D02*
X10210800Y-4881000D01*
X10155800Y-4826000D02*
X10265800Y-4826000D01*
X11099800Y-4771000D02*
X11099800Y-4881000D01*
X11044800Y-4826000D02*
X11154800Y-4826000D01*
X11125200Y-9063600D02*
X11125200Y-9173600D01*
X11070200Y-9118600D02*
X11180200Y-9118600D01*
X12115800Y-4771000D02*
X12115800Y-4881000D01*
X12060800Y-4826000D02*
X12170800Y-4826000D01*
X12141200Y-9063600D02*
X12141200Y-9173600D01*
X12086200Y-9118600D02*
X12196200Y-9118600D01*
X12979400Y-9063600D02*
X12979400Y-9173600D01*
X12924400Y-9118600D02*
X13034400Y-9118600D01*
X13004800Y-4771000D02*
X13004800Y-4881000D01*
X12949800Y-4826000D02*
X13059800Y-4826000D01*
X13995400Y-9063600D02*
X13995400Y-9173600D01*
X13940400Y-9118600D02*
X14050400Y-9118600D01*
X14020800Y-4771000D02*
X14020800Y-4881000D01*
X13965800Y-4826000D02*
X14075800Y-4826000D01*
X14808200Y-6142600D02*
X14808200Y-6252600D01*
X14753200Y-6197600D02*
X14863200Y-6197600D01*
X14808200Y-7666600D02*
X14808200Y-7776600D01*
X14753200Y-7721600D02*
X14863200Y-7721600D01*
X15062200Y-6142600D02*
X15062200Y-6252600D01*
X15007200Y-6197600D02*
X15117200Y-6197600D01*
X15062200Y-7666600D02*
X15062200Y-7776600D01*
X15007200Y-7721600D02*
X15117200Y-7721600D01*
X15316200Y-6142600D02*
X15316200Y-6252600D01*
X15261200Y-6197600D02*
X15371200Y-6197600D01*
X15316200Y-7666600D02*
X15316200Y-7776600D01*
X15261200Y-7721600D02*
X15371200Y-7721600D01*
X15570200Y-6142600D02*
X15570200Y-6252600D01*
X15515200Y-6197600D02*
X15625200Y-6197600D01*
X15570200Y-7666600D02*
X15570200Y-7776600D01*
X15515200Y-7721600D02*
X15625200Y-7721600D01*
X15824200Y-6142600D02*
X15824200Y-6252600D01*
X15769200Y-6197600D02*
X15879200Y-6197600D01*
X15824200Y-7666600D02*
X15824200Y-7776600D01*
X15769200Y-7721600D02*
X15879200Y-7721600D01*
X16078200Y-6142600D02*
X16078200Y-6252600D01*
X16023200Y-6197600D02*
X16133200Y-6197600D01*
X16078200Y-7666600D02*
X16078200Y-7776600D01*
X16023200Y-7721600D02*
X16133200Y-7721600D01*
X16332200Y-6142600D02*
X16332200Y-6252600D01*
X16277200Y-6197600D02*
X16387200Y-6197600D01*
X16332200Y-7666600D02*
X16332200Y-7776600D01*
X16277200Y-7721600D02*
X16387200Y-7721600D01*
X16586200Y-6142600D02*
X16586200Y-6252600D01*
X16531200Y-6197600D02*
X16641200Y-6197600D01*
X16586200Y-7666600D02*
X16586200Y-7776600D01*
X16531200Y-7721600D02*
X16641200Y-7721600D01*
X16820000Y-8076600D02*
X16820000Y-8186600D01*
X16765000Y-8131600D02*
X16875000Y-8131600D01*
X16820000Y-8526600D02*
X16820000Y-8636600D01*
X16765000Y-8581600D02*
X16875000Y-8581600D01*
X16840200Y-6142600D02*
X16840200Y-6252600D01*
X16785200Y-6197600D02*
X16895200Y-6197600D01*
X16840200Y-7666600D02*
X16840200Y-7776600D01*
X16785200Y-7721600D02*
X16895200Y-7721600D01*
X17094200Y-6142600D02*
X17094200Y-6252600D01*
X17039200Y-6197600D02*
X17149200Y-6197600D01*
X17094200Y-7666600D02*
X17094200Y-7776600D01*
X17039200Y-7721600D02*
X17149200Y-7721600D01*
X17348200Y-6142600D02*
X17348200Y-6252600D01*
X17293200Y-6197600D02*
X17403200Y-6197600D01*
X17348200Y-7666600D02*
X17348200Y-7776600D01*
X17293200Y-7721600D02*
X17403200Y-7721600D01*
X17470000Y-8076600D02*
X17470000Y-8186600D01*
X17415000Y-8131600D02*
X17525000Y-8131600D01*
X17470000Y-8526600D02*
X17470000Y-8636600D01*
X17415000Y-8581600D02*
X17525000Y-8581600D01*
X17602200Y-6142600D02*
X17602200Y-6252600D01*
X17547200Y-6197600D02*
X17657200Y-6197600D01*
X17602200Y-7666600D02*
X17602200Y-7776600D01*
X17547200Y-7721600D02*
X17657200Y-7721600D01*
D14*
X7469833Y-5818833D02*
X7469833Y-5712766D01*
X7363766Y-5712766D01*
X7363766Y-5818833D01*
X7469833Y-5818833D01*
X7469833Y-7723833D02*
X7469833Y-7617766D01*
X7363766Y-7617766D01*
X7363766Y-7723833D01*
X7469833Y-7723833D01*
X8104833Y-5564834D02*
X8104833Y-5458767D01*
X7998766Y-5458767D01*
X7998766Y-5564834D01*
X8104833Y-5564834D01*
X8104833Y-7469833D02*
X8104833Y-7363766D01*
X7998766Y-7363766D01*
X7998766Y-7469833D01*
X8104833Y-7469833D01*
X9374834Y-5818833D02*
X9374834Y-5712766D01*
X9268767Y-5712766D01*
X9268767Y-5818833D01*
X9374834Y-5818833D01*
X9374834Y-7723833D02*
X9374834Y-7617766D01*
X9268767Y-7617766D01*
X9268767Y-7723833D01*
X9374834Y-7723833D01*
X10009834Y-5564834D02*
X10009834Y-5458767D01*
X9903767Y-5458767D01*
X9903767Y-5564834D01*
X10009834Y-5564834D01*
X10009834Y-7469833D02*
X10009834Y-7363766D01*
X9903767Y-7363766D01*
X9903767Y-7469833D01*
X10009834Y-7469833D01*
X11279833Y-5818833D02*
X11279833Y-5712766D01*
X11173767Y-5712766D01*
X11173767Y-5818833D01*
X11279833Y-5818833D01*
X11279833Y-7723833D02*
X11279833Y-7617766D01*
X11173767Y-7617766D01*
X11173767Y-7723833D01*
X11279833Y-7723833D01*
X11914833Y-5564834D02*
X11914833Y-5458767D01*
X11808766Y-5458767D01*
X11808766Y-5564834D01*
X11914833Y-5564834D01*
X11914833Y-7469833D02*
X11914833Y-7363766D01*
X11808766Y-7363766D01*
X11808766Y-7469833D01*
X11914833Y-7469833D01*
X13184833Y-5818833D02*
X13184833Y-5712766D01*
X13078766Y-5712766D01*
X13078766Y-5818833D01*
X13184833Y-5818833D01*
X13184833Y-7723833D02*
X13184833Y-7617766D01*
X13078766Y-7617766D01*
X13078766Y-7723833D01*
X13184833Y-7723833D01*
X13819833Y-5564834D02*
X13819833Y-5458767D01*
X13713766Y-5458767D01*
X13713766Y-5564834D01*
X13819833Y-5564834D01*
X13819833Y-7469833D02*
X13819833Y-7363766D01*
X13713766Y-7363766D01*
X13713766Y-7469833D01*
X13819833Y-7469833D01*
D11*
X6252677Y-9940584D02*
X6252677Y-9740584D01*
X6252677Y-9740584D02*
X6300296Y-9740584D01*
X6300296Y-9740584D02*
X6328867Y-9750108D01*
X6328867Y-9750108D02*
X6347915Y-9769155D01*
X6347915Y-9769155D02*
X6357439Y-9788203D01*
X6357439Y-9788203D02*
X6366962Y-9826298D01*
X6366962Y-9826298D02*
X6366962Y-9854870D01*
X6366962Y-9854870D02*
X6357439Y-9892965D01*
X6357439Y-9892965D02*
X6347915Y-9912012D01*
X6347915Y-9912012D02*
X6328867Y-9931060D01*
X6328867Y-9931060D02*
X6300296Y-9940584D01*
X6300296Y-9940584D02*
X6252677Y-9940584D01*
X6452677Y-9940584D02*
X6452677Y-9807250D01*
X6452677Y-9845346D02*
X6462201Y-9826298D01*
X6462201Y-9826298D02*
X6471724Y-9816774D01*
X6471724Y-9816774D02*
X6490772Y-9807250D01*
X6490772Y-9807250D02*
X6509820Y-9807250D01*
X6576486Y-9940584D02*
X6576486Y-9807250D01*
X6576486Y-9740584D02*
X6566962Y-9750108D01*
X6566962Y-9750108D02*
X6576486Y-9759631D01*
X6576486Y-9759631D02*
X6586010Y-9750108D01*
X6586010Y-9750108D02*
X6576486Y-9740584D01*
X6576486Y-9740584D02*
X6576486Y-9759631D01*
X6700296Y-9940584D02*
X6681248Y-9931060D01*
X6681248Y-9931060D02*
X6671724Y-9912012D01*
X6671724Y-9912012D02*
X6671724Y-9740584D01*
X6805058Y-9940584D02*
X6786010Y-9931060D01*
X6786010Y-9931060D02*
X6776486Y-9912012D01*
X6776486Y-9912012D02*
X6776486Y-9740584D01*
X7033629Y-9940584D02*
X7033629Y-9740584D01*
X7033629Y-9740584D02*
X7100296Y-9883441D01*
X7100296Y-9883441D02*
X7166962Y-9740584D01*
X7166962Y-9740584D02*
X7166962Y-9940584D01*
X7347915Y-9940584D02*
X7347915Y-9835822D01*
X7347915Y-9835822D02*
X7338391Y-9816774D01*
X7338391Y-9816774D02*
X7319343Y-9807250D01*
X7319343Y-9807250D02*
X7281248Y-9807250D01*
X7281248Y-9807250D02*
X7262201Y-9816774D01*
X7347915Y-9931060D02*
X7328867Y-9940584D01*
X7328867Y-9940584D02*
X7281248Y-9940584D01*
X7281248Y-9940584D02*
X7262201Y-9931060D01*
X7262201Y-9931060D02*
X7252677Y-9912012D01*
X7252677Y-9912012D02*
X7252677Y-9892965D01*
X7252677Y-9892965D02*
X7262201Y-9873917D01*
X7262201Y-9873917D02*
X7281248Y-9864393D01*
X7281248Y-9864393D02*
X7328867Y-9864393D01*
X7328867Y-9864393D02*
X7347915Y-9854870D01*
X7443153Y-9807250D02*
X7443153Y-10007250D01*
X7443153Y-9816774D02*
X7462201Y-9807250D01*
X7462201Y-9807250D02*
X7500296Y-9807250D01*
X7500296Y-9807250D02*
X7519343Y-9816774D01*
X7519343Y-9816774D02*
X7528867Y-9826298D01*
X7528867Y-9826298D02*
X7538391Y-9845346D01*
X7538391Y-9845346D02*
X7538391Y-9902489D01*
X7538391Y-9902489D02*
X7528867Y-9921536D01*
X7528867Y-9921536D02*
X7519343Y-9931060D01*
X7519343Y-9931060D02*
X7500296Y-9940584D01*
X7500296Y-9940584D02*
X7462201Y-9940584D01*
X7462201Y-9940584D02*
X7443153Y-9931060D01*
X7624105Y-9921536D02*
X7633629Y-9931060D01*
X7633629Y-9931060D02*
X7624105Y-9940584D01*
X7624105Y-9940584D02*
X7614582Y-9931060D01*
X7614582Y-9931060D02*
X7624105Y-9921536D01*
X7624105Y-9921536D02*
X7624105Y-9940584D01*
X7624105Y-9816774D02*
X7633629Y-9826298D01*
X7633629Y-9826298D02*
X7624105Y-9835822D01*
X7624105Y-9835822D02*
X7614582Y-9826298D01*
X7614582Y-9826298D02*
X7624105Y-9816774D01*
X7624105Y-9816774D02*
X7624105Y-9835822D01*
D12*
X5961900Y-10254100D02*
X5991900Y-10284100D01*
X5991900Y-10254100D02*
X5961900Y-10284100D01*
D11*
X6290772Y-10160584D02*
X6309820Y-10160584D01*
X6309820Y-10160584D02*
X6328867Y-10170108D01*
X6328867Y-10170108D02*
X6338391Y-10179631D01*
X6338391Y-10179631D02*
X6347915Y-10198679D01*
X6347915Y-10198679D02*
X6357439Y-10236774D01*
X6357439Y-10236774D02*
X6357439Y-10284393D01*
X6357439Y-10284393D02*
X6347915Y-10322489D01*
X6347915Y-10322489D02*
X6338391Y-10341536D01*
X6338391Y-10341536D02*
X6328867Y-10351060D01*
X6328867Y-10351060D02*
X6309820Y-10360584D01*
X6309820Y-10360584D02*
X6290772Y-10360584D01*
X6290772Y-10360584D02*
X6271724Y-10351060D01*
X6271724Y-10351060D02*
X6262201Y-10341536D01*
X6262201Y-10341536D02*
X6252677Y-10322489D01*
X6252677Y-10322489D02*
X6243153Y-10284393D01*
X6243153Y-10284393D02*
X6243153Y-10236774D01*
X6243153Y-10236774D02*
X6252677Y-10198679D01*
X6252677Y-10198679D02*
X6262201Y-10179631D01*
X6262201Y-10179631D02*
X6271724Y-10170108D01*
X6271724Y-10170108D02*
X6290772Y-10160584D01*
X6443153Y-10341536D02*
X6452677Y-10351060D01*
X6452677Y-10351060D02*
X6443153Y-10360584D01*
X6443153Y-10360584D02*
X6433629Y-10351060D01*
X6433629Y-10351060D02*
X6443153Y-10341536D01*
X6443153Y-10341536D02*
X6443153Y-10360584D01*
X6519343Y-10160584D02*
X6643153Y-10160584D01*
X6643153Y-10160584D02*
X6576486Y-10236774D01*
X6576486Y-10236774D02*
X6605058Y-10236774D01*
X6605058Y-10236774D02*
X6624105Y-10246298D01*
X6624105Y-10246298D02*
X6633629Y-10255822D01*
X6633629Y-10255822D02*
X6643153Y-10274870D01*
X6643153Y-10274870D02*
X6643153Y-10322489D01*
X6643153Y-10322489D02*
X6633629Y-10341536D01*
X6633629Y-10341536D02*
X6624105Y-10351060D01*
X6624105Y-10351060D02*
X6605058Y-10360584D01*
X6605058Y-10360584D02*
X6547915Y-10360584D01*
X6547915Y-10360584D02*
X6528867Y-10351060D01*
X6528867Y-10351060D02*
X6519343Y-10341536D01*
X6766962Y-10160584D02*
X6786010Y-10160584D01*
X6786010Y-10160584D02*
X6805058Y-10170108D01*
X6805058Y-10170108D02*
X6814582Y-10179631D01*
X6814582Y-10179631D02*
X6824105Y-10198679D01*
X6824105Y-10198679D02*
X6833629Y-10236774D01*
X6833629Y-10236774D02*
X6833629Y-10284393D01*
X6833629Y-10284393D02*
X6824105Y-10322489D01*
X6824105Y-10322489D02*
X6814582Y-10341536D01*
X6814582Y-10341536D02*
X6805058Y-10351060D01*
X6805058Y-10351060D02*
X6786010Y-10360584D01*
X6786010Y-10360584D02*
X6766962Y-10360584D01*
X6766962Y-10360584D02*
X6747915Y-10351060D01*
X6747915Y-10351060D02*
X6738391Y-10341536D01*
X6738391Y-10341536D02*
X6728867Y-10322489D01*
X6728867Y-10322489D02*
X6719343Y-10284393D01*
X6719343Y-10284393D02*
X6719343Y-10236774D01*
X6719343Y-10236774D02*
X6728867Y-10198679D01*
X6728867Y-10198679D02*
X6738391Y-10179631D01*
X6738391Y-10179631D02*
X6747915Y-10170108D01*
X6747915Y-10170108D02*
X6766962Y-10160584D01*
X6957439Y-10160584D02*
X6976486Y-10160584D01*
X6976486Y-10160584D02*
X6995534Y-10170108D01*
X6995534Y-10170108D02*
X7005058Y-10179631D01*
X7005058Y-10179631D02*
X7014582Y-10198679D01*
X7014582Y-10198679D02*
X7024105Y-10236774D01*
X7024105Y-10236774D02*
X7024105Y-10284393D01*
X7024105Y-10284393D02*
X7014582Y-10322489D01*
X7014582Y-10322489D02*
X7005058Y-10341536D01*
X7005058Y-10341536D02*
X6995534Y-10351060D01*
X6995534Y-10351060D02*
X6976486Y-10360584D01*
X6976486Y-10360584D02*
X6957439Y-10360584D01*
X6957439Y-10360584D02*
X6938391Y-10351060D01*
X6938391Y-10351060D02*
X6928867Y-10341536D01*
X6928867Y-10341536D02*
X6919343Y-10322489D01*
X6919343Y-10322489D02*
X6909820Y-10284393D01*
X6909820Y-10284393D02*
X6909820Y-10236774D01*
X6909820Y-10236774D02*
X6919343Y-10198679D01*
X6919343Y-10198679D02*
X6928867Y-10179631D01*
X6928867Y-10179631D02*
X6938391Y-10170108D01*
X6938391Y-10170108D02*
X6957439Y-10160584D01*
X7109820Y-10360584D02*
X7109820Y-10227250D01*
X7109820Y-10246298D02*
X7119343Y-10236774D01*
X7119343Y-10236774D02*
X7138391Y-10227250D01*
X7138391Y-10227250D02*
X7166963Y-10227250D01*
X7166963Y-10227250D02*
X7186010Y-10236774D01*
X7186010Y-10236774D02*
X7195534Y-10255822D01*
X7195534Y-10255822D02*
X7195534Y-10360584D01*
X7195534Y-10255822D02*
X7205058Y-10236774D01*
X7205058Y-10236774D02*
X7224105Y-10227250D01*
X7224105Y-10227250D02*
X7252677Y-10227250D01*
X7252677Y-10227250D02*
X7271724Y-10236774D01*
X7271724Y-10236774D02*
X7281248Y-10255822D01*
X7281248Y-10255822D02*
X7281248Y-10360584D01*
X7376486Y-10360584D02*
X7376486Y-10227250D01*
X7376486Y-10246298D02*
X7386010Y-10236774D01*
X7386010Y-10236774D02*
X7405058Y-10227250D01*
X7405058Y-10227250D02*
X7433629Y-10227250D01*
X7433629Y-10227250D02*
X7452677Y-10236774D01*
X7452677Y-10236774D02*
X7462201Y-10255822D01*
X7462201Y-10255822D02*
X7462201Y-10360584D01*
X7462201Y-10255822D02*
X7471724Y-10236774D01*
X7471724Y-10236774D02*
X7490772Y-10227250D01*
X7490772Y-10227250D02*
X7519343Y-10227250D01*
X7519343Y-10227250D02*
X7538391Y-10236774D01*
X7538391Y-10236774D02*
X7547915Y-10255822D01*
X7547915Y-10255822D02*
X7547915Y-10360584D01*
X7938391Y-10151060D02*
X7766963Y-10408203D01*
X8195534Y-10160584D02*
X8214582Y-10160584D01*
X8214582Y-10160584D02*
X8233629Y-10170108D01*
X8233629Y-10170108D02*
X8243153Y-10179631D01*
X8243153Y-10179631D02*
X8252677Y-10198679D01*
X8252677Y-10198679D02*
X8262201Y-10236774D01*
X8262201Y-10236774D02*
X8262201Y-10284393D01*
X8262201Y-10284393D02*
X8252677Y-10322489D01*
X8252677Y-10322489D02*
X8243153Y-10341536D01*
X8243153Y-10341536D02*
X8233629Y-10351060D01*
X8233629Y-10351060D02*
X8214582Y-10360584D01*
X8214582Y-10360584D02*
X8195534Y-10360584D01*
X8195534Y-10360584D02*
X8176486Y-10351060D01*
X8176486Y-10351060D02*
X8166963Y-10341536D01*
X8166963Y-10341536D02*
X8157439Y-10322489D01*
X8157439Y-10322489D02*
X8147915Y-10284393D01*
X8147915Y-10284393D02*
X8147915Y-10236774D01*
X8147915Y-10236774D02*
X8157439Y-10198679D01*
X8157439Y-10198679D02*
X8166963Y-10179631D01*
X8166963Y-10179631D02*
X8176486Y-10170108D01*
X8176486Y-10170108D02*
X8195534Y-10160584D01*
X8347915Y-10341536D02*
X8357439Y-10351060D01*
X8357439Y-10351060D02*
X8347915Y-10360584D01*
X8347915Y-10360584D02*
X8338391Y-10351060D01*
X8338391Y-10351060D02*
X8347915Y-10341536D01*
X8347915Y-10341536D02*
X8347915Y-10360584D01*
X8481248Y-10160584D02*
X8500296Y-10160584D01*
X8500296Y-10160584D02*
X8519344Y-10170108D01*
X8519344Y-10170108D02*
X8528868Y-10179631D01*
X8528868Y-10179631D02*
X8538391Y-10198679D01*
X8538391Y-10198679D02*
X8547915Y-10236774D01*
X8547915Y-10236774D02*
X8547915Y-10284393D01*
X8547915Y-10284393D02*
X8538391Y-10322489D01*
X8538391Y-10322489D02*
X8528868Y-10341536D01*
X8528868Y-10341536D02*
X8519344Y-10351060D01*
X8519344Y-10351060D02*
X8500296Y-10360584D01*
X8500296Y-10360584D02*
X8481248Y-10360584D01*
X8481248Y-10360584D02*
X8462201Y-10351060D01*
X8462201Y-10351060D02*
X8452677Y-10341536D01*
X8452677Y-10341536D02*
X8443153Y-10322489D01*
X8443153Y-10322489D02*
X8433629Y-10284393D01*
X8433629Y-10284393D02*
X8433629Y-10236774D01*
X8433629Y-10236774D02*
X8443153Y-10198679D01*
X8443153Y-10198679D02*
X8452677Y-10179631D01*
X8452677Y-10179631D02*
X8462201Y-10170108D01*
X8462201Y-10170108D02*
X8481248Y-10160584D01*
X8738391Y-10360584D02*
X8624106Y-10360584D01*
X8681248Y-10360584D02*
X8681248Y-10160584D01*
X8681248Y-10160584D02*
X8662201Y-10189155D01*
X8662201Y-10189155D02*
X8643153Y-10208203D01*
X8643153Y-10208203D02*
X8624106Y-10217727D01*
X8928868Y-10360584D02*
X8814582Y-10360584D01*
X8871725Y-10360584D02*
X8871725Y-10160584D01*
X8871725Y-10160584D02*
X8852677Y-10189155D01*
X8852677Y-10189155D02*
X8833629Y-10208203D01*
X8833629Y-10208203D02*
X8814582Y-10217727D01*
X9043153Y-10246298D02*
X9024106Y-10236774D01*
X9024106Y-10236774D02*
X9014582Y-10227250D01*
X9014582Y-10227250D02*
X9005058Y-10208203D01*
X9005058Y-10208203D02*
X9005058Y-10198679D01*
X9005058Y-10198679D02*
X9014582Y-10179631D01*
X9014582Y-10179631D02*
X9024106Y-10170108D01*
X9024106Y-10170108D02*
X9043153Y-10160584D01*
X9043153Y-10160584D02*
X9081249Y-10160584D01*
X9081249Y-10160584D02*
X9100296Y-10170108D01*
X9100296Y-10170108D02*
X9109820Y-10179631D01*
X9109820Y-10179631D02*
X9119344Y-10198679D01*
X9119344Y-10198679D02*
X9119344Y-10208203D01*
X9119344Y-10208203D02*
X9109820Y-10227250D01*
X9109820Y-10227250D02*
X9100296Y-10236774D01*
X9100296Y-10236774D02*
X9081249Y-10246298D01*
X9081249Y-10246298D02*
X9043153Y-10246298D01*
X9043153Y-10246298D02*
X9024106Y-10255822D01*
X9024106Y-10255822D02*
X9014582Y-10265346D01*
X9014582Y-10265346D02*
X9005058Y-10284393D01*
X9005058Y-10284393D02*
X9005058Y-10322489D01*
X9005058Y-10322489D02*
X9014582Y-10341536D01*
X9014582Y-10341536D02*
X9024106Y-10351060D01*
X9024106Y-10351060D02*
X9043153Y-10360584D01*
X9043153Y-10360584D02*
X9081249Y-10360584D01*
X9081249Y-10360584D02*
X9100296Y-10351060D01*
X9100296Y-10351060D02*
X9109820Y-10341536D01*
X9109820Y-10341536D02*
X9119344Y-10322489D01*
X9119344Y-10322489D02*
X9119344Y-10284393D01*
X9119344Y-10284393D02*
X9109820Y-10265346D01*
X9109820Y-10265346D02*
X9100296Y-10255822D01*
X9100296Y-10255822D02*
X9081249Y-10246298D01*
X9195534Y-10160584D02*
X9195534Y-10198679D01*
X9271725Y-10160584D02*
X9271725Y-10198679D01*
X9566963Y-10436774D02*
X9557439Y-10427250D01*
X9557439Y-10427250D02*
X9538391Y-10398679D01*
X9538391Y-10398679D02*
X9528868Y-10379631D01*
X9528868Y-10379631D02*
X9519344Y-10351060D01*
X9519344Y-10351060D02*
X9509820Y-10303441D01*
X9509820Y-10303441D02*
X9509820Y-10265346D01*
X9509820Y-10265346D02*
X9519344Y-10217727D01*
X9519344Y-10217727D02*
X9528868Y-10189155D01*
X9528868Y-10189155D02*
X9538391Y-10170108D01*
X9538391Y-10170108D02*
X9557439Y-10141536D01*
X9557439Y-10141536D02*
X9566963Y-10132012D01*
X9624106Y-10160584D02*
X9747915Y-10160584D01*
X9747915Y-10160584D02*
X9681249Y-10236774D01*
X9681249Y-10236774D02*
X9709820Y-10236774D01*
X9709820Y-10236774D02*
X9728868Y-10246298D01*
X9728868Y-10246298D02*
X9738391Y-10255822D01*
X9738391Y-10255822D02*
X9747915Y-10274870D01*
X9747915Y-10274870D02*
X9747915Y-10322489D01*
X9747915Y-10322489D02*
X9738391Y-10341536D01*
X9738391Y-10341536D02*
X9728868Y-10351060D01*
X9728868Y-10351060D02*
X9709820Y-10360584D01*
X9709820Y-10360584D02*
X9652677Y-10360584D01*
X9652677Y-10360584D02*
X9633630Y-10351060D01*
X9633630Y-10351060D02*
X9624106Y-10341536D01*
X9986011Y-10360584D02*
X9986011Y-10160584D01*
X10071725Y-10360584D02*
X10071725Y-10255822D01*
X10071725Y-10255822D02*
X10062201Y-10236774D01*
X10062201Y-10236774D02*
X10043153Y-10227250D01*
X10043153Y-10227250D02*
X10014582Y-10227250D01*
X10014582Y-10227250D02*
X9995534Y-10236774D01*
X9995534Y-10236774D02*
X9986011Y-10246298D01*
X10195534Y-10360584D02*
X10176487Y-10351060D01*
X10176487Y-10351060D02*
X10166963Y-10341536D01*
X10166963Y-10341536D02*
X10157439Y-10322489D01*
X10157439Y-10322489D02*
X10157439Y-10265346D01*
X10157439Y-10265346D02*
X10166963Y-10246298D01*
X10166963Y-10246298D02*
X10176487Y-10236774D01*
X10176487Y-10236774D02*
X10195534Y-10227250D01*
X10195534Y-10227250D02*
X10224106Y-10227250D01*
X10224106Y-10227250D02*
X10243153Y-10236774D01*
X10243153Y-10236774D02*
X10252677Y-10246298D01*
X10252677Y-10246298D02*
X10262201Y-10265346D01*
X10262201Y-10265346D02*
X10262201Y-10322489D01*
X10262201Y-10322489D02*
X10252677Y-10341536D01*
X10252677Y-10341536D02*
X10243153Y-10351060D01*
X10243153Y-10351060D02*
X10224106Y-10360584D01*
X10224106Y-10360584D02*
X10195534Y-10360584D01*
X10376487Y-10360584D02*
X10357439Y-10351060D01*
X10357439Y-10351060D02*
X10347915Y-10332012D01*
X10347915Y-10332012D02*
X10347915Y-10160584D01*
X10528868Y-10351060D02*
X10509820Y-10360584D01*
X10509820Y-10360584D02*
X10471725Y-10360584D01*
X10471725Y-10360584D02*
X10452677Y-10351060D01*
X10452677Y-10351060D02*
X10443153Y-10332012D01*
X10443153Y-10332012D02*
X10443153Y-10255822D01*
X10443153Y-10255822D02*
X10452677Y-10236774D01*
X10452677Y-10236774D02*
X10471725Y-10227250D01*
X10471725Y-10227250D02*
X10509820Y-10227250D01*
X10509820Y-10227250D02*
X10528868Y-10236774D01*
X10528868Y-10236774D02*
X10538392Y-10255822D01*
X10538392Y-10255822D02*
X10538392Y-10274870D01*
X10538392Y-10274870D02*
X10443153Y-10293917D01*
X10614582Y-10351060D02*
X10633630Y-10360584D01*
X10633630Y-10360584D02*
X10671725Y-10360584D01*
X10671725Y-10360584D02*
X10690773Y-10351060D01*
X10690773Y-10351060D02*
X10700296Y-10332012D01*
X10700296Y-10332012D02*
X10700296Y-10322489D01*
X10700296Y-10322489D02*
X10690773Y-10303441D01*
X10690773Y-10303441D02*
X10671725Y-10293917D01*
X10671725Y-10293917D02*
X10643153Y-10293917D01*
X10643153Y-10293917D02*
X10624106Y-10284393D01*
X10624106Y-10284393D02*
X10614582Y-10265346D01*
X10614582Y-10265346D02*
X10614582Y-10255822D01*
X10614582Y-10255822D02*
X10624106Y-10236774D01*
X10624106Y-10236774D02*
X10643153Y-10227250D01*
X10643153Y-10227250D02*
X10671725Y-10227250D01*
X10671725Y-10227250D02*
X10690773Y-10236774D01*
X10766963Y-10436774D02*
X10776487Y-10427250D01*
X10776487Y-10427250D02*
X10795534Y-10398679D01*
X10795534Y-10398679D02*
X10805058Y-10379631D01*
X10805058Y-10379631D02*
X10814582Y-10351060D01*
X10814582Y-10351060D02*
X10824106Y-10303441D01*
X10824106Y-10303441D02*
X10824106Y-10265346D01*
X10824106Y-10265346D02*
X10814582Y-10217727D01*
X10814582Y-10217727D02*
X10805058Y-10189155D01*
X10805058Y-10189155D02*
X10795534Y-10170108D01*
X10795534Y-10170108D02*
X10776487Y-10141536D01*
X10776487Y-10141536D02*
X10766963Y-10132012D01*
D12*
X5991900Y-10533100D02*
G75*
G02*
X5891900Y-10533100I-50000J0D01*
G01*
X5891900Y-10533100D02*
G75*
G02*
X5991900Y-10533100I50000J0D01*
G01*
D11*
X6357439Y-10624584D02*
X6243153Y-10624584D01*
X6300296Y-10624584D02*
X6300296Y-10424584D01*
X6300296Y-10424584D02*
X6281248Y-10453155D01*
X6281248Y-10453155D02*
X6262201Y-10472203D01*
X6262201Y-10472203D02*
X6243153Y-10481727D01*
X6443153Y-10605536D02*
X6452677Y-10615060D01*
X6452677Y-10615060D02*
X6443153Y-10624584D01*
X6443153Y-10624584D02*
X6433629Y-10615060D01*
X6433629Y-10615060D02*
X6443153Y-10605536D01*
X6443153Y-10605536D02*
X6443153Y-10624584D01*
X6576486Y-10424584D02*
X6595534Y-10424584D01*
X6595534Y-10424584D02*
X6614582Y-10434108D01*
X6614582Y-10434108D02*
X6624105Y-10443631D01*
X6624105Y-10443631D02*
X6633629Y-10462679D01*
X6633629Y-10462679D02*
X6643153Y-10500774D01*
X6643153Y-10500774D02*
X6643153Y-10548393D01*
X6643153Y-10548393D02*
X6633629Y-10586489D01*
X6633629Y-10586489D02*
X6624105Y-10605536D01*
X6624105Y-10605536D02*
X6614582Y-10615060D01*
X6614582Y-10615060D02*
X6595534Y-10624584D01*
X6595534Y-10624584D02*
X6576486Y-10624584D01*
X6576486Y-10624584D02*
X6557439Y-10615060D01*
X6557439Y-10615060D02*
X6547915Y-10605536D01*
X6547915Y-10605536D02*
X6538391Y-10586489D01*
X6538391Y-10586489D02*
X6528867Y-10548393D01*
X6528867Y-10548393D02*
X6528867Y-10500774D01*
X6528867Y-10500774D02*
X6538391Y-10462679D01*
X6538391Y-10462679D02*
X6547915Y-10443631D01*
X6547915Y-10443631D02*
X6557439Y-10434108D01*
X6557439Y-10434108D02*
X6576486Y-10424584D01*
X6766962Y-10424584D02*
X6786010Y-10424584D01*
X6786010Y-10424584D02*
X6805058Y-10434108D01*
X6805058Y-10434108D02*
X6814582Y-10443631D01*
X6814582Y-10443631D02*
X6824105Y-10462679D01*
X6824105Y-10462679D02*
X6833629Y-10500774D01*
X6833629Y-10500774D02*
X6833629Y-10548393D01*
X6833629Y-10548393D02*
X6824105Y-10586489D01*
X6824105Y-10586489D02*
X6814582Y-10605536D01*
X6814582Y-10605536D02*
X6805058Y-10615060D01*
X6805058Y-10615060D02*
X6786010Y-10624584D01*
X6786010Y-10624584D02*
X6766962Y-10624584D01*
X6766962Y-10624584D02*
X6747915Y-10615060D01*
X6747915Y-10615060D02*
X6738391Y-10605536D01*
X6738391Y-10605536D02*
X6728867Y-10586489D01*
X6728867Y-10586489D02*
X6719343Y-10548393D01*
X6719343Y-10548393D02*
X6719343Y-10500774D01*
X6719343Y-10500774D02*
X6728867Y-10462679D01*
X6728867Y-10462679D02*
X6738391Y-10443631D01*
X6738391Y-10443631D02*
X6747915Y-10434108D01*
X6747915Y-10434108D02*
X6766962Y-10424584D01*
X6957439Y-10424584D02*
X6976486Y-10424584D01*
X6976486Y-10424584D02*
X6995534Y-10434108D01*
X6995534Y-10434108D02*
X7005058Y-10443631D01*
X7005058Y-10443631D02*
X7014582Y-10462679D01*
X7014582Y-10462679D02*
X7024105Y-10500774D01*
X7024105Y-10500774D02*
X7024105Y-10548393D01*
X7024105Y-10548393D02*
X7014582Y-10586489D01*
X7014582Y-10586489D02*
X7005058Y-10605536D01*
X7005058Y-10605536D02*
X6995534Y-10615060D01*
X6995534Y-10615060D02*
X6976486Y-10624584D01*
X6976486Y-10624584D02*
X6957439Y-10624584D01*
X6957439Y-10624584D02*
X6938391Y-10615060D01*
X6938391Y-10615060D02*
X6928867Y-10605536D01*
X6928867Y-10605536D02*
X6919343Y-10586489D01*
X6919343Y-10586489D02*
X6909820Y-10548393D01*
X6909820Y-10548393D02*
X6909820Y-10500774D01*
X6909820Y-10500774D02*
X6919343Y-10462679D01*
X6919343Y-10462679D02*
X6928867Y-10443631D01*
X6928867Y-10443631D02*
X6938391Y-10434108D01*
X6938391Y-10434108D02*
X6957439Y-10424584D01*
X7109820Y-10624584D02*
X7109820Y-10491250D01*
X7109820Y-10510298D02*
X7119343Y-10500774D01*
X7119343Y-10500774D02*
X7138391Y-10491250D01*
X7138391Y-10491250D02*
X7166963Y-10491250D01*
X7166963Y-10491250D02*
X7186010Y-10500774D01*
X7186010Y-10500774D02*
X7195534Y-10519822D01*
X7195534Y-10519822D02*
X7195534Y-10624584D01*
X7195534Y-10519822D02*
X7205058Y-10500774D01*
X7205058Y-10500774D02*
X7224105Y-10491250D01*
X7224105Y-10491250D02*
X7252677Y-10491250D01*
X7252677Y-10491250D02*
X7271724Y-10500774D01*
X7271724Y-10500774D02*
X7281248Y-10519822D01*
X7281248Y-10519822D02*
X7281248Y-10624584D01*
X7376486Y-10624584D02*
X7376486Y-10491250D01*
X7376486Y-10510298D02*
X7386010Y-10500774D01*
X7386010Y-10500774D02*
X7405058Y-10491250D01*
X7405058Y-10491250D02*
X7433629Y-10491250D01*
X7433629Y-10491250D02*
X7452677Y-10500774D01*
X7452677Y-10500774D02*
X7462201Y-10519822D01*
X7462201Y-10519822D02*
X7462201Y-10624584D01*
X7462201Y-10519822D02*
X7471724Y-10500774D01*
X7471724Y-10500774D02*
X7490772Y-10491250D01*
X7490772Y-10491250D02*
X7519343Y-10491250D01*
X7519343Y-10491250D02*
X7538391Y-10500774D01*
X7538391Y-10500774D02*
X7547915Y-10519822D01*
X7547915Y-10519822D02*
X7547915Y-10624584D01*
X7938391Y-10415060D02*
X7766963Y-10672203D01*
X8195534Y-10424584D02*
X8214582Y-10424584D01*
X8214582Y-10424584D02*
X8233629Y-10434108D01*
X8233629Y-10434108D02*
X8243153Y-10443631D01*
X8243153Y-10443631D02*
X8252677Y-10462679D01*
X8252677Y-10462679D02*
X8262201Y-10500774D01*
X8262201Y-10500774D02*
X8262201Y-10548393D01*
X8262201Y-10548393D02*
X8252677Y-10586489D01*
X8252677Y-10586489D02*
X8243153Y-10605536D01*
X8243153Y-10605536D02*
X8233629Y-10615060D01*
X8233629Y-10615060D02*
X8214582Y-10624584D01*
X8214582Y-10624584D02*
X8195534Y-10624584D01*
X8195534Y-10624584D02*
X8176486Y-10615060D01*
X8176486Y-10615060D02*
X8166963Y-10605536D01*
X8166963Y-10605536D02*
X8157439Y-10586489D01*
X8157439Y-10586489D02*
X8147915Y-10548393D01*
X8147915Y-10548393D02*
X8147915Y-10500774D01*
X8147915Y-10500774D02*
X8157439Y-10462679D01*
X8157439Y-10462679D02*
X8166963Y-10443631D01*
X8166963Y-10443631D02*
X8176486Y-10434108D01*
X8176486Y-10434108D02*
X8195534Y-10424584D01*
X8347915Y-10605536D02*
X8357439Y-10615060D01*
X8357439Y-10615060D02*
X8347915Y-10624584D01*
X8347915Y-10624584D02*
X8338391Y-10615060D01*
X8338391Y-10615060D02*
X8347915Y-10605536D01*
X8347915Y-10605536D02*
X8347915Y-10624584D01*
X8481248Y-10424584D02*
X8500296Y-10424584D01*
X8500296Y-10424584D02*
X8519344Y-10434108D01*
X8519344Y-10434108D02*
X8528868Y-10443631D01*
X8528868Y-10443631D02*
X8538391Y-10462679D01*
X8538391Y-10462679D02*
X8547915Y-10500774D01*
X8547915Y-10500774D02*
X8547915Y-10548393D01*
X8547915Y-10548393D02*
X8538391Y-10586489D01*
X8538391Y-10586489D02*
X8528868Y-10605536D01*
X8528868Y-10605536D02*
X8519344Y-10615060D01*
X8519344Y-10615060D02*
X8500296Y-10624584D01*
X8500296Y-10624584D02*
X8481248Y-10624584D01*
X8481248Y-10624584D02*
X8462201Y-10615060D01*
X8462201Y-10615060D02*
X8452677Y-10605536D01*
X8452677Y-10605536D02*
X8443153Y-10586489D01*
X8443153Y-10586489D02*
X8433629Y-10548393D01*
X8433629Y-10548393D02*
X8433629Y-10500774D01*
X8433629Y-10500774D02*
X8443153Y-10462679D01*
X8443153Y-10462679D02*
X8452677Y-10443631D01*
X8452677Y-10443631D02*
X8462201Y-10434108D01*
X8462201Y-10434108D02*
X8481248Y-10424584D01*
X8614582Y-10424584D02*
X8738391Y-10424584D01*
X8738391Y-10424584D02*
X8671725Y-10500774D01*
X8671725Y-10500774D02*
X8700296Y-10500774D01*
X8700296Y-10500774D02*
X8719344Y-10510298D01*
X8719344Y-10510298D02*
X8728868Y-10519822D01*
X8728868Y-10519822D02*
X8738391Y-10538870D01*
X8738391Y-10538870D02*
X8738391Y-10586489D01*
X8738391Y-10586489D02*
X8728868Y-10605536D01*
X8728868Y-10605536D02*
X8719344Y-10615060D01*
X8719344Y-10615060D02*
X8700296Y-10624584D01*
X8700296Y-10624584D02*
X8643153Y-10624584D01*
X8643153Y-10624584D02*
X8624106Y-10615060D01*
X8624106Y-10615060D02*
X8614582Y-10605536D01*
X8833629Y-10624584D02*
X8871725Y-10624584D01*
X8871725Y-10624584D02*
X8890772Y-10615060D01*
X8890772Y-10615060D02*
X8900296Y-10605536D01*
X8900296Y-10605536D02*
X8919344Y-10576965D01*
X8919344Y-10576965D02*
X8928868Y-10538870D01*
X8928868Y-10538870D02*
X8928868Y-10462679D01*
X8928868Y-10462679D02*
X8919344Y-10443631D01*
X8919344Y-10443631D02*
X8909820Y-10434108D01*
X8909820Y-10434108D02*
X8890772Y-10424584D01*
X8890772Y-10424584D02*
X8852677Y-10424584D01*
X8852677Y-10424584D02*
X8833629Y-10434108D01*
X8833629Y-10434108D02*
X8824106Y-10443631D01*
X8824106Y-10443631D02*
X8814582Y-10462679D01*
X8814582Y-10462679D02*
X8814582Y-10510298D01*
X8814582Y-10510298D02*
X8824106Y-10529346D01*
X8824106Y-10529346D02*
X8833629Y-10538870D01*
X8833629Y-10538870D02*
X8852677Y-10548393D01*
X8852677Y-10548393D02*
X8890772Y-10548393D01*
X8890772Y-10548393D02*
X8909820Y-10538870D01*
X8909820Y-10538870D02*
X8919344Y-10529346D01*
X8919344Y-10529346D02*
X8928868Y-10510298D01*
X9100296Y-10491250D02*
X9100296Y-10624584D01*
X9052677Y-10415060D02*
X9005058Y-10557917D01*
X9005058Y-10557917D02*
X9128868Y-10557917D01*
X9195534Y-10424584D02*
X9195534Y-10462679D01*
X9271725Y-10424584D02*
X9271725Y-10462679D01*
X9566963Y-10700774D02*
X9557439Y-10691250D01*
X9557439Y-10691250D02*
X9538391Y-10662679D01*
X9538391Y-10662679D02*
X9528868Y-10643631D01*
X9528868Y-10643631D02*
X9519344Y-10615060D01*
X9519344Y-10615060D02*
X9509820Y-10567441D01*
X9509820Y-10567441D02*
X9509820Y-10529346D01*
X9509820Y-10529346D02*
X9519344Y-10481727D01*
X9519344Y-10481727D02*
X9528868Y-10453155D01*
X9528868Y-10453155D02*
X9538391Y-10434108D01*
X9538391Y-10434108D02*
X9557439Y-10405536D01*
X9557439Y-10405536D02*
X9566963Y-10396012D01*
X9728868Y-10491250D02*
X9728868Y-10624584D01*
X9681249Y-10415060D02*
X9633630Y-10557917D01*
X9633630Y-10557917D02*
X9757439Y-10557917D01*
X9986011Y-10624584D02*
X9986011Y-10424584D01*
X10071725Y-10624584D02*
X10071725Y-10519822D01*
X10071725Y-10519822D02*
X10062201Y-10500774D01*
X10062201Y-10500774D02*
X10043153Y-10491250D01*
X10043153Y-10491250D02*
X10014582Y-10491250D01*
X10014582Y-10491250D02*
X9995534Y-10500774D01*
X9995534Y-10500774D02*
X9986011Y-10510298D01*
X10195534Y-10624584D02*
X10176487Y-10615060D01*
X10176487Y-10615060D02*
X10166963Y-10605536D01*
X10166963Y-10605536D02*
X10157439Y-10586489D01*
X10157439Y-10586489D02*
X10157439Y-10529346D01*
X10157439Y-10529346D02*
X10166963Y-10510298D01*
X10166963Y-10510298D02*
X10176487Y-10500774D01*
X10176487Y-10500774D02*
X10195534Y-10491250D01*
X10195534Y-10491250D02*
X10224106Y-10491250D01*
X10224106Y-10491250D02*
X10243153Y-10500774D01*
X10243153Y-10500774D02*
X10252677Y-10510298D01*
X10252677Y-10510298D02*
X10262201Y-10529346D01*
X10262201Y-10529346D02*
X10262201Y-10586489D01*
X10262201Y-10586489D02*
X10252677Y-10605536D01*
X10252677Y-10605536D02*
X10243153Y-10615060D01*
X10243153Y-10615060D02*
X10224106Y-10624584D01*
X10224106Y-10624584D02*
X10195534Y-10624584D01*
X10376487Y-10624584D02*
X10357439Y-10615060D01*
X10357439Y-10615060D02*
X10347915Y-10596012D01*
X10347915Y-10596012D02*
X10347915Y-10424584D01*
X10528868Y-10615060D02*
X10509820Y-10624584D01*
X10509820Y-10624584D02*
X10471725Y-10624584D01*
X10471725Y-10624584D02*
X10452677Y-10615060D01*
X10452677Y-10615060D02*
X10443153Y-10596012D01*
X10443153Y-10596012D02*
X10443153Y-10519822D01*
X10443153Y-10519822D02*
X10452677Y-10500774D01*
X10452677Y-10500774D02*
X10471725Y-10491250D01*
X10471725Y-10491250D02*
X10509820Y-10491250D01*
X10509820Y-10491250D02*
X10528868Y-10500774D01*
X10528868Y-10500774D02*
X10538392Y-10519822D01*
X10538392Y-10519822D02*
X10538392Y-10538870D01*
X10538392Y-10538870D02*
X10443153Y-10557917D01*
X10614582Y-10615060D02*
X10633630Y-10624584D01*
X10633630Y-10624584D02*
X10671725Y-10624584D01*
X10671725Y-10624584D02*
X10690773Y-10615060D01*
X10690773Y-10615060D02*
X10700296Y-10596012D01*
X10700296Y-10596012D02*
X10700296Y-10586489D01*
X10700296Y-10586489D02*
X10690773Y-10567441D01*
X10690773Y-10567441D02*
X10671725Y-10557917D01*
X10671725Y-10557917D02*
X10643153Y-10557917D01*
X10643153Y-10557917D02*
X10624106Y-10548393D01*
X10624106Y-10548393D02*
X10614582Y-10529346D01*
X10614582Y-10529346D02*
X10614582Y-10519822D01*
X10614582Y-10519822D02*
X10624106Y-10500774D01*
X10624106Y-10500774D02*
X10643153Y-10491250D01*
X10643153Y-10491250D02*
X10671725Y-10491250D01*
X10671725Y-10491250D02*
X10690773Y-10500774D01*
X10766963Y-10700774D02*
X10776487Y-10691250D01*
X10776487Y-10691250D02*
X10795534Y-10662679D01*
X10795534Y-10662679D02*
X10805058Y-10643631D01*
X10805058Y-10643631D02*
X10814582Y-10615060D01*
X10814582Y-10615060D02*
X10824106Y-10567441D01*
X10824106Y-10567441D02*
X10824106Y-10529346D01*
X10824106Y-10529346D02*
X10814582Y-10481727D01*
X10814582Y-10481727D02*
X10805058Y-10453155D01*
X10805058Y-10453155D02*
X10795534Y-10434108D01*
X10795534Y-10434108D02*
X10776487Y-10405536D01*
X10776487Y-10405536D02*
X10766963Y-10396012D01*
D13*
X5936900Y-10742100D02*
X5936900Y-10852100D01*
X5881900Y-10797100D02*
X5991900Y-10797100D01*
D11*
X6357439Y-10888584D02*
X6243153Y-10888584D01*
X6300296Y-10888584D02*
X6300296Y-10688584D01*
X6300296Y-10688584D02*
X6281248Y-10717155D01*
X6281248Y-10717155D02*
X6262201Y-10736203D01*
X6262201Y-10736203D02*
X6243153Y-10745727D01*
X6443153Y-10869536D02*
X6452677Y-10879060D01*
X6452677Y-10879060D02*
X6443153Y-10888584D01*
X6443153Y-10888584D02*
X6433629Y-10879060D01*
X6433629Y-10879060D02*
X6443153Y-10869536D01*
X6443153Y-10869536D02*
X6443153Y-10888584D01*
X6643153Y-10888584D02*
X6528867Y-10888584D01*
X6586010Y-10888584D02*
X6586010Y-10688584D01*
X6586010Y-10688584D02*
X6566962Y-10717155D01*
X6566962Y-10717155D02*
X6547915Y-10736203D01*
X6547915Y-10736203D02*
X6528867Y-10745727D01*
X6766962Y-10688584D02*
X6786010Y-10688584D01*
X6786010Y-10688584D02*
X6805058Y-10698108D01*
X6805058Y-10698108D02*
X6814582Y-10707631D01*
X6814582Y-10707631D02*
X6824105Y-10726679D01*
X6824105Y-10726679D02*
X6833629Y-10764774D01*
X6833629Y-10764774D02*
X6833629Y-10812393D01*
X6833629Y-10812393D02*
X6824105Y-10850489D01*
X6824105Y-10850489D02*
X6814582Y-10869536D01*
X6814582Y-10869536D02*
X6805058Y-10879060D01*
X6805058Y-10879060D02*
X6786010Y-10888584D01*
X6786010Y-10888584D02*
X6766962Y-10888584D01*
X6766962Y-10888584D02*
X6747915Y-10879060D01*
X6747915Y-10879060D02*
X6738391Y-10869536D01*
X6738391Y-10869536D02*
X6728867Y-10850489D01*
X6728867Y-10850489D02*
X6719343Y-10812393D01*
X6719343Y-10812393D02*
X6719343Y-10764774D01*
X6719343Y-10764774D02*
X6728867Y-10726679D01*
X6728867Y-10726679D02*
X6738391Y-10707631D01*
X6738391Y-10707631D02*
X6747915Y-10698108D01*
X6747915Y-10698108D02*
X6766962Y-10688584D01*
X6957439Y-10688584D02*
X6976486Y-10688584D01*
X6976486Y-10688584D02*
X6995534Y-10698108D01*
X6995534Y-10698108D02*
X7005058Y-10707631D01*
X7005058Y-10707631D02*
X7014582Y-10726679D01*
X7014582Y-10726679D02*
X7024105Y-10764774D01*
X7024105Y-10764774D02*
X7024105Y-10812393D01*
X7024105Y-10812393D02*
X7014582Y-10850489D01*
X7014582Y-10850489D02*
X7005058Y-10869536D01*
X7005058Y-10869536D02*
X6995534Y-10879060D01*
X6995534Y-10879060D02*
X6976486Y-10888584D01*
X6976486Y-10888584D02*
X6957439Y-10888584D01*
X6957439Y-10888584D02*
X6938391Y-10879060D01*
X6938391Y-10879060D02*
X6928867Y-10869536D01*
X6928867Y-10869536D02*
X6919343Y-10850489D01*
X6919343Y-10850489D02*
X6909820Y-10812393D01*
X6909820Y-10812393D02*
X6909820Y-10764774D01*
X6909820Y-10764774D02*
X6919343Y-10726679D01*
X6919343Y-10726679D02*
X6928867Y-10707631D01*
X6928867Y-10707631D02*
X6938391Y-10698108D01*
X6938391Y-10698108D02*
X6957439Y-10688584D01*
X7109820Y-10888584D02*
X7109820Y-10755250D01*
X7109820Y-10774298D02*
X7119343Y-10764774D01*
X7119343Y-10764774D02*
X7138391Y-10755250D01*
X7138391Y-10755250D02*
X7166963Y-10755250D01*
X7166963Y-10755250D02*
X7186010Y-10764774D01*
X7186010Y-10764774D02*
X7195534Y-10783822D01*
X7195534Y-10783822D02*
X7195534Y-10888584D01*
X7195534Y-10783822D02*
X7205058Y-10764774D01*
X7205058Y-10764774D02*
X7224105Y-10755250D01*
X7224105Y-10755250D02*
X7252677Y-10755250D01*
X7252677Y-10755250D02*
X7271724Y-10764774D01*
X7271724Y-10764774D02*
X7281248Y-10783822D01*
X7281248Y-10783822D02*
X7281248Y-10888584D01*
X7376486Y-10888584D02*
X7376486Y-10755250D01*
X7376486Y-10774298D02*
X7386010Y-10764774D01*
X7386010Y-10764774D02*
X7405058Y-10755250D01*
X7405058Y-10755250D02*
X7433629Y-10755250D01*
X7433629Y-10755250D02*
X7452677Y-10764774D01*
X7452677Y-10764774D02*
X7462201Y-10783822D01*
X7462201Y-10783822D02*
X7462201Y-10888584D01*
X7462201Y-10783822D02*
X7471724Y-10764774D01*
X7471724Y-10764774D02*
X7490772Y-10755250D01*
X7490772Y-10755250D02*
X7519343Y-10755250D01*
X7519343Y-10755250D02*
X7538391Y-10764774D01*
X7538391Y-10764774D02*
X7547915Y-10783822D01*
X7547915Y-10783822D02*
X7547915Y-10888584D01*
X7938391Y-10679060D02*
X7766963Y-10936203D01*
X8195534Y-10688584D02*
X8214582Y-10688584D01*
X8214582Y-10688584D02*
X8233629Y-10698108D01*
X8233629Y-10698108D02*
X8243153Y-10707631D01*
X8243153Y-10707631D02*
X8252677Y-10726679D01*
X8252677Y-10726679D02*
X8262201Y-10764774D01*
X8262201Y-10764774D02*
X8262201Y-10812393D01*
X8262201Y-10812393D02*
X8252677Y-10850489D01*
X8252677Y-10850489D02*
X8243153Y-10869536D01*
X8243153Y-10869536D02*
X8233629Y-10879060D01*
X8233629Y-10879060D02*
X8214582Y-10888584D01*
X8214582Y-10888584D02*
X8195534Y-10888584D01*
X8195534Y-10888584D02*
X8176486Y-10879060D01*
X8176486Y-10879060D02*
X8166963Y-10869536D01*
X8166963Y-10869536D02*
X8157439Y-10850489D01*
X8157439Y-10850489D02*
X8147915Y-10812393D01*
X8147915Y-10812393D02*
X8147915Y-10764774D01*
X8147915Y-10764774D02*
X8157439Y-10726679D01*
X8157439Y-10726679D02*
X8166963Y-10707631D01*
X8166963Y-10707631D02*
X8176486Y-10698108D01*
X8176486Y-10698108D02*
X8195534Y-10688584D01*
X8347915Y-10869536D02*
X8357439Y-10879060D01*
X8357439Y-10879060D02*
X8347915Y-10888584D01*
X8347915Y-10888584D02*
X8338391Y-10879060D01*
X8338391Y-10879060D02*
X8347915Y-10869536D01*
X8347915Y-10869536D02*
X8347915Y-10888584D01*
X8481248Y-10688584D02*
X8500296Y-10688584D01*
X8500296Y-10688584D02*
X8519344Y-10698108D01*
X8519344Y-10698108D02*
X8528868Y-10707631D01*
X8528868Y-10707631D02*
X8538391Y-10726679D01*
X8538391Y-10726679D02*
X8547915Y-10764774D01*
X8547915Y-10764774D02*
X8547915Y-10812393D01*
X8547915Y-10812393D02*
X8538391Y-10850489D01*
X8538391Y-10850489D02*
X8528868Y-10869536D01*
X8528868Y-10869536D02*
X8519344Y-10879060D01*
X8519344Y-10879060D02*
X8500296Y-10888584D01*
X8500296Y-10888584D02*
X8481248Y-10888584D01*
X8481248Y-10888584D02*
X8462201Y-10879060D01*
X8462201Y-10879060D02*
X8452677Y-10869536D01*
X8452677Y-10869536D02*
X8443153Y-10850489D01*
X8443153Y-10850489D02*
X8433629Y-10812393D01*
X8433629Y-10812393D02*
X8433629Y-10764774D01*
X8433629Y-10764774D02*
X8443153Y-10726679D01*
X8443153Y-10726679D02*
X8452677Y-10707631D01*
X8452677Y-10707631D02*
X8462201Y-10698108D01*
X8462201Y-10698108D02*
X8481248Y-10688584D01*
X8719344Y-10755250D02*
X8719344Y-10888584D01*
X8671725Y-10679060D02*
X8624106Y-10821917D01*
X8624106Y-10821917D02*
X8747915Y-10821917D01*
X8805058Y-10688584D02*
X8928868Y-10688584D01*
X8928868Y-10688584D02*
X8862201Y-10764774D01*
X8862201Y-10764774D02*
X8890772Y-10764774D01*
X8890772Y-10764774D02*
X8909820Y-10774298D01*
X8909820Y-10774298D02*
X8919344Y-10783822D01*
X8919344Y-10783822D02*
X8928868Y-10802870D01*
X8928868Y-10802870D02*
X8928868Y-10850489D01*
X8928868Y-10850489D02*
X8919344Y-10869536D01*
X8919344Y-10869536D02*
X8909820Y-10879060D01*
X8909820Y-10879060D02*
X8890772Y-10888584D01*
X8890772Y-10888584D02*
X8833629Y-10888584D01*
X8833629Y-10888584D02*
X8814582Y-10879060D01*
X8814582Y-10879060D02*
X8805058Y-10869536D01*
X8995534Y-10688584D02*
X9119344Y-10688584D01*
X9119344Y-10688584D02*
X9052677Y-10764774D01*
X9052677Y-10764774D02*
X9081249Y-10764774D01*
X9081249Y-10764774D02*
X9100296Y-10774298D01*
X9100296Y-10774298D02*
X9109820Y-10783822D01*
X9109820Y-10783822D02*
X9119344Y-10802870D01*
X9119344Y-10802870D02*
X9119344Y-10850489D01*
X9119344Y-10850489D02*
X9109820Y-10869536D01*
X9109820Y-10869536D02*
X9100296Y-10879060D01*
X9100296Y-10879060D02*
X9081249Y-10888584D01*
X9081249Y-10888584D02*
X9024106Y-10888584D01*
X9024106Y-10888584D02*
X9005058Y-10879060D01*
X9005058Y-10879060D02*
X8995534Y-10869536D01*
X9195534Y-10688584D02*
X9195534Y-10726679D01*
X9271725Y-10688584D02*
X9271725Y-10726679D01*
X9566963Y-10964774D02*
X9557439Y-10955250D01*
X9557439Y-10955250D02*
X9538391Y-10926679D01*
X9538391Y-10926679D02*
X9528868Y-10907631D01*
X9528868Y-10907631D02*
X9519344Y-10879060D01*
X9519344Y-10879060D02*
X9509820Y-10831441D01*
X9509820Y-10831441D02*
X9509820Y-10793346D01*
X9509820Y-10793346D02*
X9519344Y-10745727D01*
X9519344Y-10745727D02*
X9528868Y-10717155D01*
X9528868Y-10717155D02*
X9538391Y-10698108D01*
X9538391Y-10698108D02*
X9557439Y-10669536D01*
X9557439Y-10669536D02*
X9566963Y-10660012D01*
X9728868Y-10755250D02*
X9728868Y-10888584D01*
X9681249Y-10679060D02*
X9633630Y-10821917D01*
X9633630Y-10821917D02*
X9757439Y-10821917D01*
X9919344Y-10755250D02*
X9919344Y-10888584D01*
X9871725Y-10679060D02*
X9824106Y-10821917D01*
X9824106Y-10821917D02*
X9947915Y-10821917D01*
X10176487Y-10888584D02*
X10176487Y-10688584D01*
X10262201Y-10888584D02*
X10262201Y-10783822D01*
X10262201Y-10783822D02*
X10252677Y-10764774D01*
X10252677Y-10764774D02*
X10233630Y-10755250D01*
X10233630Y-10755250D02*
X10205058Y-10755250D01*
X10205058Y-10755250D02*
X10186011Y-10764774D01*
X10186011Y-10764774D02*
X10176487Y-10774298D01*
X10386011Y-10888584D02*
X10366963Y-10879060D01*
X10366963Y-10879060D02*
X10357439Y-10869536D01*
X10357439Y-10869536D02*
X10347915Y-10850489D01*
X10347915Y-10850489D02*
X10347915Y-10793346D01*
X10347915Y-10793346D02*
X10357439Y-10774298D01*
X10357439Y-10774298D02*
X10366963Y-10764774D01*
X10366963Y-10764774D02*
X10386011Y-10755250D01*
X10386011Y-10755250D02*
X10414582Y-10755250D01*
X10414582Y-10755250D02*
X10433630Y-10764774D01*
X10433630Y-10764774D02*
X10443153Y-10774298D01*
X10443153Y-10774298D02*
X10452677Y-10793346D01*
X10452677Y-10793346D02*
X10452677Y-10850489D01*
X10452677Y-10850489D02*
X10443153Y-10869536D01*
X10443153Y-10869536D02*
X10433630Y-10879060D01*
X10433630Y-10879060D02*
X10414582Y-10888584D01*
X10414582Y-10888584D02*
X10386011Y-10888584D01*
X10566963Y-10888584D02*
X10547915Y-10879060D01*
X10547915Y-10879060D02*
X10538392Y-10860012D01*
X10538392Y-10860012D02*
X10538392Y-10688584D01*
X10719344Y-10879060D02*
X10700296Y-10888584D01*
X10700296Y-10888584D02*
X10662201Y-10888584D01*
X10662201Y-10888584D02*
X10643153Y-10879060D01*
X10643153Y-10879060D02*
X10633630Y-10860012D01*
X10633630Y-10860012D02*
X10633630Y-10783822D01*
X10633630Y-10783822D02*
X10643153Y-10764774D01*
X10643153Y-10764774D02*
X10662201Y-10755250D01*
X10662201Y-10755250D02*
X10700296Y-10755250D01*
X10700296Y-10755250D02*
X10719344Y-10764774D01*
X10719344Y-10764774D02*
X10728868Y-10783822D01*
X10728868Y-10783822D02*
X10728868Y-10802870D01*
X10728868Y-10802870D02*
X10633630Y-10821917D01*
X10805058Y-10879060D02*
X10824106Y-10888584D01*
X10824106Y-10888584D02*
X10862201Y-10888584D01*
X10862201Y-10888584D02*
X10881249Y-10879060D01*
X10881249Y-10879060D02*
X10890773Y-10860012D01*
X10890773Y-10860012D02*
X10890773Y-10850489D01*
X10890773Y-10850489D02*
X10881249Y-10831441D01*
X10881249Y-10831441D02*
X10862201Y-10821917D01*
X10862201Y-10821917D02*
X10833630Y-10821917D01*
X10833630Y-10821917D02*
X10814582Y-10812393D01*
X10814582Y-10812393D02*
X10805058Y-10793346D01*
X10805058Y-10793346D02*
X10805058Y-10783822D01*
X10805058Y-10783822D02*
X10814582Y-10764774D01*
X10814582Y-10764774D02*
X10833630Y-10755250D01*
X10833630Y-10755250D02*
X10862201Y-10755250D01*
X10862201Y-10755250D02*
X10881249Y-10764774D01*
X10957439Y-10964774D02*
X10966963Y-10955250D01*
X10966963Y-10955250D02*
X10986011Y-10926679D01*
X10986011Y-10926679D02*
X10995534Y-10907631D01*
X10995534Y-10907631D02*
X11005058Y-10879060D01*
X11005058Y-10879060D02*
X11014582Y-10831441D01*
X11014582Y-10831441D02*
X11014582Y-10793346D01*
X11014582Y-10793346D02*
X11005058Y-10745727D01*
X11005058Y-10745727D02*
X10995534Y-10717155D01*
X10995534Y-10717155D02*
X10986011Y-10698108D01*
X10986011Y-10698108D02*
X10966963Y-10669536D01*
X10966963Y-10669536D02*
X10957439Y-10660012D01*
D14*
X5969933Y-11114134D02*
X5969933Y-11008067D01*
X5863866Y-11008067D01*
X5863866Y-11114134D01*
X5969933Y-11114134D01*
D11*
X6357439Y-11152584D02*
X6243153Y-11152584D01*
X6300296Y-11152584D02*
X6300296Y-10952584D01*
X6300296Y-10952584D02*
X6281248Y-10981155D01*
X6281248Y-10981155D02*
X6262201Y-11000203D01*
X6262201Y-11000203D02*
X6243153Y-11009727D01*
X6443153Y-11133536D02*
X6452677Y-11143060D01*
X6452677Y-11143060D02*
X6443153Y-11152584D01*
X6443153Y-11152584D02*
X6433629Y-11143060D01*
X6433629Y-11143060D02*
X6443153Y-11133536D01*
X6443153Y-11133536D02*
X6443153Y-11152584D01*
X6633629Y-10952584D02*
X6538391Y-10952584D01*
X6538391Y-10952584D02*
X6528867Y-11047822D01*
X6528867Y-11047822D02*
X6538391Y-11038298D01*
X6538391Y-11038298D02*
X6557439Y-11028774D01*
X6557439Y-11028774D02*
X6605058Y-11028774D01*
X6605058Y-11028774D02*
X6624105Y-11038298D01*
X6624105Y-11038298D02*
X6633629Y-11047822D01*
X6633629Y-11047822D02*
X6643153Y-11066870D01*
X6643153Y-11066870D02*
X6643153Y-11114489D01*
X6643153Y-11114489D02*
X6633629Y-11133536D01*
X6633629Y-11133536D02*
X6624105Y-11143060D01*
X6624105Y-11143060D02*
X6605058Y-11152584D01*
X6605058Y-11152584D02*
X6557439Y-11152584D01*
X6557439Y-11152584D02*
X6538391Y-11143060D01*
X6538391Y-11143060D02*
X6528867Y-11133536D01*
X6766962Y-10952584D02*
X6786010Y-10952584D01*
X6786010Y-10952584D02*
X6805058Y-10962108D01*
X6805058Y-10962108D02*
X6814582Y-10971631D01*
X6814582Y-10971631D02*
X6824105Y-10990679D01*
X6824105Y-10990679D02*
X6833629Y-11028774D01*
X6833629Y-11028774D02*
X6833629Y-11076393D01*
X6833629Y-11076393D02*
X6824105Y-11114489D01*
X6824105Y-11114489D02*
X6814582Y-11133536D01*
X6814582Y-11133536D02*
X6805058Y-11143060D01*
X6805058Y-11143060D02*
X6786010Y-11152584D01*
X6786010Y-11152584D02*
X6766962Y-11152584D01*
X6766962Y-11152584D02*
X6747915Y-11143060D01*
X6747915Y-11143060D02*
X6738391Y-11133536D01*
X6738391Y-11133536D02*
X6728867Y-11114489D01*
X6728867Y-11114489D02*
X6719343Y-11076393D01*
X6719343Y-11076393D02*
X6719343Y-11028774D01*
X6719343Y-11028774D02*
X6728867Y-10990679D01*
X6728867Y-10990679D02*
X6738391Y-10971631D01*
X6738391Y-10971631D02*
X6747915Y-10962108D01*
X6747915Y-10962108D02*
X6766962Y-10952584D01*
X6957439Y-10952584D02*
X6976486Y-10952584D01*
X6976486Y-10952584D02*
X6995534Y-10962108D01*
X6995534Y-10962108D02*
X7005058Y-10971631D01*
X7005058Y-10971631D02*
X7014582Y-10990679D01*
X7014582Y-10990679D02*
X7024105Y-11028774D01*
X7024105Y-11028774D02*
X7024105Y-11076393D01*
X7024105Y-11076393D02*
X7014582Y-11114489D01*
X7014582Y-11114489D02*
X7005058Y-11133536D01*
X7005058Y-11133536D02*
X6995534Y-11143060D01*
X6995534Y-11143060D02*
X6976486Y-11152584D01*
X6976486Y-11152584D02*
X6957439Y-11152584D01*
X6957439Y-11152584D02*
X6938391Y-11143060D01*
X6938391Y-11143060D02*
X6928867Y-11133536D01*
X6928867Y-11133536D02*
X6919343Y-11114489D01*
X6919343Y-11114489D02*
X6909820Y-11076393D01*
X6909820Y-11076393D02*
X6909820Y-11028774D01*
X6909820Y-11028774D02*
X6919343Y-10990679D01*
X6919343Y-10990679D02*
X6928867Y-10971631D01*
X6928867Y-10971631D02*
X6938391Y-10962108D01*
X6938391Y-10962108D02*
X6957439Y-10952584D01*
X7109820Y-11152584D02*
X7109820Y-11019250D01*
X7109820Y-11038298D02*
X7119343Y-11028774D01*
X7119343Y-11028774D02*
X7138391Y-11019250D01*
X7138391Y-11019250D02*
X7166963Y-11019250D01*
X7166963Y-11019250D02*
X7186010Y-11028774D01*
X7186010Y-11028774D02*
X7195534Y-11047822D01*
X7195534Y-11047822D02*
X7195534Y-11152584D01*
X7195534Y-11047822D02*
X7205058Y-11028774D01*
X7205058Y-11028774D02*
X7224105Y-11019250D01*
X7224105Y-11019250D02*
X7252677Y-11019250D01*
X7252677Y-11019250D02*
X7271724Y-11028774D01*
X7271724Y-11028774D02*
X7281248Y-11047822D01*
X7281248Y-11047822D02*
X7281248Y-11152584D01*
X7376486Y-11152584D02*
X7376486Y-11019250D01*
X7376486Y-11038298D02*
X7386010Y-11028774D01*
X7386010Y-11028774D02*
X7405058Y-11019250D01*
X7405058Y-11019250D02*
X7433629Y-11019250D01*
X7433629Y-11019250D02*
X7452677Y-11028774D01*
X7452677Y-11028774D02*
X7462201Y-11047822D01*
X7462201Y-11047822D02*
X7462201Y-11152584D01*
X7462201Y-11047822D02*
X7471724Y-11028774D01*
X7471724Y-11028774D02*
X7490772Y-11019250D01*
X7490772Y-11019250D02*
X7519343Y-11019250D01*
X7519343Y-11019250D02*
X7538391Y-11028774D01*
X7538391Y-11028774D02*
X7547915Y-11047822D01*
X7547915Y-11047822D02*
X7547915Y-11152584D01*
X7938391Y-10943060D02*
X7766963Y-11200203D01*
X8195534Y-10952584D02*
X8214582Y-10952584D01*
X8214582Y-10952584D02*
X8233629Y-10962108D01*
X8233629Y-10962108D02*
X8243153Y-10971631D01*
X8243153Y-10971631D02*
X8252677Y-10990679D01*
X8252677Y-10990679D02*
X8262201Y-11028774D01*
X8262201Y-11028774D02*
X8262201Y-11076393D01*
X8262201Y-11076393D02*
X8252677Y-11114489D01*
X8252677Y-11114489D02*
X8243153Y-11133536D01*
X8243153Y-11133536D02*
X8233629Y-11143060D01*
X8233629Y-11143060D02*
X8214582Y-11152584D01*
X8214582Y-11152584D02*
X8195534Y-11152584D01*
X8195534Y-11152584D02*
X8176486Y-11143060D01*
X8176486Y-11143060D02*
X8166963Y-11133536D01*
X8166963Y-11133536D02*
X8157439Y-11114489D01*
X8157439Y-11114489D02*
X8147915Y-11076393D01*
X8147915Y-11076393D02*
X8147915Y-11028774D01*
X8147915Y-11028774D02*
X8157439Y-10990679D01*
X8157439Y-10990679D02*
X8166963Y-10971631D01*
X8166963Y-10971631D02*
X8176486Y-10962108D01*
X8176486Y-10962108D02*
X8195534Y-10952584D01*
X8347915Y-11133536D02*
X8357439Y-11143060D01*
X8357439Y-11143060D02*
X8347915Y-11152584D01*
X8347915Y-11152584D02*
X8338391Y-11143060D01*
X8338391Y-11143060D02*
X8347915Y-11133536D01*
X8347915Y-11133536D02*
X8347915Y-11152584D01*
X8481248Y-10952584D02*
X8500296Y-10952584D01*
X8500296Y-10952584D02*
X8519344Y-10962108D01*
X8519344Y-10962108D02*
X8528868Y-10971631D01*
X8528868Y-10971631D02*
X8538391Y-10990679D01*
X8538391Y-10990679D02*
X8547915Y-11028774D01*
X8547915Y-11028774D02*
X8547915Y-11076393D01*
X8547915Y-11076393D02*
X8538391Y-11114489D01*
X8538391Y-11114489D02*
X8528868Y-11133536D01*
X8528868Y-11133536D02*
X8519344Y-11143060D01*
X8519344Y-11143060D02*
X8500296Y-11152584D01*
X8500296Y-11152584D02*
X8481248Y-11152584D01*
X8481248Y-11152584D02*
X8462201Y-11143060D01*
X8462201Y-11143060D02*
X8452677Y-11133536D01*
X8452677Y-11133536D02*
X8443153Y-11114489D01*
X8443153Y-11114489D02*
X8433629Y-11076393D01*
X8433629Y-11076393D02*
X8433629Y-11028774D01*
X8433629Y-11028774D02*
X8443153Y-10990679D01*
X8443153Y-10990679D02*
X8452677Y-10971631D01*
X8452677Y-10971631D02*
X8462201Y-10962108D01*
X8462201Y-10962108D02*
X8481248Y-10952584D01*
X8728868Y-10952584D02*
X8633629Y-10952584D01*
X8633629Y-10952584D02*
X8624106Y-11047822D01*
X8624106Y-11047822D02*
X8633629Y-11038298D01*
X8633629Y-11038298D02*
X8652677Y-11028774D01*
X8652677Y-11028774D02*
X8700296Y-11028774D01*
X8700296Y-11028774D02*
X8719344Y-11038298D01*
X8719344Y-11038298D02*
X8728868Y-11047822D01*
X8728868Y-11047822D02*
X8738391Y-11066870D01*
X8738391Y-11066870D02*
X8738391Y-11114489D01*
X8738391Y-11114489D02*
X8728868Y-11133536D01*
X8728868Y-11133536D02*
X8719344Y-11143060D01*
X8719344Y-11143060D02*
X8700296Y-11152584D01*
X8700296Y-11152584D02*
X8652677Y-11152584D01*
X8652677Y-11152584D02*
X8633629Y-11143060D01*
X8633629Y-11143060D02*
X8624106Y-11133536D01*
X8833629Y-11152584D02*
X8871725Y-11152584D01*
X8871725Y-11152584D02*
X8890772Y-11143060D01*
X8890772Y-11143060D02*
X8900296Y-11133536D01*
X8900296Y-11133536D02*
X8919344Y-11104965D01*
X8919344Y-11104965D02*
X8928868Y-11066870D01*
X8928868Y-11066870D02*
X8928868Y-10990679D01*
X8928868Y-10990679D02*
X8919344Y-10971631D01*
X8919344Y-10971631D02*
X8909820Y-10962108D01*
X8909820Y-10962108D02*
X8890772Y-10952584D01*
X8890772Y-10952584D02*
X8852677Y-10952584D01*
X8852677Y-10952584D02*
X8833629Y-10962108D01*
X8833629Y-10962108D02*
X8824106Y-10971631D01*
X8824106Y-10971631D02*
X8814582Y-10990679D01*
X8814582Y-10990679D02*
X8814582Y-11038298D01*
X8814582Y-11038298D02*
X8824106Y-11057346D01*
X8824106Y-11057346D02*
X8833629Y-11066870D01*
X8833629Y-11066870D02*
X8852677Y-11076393D01*
X8852677Y-11076393D02*
X8890772Y-11076393D01*
X8890772Y-11076393D02*
X8909820Y-11066870D01*
X8909820Y-11066870D02*
X8919344Y-11057346D01*
X8919344Y-11057346D02*
X8928868Y-11038298D01*
X9119344Y-11152584D02*
X9005058Y-11152584D01*
X9062201Y-11152584D02*
X9062201Y-10952584D01*
X9062201Y-10952584D02*
X9043153Y-10981155D01*
X9043153Y-10981155D02*
X9024106Y-11000203D01*
X9024106Y-11000203D02*
X9005058Y-11009727D01*
X9195534Y-10952584D02*
X9195534Y-10990679D01*
X9271725Y-10952584D02*
X9271725Y-10990679D01*
X9566963Y-11228774D02*
X9557439Y-11219250D01*
X9557439Y-11219250D02*
X9538391Y-11190679D01*
X9538391Y-11190679D02*
X9528868Y-11171631D01*
X9528868Y-11171631D02*
X9519344Y-11143060D01*
X9519344Y-11143060D02*
X9509820Y-11095441D01*
X9509820Y-11095441D02*
X9509820Y-11057346D01*
X9509820Y-11057346D02*
X9519344Y-11009727D01*
X9519344Y-11009727D02*
X9528868Y-10981155D01*
X9528868Y-10981155D02*
X9538391Y-10962108D01*
X9538391Y-10962108D02*
X9557439Y-10933536D01*
X9557439Y-10933536D02*
X9566963Y-10924012D01*
X9747915Y-11152584D02*
X9633630Y-11152584D01*
X9690772Y-11152584D02*
X9690772Y-10952584D01*
X9690772Y-10952584D02*
X9671725Y-10981155D01*
X9671725Y-10981155D02*
X9652677Y-11000203D01*
X9652677Y-11000203D02*
X9633630Y-11009727D01*
X9919344Y-10952584D02*
X9881249Y-10952584D01*
X9881249Y-10952584D02*
X9862201Y-10962108D01*
X9862201Y-10962108D02*
X9852677Y-10971631D01*
X9852677Y-10971631D02*
X9833630Y-11000203D01*
X9833630Y-11000203D02*
X9824106Y-11038298D01*
X9824106Y-11038298D02*
X9824106Y-11114489D01*
X9824106Y-11114489D02*
X9833630Y-11133536D01*
X9833630Y-11133536D02*
X9843153Y-11143060D01*
X9843153Y-11143060D02*
X9862201Y-11152584D01*
X9862201Y-11152584D02*
X9900296Y-11152584D01*
X9900296Y-11152584D02*
X9919344Y-11143060D01*
X9919344Y-11143060D02*
X9928868Y-11133536D01*
X9928868Y-11133536D02*
X9938391Y-11114489D01*
X9938391Y-11114489D02*
X9938391Y-11066870D01*
X9938391Y-11066870D02*
X9928868Y-11047822D01*
X9928868Y-11047822D02*
X9919344Y-11038298D01*
X9919344Y-11038298D02*
X9900296Y-11028774D01*
X9900296Y-11028774D02*
X9862201Y-11028774D01*
X9862201Y-11028774D02*
X9843153Y-11038298D01*
X9843153Y-11038298D02*
X9833630Y-11047822D01*
X9833630Y-11047822D02*
X9824106Y-11066870D01*
X10176487Y-11152584D02*
X10176487Y-10952584D01*
X10262201Y-11152584D02*
X10262201Y-11047822D01*
X10262201Y-11047822D02*
X10252677Y-11028774D01*
X10252677Y-11028774D02*
X10233630Y-11019250D01*
X10233630Y-11019250D02*
X10205058Y-11019250D01*
X10205058Y-11019250D02*
X10186011Y-11028774D01*
X10186011Y-11028774D02*
X10176487Y-11038298D01*
X10386011Y-11152584D02*
X10366963Y-11143060D01*
X10366963Y-11143060D02*
X10357439Y-11133536D01*
X10357439Y-11133536D02*
X10347915Y-11114489D01*
X10347915Y-11114489D02*
X10347915Y-11057346D01*
X10347915Y-11057346D02*
X10357439Y-11038298D01*
X10357439Y-11038298D02*
X10366963Y-11028774D01*
X10366963Y-11028774D02*
X10386011Y-11019250D01*
X10386011Y-11019250D02*
X10414582Y-11019250D01*
X10414582Y-11019250D02*
X10433630Y-11028774D01*
X10433630Y-11028774D02*
X10443153Y-11038298D01*
X10443153Y-11038298D02*
X10452677Y-11057346D01*
X10452677Y-11057346D02*
X10452677Y-11114489D01*
X10452677Y-11114489D02*
X10443153Y-11133536D01*
X10443153Y-11133536D02*
X10433630Y-11143060D01*
X10433630Y-11143060D02*
X10414582Y-11152584D01*
X10414582Y-11152584D02*
X10386011Y-11152584D01*
X10566963Y-11152584D02*
X10547915Y-11143060D01*
X10547915Y-11143060D02*
X10538392Y-11124012D01*
X10538392Y-11124012D02*
X10538392Y-10952584D01*
X10719344Y-11143060D02*
X10700296Y-11152584D01*
X10700296Y-11152584D02*
X10662201Y-11152584D01*
X10662201Y-11152584D02*
X10643153Y-11143060D01*
X10643153Y-11143060D02*
X10633630Y-11124012D01*
X10633630Y-11124012D02*
X10633630Y-11047822D01*
X10633630Y-11047822D02*
X10643153Y-11028774D01*
X10643153Y-11028774D02*
X10662201Y-11019250D01*
X10662201Y-11019250D02*
X10700296Y-11019250D01*
X10700296Y-11019250D02*
X10719344Y-11028774D01*
X10719344Y-11028774D02*
X10728868Y-11047822D01*
X10728868Y-11047822D02*
X10728868Y-11066870D01*
X10728868Y-11066870D02*
X10633630Y-11085917D01*
X10805058Y-11143060D02*
X10824106Y-11152584D01*
X10824106Y-11152584D02*
X10862201Y-11152584D01*
X10862201Y-11152584D02*
X10881249Y-11143060D01*
X10881249Y-11143060D02*
X10890773Y-11124012D01*
X10890773Y-11124012D02*
X10890773Y-11114489D01*
X10890773Y-11114489D02*
X10881249Y-11095441D01*
X10881249Y-11095441D02*
X10862201Y-11085917D01*
X10862201Y-11085917D02*
X10833630Y-11085917D01*
X10833630Y-11085917D02*
X10814582Y-11076393D01*
X10814582Y-11076393D02*
X10805058Y-11057346D01*
X10805058Y-11057346D02*
X10805058Y-11047822D01*
X10805058Y-11047822D02*
X10814582Y-11028774D01*
X10814582Y-11028774D02*
X10833630Y-11019250D01*
X10833630Y-11019250D02*
X10862201Y-11019250D01*
X10862201Y-11019250D02*
X10881249Y-11028774D01*
X10957439Y-11228774D02*
X10966963Y-11219250D01*
X10966963Y-11219250D02*
X10986011Y-11190679D01*
X10986011Y-11190679D02*
X10995534Y-11171631D01*
X10995534Y-11171631D02*
X11005058Y-11143060D01*
X11005058Y-11143060D02*
X11014582Y-11095441D01*
X11014582Y-11095441D02*
X11014582Y-11057346D01*
X11014582Y-11057346D02*
X11005058Y-11009727D01*
X11005058Y-11009727D02*
X10995534Y-10981155D01*
X10995534Y-10981155D02*
X10986011Y-10962108D01*
X10986011Y-10962108D02*
X10966963Y-10933536D01*
X10966963Y-10933536D02*
X10957439Y-10924012D01*
M02*
