M48
; DRILL file {KiCad 8.0.5} date 2024-10-03T21:29:42+0200
; FORMAT={-:-/ absolute / inch / decimal}
; #@! TF.CreationDate,2024-10-03T21:29:42+02:00
; #@! TF.GenerationSoftware,Kicad,Pcbnew,8.0.5
; #@! TF.FileFunction,Plated,1,2,PTH
FMAT,2
INCH
; #@! TA.AperFunction,Plated,PTH,ViaDrill
T1C0.0118
; #@! TA.AperFunction,Plated,PTH,ComponentDrill
T2C0.0394
; #@! TA.AperFunction,Plated,PTH,ComponentDrill
T3C0.0433
; #@! TA.AperFunction,Plated,PTH,ComponentDrill
T4C0.0591
%
G90
G05
T1
X3.42Y-2.8
X4.17Y-2.75
X4.92Y-2.7
T2
X6.14Y-3.53
X6.24Y-3.53
X6.34Y-3.53
X6.44Y-3.53
T3
X2.87Y-1.9
X2.87Y-3.59
X3.27Y-1.9
X3.27Y-3.59
X3.61Y-3.59
X3.62Y-1.9
X4.01Y-3.59
X4.02Y-1.9
X4.37Y-1.9
X4.38Y-3.59
X4.77Y-1.9
X4.78Y-3.59
X5.11Y-3.59
X5.12Y-1.9
X5.51Y-3.59
X5.52Y-1.9
X5.83Y-2.44
X5.83Y-3.04
X5.93Y-2.44
X5.93Y-3.04
X6.03Y-2.44
X6.03Y-3.04
X6.13Y-2.44
X6.13Y-3.04
X6.23Y-2.44
X6.23Y-3.04
X6.33Y-2.44
X6.33Y-3.04
X6.43Y-2.44
X6.43Y-3.04
X6.53Y-2.44
X6.53Y-3.04
X6.622Y-3.2014
X6.622Y-3.3786
X6.63Y-2.44
X6.63Y-3.04
X6.73Y-2.44
X6.73Y-3.04
X6.83Y-2.44
X6.83Y-3.04
X6.878Y-3.2014
X6.878Y-3.3786
X6.93Y-2.44
X6.93Y-3.04
T4
X2.92Y-2.27
X2.92Y-3.02
X3.17Y-2.17
X3.17Y-2.92
X3.67Y-2.27
X3.67Y-3.02
X3.92Y-2.17
X3.92Y-2.92
X4.42Y-2.27
X4.42Y-3.02
X4.67Y-2.17
X4.67Y-2.92
X5.17Y-2.27
X5.17Y-3.02
X5.42Y-2.17
X5.42Y-2.92
M30
