%TF.GenerationSoftware,KiCad,Pcbnew,8.0.5*%
%TF.CreationDate,2024-10-03T21:29:31+02:00*%
%TF.ProjectId,knowabunga-macro,6b6e6f77-6162-4756-9e67-612d6d616372,rev?*%
%TF.SameCoordinates,Original*%
%TF.FileFunction,Copper,L1,Top*%
%TF.FilePolarity,Positive*%
%FSLAX46Y46*%
G04 Gerber Fmt 4.6, Leading zero omitted, Abs format (unit mm)*
G04 Created by KiCad (PCBNEW 8.0.5) date 2024-10-03 21:29:31*
%MOMM*%
%LPD*%
G01*
G04 APERTURE LIST*
%TA.AperFunction,ComponentPad*%
%ADD10C,2.000000*%
%TD*%
%TA.AperFunction,ComponentPad*%
%ADD11R,1.700000X1.700000*%
%TD*%
%TA.AperFunction,ComponentPad*%
%ADD12O,1.700000X1.700000*%
%TD*%
%TA.AperFunction,ComponentPad*%
%ADD13R,1.600000X1.600000*%
%TD*%
%TA.AperFunction,ComponentPad*%
%ADD14C,1.600000*%
%TD*%
%TA.AperFunction,ComponentPad*%
%ADD15C,2.200000*%
%TD*%
%TA.AperFunction,ComponentPad*%
%ADD16R,2.200000X2.200000*%
%TD*%
%TA.AperFunction,ComponentPad*%
%ADD17O,2.200000X2.200000*%
%TD*%
%TA.AperFunction,ViaPad*%
%ADD18C,0.600000*%
%TD*%
%TA.AperFunction,Conductor*%
%ADD19C,0.200000*%
%TD*%
%TA.AperFunction,Conductor*%
%ADD20C,0.300000*%
%TD*%
G04 APERTURE END LIST*
D10*
%TO.P,RST,1,1*%
%TO.N,GND*%
X174700000Y-85816000D03*
X168200000Y-85816000D03*
%TO.P,RST,2,2*%
%TO.N,RST*%
X174700000Y-81316000D03*
X168200000Y-81316000D03*
%TD*%
D11*
%TO.P,J1,1,Pin_1*%
%TO.N,GND*%
X163576000Y-89662000D03*
D12*
%TO.P,J1,2,Pin_2*%
%TO.N,VCC*%
X161036000Y-89662000D03*
%TO.P,J1,3,Pin_3*%
%TO.N,SCL*%
X158496000Y-89662000D03*
%TO.P,J1,4,Pin_4*%
%TO.N,SDA*%
X155956000Y-89662000D03*
%TD*%
D13*
%TO.P,U1,1,TX*%
%TO.N,unconnected-(U1-TX-Pad1)*%
X176022000Y-61976000D03*
D14*
%TO.P,U1,2,RX*%
%TO.N,unconnected-(U1-RX-Pad2)*%
X173482000Y-61976000D03*
%TO.P,U1,3,GND*%
%TO.N,GND*%
X170942000Y-61976000D03*
%TO.P,U1,4,GND*%
X168402000Y-61976000D03*
%TO.P,U1,5,SDA*%
%TO.N,SDA*%
X165862000Y-61976000D03*
%TO.P,U1,6,SCL*%
%TO.N,SCL*%
X163322000Y-61976000D03*
%TO.P,U1,7,D4*%
%TO.N,C0*%
X160782000Y-61976000D03*
%TO.P,U1,8,C6*%
%TO.N,C1*%
X158242000Y-61976000D03*
%TO.P,U1,9,D7*%
%TO.N,R0*%
X155702000Y-61976000D03*
%TO.P,U1,10,E6*%
%TO.N,R1*%
X153162000Y-61976000D03*
%TO.P,U1,11,B4*%
%TO.N,R2*%
X150622000Y-61976000D03*
%TO.P,U1,12,B5*%
%TO.N,R3*%
X148082000Y-61976000D03*
%TO.P,U1,13,B6*%
%TO.N,unconnected-(U1-B6-Pad13)*%
X148082000Y-77216000D03*
%TO.P,U1,14,B2*%
%TO.N,unconnected-(U1-B2-Pad14)*%
X150622000Y-77216000D03*
%TO.P,U1,15,B3*%
%TO.N,unconnected-(U1-B3-Pad15)*%
X153162000Y-77216000D03*
%TO.P,U1,16,B1*%
%TO.N,unconnected-(U1-B1-Pad16)*%
X155702000Y-77216000D03*
%TO.P,U1,17,F7*%
%TO.N,unconnected-(U1-F7-Pad17)*%
X158242000Y-77216000D03*
%TO.P,U1,18,F6*%
%TO.N,unconnected-(U1-F6-Pad18)*%
X160782000Y-77216000D03*
%TO.P,U1,19,F5*%
%TO.N,unconnected-(U1-F5-Pad19)*%
X163322000Y-77216000D03*
%TO.P,U1,20,F4*%
%TO.N,unconnected-(U1-F4-Pad20)*%
X165862000Y-77216000D03*
%TO.P,U1,21,VCC*%
%TO.N,VCC*%
X168402000Y-77216000D03*
%TO.P,U1,22,RST*%
%TO.N,RST*%
X170942000Y-77216000D03*
%TO.P,U1,23,GND*%
%TO.N,GND*%
X173482000Y-77216000D03*
%TO.P,U1,24,RAW*%
%TO.N,unconnected-(U1-RAW-Pad24)*%
X176022000Y-77216000D03*
%TD*%
D15*
%TO.P,SW8,1,1*%
%TO.N,C1*%
X137668000Y-74168000D03*
%TO.P,SW8,2,2*%
%TO.N,Net-(D8-A)*%
X131318000Y-76708000D03*
%TD*%
%TO.P,SW7,1,1*%
%TO.N,C0*%
X137668000Y-55118000D03*
%TO.P,SW7,2,2*%
%TO.N,Net-(D7-A)*%
X131318000Y-57658000D03*
%TD*%
%TO.P,SW6,1,1*%
%TO.N,C1*%
X118618000Y-74168000D03*
%TO.P,SW6,2,2*%
%TO.N,Net-(D6-A)*%
X112268000Y-76708000D03*
%TD*%
%TO.P,SW5,1,1*%
%TO.N,C0*%
X118618000Y-55118000D03*
%TO.P,SW5,2,2*%
%TO.N,Net-(D5-A)*%
X112268000Y-57658000D03*
%TD*%
%TO.P,SW4,1,1*%
%TO.N,C1*%
X99568000Y-74168000D03*
%TO.P,SW4,2,2*%
%TO.N,Net-(D4-A)*%
X93218000Y-76708000D03*
%TD*%
%TO.P,SW3,1,1*%
%TO.N,C0*%
X99568000Y-55118000D03*
%TO.P,SW3,2,2*%
%TO.N,Net-(D3-A)*%
X93218000Y-57658000D03*
%TD*%
%TO.P,SW2,1,1*%
%TO.N,C1*%
X80518000Y-74168000D03*
%TO.P,SW2,2,2*%
%TO.N,Net-(D2-A)*%
X74168000Y-76708000D03*
%TD*%
%TO.P,SW1,1,1*%
%TO.N,C0*%
X80518000Y-55118000D03*
%TO.P,SW1,2,2*%
%TO.N,Net-(D1-A)*%
X74168000Y-57658000D03*
%TD*%
D16*
%TO.P,D8,1,K*%
%TO.N,R3*%
X139954000Y-91186000D03*
D17*
%TO.P,D8,2,A*%
%TO.N,Net-(D8-A)*%
X129794000Y-91186000D03*
%TD*%
D16*
%TO.P,D7,1,K*%
%TO.N,R3*%
X140208000Y-48260000D03*
D17*
%TO.P,D7,2,A*%
%TO.N,Net-(D7-A)*%
X130048000Y-48260000D03*
%TD*%
D16*
%TO.P,D6,1,K*%
%TO.N,R2*%
X121412000Y-91186000D03*
D17*
%TO.P,D6,2,A*%
%TO.N,Net-(D6-A)*%
X111252000Y-91186000D03*
%TD*%
D16*
%TO.P,D5,1,K*%
%TO.N,R2*%
X121158000Y-48260000D03*
D17*
%TO.P,D5,2,A*%
%TO.N,Net-(D5-A)*%
X110998000Y-48260000D03*
%TD*%
D16*
%TO.P,D4,1,K*%
%TO.N,R1*%
X101854000Y-91186000D03*
D17*
%TO.P,D4,2,A*%
%TO.N,Net-(D4-A)*%
X91694000Y-91186000D03*
%TD*%
D16*
%TO.P,D3,1,K*%
%TO.N,R1*%
X102108000Y-48260000D03*
D17*
%TO.P,D3,2,A*%
%TO.N,Net-(D3-A)*%
X91948000Y-48260000D03*
%TD*%
D16*
%TO.P,D2,1,K*%
%TO.N,R0*%
X83058000Y-91186000D03*
D17*
%TO.P,D2,2,A*%
%TO.N,Net-(D2-A)*%
X72898000Y-91186000D03*
%TD*%
D16*
%TO.P,D1,1,K*%
%TO.N,R0*%
X83058000Y-48260000D03*
D17*
%TO.P,D1,2,A*%
%TO.N,Net-(D1-A)*%
X72898000Y-48260000D03*
%TD*%
D18*
%TO.N,R2*%
X124968000Y-68580000D03*
%TO.N,R1*%
X105918000Y-69850000D03*
%TO.N,R0*%
X86868000Y-71120000D03*
%TD*%
D19*
%TO.N,RST*%
X174700000Y-81316000D02*
X168200000Y-81316000D01*
X170942000Y-78574000D02*
X168200000Y-81316000D01*
X170942000Y-77216000D02*
X170942000Y-78574000D01*
D20*
%TO.N,VCC*%
X161036000Y-84582000D02*
X161036000Y-89662000D01*
X168402000Y-77216000D02*
X161036000Y-84582000D01*
D19*
%TO.N,SDA*%
X154432000Y-75184000D02*
X154432000Y-88138000D01*
X162052000Y-67564000D02*
X154432000Y-75184000D01*
X162052000Y-60960000D02*
X162052000Y-67564000D01*
X164084000Y-60198000D02*
X162814000Y-60198000D01*
X162814000Y-60198000D02*
X162052000Y-60960000D01*
X165862000Y-61976000D02*
X164084000Y-60198000D01*
X154432000Y-88138000D02*
X155956000Y-89662000D01*
%TO.N,SCL*%
X156972000Y-88138000D02*
X158496000Y-89662000D01*
X156972000Y-74676000D02*
X156972000Y-88138000D01*
X163322000Y-68326000D02*
X156972000Y-74676000D01*
X163322000Y-61976000D02*
X163322000Y-68326000D01*
%TO.N,R1*%
X145796000Y-69850000D02*
X153162000Y-61976000D01*
X105918000Y-69850000D02*
X145796000Y-69850000D01*
%TO.N,R2*%
X144780000Y-68580000D02*
X150622000Y-61976000D01*
X124968000Y-68580000D02*
X144780000Y-68580000D01*
%TO.N,R0*%
X86960000Y-71212000D02*
X86868000Y-71120000D01*
X146466000Y-71212000D02*
X86960000Y-71212000D01*
X155702000Y-61976000D02*
X146466000Y-71212000D01*
%TO.N,Net-(D8-A)*%
X131318000Y-89662000D02*
X129794000Y-91186000D01*
X131318000Y-76708000D02*
X131318000Y-89662000D01*
%TO.N,Net-(D6-A)*%
X112268000Y-90170000D02*
X111252000Y-91186000D01*
X112268000Y-76708000D02*
X112268000Y-90170000D01*
%TO.N,Net-(D4-A)*%
X93218000Y-89662000D02*
X93218000Y-76708000D01*
X91694000Y-91186000D02*
X93218000Y-89662000D01*
%TO.N,Net-(D2-A)*%
X74168000Y-89916000D02*
X74168000Y-76708000D01*
X72898000Y-91186000D02*
X74168000Y-89916000D01*
%TO.N,C0*%
X153924000Y-55118000D02*
X137668000Y-55118000D01*
X160782000Y-61976000D02*
X153924000Y-55118000D01*
%TO.N,C1*%
X146050000Y-74168000D02*
X158242000Y-61976000D01*
X137668000Y-74168000D02*
X146050000Y-74168000D01*
%TO.N,C0*%
X118618000Y-55118000D02*
X137668000Y-55118000D01*
X99568000Y-55118000D02*
X118618000Y-55118000D01*
X80518000Y-55118000D02*
X99568000Y-55118000D01*
%TO.N,C1*%
X137668000Y-74168000D02*
X118618000Y-74168000D01*
X99568000Y-74168000D02*
X118618000Y-74168000D01*
X80518000Y-74168000D02*
X99568000Y-74168000D01*
%TD*%
M02*
