%TF.GenerationSoftware,KiCad,Pcbnew,8.0.5*%
%TF.CreationDate,2024-10-03T21:29:44+02:00*%
%TF.ProjectId,knowabunga-macro,6b6e6f77-6162-4756-9e67-612d6d616372,rev?*%
%TF.SameCoordinates,Original*%
%TF.FileFunction,Drillmap*%
%TF.FilePolarity,Positive*%
%FSLAX45Y45*%
G04 Gerber Fmt 4.5, Leading zero omitted, Abs format (unit mm)*
G04 Created by KiCad (PCBNEW 8.0.5) date 2024-10-03 21:29:44*
%MOMM*%
%LPD*%
G01*
G04 APERTURE LIST*
%ADD10C,0.050000*%
%ADD11C,0.200000*%
%ADD12C,0.170000*%
%ADD13C,0.320000*%
%ADD14C,0.400000*%
G04 APERTURE END LIST*
D10*
X6197600Y-4292600D02*
X17627600Y-4292600D01*
X5994400Y-9423400D02*
X5994400Y-4495800D01*
X17627600Y-9626600D02*
X6197600Y-9626600D01*
X17830800Y-4495800D02*
X17830800Y-9423400D01*
X17627600Y-4292600D02*
G75*
G02*
X17830800Y-4495800I0J-203200D01*
G01*
X17830800Y-9423400D02*
G75*
G02*
X17627600Y-9626600I-203200J0D01*
G01*
X6197600Y-9626600D02*
G75*
G02*
X5994400Y-9423400I0J203200D01*
G01*
X5994400Y-4495800D02*
G75*
G02*
X6197600Y-4292600I203200J0D01*
G01*
D11*
D12*
X7204800Y-5934800D02*
X7374800Y-6104800D01*
X7374800Y-5934800D02*
X7204800Y-6104800D01*
X7204800Y-7839800D02*
X7374800Y-8009800D01*
X7374800Y-7839800D02*
X7204800Y-8009800D01*
X8220800Y-5934800D02*
X8390800Y-6104800D01*
X8390800Y-5934800D02*
X8220800Y-6104800D01*
X8220800Y-7839800D02*
X8390800Y-8009800D01*
X8390800Y-7839800D02*
X8220800Y-8009800D01*
X9109800Y-5934800D02*
X9279800Y-6104800D01*
X9279800Y-5934800D02*
X9109800Y-6104800D01*
X9109800Y-7839800D02*
X9279800Y-8009800D01*
X9279800Y-7839800D02*
X9109800Y-8009800D01*
X10125800Y-5934800D02*
X10295800Y-6104800D01*
X10295800Y-5934800D02*
X10125800Y-6104800D01*
X10125800Y-7839800D02*
X10295800Y-8009800D01*
X10295800Y-7839800D02*
X10125800Y-8009800D01*
X11014800Y-5934800D02*
X11184800Y-6104800D01*
X11184800Y-5934800D02*
X11014800Y-6104800D01*
X11014800Y-7839800D02*
X11184800Y-8009800D01*
X11184800Y-7839800D02*
X11014800Y-8009800D01*
X12030800Y-5934800D02*
X12200800Y-6104800D01*
X12200800Y-5934800D02*
X12030800Y-6104800D01*
X12030800Y-7839800D02*
X12200800Y-8009800D01*
X12200800Y-7839800D02*
X12030800Y-8009800D01*
X12919800Y-5934800D02*
X13089800Y-6104800D01*
X13089800Y-5934800D02*
X12919800Y-6104800D01*
X12919800Y-7839800D02*
X13089800Y-8009800D01*
X13089800Y-7839800D02*
X12919800Y-8009800D01*
X13935800Y-5934800D02*
X14105800Y-6104800D01*
X14105800Y-5934800D02*
X13935800Y-6104800D01*
X13935800Y-7839800D02*
X14105800Y-8009800D01*
X14105800Y-7839800D02*
X13935800Y-8009800D01*
D13*
X6611600Y-4699000D02*
G75*
G02*
X6291600Y-4699000I-160000J0D01*
G01*
X6291600Y-4699000D02*
G75*
G02*
X6611600Y-4699000I160000J0D01*
G01*
X6611600Y-9194800D02*
G75*
G02*
X6291600Y-9194800I-160000J0D01*
G01*
X6291600Y-9194800D02*
G75*
G02*
X6611600Y-9194800I160000J0D01*
G01*
X17559000Y-4699000D02*
G75*
G02*
X17239000Y-4699000I-160000J0D01*
G01*
X17239000Y-4699000D02*
G75*
G02*
X17559000Y-4699000I160000J0D01*
G01*
X17559000Y-9194800D02*
G75*
G02*
X17239000Y-9194800I-160000J0D01*
G01*
X17239000Y-9194800D02*
G75*
G02*
X17559000Y-9194800I160000J0D01*
G01*
D14*
X7797800Y-5819800D02*
X7797800Y-6219800D01*
X7597800Y-6019800D02*
X7997800Y-6019800D01*
X7797800Y-7724800D02*
X7797800Y-8124800D01*
X7597800Y-7924800D02*
X7997800Y-7924800D01*
X9702800Y-5819800D02*
X9702800Y-6219800D01*
X9502800Y-6019800D02*
X9902800Y-6019800D01*
X9702800Y-7724800D02*
X9702800Y-8124800D01*
X9502800Y-7924800D02*
X9902800Y-7924800D01*
X11607800Y-5819800D02*
X11607800Y-6219800D01*
X11407800Y-6019800D02*
X11807800Y-6019800D01*
X11607800Y-7724800D02*
X11607800Y-8124800D01*
X11407800Y-7924800D02*
X11807800Y-7924800D01*
X13512800Y-5819800D02*
X13512800Y-6219800D01*
X13312800Y-6019800D02*
X13712800Y-6019800D01*
X13512800Y-7724800D02*
X13512800Y-8124800D01*
X13312800Y-7924800D02*
X13712800Y-7924800D01*
D11*
X6252677Y-9940584D02*
X6252677Y-9740584D01*
X6252677Y-9740584D02*
X6300296Y-9740584D01*
X6300296Y-9740584D02*
X6328867Y-9750108D01*
X6328867Y-9750108D02*
X6347915Y-9769155D01*
X6347915Y-9769155D02*
X6357439Y-9788203D01*
X6357439Y-9788203D02*
X6366962Y-9826298D01*
X6366962Y-9826298D02*
X6366962Y-9854870D01*
X6366962Y-9854870D02*
X6357439Y-9892965D01*
X6357439Y-9892965D02*
X6347915Y-9912012D01*
X6347915Y-9912012D02*
X6328867Y-9931060D01*
X6328867Y-9931060D02*
X6300296Y-9940584D01*
X6300296Y-9940584D02*
X6252677Y-9940584D01*
X6452677Y-9940584D02*
X6452677Y-9807250D01*
X6452677Y-9845346D02*
X6462201Y-9826298D01*
X6462201Y-9826298D02*
X6471724Y-9816774D01*
X6471724Y-9816774D02*
X6490772Y-9807250D01*
X6490772Y-9807250D02*
X6509820Y-9807250D01*
X6576486Y-9940584D02*
X6576486Y-9807250D01*
X6576486Y-9740584D02*
X6566962Y-9750108D01*
X6566962Y-9750108D02*
X6576486Y-9759631D01*
X6576486Y-9759631D02*
X6586010Y-9750108D01*
X6586010Y-9750108D02*
X6576486Y-9740584D01*
X6576486Y-9740584D02*
X6576486Y-9759631D01*
X6700296Y-9940584D02*
X6681248Y-9931060D01*
X6681248Y-9931060D02*
X6671724Y-9912012D01*
X6671724Y-9912012D02*
X6671724Y-9740584D01*
X6805058Y-9940584D02*
X6786010Y-9931060D01*
X6786010Y-9931060D02*
X6776486Y-9912012D01*
X6776486Y-9912012D02*
X6776486Y-9740584D01*
X7033629Y-9940584D02*
X7033629Y-9740584D01*
X7033629Y-9740584D02*
X7100296Y-9883441D01*
X7100296Y-9883441D02*
X7166962Y-9740584D01*
X7166962Y-9740584D02*
X7166962Y-9940584D01*
X7347915Y-9940584D02*
X7347915Y-9835822D01*
X7347915Y-9835822D02*
X7338391Y-9816774D01*
X7338391Y-9816774D02*
X7319343Y-9807250D01*
X7319343Y-9807250D02*
X7281248Y-9807250D01*
X7281248Y-9807250D02*
X7262201Y-9816774D01*
X7347915Y-9931060D02*
X7328867Y-9940584D01*
X7328867Y-9940584D02*
X7281248Y-9940584D01*
X7281248Y-9940584D02*
X7262201Y-9931060D01*
X7262201Y-9931060D02*
X7252677Y-9912012D01*
X7252677Y-9912012D02*
X7252677Y-9892965D01*
X7252677Y-9892965D02*
X7262201Y-9873917D01*
X7262201Y-9873917D02*
X7281248Y-9864393D01*
X7281248Y-9864393D02*
X7328867Y-9864393D01*
X7328867Y-9864393D02*
X7347915Y-9854870D01*
X7443153Y-9807250D02*
X7443153Y-10007250D01*
X7443153Y-9816774D02*
X7462201Y-9807250D01*
X7462201Y-9807250D02*
X7500296Y-9807250D01*
X7500296Y-9807250D02*
X7519343Y-9816774D01*
X7519343Y-9816774D02*
X7528867Y-9826298D01*
X7528867Y-9826298D02*
X7538391Y-9845346D01*
X7538391Y-9845346D02*
X7538391Y-9902489D01*
X7538391Y-9902489D02*
X7528867Y-9921536D01*
X7528867Y-9921536D02*
X7519343Y-9931060D01*
X7519343Y-9931060D02*
X7500296Y-9940584D01*
X7500296Y-9940584D02*
X7462201Y-9940584D01*
X7462201Y-9940584D02*
X7443153Y-9931060D01*
X7624105Y-9921536D02*
X7633629Y-9931060D01*
X7633629Y-9931060D02*
X7624105Y-9940584D01*
X7624105Y-9940584D02*
X7614582Y-9931060D01*
X7614582Y-9931060D02*
X7624105Y-9921536D01*
X7624105Y-9921536D02*
X7624105Y-9940584D01*
X7624105Y-9816774D02*
X7633629Y-9826298D01*
X7633629Y-9826298D02*
X7624105Y-9835822D01*
X7624105Y-9835822D02*
X7614582Y-9826298D01*
X7614582Y-9826298D02*
X7624105Y-9816774D01*
X7624105Y-9816774D02*
X7624105Y-9835822D01*
D12*
X5821900Y-10184100D02*
X5991900Y-10354100D01*
X5991900Y-10184100D02*
X5821900Y-10354100D01*
D11*
X6357439Y-10360584D02*
X6243153Y-10360584D01*
X6300296Y-10360584D02*
X6300296Y-10160584D01*
X6300296Y-10160584D02*
X6281248Y-10189155D01*
X6281248Y-10189155D02*
X6262201Y-10208203D01*
X6262201Y-10208203D02*
X6243153Y-10217727D01*
X6443153Y-10341536D02*
X6452677Y-10351060D01*
X6452677Y-10351060D02*
X6443153Y-10360584D01*
X6443153Y-10360584D02*
X6433629Y-10351060D01*
X6433629Y-10351060D02*
X6443153Y-10341536D01*
X6443153Y-10341536D02*
X6443153Y-10360584D01*
X6519343Y-10160584D02*
X6652677Y-10160584D01*
X6652677Y-10160584D02*
X6566962Y-10360584D01*
X6766962Y-10160584D02*
X6786010Y-10160584D01*
X6786010Y-10160584D02*
X6805058Y-10170108D01*
X6805058Y-10170108D02*
X6814582Y-10179631D01*
X6814582Y-10179631D02*
X6824105Y-10198679D01*
X6824105Y-10198679D02*
X6833629Y-10236774D01*
X6833629Y-10236774D02*
X6833629Y-10284393D01*
X6833629Y-10284393D02*
X6824105Y-10322489D01*
X6824105Y-10322489D02*
X6814582Y-10341536D01*
X6814582Y-10341536D02*
X6805058Y-10351060D01*
X6805058Y-10351060D02*
X6786010Y-10360584D01*
X6786010Y-10360584D02*
X6766962Y-10360584D01*
X6766962Y-10360584D02*
X6747915Y-10351060D01*
X6747915Y-10351060D02*
X6738391Y-10341536D01*
X6738391Y-10341536D02*
X6728867Y-10322489D01*
X6728867Y-10322489D02*
X6719343Y-10284393D01*
X6719343Y-10284393D02*
X6719343Y-10236774D01*
X6719343Y-10236774D02*
X6728867Y-10198679D01*
X6728867Y-10198679D02*
X6738391Y-10179631D01*
X6738391Y-10179631D02*
X6747915Y-10170108D01*
X6747915Y-10170108D02*
X6766962Y-10160584D01*
X6957439Y-10160584D02*
X6976486Y-10160584D01*
X6976486Y-10160584D02*
X6995534Y-10170108D01*
X6995534Y-10170108D02*
X7005058Y-10179631D01*
X7005058Y-10179631D02*
X7014582Y-10198679D01*
X7014582Y-10198679D02*
X7024105Y-10236774D01*
X7024105Y-10236774D02*
X7024105Y-10284393D01*
X7024105Y-10284393D02*
X7014582Y-10322489D01*
X7014582Y-10322489D02*
X7005058Y-10341536D01*
X7005058Y-10341536D02*
X6995534Y-10351060D01*
X6995534Y-10351060D02*
X6976486Y-10360584D01*
X6976486Y-10360584D02*
X6957439Y-10360584D01*
X6957439Y-10360584D02*
X6938391Y-10351060D01*
X6938391Y-10351060D02*
X6928867Y-10341536D01*
X6928867Y-10341536D02*
X6919343Y-10322489D01*
X6919343Y-10322489D02*
X6909820Y-10284393D01*
X6909820Y-10284393D02*
X6909820Y-10236774D01*
X6909820Y-10236774D02*
X6919343Y-10198679D01*
X6919343Y-10198679D02*
X6928867Y-10179631D01*
X6928867Y-10179631D02*
X6938391Y-10170108D01*
X6938391Y-10170108D02*
X6957439Y-10160584D01*
X7109820Y-10360584D02*
X7109820Y-10227250D01*
X7109820Y-10246298D02*
X7119343Y-10236774D01*
X7119343Y-10236774D02*
X7138391Y-10227250D01*
X7138391Y-10227250D02*
X7166963Y-10227250D01*
X7166963Y-10227250D02*
X7186010Y-10236774D01*
X7186010Y-10236774D02*
X7195534Y-10255822D01*
X7195534Y-10255822D02*
X7195534Y-10360584D01*
X7195534Y-10255822D02*
X7205058Y-10236774D01*
X7205058Y-10236774D02*
X7224105Y-10227250D01*
X7224105Y-10227250D02*
X7252677Y-10227250D01*
X7252677Y-10227250D02*
X7271724Y-10236774D01*
X7271724Y-10236774D02*
X7281248Y-10255822D01*
X7281248Y-10255822D02*
X7281248Y-10360584D01*
X7376486Y-10360584D02*
X7376486Y-10227250D01*
X7376486Y-10246298D02*
X7386010Y-10236774D01*
X7386010Y-10236774D02*
X7405058Y-10227250D01*
X7405058Y-10227250D02*
X7433629Y-10227250D01*
X7433629Y-10227250D02*
X7452677Y-10236774D01*
X7452677Y-10236774D02*
X7462201Y-10255822D01*
X7462201Y-10255822D02*
X7462201Y-10360584D01*
X7462201Y-10255822D02*
X7471724Y-10236774D01*
X7471724Y-10236774D02*
X7490772Y-10227250D01*
X7490772Y-10227250D02*
X7519343Y-10227250D01*
X7519343Y-10227250D02*
X7538391Y-10236774D01*
X7538391Y-10236774D02*
X7547915Y-10255822D01*
X7547915Y-10255822D02*
X7547915Y-10360584D01*
X7938391Y-10151060D02*
X7766963Y-10408203D01*
X8195534Y-10160584D02*
X8214582Y-10160584D01*
X8214582Y-10160584D02*
X8233629Y-10170108D01*
X8233629Y-10170108D02*
X8243153Y-10179631D01*
X8243153Y-10179631D02*
X8252677Y-10198679D01*
X8252677Y-10198679D02*
X8262201Y-10236774D01*
X8262201Y-10236774D02*
X8262201Y-10284393D01*
X8262201Y-10284393D02*
X8252677Y-10322489D01*
X8252677Y-10322489D02*
X8243153Y-10341536D01*
X8243153Y-10341536D02*
X8233629Y-10351060D01*
X8233629Y-10351060D02*
X8214582Y-10360584D01*
X8214582Y-10360584D02*
X8195534Y-10360584D01*
X8195534Y-10360584D02*
X8176486Y-10351060D01*
X8176486Y-10351060D02*
X8166963Y-10341536D01*
X8166963Y-10341536D02*
X8157439Y-10322489D01*
X8157439Y-10322489D02*
X8147915Y-10284393D01*
X8147915Y-10284393D02*
X8147915Y-10236774D01*
X8147915Y-10236774D02*
X8157439Y-10198679D01*
X8157439Y-10198679D02*
X8166963Y-10179631D01*
X8166963Y-10179631D02*
X8176486Y-10170108D01*
X8176486Y-10170108D02*
X8195534Y-10160584D01*
X8347915Y-10341536D02*
X8357439Y-10351060D01*
X8357439Y-10351060D02*
X8347915Y-10360584D01*
X8347915Y-10360584D02*
X8338391Y-10351060D01*
X8338391Y-10351060D02*
X8347915Y-10341536D01*
X8347915Y-10341536D02*
X8347915Y-10360584D01*
X8481248Y-10160584D02*
X8500296Y-10160584D01*
X8500296Y-10160584D02*
X8519344Y-10170108D01*
X8519344Y-10170108D02*
X8528868Y-10179631D01*
X8528868Y-10179631D02*
X8538391Y-10198679D01*
X8538391Y-10198679D02*
X8547915Y-10236774D01*
X8547915Y-10236774D02*
X8547915Y-10284393D01*
X8547915Y-10284393D02*
X8538391Y-10322489D01*
X8538391Y-10322489D02*
X8528868Y-10341536D01*
X8528868Y-10341536D02*
X8519344Y-10351060D01*
X8519344Y-10351060D02*
X8500296Y-10360584D01*
X8500296Y-10360584D02*
X8481248Y-10360584D01*
X8481248Y-10360584D02*
X8462201Y-10351060D01*
X8462201Y-10351060D02*
X8452677Y-10341536D01*
X8452677Y-10341536D02*
X8443153Y-10322489D01*
X8443153Y-10322489D02*
X8433629Y-10284393D01*
X8433629Y-10284393D02*
X8433629Y-10236774D01*
X8433629Y-10236774D02*
X8443153Y-10198679D01*
X8443153Y-10198679D02*
X8452677Y-10179631D01*
X8452677Y-10179631D02*
X8462201Y-10170108D01*
X8462201Y-10170108D02*
X8481248Y-10160584D01*
X8719344Y-10160584D02*
X8681248Y-10160584D01*
X8681248Y-10160584D02*
X8662201Y-10170108D01*
X8662201Y-10170108D02*
X8652677Y-10179631D01*
X8652677Y-10179631D02*
X8633629Y-10208203D01*
X8633629Y-10208203D02*
X8624106Y-10246298D01*
X8624106Y-10246298D02*
X8624106Y-10322489D01*
X8624106Y-10322489D02*
X8633629Y-10341536D01*
X8633629Y-10341536D02*
X8643153Y-10351060D01*
X8643153Y-10351060D02*
X8662201Y-10360584D01*
X8662201Y-10360584D02*
X8700296Y-10360584D01*
X8700296Y-10360584D02*
X8719344Y-10351060D01*
X8719344Y-10351060D02*
X8728868Y-10341536D01*
X8728868Y-10341536D02*
X8738391Y-10322489D01*
X8738391Y-10322489D02*
X8738391Y-10274870D01*
X8738391Y-10274870D02*
X8728868Y-10255822D01*
X8728868Y-10255822D02*
X8719344Y-10246298D01*
X8719344Y-10246298D02*
X8700296Y-10236774D01*
X8700296Y-10236774D02*
X8662201Y-10236774D01*
X8662201Y-10236774D02*
X8643153Y-10246298D01*
X8643153Y-10246298D02*
X8633629Y-10255822D01*
X8633629Y-10255822D02*
X8624106Y-10274870D01*
X8909820Y-10160584D02*
X8871725Y-10160584D01*
X8871725Y-10160584D02*
X8852677Y-10170108D01*
X8852677Y-10170108D02*
X8843153Y-10179631D01*
X8843153Y-10179631D02*
X8824106Y-10208203D01*
X8824106Y-10208203D02*
X8814582Y-10246298D01*
X8814582Y-10246298D02*
X8814582Y-10322489D01*
X8814582Y-10322489D02*
X8824106Y-10341536D01*
X8824106Y-10341536D02*
X8833629Y-10351060D01*
X8833629Y-10351060D02*
X8852677Y-10360584D01*
X8852677Y-10360584D02*
X8890772Y-10360584D01*
X8890772Y-10360584D02*
X8909820Y-10351060D01*
X8909820Y-10351060D02*
X8919344Y-10341536D01*
X8919344Y-10341536D02*
X8928868Y-10322489D01*
X8928868Y-10322489D02*
X8928868Y-10274870D01*
X8928868Y-10274870D02*
X8919344Y-10255822D01*
X8919344Y-10255822D02*
X8909820Y-10246298D01*
X8909820Y-10246298D02*
X8890772Y-10236774D01*
X8890772Y-10236774D02*
X8852677Y-10236774D01*
X8852677Y-10236774D02*
X8833629Y-10246298D01*
X8833629Y-10246298D02*
X8824106Y-10255822D01*
X8824106Y-10255822D02*
X8814582Y-10274870D01*
X9024106Y-10360584D02*
X9062201Y-10360584D01*
X9062201Y-10360584D02*
X9081249Y-10351060D01*
X9081249Y-10351060D02*
X9090772Y-10341536D01*
X9090772Y-10341536D02*
X9109820Y-10312965D01*
X9109820Y-10312965D02*
X9119344Y-10274870D01*
X9119344Y-10274870D02*
X9119344Y-10198679D01*
X9119344Y-10198679D02*
X9109820Y-10179631D01*
X9109820Y-10179631D02*
X9100296Y-10170108D01*
X9100296Y-10170108D02*
X9081249Y-10160584D01*
X9081249Y-10160584D02*
X9043153Y-10160584D01*
X9043153Y-10160584D02*
X9024106Y-10170108D01*
X9024106Y-10170108D02*
X9014582Y-10179631D01*
X9014582Y-10179631D02*
X9005058Y-10198679D01*
X9005058Y-10198679D02*
X9005058Y-10246298D01*
X9005058Y-10246298D02*
X9014582Y-10265346D01*
X9014582Y-10265346D02*
X9024106Y-10274870D01*
X9024106Y-10274870D02*
X9043153Y-10284393D01*
X9043153Y-10284393D02*
X9081249Y-10284393D01*
X9081249Y-10284393D02*
X9100296Y-10274870D01*
X9100296Y-10274870D02*
X9109820Y-10265346D01*
X9109820Y-10265346D02*
X9119344Y-10246298D01*
X9195534Y-10160584D02*
X9195534Y-10198679D01*
X9271725Y-10160584D02*
X9271725Y-10198679D01*
X9566963Y-10436774D02*
X9557439Y-10427250D01*
X9557439Y-10427250D02*
X9538391Y-10398679D01*
X9538391Y-10398679D02*
X9528868Y-10379631D01*
X9528868Y-10379631D02*
X9519344Y-10351060D01*
X9519344Y-10351060D02*
X9509820Y-10303441D01*
X9509820Y-10303441D02*
X9509820Y-10265346D01*
X9509820Y-10265346D02*
X9519344Y-10217727D01*
X9519344Y-10217727D02*
X9528868Y-10189155D01*
X9528868Y-10189155D02*
X9538391Y-10170108D01*
X9538391Y-10170108D02*
X9557439Y-10141536D01*
X9557439Y-10141536D02*
X9566963Y-10132012D01*
X9747915Y-10360584D02*
X9633630Y-10360584D01*
X9690772Y-10360584D02*
X9690772Y-10160584D01*
X9690772Y-10160584D02*
X9671725Y-10189155D01*
X9671725Y-10189155D02*
X9652677Y-10208203D01*
X9652677Y-10208203D02*
X9633630Y-10217727D01*
X9919344Y-10160584D02*
X9881249Y-10160584D01*
X9881249Y-10160584D02*
X9862201Y-10170108D01*
X9862201Y-10170108D02*
X9852677Y-10179631D01*
X9852677Y-10179631D02*
X9833630Y-10208203D01*
X9833630Y-10208203D02*
X9824106Y-10246298D01*
X9824106Y-10246298D02*
X9824106Y-10322489D01*
X9824106Y-10322489D02*
X9833630Y-10341536D01*
X9833630Y-10341536D02*
X9843153Y-10351060D01*
X9843153Y-10351060D02*
X9862201Y-10360584D01*
X9862201Y-10360584D02*
X9900296Y-10360584D01*
X9900296Y-10360584D02*
X9919344Y-10351060D01*
X9919344Y-10351060D02*
X9928868Y-10341536D01*
X9928868Y-10341536D02*
X9938391Y-10322489D01*
X9938391Y-10322489D02*
X9938391Y-10274870D01*
X9938391Y-10274870D02*
X9928868Y-10255822D01*
X9928868Y-10255822D02*
X9919344Y-10246298D01*
X9919344Y-10246298D02*
X9900296Y-10236774D01*
X9900296Y-10236774D02*
X9862201Y-10236774D01*
X9862201Y-10236774D02*
X9843153Y-10246298D01*
X9843153Y-10246298D02*
X9833630Y-10255822D01*
X9833630Y-10255822D02*
X9824106Y-10274870D01*
X10176487Y-10360584D02*
X10176487Y-10160584D01*
X10262201Y-10360584D02*
X10262201Y-10255822D01*
X10262201Y-10255822D02*
X10252677Y-10236774D01*
X10252677Y-10236774D02*
X10233630Y-10227250D01*
X10233630Y-10227250D02*
X10205058Y-10227250D01*
X10205058Y-10227250D02*
X10186011Y-10236774D01*
X10186011Y-10236774D02*
X10176487Y-10246298D01*
X10386011Y-10360584D02*
X10366963Y-10351060D01*
X10366963Y-10351060D02*
X10357439Y-10341536D01*
X10357439Y-10341536D02*
X10347915Y-10322489D01*
X10347915Y-10322489D02*
X10347915Y-10265346D01*
X10347915Y-10265346D02*
X10357439Y-10246298D01*
X10357439Y-10246298D02*
X10366963Y-10236774D01*
X10366963Y-10236774D02*
X10386011Y-10227250D01*
X10386011Y-10227250D02*
X10414582Y-10227250D01*
X10414582Y-10227250D02*
X10433630Y-10236774D01*
X10433630Y-10236774D02*
X10443153Y-10246298D01*
X10443153Y-10246298D02*
X10452677Y-10265346D01*
X10452677Y-10265346D02*
X10452677Y-10322489D01*
X10452677Y-10322489D02*
X10443153Y-10341536D01*
X10443153Y-10341536D02*
X10433630Y-10351060D01*
X10433630Y-10351060D02*
X10414582Y-10360584D01*
X10414582Y-10360584D02*
X10386011Y-10360584D01*
X10566963Y-10360584D02*
X10547915Y-10351060D01*
X10547915Y-10351060D02*
X10538392Y-10332012D01*
X10538392Y-10332012D02*
X10538392Y-10160584D01*
X10719344Y-10351060D02*
X10700296Y-10360584D01*
X10700296Y-10360584D02*
X10662201Y-10360584D01*
X10662201Y-10360584D02*
X10643153Y-10351060D01*
X10643153Y-10351060D02*
X10633630Y-10332012D01*
X10633630Y-10332012D02*
X10633630Y-10255822D01*
X10633630Y-10255822D02*
X10643153Y-10236774D01*
X10643153Y-10236774D02*
X10662201Y-10227250D01*
X10662201Y-10227250D02*
X10700296Y-10227250D01*
X10700296Y-10227250D02*
X10719344Y-10236774D01*
X10719344Y-10236774D02*
X10728868Y-10255822D01*
X10728868Y-10255822D02*
X10728868Y-10274870D01*
X10728868Y-10274870D02*
X10633630Y-10293917D01*
X10805058Y-10351060D02*
X10824106Y-10360584D01*
X10824106Y-10360584D02*
X10862201Y-10360584D01*
X10862201Y-10360584D02*
X10881249Y-10351060D01*
X10881249Y-10351060D02*
X10890773Y-10332012D01*
X10890773Y-10332012D02*
X10890773Y-10322489D01*
X10890773Y-10322489D02*
X10881249Y-10303441D01*
X10881249Y-10303441D02*
X10862201Y-10293917D01*
X10862201Y-10293917D02*
X10833630Y-10293917D01*
X10833630Y-10293917D02*
X10814582Y-10284393D01*
X10814582Y-10284393D02*
X10805058Y-10265346D01*
X10805058Y-10265346D02*
X10805058Y-10255822D01*
X10805058Y-10255822D02*
X10814582Y-10236774D01*
X10814582Y-10236774D02*
X10833630Y-10227250D01*
X10833630Y-10227250D02*
X10862201Y-10227250D01*
X10862201Y-10227250D02*
X10881249Y-10236774D01*
X10957439Y-10436774D02*
X10966963Y-10427250D01*
X10966963Y-10427250D02*
X10986011Y-10398679D01*
X10986011Y-10398679D02*
X10995534Y-10379631D01*
X10995534Y-10379631D02*
X11005058Y-10351060D01*
X11005058Y-10351060D02*
X11014582Y-10303441D01*
X11014582Y-10303441D02*
X11014582Y-10265346D01*
X11014582Y-10265346D02*
X11005058Y-10217727D01*
X11005058Y-10217727D02*
X10995534Y-10189155D01*
X10995534Y-10189155D02*
X10986011Y-10170108D01*
X10986011Y-10170108D02*
X10966963Y-10141536D01*
X10966963Y-10141536D02*
X10957439Y-10132012D01*
X11319344Y-10436774D02*
X11309820Y-10427250D01*
X11309820Y-10427250D02*
X11290772Y-10398679D01*
X11290772Y-10398679D02*
X11281249Y-10379631D01*
X11281249Y-10379631D02*
X11271725Y-10351060D01*
X11271725Y-10351060D02*
X11262201Y-10303441D01*
X11262201Y-10303441D02*
X11262201Y-10265346D01*
X11262201Y-10265346D02*
X11271725Y-10217727D01*
X11271725Y-10217727D02*
X11281249Y-10189155D01*
X11281249Y-10189155D02*
X11290772Y-10170108D01*
X11290772Y-10170108D02*
X11309820Y-10141536D01*
X11309820Y-10141536D02*
X11319344Y-10132012D01*
X11395534Y-10227250D02*
X11395534Y-10360584D01*
X11395534Y-10246298D02*
X11405058Y-10236774D01*
X11405058Y-10236774D02*
X11424106Y-10227250D01*
X11424106Y-10227250D02*
X11452677Y-10227250D01*
X11452677Y-10227250D02*
X11471725Y-10236774D01*
X11471725Y-10236774D02*
X11481249Y-10255822D01*
X11481249Y-10255822D02*
X11481249Y-10360584D01*
X11605058Y-10360584D02*
X11586011Y-10351060D01*
X11586011Y-10351060D02*
X11576487Y-10341536D01*
X11576487Y-10341536D02*
X11566963Y-10322489D01*
X11566963Y-10322489D02*
X11566963Y-10265346D01*
X11566963Y-10265346D02*
X11576487Y-10246298D01*
X11576487Y-10246298D02*
X11586011Y-10236774D01*
X11586011Y-10236774D02*
X11605058Y-10227250D01*
X11605058Y-10227250D02*
X11633630Y-10227250D01*
X11633630Y-10227250D02*
X11652677Y-10236774D01*
X11652677Y-10236774D02*
X11662201Y-10246298D01*
X11662201Y-10246298D02*
X11671725Y-10265346D01*
X11671725Y-10265346D02*
X11671725Y-10322489D01*
X11671725Y-10322489D02*
X11662201Y-10341536D01*
X11662201Y-10341536D02*
X11652677Y-10351060D01*
X11652677Y-10351060D02*
X11633630Y-10360584D01*
X11633630Y-10360584D02*
X11605058Y-10360584D01*
X11728868Y-10227250D02*
X11805058Y-10227250D01*
X11757439Y-10160584D02*
X11757439Y-10332012D01*
X11757439Y-10332012D02*
X11766963Y-10351060D01*
X11766963Y-10351060D02*
X11786011Y-10360584D01*
X11786011Y-10360584D02*
X11805058Y-10360584D01*
X12024106Y-10227250D02*
X12024106Y-10427250D01*
X12024106Y-10236774D02*
X12043153Y-10227250D01*
X12043153Y-10227250D02*
X12081249Y-10227250D01*
X12081249Y-10227250D02*
X12100296Y-10236774D01*
X12100296Y-10236774D02*
X12109820Y-10246298D01*
X12109820Y-10246298D02*
X12119344Y-10265346D01*
X12119344Y-10265346D02*
X12119344Y-10322489D01*
X12119344Y-10322489D02*
X12109820Y-10341536D01*
X12109820Y-10341536D02*
X12100296Y-10351060D01*
X12100296Y-10351060D02*
X12081249Y-10360584D01*
X12081249Y-10360584D02*
X12043153Y-10360584D01*
X12043153Y-10360584D02*
X12024106Y-10351060D01*
X12233630Y-10360584D02*
X12214582Y-10351060D01*
X12214582Y-10351060D02*
X12205058Y-10332012D01*
X12205058Y-10332012D02*
X12205058Y-10160584D01*
X12395534Y-10360584D02*
X12395534Y-10255822D01*
X12395534Y-10255822D02*
X12386011Y-10236774D01*
X12386011Y-10236774D02*
X12366963Y-10227250D01*
X12366963Y-10227250D02*
X12328868Y-10227250D01*
X12328868Y-10227250D02*
X12309820Y-10236774D01*
X12395534Y-10351060D02*
X12376487Y-10360584D01*
X12376487Y-10360584D02*
X12328868Y-10360584D01*
X12328868Y-10360584D02*
X12309820Y-10351060D01*
X12309820Y-10351060D02*
X12300296Y-10332012D01*
X12300296Y-10332012D02*
X12300296Y-10312965D01*
X12300296Y-10312965D02*
X12309820Y-10293917D01*
X12309820Y-10293917D02*
X12328868Y-10284393D01*
X12328868Y-10284393D02*
X12376487Y-10284393D01*
X12376487Y-10284393D02*
X12395534Y-10274870D01*
X12462201Y-10227250D02*
X12538392Y-10227250D01*
X12490773Y-10160584D02*
X12490773Y-10332012D01*
X12490773Y-10332012D02*
X12500296Y-10351060D01*
X12500296Y-10351060D02*
X12519344Y-10360584D01*
X12519344Y-10360584D02*
X12538392Y-10360584D01*
X12681249Y-10351060D02*
X12662201Y-10360584D01*
X12662201Y-10360584D02*
X12624106Y-10360584D01*
X12624106Y-10360584D02*
X12605058Y-10351060D01*
X12605058Y-10351060D02*
X12595534Y-10332012D01*
X12595534Y-10332012D02*
X12595534Y-10255822D01*
X12595534Y-10255822D02*
X12605058Y-10236774D01*
X12605058Y-10236774D02*
X12624106Y-10227250D01*
X12624106Y-10227250D02*
X12662201Y-10227250D01*
X12662201Y-10227250D02*
X12681249Y-10236774D01*
X12681249Y-10236774D02*
X12690773Y-10255822D01*
X12690773Y-10255822D02*
X12690773Y-10274870D01*
X12690773Y-10274870D02*
X12595534Y-10293917D01*
X12862201Y-10360584D02*
X12862201Y-10160584D01*
X12862201Y-10351060D02*
X12843154Y-10360584D01*
X12843154Y-10360584D02*
X12805058Y-10360584D01*
X12805058Y-10360584D02*
X12786011Y-10351060D01*
X12786011Y-10351060D02*
X12776487Y-10341536D01*
X12776487Y-10341536D02*
X12766963Y-10322489D01*
X12766963Y-10322489D02*
X12766963Y-10265346D01*
X12766963Y-10265346D02*
X12776487Y-10246298D01*
X12776487Y-10246298D02*
X12786011Y-10236774D01*
X12786011Y-10236774D02*
X12805058Y-10227250D01*
X12805058Y-10227250D02*
X12843154Y-10227250D01*
X12843154Y-10227250D02*
X12862201Y-10236774D01*
X12938392Y-10436774D02*
X12947915Y-10427250D01*
X12947915Y-10427250D02*
X12966963Y-10398679D01*
X12966963Y-10398679D02*
X12976487Y-10379631D01*
X12976487Y-10379631D02*
X12986011Y-10351060D01*
X12986011Y-10351060D02*
X12995534Y-10303441D01*
X12995534Y-10303441D02*
X12995534Y-10265346D01*
X12995534Y-10265346D02*
X12986011Y-10217727D01*
X12986011Y-10217727D02*
X12976487Y-10189155D01*
X12976487Y-10189155D02*
X12966963Y-10170108D01*
X12966963Y-10170108D02*
X12947915Y-10141536D01*
X12947915Y-10141536D02*
X12938392Y-10132012D01*
X5991900Y-10559100D02*
G75*
G02*
X5791900Y-10559100I-100000J0D01*
G01*
X5791900Y-10559100D02*
G75*
G02*
X5991900Y-10559100I100000J0D01*
G01*
X6233629Y-10450584D02*
X6357439Y-10450584D01*
X6357439Y-10450584D02*
X6290772Y-10526774D01*
X6290772Y-10526774D02*
X6319343Y-10526774D01*
X6319343Y-10526774D02*
X6338391Y-10536298D01*
X6338391Y-10536298D02*
X6347915Y-10545822D01*
X6347915Y-10545822D02*
X6357439Y-10564870D01*
X6357439Y-10564870D02*
X6357439Y-10612489D01*
X6357439Y-10612489D02*
X6347915Y-10631536D01*
X6347915Y-10631536D02*
X6338391Y-10641060D01*
X6338391Y-10641060D02*
X6319343Y-10650584D01*
X6319343Y-10650584D02*
X6262201Y-10650584D01*
X6262201Y-10650584D02*
X6243153Y-10641060D01*
X6243153Y-10641060D02*
X6233629Y-10631536D01*
X6443153Y-10631536D02*
X6452677Y-10641060D01*
X6452677Y-10641060D02*
X6443153Y-10650584D01*
X6443153Y-10650584D02*
X6433629Y-10641060D01*
X6433629Y-10641060D02*
X6443153Y-10631536D01*
X6443153Y-10631536D02*
X6443153Y-10650584D01*
X6528867Y-10469631D02*
X6538391Y-10460108D01*
X6538391Y-10460108D02*
X6557439Y-10450584D01*
X6557439Y-10450584D02*
X6605058Y-10450584D01*
X6605058Y-10450584D02*
X6624105Y-10460108D01*
X6624105Y-10460108D02*
X6633629Y-10469631D01*
X6633629Y-10469631D02*
X6643153Y-10488679D01*
X6643153Y-10488679D02*
X6643153Y-10507727D01*
X6643153Y-10507727D02*
X6633629Y-10536298D01*
X6633629Y-10536298D02*
X6519343Y-10650584D01*
X6519343Y-10650584D02*
X6643153Y-10650584D01*
X6766962Y-10450584D02*
X6786010Y-10450584D01*
X6786010Y-10450584D02*
X6805058Y-10460108D01*
X6805058Y-10460108D02*
X6814582Y-10469631D01*
X6814582Y-10469631D02*
X6824105Y-10488679D01*
X6824105Y-10488679D02*
X6833629Y-10526774D01*
X6833629Y-10526774D02*
X6833629Y-10574393D01*
X6833629Y-10574393D02*
X6824105Y-10612489D01*
X6824105Y-10612489D02*
X6814582Y-10631536D01*
X6814582Y-10631536D02*
X6805058Y-10641060D01*
X6805058Y-10641060D02*
X6786010Y-10650584D01*
X6786010Y-10650584D02*
X6766962Y-10650584D01*
X6766962Y-10650584D02*
X6747915Y-10641060D01*
X6747915Y-10641060D02*
X6738391Y-10631536D01*
X6738391Y-10631536D02*
X6728867Y-10612489D01*
X6728867Y-10612489D02*
X6719343Y-10574393D01*
X6719343Y-10574393D02*
X6719343Y-10526774D01*
X6719343Y-10526774D02*
X6728867Y-10488679D01*
X6728867Y-10488679D02*
X6738391Y-10469631D01*
X6738391Y-10469631D02*
X6747915Y-10460108D01*
X6747915Y-10460108D02*
X6766962Y-10450584D01*
X6957439Y-10450584D02*
X6976486Y-10450584D01*
X6976486Y-10450584D02*
X6995534Y-10460108D01*
X6995534Y-10460108D02*
X7005058Y-10469631D01*
X7005058Y-10469631D02*
X7014582Y-10488679D01*
X7014582Y-10488679D02*
X7024105Y-10526774D01*
X7024105Y-10526774D02*
X7024105Y-10574393D01*
X7024105Y-10574393D02*
X7014582Y-10612489D01*
X7014582Y-10612489D02*
X7005058Y-10631536D01*
X7005058Y-10631536D02*
X6995534Y-10641060D01*
X6995534Y-10641060D02*
X6976486Y-10650584D01*
X6976486Y-10650584D02*
X6957439Y-10650584D01*
X6957439Y-10650584D02*
X6938391Y-10641060D01*
X6938391Y-10641060D02*
X6928867Y-10631536D01*
X6928867Y-10631536D02*
X6919343Y-10612489D01*
X6919343Y-10612489D02*
X6909820Y-10574393D01*
X6909820Y-10574393D02*
X6909820Y-10526774D01*
X6909820Y-10526774D02*
X6919343Y-10488679D01*
X6919343Y-10488679D02*
X6928867Y-10469631D01*
X6928867Y-10469631D02*
X6938391Y-10460108D01*
X6938391Y-10460108D02*
X6957439Y-10450584D01*
X7109820Y-10650584D02*
X7109820Y-10517250D01*
X7109820Y-10536298D02*
X7119343Y-10526774D01*
X7119343Y-10526774D02*
X7138391Y-10517250D01*
X7138391Y-10517250D02*
X7166963Y-10517250D01*
X7166963Y-10517250D02*
X7186010Y-10526774D01*
X7186010Y-10526774D02*
X7195534Y-10545822D01*
X7195534Y-10545822D02*
X7195534Y-10650584D01*
X7195534Y-10545822D02*
X7205058Y-10526774D01*
X7205058Y-10526774D02*
X7224105Y-10517250D01*
X7224105Y-10517250D02*
X7252677Y-10517250D01*
X7252677Y-10517250D02*
X7271724Y-10526774D01*
X7271724Y-10526774D02*
X7281248Y-10545822D01*
X7281248Y-10545822D02*
X7281248Y-10650584D01*
X7376486Y-10650584D02*
X7376486Y-10517250D01*
X7376486Y-10536298D02*
X7386010Y-10526774D01*
X7386010Y-10526774D02*
X7405058Y-10517250D01*
X7405058Y-10517250D02*
X7433629Y-10517250D01*
X7433629Y-10517250D02*
X7452677Y-10526774D01*
X7452677Y-10526774D02*
X7462201Y-10545822D01*
X7462201Y-10545822D02*
X7462201Y-10650584D01*
X7462201Y-10545822D02*
X7471724Y-10526774D01*
X7471724Y-10526774D02*
X7490772Y-10517250D01*
X7490772Y-10517250D02*
X7519343Y-10517250D01*
X7519343Y-10517250D02*
X7538391Y-10526774D01*
X7538391Y-10526774D02*
X7547915Y-10545822D01*
X7547915Y-10545822D02*
X7547915Y-10650584D01*
X7938391Y-10441060D02*
X7766963Y-10698203D01*
X8195534Y-10450584D02*
X8214582Y-10450584D01*
X8214582Y-10450584D02*
X8233629Y-10460108D01*
X8233629Y-10460108D02*
X8243153Y-10469631D01*
X8243153Y-10469631D02*
X8252677Y-10488679D01*
X8252677Y-10488679D02*
X8262201Y-10526774D01*
X8262201Y-10526774D02*
X8262201Y-10574393D01*
X8262201Y-10574393D02*
X8252677Y-10612489D01*
X8252677Y-10612489D02*
X8243153Y-10631536D01*
X8243153Y-10631536D02*
X8233629Y-10641060D01*
X8233629Y-10641060D02*
X8214582Y-10650584D01*
X8214582Y-10650584D02*
X8195534Y-10650584D01*
X8195534Y-10650584D02*
X8176486Y-10641060D01*
X8176486Y-10641060D02*
X8166963Y-10631536D01*
X8166963Y-10631536D02*
X8157439Y-10612489D01*
X8157439Y-10612489D02*
X8147915Y-10574393D01*
X8147915Y-10574393D02*
X8147915Y-10526774D01*
X8147915Y-10526774D02*
X8157439Y-10488679D01*
X8157439Y-10488679D02*
X8166963Y-10469631D01*
X8166963Y-10469631D02*
X8176486Y-10460108D01*
X8176486Y-10460108D02*
X8195534Y-10450584D01*
X8347915Y-10631536D02*
X8357439Y-10641060D01*
X8357439Y-10641060D02*
X8347915Y-10650584D01*
X8347915Y-10650584D02*
X8338391Y-10641060D01*
X8338391Y-10641060D02*
X8347915Y-10631536D01*
X8347915Y-10631536D02*
X8347915Y-10650584D01*
X8547915Y-10650584D02*
X8433629Y-10650584D01*
X8490772Y-10650584D02*
X8490772Y-10450584D01*
X8490772Y-10450584D02*
X8471725Y-10479155D01*
X8471725Y-10479155D02*
X8452677Y-10498203D01*
X8452677Y-10498203D02*
X8433629Y-10507727D01*
X8624106Y-10469631D02*
X8633629Y-10460108D01*
X8633629Y-10460108D02*
X8652677Y-10450584D01*
X8652677Y-10450584D02*
X8700296Y-10450584D01*
X8700296Y-10450584D02*
X8719344Y-10460108D01*
X8719344Y-10460108D02*
X8728868Y-10469631D01*
X8728868Y-10469631D02*
X8738391Y-10488679D01*
X8738391Y-10488679D02*
X8738391Y-10507727D01*
X8738391Y-10507727D02*
X8728868Y-10536298D01*
X8728868Y-10536298D02*
X8614582Y-10650584D01*
X8614582Y-10650584D02*
X8738391Y-10650584D01*
X8909820Y-10450584D02*
X8871725Y-10450584D01*
X8871725Y-10450584D02*
X8852677Y-10460108D01*
X8852677Y-10460108D02*
X8843153Y-10469631D01*
X8843153Y-10469631D02*
X8824106Y-10498203D01*
X8824106Y-10498203D02*
X8814582Y-10536298D01*
X8814582Y-10536298D02*
X8814582Y-10612489D01*
X8814582Y-10612489D02*
X8824106Y-10631536D01*
X8824106Y-10631536D02*
X8833629Y-10641060D01*
X8833629Y-10641060D02*
X8852677Y-10650584D01*
X8852677Y-10650584D02*
X8890772Y-10650584D01*
X8890772Y-10650584D02*
X8909820Y-10641060D01*
X8909820Y-10641060D02*
X8919344Y-10631536D01*
X8919344Y-10631536D02*
X8928868Y-10612489D01*
X8928868Y-10612489D02*
X8928868Y-10564870D01*
X8928868Y-10564870D02*
X8919344Y-10545822D01*
X8919344Y-10545822D02*
X8909820Y-10536298D01*
X8909820Y-10536298D02*
X8890772Y-10526774D01*
X8890772Y-10526774D02*
X8852677Y-10526774D01*
X8852677Y-10526774D02*
X8833629Y-10536298D01*
X8833629Y-10536298D02*
X8824106Y-10545822D01*
X8824106Y-10545822D02*
X8814582Y-10564870D01*
X9052677Y-10450584D02*
X9071725Y-10450584D01*
X9071725Y-10450584D02*
X9090772Y-10460108D01*
X9090772Y-10460108D02*
X9100296Y-10469631D01*
X9100296Y-10469631D02*
X9109820Y-10488679D01*
X9109820Y-10488679D02*
X9119344Y-10526774D01*
X9119344Y-10526774D02*
X9119344Y-10574393D01*
X9119344Y-10574393D02*
X9109820Y-10612489D01*
X9109820Y-10612489D02*
X9100296Y-10631536D01*
X9100296Y-10631536D02*
X9090772Y-10641060D01*
X9090772Y-10641060D02*
X9071725Y-10650584D01*
X9071725Y-10650584D02*
X9052677Y-10650584D01*
X9052677Y-10650584D02*
X9033629Y-10641060D01*
X9033629Y-10641060D02*
X9024106Y-10631536D01*
X9024106Y-10631536D02*
X9014582Y-10612489D01*
X9014582Y-10612489D02*
X9005058Y-10574393D01*
X9005058Y-10574393D02*
X9005058Y-10526774D01*
X9005058Y-10526774D02*
X9014582Y-10488679D01*
X9014582Y-10488679D02*
X9024106Y-10469631D01*
X9024106Y-10469631D02*
X9033629Y-10460108D01*
X9033629Y-10460108D02*
X9052677Y-10450584D01*
X9195534Y-10450584D02*
X9195534Y-10488679D01*
X9271725Y-10450584D02*
X9271725Y-10488679D01*
X9566963Y-10726774D02*
X9557439Y-10717250D01*
X9557439Y-10717250D02*
X9538391Y-10688679D01*
X9538391Y-10688679D02*
X9528868Y-10669631D01*
X9528868Y-10669631D02*
X9519344Y-10641060D01*
X9519344Y-10641060D02*
X9509820Y-10593441D01*
X9509820Y-10593441D02*
X9509820Y-10555346D01*
X9509820Y-10555346D02*
X9519344Y-10507727D01*
X9519344Y-10507727D02*
X9528868Y-10479155D01*
X9528868Y-10479155D02*
X9538391Y-10460108D01*
X9538391Y-10460108D02*
X9557439Y-10431536D01*
X9557439Y-10431536D02*
X9566963Y-10422012D01*
X9728868Y-10517250D02*
X9728868Y-10650584D01*
X9681249Y-10441060D02*
X9633630Y-10583917D01*
X9633630Y-10583917D02*
X9757439Y-10583917D01*
X9986011Y-10650584D02*
X9986011Y-10450584D01*
X10071725Y-10650584D02*
X10071725Y-10545822D01*
X10071725Y-10545822D02*
X10062201Y-10526774D01*
X10062201Y-10526774D02*
X10043153Y-10517250D01*
X10043153Y-10517250D02*
X10014582Y-10517250D01*
X10014582Y-10517250D02*
X9995534Y-10526774D01*
X9995534Y-10526774D02*
X9986011Y-10536298D01*
X10195534Y-10650584D02*
X10176487Y-10641060D01*
X10176487Y-10641060D02*
X10166963Y-10631536D01*
X10166963Y-10631536D02*
X10157439Y-10612489D01*
X10157439Y-10612489D02*
X10157439Y-10555346D01*
X10157439Y-10555346D02*
X10166963Y-10536298D01*
X10166963Y-10536298D02*
X10176487Y-10526774D01*
X10176487Y-10526774D02*
X10195534Y-10517250D01*
X10195534Y-10517250D02*
X10224106Y-10517250D01*
X10224106Y-10517250D02*
X10243153Y-10526774D01*
X10243153Y-10526774D02*
X10252677Y-10536298D01*
X10252677Y-10536298D02*
X10262201Y-10555346D01*
X10262201Y-10555346D02*
X10262201Y-10612489D01*
X10262201Y-10612489D02*
X10252677Y-10631536D01*
X10252677Y-10631536D02*
X10243153Y-10641060D01*
X10243153Y-10641060D02*
X10224106Y-10650584D01*
X10224106Y-10650584D02*
X10195534Y-10650584D01*
X10376487Y-10650584D02*
X10357439Y-10641060D01*
X10357439Y-10641060D02*
X10347915Y-10622012D01*
X10347915Y-10622012D02*
X10347915Y-10450584D01*
X10528868Y-10641060D02*
X10509820Y-10650584D01*
X10509820Y-10650584D02*
X10471725Y-10650584D01*
X10471725Y-10650584D02*
X10452677Y-10641060D01*
X10452677Y-10641060D02*
X10443153Y-10622012D01*
X10443153Y-10622012D02*
X10443153Y-10545822D01*
X10443153Y-10545822D02*
X10452677Y-10526774D01*
X10452677Y-10526774D02*
X10471725Y-10517250D01*
X10471725Y-10517250D02*
X10509820Y-10517250D01*
X10509820Y-10517250D02*
X10528868Y-10526774D01*
X10528868Y-10526774D02*
X10538392Y-10545822D01*
X10538392Y-10545822D02*
X10538392Y-10564870D01*
X10538392Y-10564870D02*
X10443153Y-10583917D01*
X10614582Y-10641060D02*
X10633630Y-10650584D01*
X10633630Y-10650584D02*
X10671725Y-10650584D01*
X10671725Y-10650584D02*
X10690773Y-10641060D01*
X10690773Y-10641060D02*
X10700296Y-10622012D01*
X10700296Y-10622012D02*
X10700296Y-10612489D01*
X10700296Y-10612489D02*
X10690773Y-10593441D01*
X10690773Y-10593441D02*
X10671725Y-10583917D01*
X10671725Y-10583917D02*
X10643153Y-10583917D01*
X10643153Y-10583917D02*
X10624106Y-10574393D01*
X10624106Y-10574393D02*
X10614582Y-10555346D01*
X10614582Y-10555346D02*
X10614582Y-10545822D01*
X10614582Y-10545822D02*
X10624106Y-10526774D01*
X10624106Y-10526774D02*
X10643153Y-10517250D01*
X10643153Y-10517250D02*
X10671725Y-10517250D01*
X10671725Y-10517250D02*
X10690773Y-10526774D01*
X10766963Y-10726774D02*
X10776487Y-10717250D01*
X10776487Y-10717250D02*
X10795534Y-10688679D01*
X10795534Y-10688679D02*
X10805058Y-10669631D01*
X10805058Y-10669631D02*
X10814582Y-10641060D01*
X10814582Y-10641060D02*
X10824106Y-10593441D01*
X10824106Y-10593441D02*
X10824106Y-10555346D01*
X10824106Y-10555346D02*
X10814582Y-10507727D01*
X10814582Y-10507727D02*
X10805058Y-10479155D01*
X10805058Y-10479155D02*
X10795534Y-10460108D01*
X10795534Y-10460108D02*
X10776487Y-10431536D01*
X10776487Y-10431536D02*
X10766963Y-10422012D01*
X11128868Y-10726774D02*
X11119344Y-10717250D01*
X11119344Y-10717250D02*
X11100296Y-10688679D01*
X11100296Y-10688679D02*
X11090773Y-10669631D01*
X11090773Y-10669631D02*
X11081249Y-10641060D01*
X11081249Y-10641060D02*
X11071725Y-10593441D01*
X11071725Y-10593441D02*
X11071725Y-10555346D01*
X11071725Y-10555346D02*
X11081249Y-10507727D01*
X11081249Y-10507727D02*
X11090773Y-10479155D01*
X11090773Y-10479155D02*
X11100296Y-10460108D01*
X11100296Y-10460108D02*
X11119344Y-10431536D01*
X11119344Y-10431536D02*
X11128868Y-10422012D01*
X11205058Y-10517250D02*
X11205058Y-10650584D01*
X11205058Y-10536298D02*
X11214582Y-10526774D01*
X11214582Y-10526774D02*
X11233630Y-10517250D01*
X11233630Y-10517250D02*
X11262201Y-10517250D01*
X11262201Y-10517250D02*
X11281249Y-10526774D01*
X11281249Y-10526774D02*
X11290772Y-10545822D01*
X11290772Y-10545822D02*
X11290772Y-10650584D01*
X11414582Y-10650584D02*
X11395534Y-10641060D01*
X11395534Y-10641060D02*
X11386011Y-10631536D01*
X11386011Y-10631536D02*
X11376487Y-10612489D01*
X11376487Y-10612489D02*
X11376487Y-10555346D01*
X11376487Y-10555346D02*
X11386011Y-10536298D01*
X11386011Y-10536298D02*
X11395534Y-10526774D01*
X11395534Y-10526774D02*
X11414582Y-10517250D01*
X11414582Y-10517250D02*
X11443153Y-10517250D01*
X11443153Y-10517250D02*
X11462201Y-10526774D01*
X11462201Y-10526774D02*
X11471725Y-10536298D01*
X11471725Y-10536298D02*
X11481249Y-10555346D01*
X11481249Y-10555346D02*
X11481249Y-10612489D01*
X11481249Y-10612489D02*
X11471725Y-10631536D01*
X11471725Y-10631536D02*
X11462201Y-10641060D01*
X11462201Y-10641060D02*
X11443153Y-10650584D01*
X11443153Y-10650584D02*
X11414582Y-10650584D01*
X11538392Y-10517250D02*
X11614582Y-10517250D01*
X11566963Y-10450584D02*
X11566963Y-10622012D01*
X11566963Y-10622012D02*
X11576487Y-10641060D01*
X11576487Y-10641060D02*
X11595534Y-10650584D01*
X11595534Y-10650584D02*
X11614582Y-10650584D01*
X11833630Y-10517250D02*
X11833630Y-10717250D01*
X11833630Y-10526774D02*
X11852677Y-10517250D01*
X11852677Y-10517250D02*
X11890773Y-10517250D01*
X11890773Y-10517250D02*
X11909820Y-10526774D01*
X11909820Y-10526774D02*
X11919344Y-10536298D01*
X11919344Y-10536298D02*
X11928868Y-10555346D01*
X11928868Y-10555346D02*
X11928868Y-10612489D01*
X11928868Y-10612489D02*
X11919344Y-10631536D01*
X11919344Y-10631536D02*
X11909820Y-10641060D01*
X11909820Y-10641060D02*
X11890773Y-10650584D01*
X11890773Y-10650584D02*
X11852677Y-10650584D01*
X11852677Y-10650584D02*
X11833630Y-10641060D01*
X12043153Y-10650584D02*
X12024106Y-10641060D01*
X12024106Y-10641060D02*
X12014582Y-10622012D01*
X12014582Y-10622012D02*
X12014582Y-10450584D01*
X12205058Y-10650584D02*
X12205058Y-10545822D01*
X12205058Y-10545822D02*
X12195534Y-10526774D01*
X12195534Y-10526774D02*
X12176487Y-10517250D01*
X12176487Y-10517250D02*
X12138392Y-10517250D01*
X12138392Y-10517250D02*
X12119344Y-10526774D01*
X12205058Y-10641060D02*
X12186011Y-10650584D01*
X12186011Y-10650584D02*
X12138392Y-10650584D01*
X12138392Y-10650584D02*
X12119344Y-10641060D01*
X12119344Y-10641060D02*
X12109820Y-10622012D01*
X12109820Y-10622012D02*
X12109820Y-10602965D01*
X12109820Y-10602965D02*
X12119344Y-10583917D01*
X12119344Y-10583917D02*
X12138392Y-10574393D01*
X12138392Y-10574393D02*
X12186011Y-10574393D01*
X12186011Y-10574393D02*
X12205058Y-10564870D01*
X12271725Y-10517250D02*
X12347915Y-10517250D01*
X12300296Y-10450584D02*
X12300296Y-10622012D01*
X12300296Y-10622012D02*
X12309820Y-10641060D01*
X12309820Y-10641060D02*
X12328868Y-10650584D01*
X12328868Y-10650584D02*
X12347915Y-10650584D01*
X12490773Y-10641060D02*
X12471725Y-10650584D01*
X12471725Y-10650584D02*
X12433630Y-10650584D01*
X12433630Y-10650584D02*
X12414582Y-10641060D01*
X12414582Y-10641060D02*
X12405058Y-10622012D01*
X12405058Y-10622012D02*
X12405058Y-10545822D01*
X12405058Y-10545822D02*
X12414582Y-10526774D01*
X12414582Y-10526774D02*
X12433630Y-10517250D01*
X12433630Y-10517250D02*
X12471725Y-10517250D01*
X12471725Y-10517250D02*
X12490773Y-10526774D01*
X12490773Y-10526774D02*
X12500296Y-10545822D01*
X12500296Y-10545822D02*
X12500296Y-10564870D01*
X12500296Y-10564870D02*
X12405058Y-10583917D01*
X12671725Y-10650584D02*
X12671725Y-10450584D01*
X12671725Y-10641060D02*
X12652677Y-10650584D01*
X12652677Y-10650584D02*
X12614582Y-10650584D01*
X12614582Y-10650584D02*
X12595534Y-10641060D01*
X12595534Y-10641060D02*
X12586011Y-10631536D01*
X12586011Y-10631536D02*
X12576487Y-10612489D01*
X12576487Y-10612489D02*
X12576487Y-10555346D01*
X12576487Y-10555346D02*
X12586011Y-10536298D01*
X12586011Y-10536298D02*
X12595534Y-10526774D01*
X12595534Y-10526774D02*
X12614582Y-10517250D01*
X12614582Y-10517250D02*
X12652677Y-10517250D01*
X12652677Y-10517250D02*
X12671725Y-10526774D01*
X12747915Y-10726774D02*
X12757439Y-10717250D01*
X12757439Y-10717250D02*
X12776487Y-10688679D01*
X12776487Y-10688679D02*
X12786011Y-10669631D01*
X12786011Y-10669631D02*
X12795534Y-10641060D01*
X12795534Y-10641060D02*
X12805058Y-10593441D01*
X12805058Y-10593441D02*
X12805058Y-10555346D01*
X12805058Y-10555346D02*
X12795534Y-10507727D01*
X12795534Y-10507727D02*
X12786011Y-10479155D01*
X12786011Y-10479155D02*
X12776487Y-10460108D01*
X12776487Y-10460108D02*
X12757439Y-10431536D01*
X12757439Y-10431536D02*
X12747915Y-10422012D01*
X5891900Y-10779100D02*
X5891900Y-10979100D01*
X5791900Y-10879100D02*
X5991900Y-10879100D01*
X6338391Y-10837250D02*
X6338391Y-10970584D01*
X6290772Y-10761060D02*
X6243153Y-10903917D01*
X6243153Y-10903917D02*
X6366962Y-10903917D01*
X6443153Y-10951536D02*
X6452677Y-10961060D01*
X6452677Y-10961060D02*
X6443153Y-10970584D01*
X6443153Y-10970584D02*
X6433629Y-10961060D01*
X6433629Y-10961060D02*
X6443153Y-10951536D01*
X6443153Y-10951536D02*
X6443153Y-10970584D01*
X6576486Y-10770584D02*
X6595534Y-10770584D01*
X6595534Y-10770584D02*
X6614582Y-10780108D01*
X6614582Y-10780108D02*
X6624105Y-10789631D01*
X6624105Y-10789631D02*
X6633629Y-10808679D01*
X6633629Y-10808679D02*
X6643153Y-10846774D01*
X6643153Y-10846774D02*
X6643153Y-10894393D01*
X6643153Y-10894393D02*
X6633629Y-10932489D01*
X6633629Y-10932489D02*
X6624105Y-10951536D01*
X6624105Y-10951536D02*
X6614582Y-10961060D01*
X6614582Y-10961060D02*
X6595534Y-10970584D01*
X6595534Y-10970584D02*
X6576486Y-10970584D01*
X6576486Y-10970584D02*
X6557439Y-10961060D01*
X6557439Y-10961060D02*
X6547915Y-10951536D01*
X6547915Y-10951536D02*
X6538391Y-10932489D01*
X6538391Y-10932489D02*
X6528867Y-10894393D01*
X6528867Y-10894393D02*
X6528867Y-10846774D01*
X6528867Y-10846774D02*
X6538391Y-10808679D01*
X6538391Y-10808679D02*
X6547915Y-10789631D01*
X6547915Y-10789631D02*
X6557439Y-10780108D01*
X6557439Y-10780108D02*
X6576486Y-10770584D01*
X6766962Y-10770584D02*
X6786010Y-10770584D01*
X6786010Y-10770584D02*
X6805058Y-10780108D01*
X6805058Y-10780108D02*
X6814582Y-10789631D01*
X6814582Y-10789631D02*
X6824105Y-10808679D01*
X6824105Y-10808679D02*
X6833629Y-10846774D01*
X6833629Y-10846774D02*
X6833629Y-10894393D01*
X6833629Y-10894393D02*
X6824105Y-10932489D01*
X6824105Y-10932489D02*
X6814582Y-10951536D01*
X6814582Y-10951536D02*
X6805058Y-10961060D01*
X6805058Y-10961060D02*
X6786010Y-10970584D01*
X6786010Y-10970584D02*
X6766962Y-10970584D01*
X6766962Y-10970584D02*
X6747915Y-10961060D01*
X6747915Y-10961060D02*
X6738391Y-10951536D01*
X6738391Y-10951536D02*
X6728867Y-10932489D01*
X6728867Y-10932489D02*
X6719343Y-10894393D01*
X6719343Y-10894393D02*
X6719343Y-10846774D01*
X6719343Y-10846774D02*
X6728867Y-10808679D01*
X6728867Y-10808679D02*
X6738391Y-10789631D01*
X6738391Y-10789631D02*
X6747915Y-10780108D01*
X6747915Y-10780108D02*
X6766962Y-10770584D01*
X6957439Y-10770584D02*
X6976486Y-10770584D01*
X6976486Y-10770584D02*
X6995534Y-10780108D01*
X6995534Y-10780108D02*
X7005058Y-10789631D01*
X7005058Y-10789631D02*
X7014582Y-10808679D01*
X7014582Y-10808679D02*
X7024105Y-10846774D01*
X7024105Y-10846774D02*
X7024105Y-10894393D01*
X7024105Y-10894393D02*
X7014582Y-10932489D01*
X7014582Y-10932489D02*
X7005058Y-10951536D01*
X7005058Y-10951536D02*
X6995534Y-10961060D01*
X6995534Y-10961060D02*
X6976486Y-10970584D01*
X6976486Y-10970584D02*
X6957439Y-10970584D01*
X6957439Y-10970584D02*
X6938391Y-10961060D01*
X6938391Y-10961060D02*
X6928867Y-10951536D01*
X6928867Y-10951536D02*
X6919343Y-10932489D01*
X6919343Y-10932489D02*
X6909820Y-10894393D01*
X6909820Y-10894393D02*
X6909820Y-10846774D01*
X6909820Y-10846774D02*
X6919343Y-10808679D01*
X6919343Y-10808679D02*
X6928867Y-10789631D01*
X6928867Y-10789631D02*
X6938391Y-10780108D01*
X6938391Y-10780108D02*
X6957439Y-10770584D01*
X7109820Y-10970584D02*
X7109820Y-10837250D01*
X7109820Y-10856298D02*
X7119343Y-10846774D01*
X7119343Y-10846774D02*
X7138391Y-10837250D01*
X7138391Y-10837250D02*
X7166963Y-10837250D01*
X7166963Y-10837250D02*
X7186010Y-10846774D01*
X7186010Y-10846774D02*
X7195534Y-10865822D01*
X7195534Y-10865822D02*
X7195534Y-10970584D01*
X7195534Y-10865822D02*
X7205058Y-10846774D01*
X7205058Y-10846774D02*
X7224105Y-10837250D01*
X7224105Y-10837250D02*
X7252677Y-10837250D01*
X7252677Y-10837250D02*
X7271724Y-10846774D01*
X7271724Y-10846774D02*
X7281248Y-10865822D01*
X7281248Y-10865822D02*
X7281248Y-10970584D01*
X7376486Y-10970584D02*
X7376486Y-10837250D01*
X7376486Y-10856298D02*
X7386010Y-10846774D01*
X7386010Y-10846774D02*
X7405058Y-10837250D01*
X7405058Y-10837250D02*
X7433629Y-10837250D01*
X7433629Y-10837250D02*
X7452677Y-10846774D01*
X7452677Y-10846774D02*
X7462201Y-10865822D01*
X7462201Y-10865822D02*
X7462201Y-10970584D01*
X7462201Y-10865822D02*
X7471724Y-10846774D01*
X7471724Y-10846774D02*
X7490772Y-10837250D01*
X7490772Y-10837250D02*
X7519343Y-10837250D01*
X7519343Y-10837250D02*
X7538391Y-10846774D01*
X7538391Y-10846774D02*
X7547915Y-10865822D01*
X7547915Y-10865822D02*
X7547915Y-10970584D01*
X7938391Y-10761060D02*
X7766963Y-11018203D01*
X8195534Y-10770584D02*
X8214582Y-10770584D01*
X8214582Y-10770584D02*
X8233629Y-10780108D01*
X8233629Y-10780108D02*
X8243153Y-10789631D01*
X8243153Y-10789631D02*
X8252677Y-10808679D01*
X8252677Y-10808679D02*
X8262201Y-10846774D01*
X8262201Y-10846774D02*
X8262201Y-10894393D01*
X8262201Y-10894393D02*
X8252677Y-10932489D01*
X8252677Y-10932489D02*
X8243153Y-10951536D01*
X8243153Y-10951536D02*
X8233629Y-10961060D01*
X8233629Y-10961060D02*
X8214582Y-10970584D01*
X8214582Y-10970584D02*
X8195534Y-10970584D01*
X8195534Y-10970584D02*
X8176486Y-10961060D01*
X8176486Y-10961060D02*
X8166963Y-10951536D01*
X8166963Y-10951536D02*
X8157439Y-10932489D01*
X8157439Y-10932489D02*
X8147915Y-10894393D01*
X8147915Y-10894393D02*
X8147915Y-10846774D01*
X8147915Y-10846774D02*
X8157439Y-10808679D01*
X8157439Y-10808679D02*
X8166963Y-10789631D01*
X8166963Y-10789631D02*
X8176486Y-10780108D01*
X8176486Y-10780108D02*
X8195534Y-10770584D01*
X8347915Y-10951536D02*
X8357439Y-10961060D01*
X8357439Y-10961060D02*
X8347915Y-10970584D01*
X8347915Y-10970584D02*
X8338391Y-10961060D01*
X8338391Y-10961060D02*
X8347915Y-10951536D01*
X8347915Y-10951536D02*
X8347915Y-10970584D01*
X8547915Y-10970584D02*
X8433629Y-10970584D01*
X8490772Y-10970584D02*
X8490772Y-10770584D01*
X8490772Y-10770584D02*
X8471725Y-10799155D01*
X8471725Y-10799155D02*
X8452677Y-10818203D01*
X8452677Y-10818203D02*
X8433629Y-10827727D01*
X8728868Y-10770584D02*
X8633629Y-10770584D01*
X8633629Y-10770584D02*
X8624106Y-10865822D01*
X8624106Y-10865822D02*
X8633629Y-10856298D01*
X8633629Y-10856298D02*
X8652677Y-10846774D01*
X8652677Y-10846774D02*
X8700296Y-10846774D01*
X8700296Y-10846774D02*
X8719344Y-10856298D01*
X8719344Y-10856298D02*
X8728868Y-10865822D01*
X8728868Y-10865822D02*
X8738391Y-10884870D01*
X8738391Y-10884870D02*
X8738391Y-10932489D01*
X8738391Y-10932489D02*
X8728868Y-10951536D01*
X8728868Y-10951536D02*
X8719344Y-10961060D01*
X8719344Y-10961060D02*
X8700296Y-10970584D01*
X8700296Y-10970584D02*
X8652677Y-10970584D01*
X8652677Y-10970584D02*
X8633629Y-10961060D01*
X8633629Y-10961060D02*
X8624106Y-10951536D01*
X8805058Y-10770584D02*
X8938391Y-10770584D01*
X8938391Y-10770584D02*
X8852677Y-10970584D01*
X9109820Y-10770584D02*
X9014582Y-10770584D01*
X9014582Y-10770584D02*
X9005058Y-10865822D01*
X9005058Y-10865822D02*
X9014582Y-10856298D01*
X9014582Y-10856298D02*
X9033629Y-10846774D01*
X9033629Y-10846774D02*
X9081249Y-10846774D01*
X9081249Y-10846774D02*
X9100296Y-10856298D01*
X9100296Y-10856298D02*
X9109820Y-10865822D01*
X9109820Y-10865822D02*
X9119344Y-10884870D01*
X9119344Y-10884870D02*
X9119344Y-10932489D01*
X9119344Y-10932489D02*
X9109820Y-10951536D01*
X9109820Y-10951536D02*
X9100296Y-10961060D01*
X9100296Y-10961060D02*
X9081249Y-10970584D01*
X9081249Y-10970584D02*
X9033629Y-10970584D01*
X9033629Y-10970584D02*
X9014582Y-10961060D01*
X9014582Y-10961060D02*
X9005058Y-10951536D01*
X9195534Y-10770584D02*
X9195534Y-10808679D01*
X9271725Y-10770584D02*
X9271725Y-10808679D01*
X9566963Y-11046774D02*
X9557439Y-11037250D01*
X9557439Y-11037250D02*
X9538391Y-11008679D01*
X9538391Y-11008679D02*
X9528868Y-10989631D01*
X9528868Y-10989631D02*
X9519344Y-10961060D01*
X9519344Y-10961060D02*
X9509820Y-10913441D01*
X9509820Y-10913441D02*
X9509820Y-10875346D01*
X9509820Y-10875346D02*
X9519344Y-10827727D01*
X9519344Y-10827727D02*
X9528868Y-10799155D01*
X9528868Y-10799155D02*
X9538391Y-10780108D01*
X9538391Y-10780108D02*
X9557439Y-10751536D01*
X9557439Y-10751536D02*
X9566963Y-10742012D01*
X9671725Y-10856298D02*
X9652677Y-10846774D01*
X9652677Y-10846774D02*
X9643153Y-10837250D01*
X9643153Y-10837250D02*
X9633630Y-10818203D01*
X9633630Y-10818203D02*
X9633630Y-10808679D01*
X9633630Y-10808679D02*
X9643153Y-10789631D01*
X9643153Y-10789631D02*
X9652677Y-10780108D01*
X9652677Y-10780108D02*
X9671725Y-10770584D01*
X9671725Y-10770584D02*
X9709820Y-10770584D01*
X9709820Y-10770584D02*
X9728868Y-10780108D01*
X9728868Y-10780108D02*
X9738391Y-10789631D01*
X9738391Y-10789631D02*
X9747915Y-10808679D01*
X9747915Y-10808679D02*
X9747915Y-10818203D01*
X9747915Y-10818203D02*
X9738391Y-10837250D01*
X9738391Y-10837250D02*
X9728868Y-10846774D01*
X9728868Y-10846774D02*
X9709820Y-10856298D01*
X9709820Y-10856298D02*
X9671725Y-10856298D01*
X9671725Y-10856298D02*
X9652677Y-10865822D01*
X9652677Y-10865822D02*
X9643153Y-10875346D01*
X9643153Y-10875346D02*
X9633630Y-10894393D01*
X9633630Y-10894393D02*
X9633630Y-10932489D01*
X9633630Y-10932489D02*
X9643153Y-10951536D01*
X9643153Y-10951536D02*
X9652677Y-10961060D01*
X9652677Y-10961060D02*
X9671725Y-10970584D01*
X9671725Y-10970584D02*
X9709820Y-10970584D01*
X9709820Y-10970584D02*
X9728868Y-10961060D01*
X9728868Y-10961060D02*
X9738391Y-10951536D01*
X9738391Y-10951536D02*
X9747915Y-10932489D01*
X9747915Y-10932489D02*
X9747915Y-10894393D01*
X9747915Y-10894393D02*
X9738391Y-10875346D01*
X9738391Y-10875346D02*
X9728868Y-10865822D01*
X9728868Y-10865822D02*
X9709820Y-10856298D01*
X9986011Y-10970584D02*
X9986011Y-10770584D01*
X10071725Y-10970584D02*
X10071725Y-10865822D01*
X10071725Y-10865822D02*
X10062201Y-10846774D01*
X10062201Y-10846774D02*
X10043153Y-10837250D01*
X10043153Y-10837250D02*
X10014582Y-10837250D01*
X10014582Y-10837250D02*
X9995534Y-10846774D01*
X9995534Y-10846774D02*
X9986011Y-10856298D01*
X10195534Y-10970584D02*
X10176487Y-10961060D01*
X10176487Y-10961060D02*
X10166963Y-10951536D01*
X10166963Y-10951536D02*
X10157439Y-10932489D01*
X10157439Y-10932489D02*
X10157439Y-10875346D01*
X10157439Y-10875346D02*
X10166963Y-10856298D01*
X10166963Y-10856298D02*
X10176487Y-10846774D01*
X10176487Y-10846774D02*
X10195534Y-10837250D01*
X10195534Y-10837250D02*
X10224106Y-10837250D01*
X10224106Y-10837250D02*
X10243153Y-10846774D01*
X10243153Y-10846774D02*
X10252677Y-10856298D01*
X10252677Y-10856298D02*
X10262201Y-10875346D01*
X10262201Y-10875346D02*
X10262201Y-10932489D01*
X10262201Y-10932489D02*
X10252677Y-10951536D01*
X10252677Y-10951536D02*
X10243153Y-10961060D01*
X10243153Y-10961060D02*
X10224106Y-10970584D01*
X10224106Y-10970584D02*
X10195534Y-10970584D01*
X10376487Y-10970584D02*
X10357439Y-10961060D01*
X10357439Y-10961060D02*
X10347915Y-10942012D01*
X10347915Y-10942012D02*
X10347915Y-10770584D01*
X10528868Y-10961060D02*
X10509820Y-10970584D01*
X10509820Y-10970584D02*
X10471725Y-10970584D01*
X10471725Y-10970584D02*
X10452677Y-10961060D01*
X10452677Y-10961060D02*
X10443153Y-10942012D01*
X10443153Y-10942012D02*
X10443153Y-10865822D01*
X10443153Y-10865822D02*
X10452677Y-10846774D01*
X10452677Y-10846774D02*
X10471725Y-10837250D01*
X10471725Y-10837250D02*
X10509820Y-10837250D01*
X10509820Y-10837250D02*
X10528868Y-10846774D01*
X10528868Y-10846774D02*
X10538392Y-10865822D01*
X10538392Y-10865822D02*
X10538392Y-10884870D01*
X10538392Y-10884870D02*
X10443153Y-10903917D01*
X10614582Y-10961060D02*
X10633630Y-10970584D01*
X10633630Y-10970584D02*
X10671725Y-10970584D01*
X10671725Y-10970584D02*
X10690773Y-10961060D01*
X10690773Y-10961060D02*
X10700296Y-10942012D01*
X10700296Y-10942012D02*
X10700296Y-10932489D01*
X10700296Y-10932489D02*
X10690773Y-10913441D01*
X10690773Y-10913441D02*
X10671725Y-10903917D01*
X10671725Y-10903917D02*
X10643153Y-10903917D01*
X10643153Y-10903917D02*
X10624106Y-10894393D01*
X10624106Y-10894393D02*
X10614582Y-10875346D01*
X10614582Y-10875346D02*
X10614582Y-10865822D01*
X10614582Y-10865822D02*
X10624106Y-10846774D01*
X10624106Y-10846774D02*
X10643153Y-10837250D01*
X10643153Y-10837250D02*
X10671725Y-10837250D01*
X10671725Y-10837250D02*
X10690773Y-10846774D01*
X10766963Y-11046774D02*
X10776487Y-11037250D01*
X10776487Y-11037250D02*
X10795534Y-11008679D01*
X10795534Y-11008679D02*
X10805058Y-10989631D01*
X10805058Y-10989631D02*
X10814582Y-10961060D01*
X10814582Y-10961060D02*
X10824106Y-10913441D01*
X10824106Y-10913441D02*
X10824106Y-10875346D01*
X10824106Y-10875346D02*
X10814582Y-10827727D01*
X10814582Y-10827727D02*
X10805058Y-10799155D01*
X10805058Y-10799155D02*
X10795534Y-10780108D01*
X10795534Y-10780108D02*
X10776487Y-10751536D01*
X10776487Y-10751536D02*
X10766963Y-10742012D01*
X11128868Y-11046774D02*
X11119344Y-11037250D01*
X11119344Y-11037250D02*
X11100296Y-11008679D01*
X11100296Y-11008679D02*
X11090773Y-10989631D01*
X11090773Y-10989631D02*
X11081249Y-10961060D01*
X11081249Y-10961060D02*
X11071725Y-10913441D01*
X11071725Y-10913441D02*
X11071725Y-10875346D01*
X11071725Y-10875346D02*
X11081249Y-10827727D01*
X11081249Y-10827727D02*
X11090773Y-10799155D01*
X11090773Y-10799155D02*
X11100296Y-10780108D01*
X11100296Y-10780108D02*
X11119344Y-10751536D01*
X11119344Y-10751536D02*
X11128868Y-10742012D01*
X11205058Y-10837250D02*
X11205058Y-10970584D01*
X11205058Y-10856298D02*
X11214582Y-10846774D01*
X11214582Y-10846774D02*
X11233630Y-10837250D01*
X11233630Y-10837250D02*
X11262201Y-10837250D01*
X11262201Y-10837250D02*
X11281249Y-10846774D01*
X11281249Y-10846774D02*
X11290772Y-10865822D01*
X11290772Y-10865822D02*
X11290772Y-10970584D01*
X11414582Y-10970584D02*
X11395534Y-10961060D01*
X11395534Y-10961060D02*
X11386011Y-10951536D01*
X11386011Y-10951536D02*
X11376487Y-10932489D01*
X11376487Y-10932489D02*
X11376487Y-10875346D01*
X11376487Y-10875346D02*
X11386011Y-10856298D01*
X11386011Y-10856298D02*
X11395534Y-10846774D01*
X11395534Y-10846774D02*
X11414582Y-10837250D01*
X11414582Y-10837250D02*
X11443153Y-10837250D01*
X11443153Y-10837250D02*
X11462201Y-10846774D01*
X11462201Y-10846774D02*
X11471725Y-10856298D01*
X11471725Y-10856298D02*
X11481249Y-10875346D01*
X11481249Y-10875346D02*
X11481249Y-10932489D01*
X11481249Y-10932489D02*
X11471725Y-10951536D01*
X11471725Y-10951536D02*
X11462201Y-10961060D01*
X11462201Y-10961060D02*
X11443153Y-10970584D01*
X11443153Y-10970584D02*
X11414582Y-10970584D01*
X11538392Y-10837250D02*
X11614582Y-10837250D01*
X11566963Y-10770584D02*
X11566963Y-10942012D01*
X11566963Y-10942012D02*
X11576487Y-10961060D01*
X11576487Y-10961060D02*
X11595534Y-10970584D01*
X11595534Y-10970584D02*
X11614582Y-10970584D01*
X11833630Y-10837250D02*
X11833630Y-11037250D01*
X11833630Y-10846774D02*
X11852677Y-10837250D01*
X11852677Y-10837250D02*
X11890773Y-10837250D01*
X11890773Y-10837250D02*
X11909820Y-10846774D01*
X11909820Y-10846774D02*
X11919344Y-10856298D01*
X11919344Y-10856298D02*
X11928868Y-10875346D01*
X11928868Y-10875346D02*
X11928868Y-10932489D01*
X11928868Y-10932489D02*
X11919344Y-10951536D01*
X11919344Y-10951536D02*
X11909820Y-10961060D01*
X11909820Y-10961060D02*
X11890773Y-10970584D01*
X11890773Y-10970584D02*
X11852677Y-10970584D01*
X11852677Y-10970584D02*
X11833630Y-10961060D01*
X12043153Y-10970584D02*
X12024106Y-10961060D01*
X12024106Y-10961060D02*
X12014582Y-10942012D01*
X12014582Y-10942012D02*
X12014582Y-10770584D01*
X12205058Y-10970584D02*
X12205058Y-10865822D01*
X12205058Y-10865822D02*
X12195534Y-10846774D01*
X12195534Y-10846774D02*
X12176487Y-10837250D01*
X12176487Y-10837250D02*
X12138392Y-10837250D01*
X12138392Y-10837250D02*
X12119344Y-10846774D01*
X12205058Y-10961060D02*
X12186011Y-10970584D01*
X12186011Y-10970584D02*
X12138392Y-10970584D01*
X12138392Y-10970584D02*
X12119344Y-10961060D01*
X12119344Y-10961060D02*
X12109820Y-10942012D01*
X12109820Y-10942012D02*
X12109820Y-10922965D01*
X12109820Y-10922965D02*
X12119344Y-10903917D01*
X12119344Y-10903917D02*
X12138392Y-10894393D01*
X12138392Y-10894393D02*
X12186011Y-10894393D01*
X12186011Y-10894393D02*
X12205058Y-10884870D01*
X12271725Y-10837250D02*
X12347915Y-10837250D01*
X12300296Y-10770584D02*
X12300296Y-10942012D01*
X12300296Y-10942012D02*
X12309820Y-10961060D01*
X12309820Y-10961060D02*
X12328868Y-10970584D01*
X12328868Y-10970584D02*
X12347915Y-10970584D01*
X12490773Y-10961060D02*
X12471725Y-10970584D01*
X12471725Y-10970584D02*
X12433630Y-10970584D01*
X12433630Y-10970584D02*
X12414582Y-10961060D01*
X12414582Y-10961060D02*
X12405058Y-10942012D01*
X12405058Y-10942012D02*
X12405058Y-10865822D01*
X12405058Y-10865822D02*
X12414582Y-10846774D01*
X12414582Y-10846774D02*
X12433630Y-10837250D01*
X12433630Y-10837250D02*
X12471725Y-10837250D01*
X12471725Y-10837250D02*
X12490773Y-10846774D01*
X12490773Y-10846774D02*
X12500296Y-10865822D01*
X12500296Y-10865822D02*
X12500296Y-10884870D01*
X12500296Y-10884870D02*
X12405058Y-10903917D01*
X12671725Y-10970584D02*
X12671725Y-10770584D01*
X12671725Y-10961060D02*
X12652677Y-10970584D01*
X12652677Y-10970584D02*
X12614582Y-10970584D01*
X12614582Y-10970584D02*
X12595534Y-10961060D01*
X12595534Y-10961060D02*
X12586011Y-10951536D01*
X12586011Y-10951536D02*
X12576487Y-10932489D01*
X12576487Y-10932489D02*
X12576487Y-10875346D01*
X12576487Y-10875346D02*
X12586011Y-10856298D01*
X12586011Y-10856298D02*
X12595534Y-10846774D01*
X12595534Y-10846774D02*
X12614582Y-10837250D01*
X12614582Y-10837250D02*
X12652677Y-10837250D01*
X12652677Y-10837250D02*
X12671725Y-10846774D01*
X12747915Y-11046774D02*
X12757439Y-11037250D01*
X12757439Y-11037250D02*
X12776487Y-11008679D01*
X12776487Y-11008679D02*
X12786011Y-10989631D01*
X12786011Y-10989631D02*
X12795534Y-10961060D01*
X12795534Y-10961060D02*
X12805058Y-10913441D01*
X12805058Y-10913441D02*
X12805058Y-10875346D01*
X12805058Y-10875346D02*
X12795534Y-10827727D01*
X12795534Y-10827727D02*
X12786011Y-10799155D01*
X12786011Y-10799155D02*
X12776487Y-10780108D01*
X12776487Y-10780108D02*
X12757439Y-10751536D01*
X12757439Y-10751536D02*
X12747915Y-10742012D01*
M02*
