%TF.GenerationSoftware,KiCad,Pcbnew,8.0.5*%
%TF.CreationDate,2024-10-03T21:29:06+02:00*%
%TF.ProjectId,knowabunga-macro,6b6e6f77-6162-4756-9e67-612d6d616372,rev?*%
%TF.SameCoordinates,Original*%
%TF.FileFunction,Soldermask,Top*%
%TF.FilePolarity,Negative*%
%FSLAX46Y46*%
G04 Gerber Fmt 4.6, Leading zero omitted, Abs format (unit mm)*
G04 Created by KiCad (PCBNEW 8.0.5) date 2024-10-03 21:29:06*
%MOMM*%
%LPD*%
G01*
G04 APERTURE LIST*
%ADD10C,2.000000*%
%ADD11R,1.700000X1.700000*%
%ADD12O,1.700000X1.700000*%
%ADD13C,3.200000*%
%ADD14C,1.700000*%
%ADD15C,4.000000*%
%ADD16C,2.200000*%
%ADD17R,2.200000X2.200000*%
%ADD18O,2.200000X2.200000*%
G04 APERTURE END LIST*
D10*
%TO.C,RST*%
X174700000Y-85816000D03*
X168200000Y-85816000D03*
X174700000Y-81316000D03*
X168200000Y-81316000D03*
%TD*%
D11*
%TO.C,J1*%
X163576000Y-89662000D03*
D12*
X161036000Y-89662000D03*
X158496000Y-89662000D03*
X155956000Y-89662000D03*
%TD*%
D13*
%TO.C,H4*%
X64516000Y-46990000D03*
%TD*%
%TO.C,H3*%
X64516000Y-91948000D03*
%TD*%
%TO.C,H2*%
X173990000Y-46990000D03*
%TD*%
%TO.C,H1*%
X173990000Y-91948000D03*
%TD*%
D14*
%TO.C,SW8*%
X130048000Y-79248000D03*
D15*
X135128000Y-79248000D03*
D14*
X140208000Y-79248000D03*
D16*
X137668000Y-74168000D03*
X131318000Y-76708000D03*
%TD*%
D14*
%TO.C,SW7*%
X130048000Y-60198000D03*
D15*
X135128000Y-60198000D03*
D14*
X140208000Y-60198000D03*
D16*
X137668000Y-55118000D03*
X131318000Y-57658000D03*
%TD*%
D14*
%TO.C,SW6*%
X110998000Y-79248000D03*
D15*
X116078000Y-79248000D03*
D14*
X121158000Y-79248000D03*
D16*
X118618000Y-74168000D03*
X112268000Y-76708000D03*
%TD*%
D14*
%TO.C,SW5*%
X110998000Y-60198000D03*
D15*
X116078000Y-60198000D03*
D14*
X121158000Y-60198000D03*
D16*
X118618000Y-55118000D03*
X112268000Y-57658000D03*
%TD*%
D14*
%TO.C,SW4*%
X91948000Y-79248000D03*
D15*
X97028000Y-79248000D03*
D14*
X102108000Y-79248000D03*
D16*
X99568000Y-74168000D03*
X93218000Y-76708000D03*
%TD*%
D14*
%TO.C,SW3*%
X91948000Y-60198000D03*
D15*
X97028000Y-60198000D03*
D14*
X102108000Y-60198000D03*
D16*
X99568000Y-55118000D03*
X93218000Y-57658000D03*
%TD*%
D14*
%TO.C,SW2*%
X72898000Y-79248000D03*
D15*
X77978000Y-79248000D03*
D14*
X83058000Y-79248000D03*
D16*
X80518000Y-74168000D03*
X74168000Y-76708000D03*
%TD*%
D14*
%TO.C,SW1*%
X72898000Y-60198000D03*
D15*
X77978000Y-60198000D03*
D14*
X83058000Y-60198000D03*
D16*
X80518000Y-55118000D03*
X74168000Y-57658000D03*
%TD*%
D17*
%TO.C,D8*%
X139954000Y-91186000D03*
D18*
X129794000Y-91186000D03*
%TD*%
D17*
%TO.C,D7*%
X140208000Y-48260000D03*
D18*
X130048000Y-48260000D03*
%TD*%
D17*
%TO.C,D6*%
X121412000Y-91186000D03*
D18*
X111252000Y-91186000D03*
%TD*%
D17*
%TO.C,D5*%
X121158000Y-48260000D03*
D18*
X110998000Y-48260000D03*
%TD*%
D17*
%TO.C,D4*%
X101854000Y-91186000D03*
D18*
X91694000Y-91186000D03*
%TD*%
D17*
%TO.C,D3*%
X102108000Y-48260000D03*
D18*
X91948000Y-48260000D03*
%TD*%
D17*
%TO.C,D2*%
X83058000Y-91186000D03*
D18*
X72898000Y-91186000D03*
%TD*%
D17*
%TO.C,D1*%
X83058000Y-48260000D03*
D18*
X72898000Y-48260000D03*
%TD*%
M02*
