%TF.GenerationSoftware,KiCad,Pcbnew,8.0.5*%
%TF.CreationDate,2024-10-03T21:29:06+02:00*%
%TF.ProjectId,knowabunga-macro,6b6e6f77-6162-4756-9e67-612d6d616372,rev?*%
%TF.SameCoordinates,Original*%
%TF.FileFunction,Copper,L2,Bot*%
%TF.FilePolarity,Positive*%
%FSLAX46Y46*%
G04 Gerber Fmt 4.6, Leading zero omitted, Abs format (unit mm)*
G04 Created by KiCad (PCBNEW 8.0.5) date 2024-10-03 21:29:06*
%MOMM*%
%LPD*%
G01*
G04 APERTURE LIST*
%TA.AperFunction,ComponentPad*%
%ADD10C,2.000000*%
%TD*%
%TA.AperFunction,ComponentPad*%
%ADD11R,1.700000X1.700000*%
%TD*%
%TA.AperFunction,ComponentPad*%
%ADD12O,1.700000X1.700000*%
%TD*%
%TA.AperFunction,ComponentPad*%
%ADD13R,1.600000X1.600000*%
%TD*%
%TA.AperFunction,ComponentPad*%
%ADD14C,1.600000*%
%TD*%
%TA.AperFunction,ComponentPad*%
%ADD15C,2.200000*%
%TD*%
%TA.AperFunction,ComponentPad*%
%ADD16R,2.200000X2.200000*%
%TD*%
%TA.AperFunction,ComponentPad*%
%ADD17O,2.200000X2.200000*%
%TD*%
%TA.AperFunction,ViaPad*%
%ADD18C,0.600000*%
%TD*%
%TA.AperFunction,Conductor*%
%ADD19C,0.200000*%
%TD*%
G04 APERTURE END LIST*
D10*
%TO.P,RST,1,1*%
%TO.N,GND*%
X174700000Y-85816000D03*
X168200000Y-85816000D03*
%TO.P,RST,2,2*%
%TO.N,RST*%
X174700000Y-81316000D03*
X168200000Y-81316000D03*
%TD*%
D11*
%TO.P,J1,1,Pin_1*%
%TO.N,GND*%
X163576000Y-89662000D03*
D12*
%TO.P,J1,2,Pin_2*%
%TO.N,VCC*%
X161036000Y-89662000D03*
%TO.P,J1,3,Pin_3*%
%TO.N,SCL*%
X158496000Y-89662000D03*
%TO.P,J1,4,Pin_4*%
%TO.N,SDA*%
X155956000Y-89662000D03*
%TD*%
D13*
%TO.P,U1,1,TX*%
%TO.N,unconnected-(U1-TX-Pad1)*%
X176022000Y-61976000D03*
D14*
%TO.P,U1,2,RX*%
%TO.N,unconnected-(U1-RX-Pad2)*%
X173482000Y-61976000D03*
%TO.P,U1,3,GND*%
%TO.N,GND*%
X170942000Y-61976000D03*
%TO.P,U1,4,GND*%
X168402000Y-61976000D03*
%TO.P,U1,5,SDA*%
%TO.N,SDA*%
X165862000Y-61976000D03*
%TO.P,U1,6,SCL*%
%TO.N,SCL*%
X163322000Y-61976000D03*
%TO.P,U1,7,D4*%
%TO.N,C0*%
X160782000Y-61976000D03*
%TO.P,U1,8,C6*%
%TO.N,C1*%
X158242000Y-61976000D03*
%TO.P,U1,9,D7*%
%TO.N,R0*%
X155702000Y-61976000D03*
%TO.P,U1,10,E6*%
%TO.N,R1*%
X153162000Y-61976000D03*
%TO.P,U1,11,B4*%
%TO.N,R2*%
X150622000Y-61976000D03*
%TO.P,U1,12,B5*%
%TO.N,R3*%
X148082000Y-61976000D03*
%TO.P,U1,13,B6*%
%TO.N,unconnected-(U1-B6-Pad13)*%
X148082000Y-77216000D03*
%TO.P,U1,14,B2*%
%TO.N,unconnected-(U1-B2-Pad14)*%
X150622000Y-77216000D03*
%TO.P,U1,15,B3*%
%TO.N,unconnected-(U1-B3-Pad15)*%
X153162000Y-77216000D03*
%TO.P,U1,16,B1*%
%TO.N,unconnected-(U1-B1-Pad16)*%
X155702000Y-77216000D03*
%TO.P,U1,17,F7*%
%TO.N,unconnected-(U1-F7-Pad17)*%
X158242000Y-77216000D03*
%TO.P,U1,18,F6*%
%TO.N,unconnected-(U1-F6-Pad18)*%
X160782000Y-77216000D03*
%TO.P,U1,19,F5*%
%TO.N,unconnected-(U1-F5-Pad19)*%
X163322000Y-77216000D03*
%TO.P,U1,20,F4*%
%TO.N,unconnected-(U1-F4-Pad20)*%
X165862000Y-77216000D03*
%TO.P,U1,21,VCC*%
%TO.N,VCC*%
X168402000Y-77216000D03*
%TO.P,U1,22,RST*%
%TO.N,RST*%
X170942000Y-77216000D03*
%TO.P,U1,23,GND*%
%TO.N,GND*%
X173482000Y-77216000D03*
%TO.P,U1,24,RAW*%
%TO.N,unconnected-(U1-RAW-Pad24)*%
X176022000Y-77216000D03*
%TD*%
D15*
%TO.P,SW8,1,1*%
%TO.N,C1*%
X137668000Y-74168000D03*
%TO.P,SW8,2,2*%
%TO.N,Net-(D8-A)*%
X131318000Y-76708000D03*
%TD*%
%TO.P,SW7,1,1*%
%TO.N,C0*%
X137668000Y-55118000D03*
%TO.P,SW7,2,2*%
%TO.N,Net-(D7-A)*%
X131318000Y-57658000D03*
%TD*%
%TO.P,SW6,1,1*%
%TO.N,C1*%
X118618000Y-74168000D03*
%TO.P,SW6,2,2*%
%TO.N,Net-(D6-A)*%
X112268000Y-76708000D03*
%TD*%
%TO.P,SW5,1,1*%
%TO.N,C0*%
X118618000Y-55118000D03*
%TO.P,SW5,2,2*%
%TO.N,Net-(D5-A)*%
X112268000Y-57658000D03*
%TD*%
%TO.P,SW4,1,1*%
%TO.N,C1*%
X99568000Y-74168000D03*
%TO.P,SW4,2,2*%
%TO.N,Net-(D4-A)*%
X93218000Y-76708000D03*
%TD*%
%TO.P,SW3,1,1*%
%TO.N,C0*%
X99568000Y-55118000D03*
%TO.P,SW3,2,2*%
%TO.N,Net-(D3-A)*%
X93218000Y-57658000D03*
%TD*%
%TO.P,SW2,1,1*%
%TO.N,C1*%
X80518000Y-74168000D03*
%TO.P,SW2,2,2*%
%TO.N,Net-(D2-A)*%
X74168000Y-76708000D03*
%TD*%
%TO.P,SW1,1,1*%
%TO.N,C0*%
X80518000Y-55118000D03*
%TO.P,SW1,2,2*%
%TO.N,Net-(D1-A)*%
X74168000Y-57658000D03*
%TD*%
D16*
%TO.P,D8,1,K*%
%TO.N,R3*%
X139954000Y-91186000D03*
D17*
%TO.P,D8,2,A*%
%TO.N,Net-(D8-A)*%
X129794000Y-91186000D03*
%TD*%
D16*
%TO.P,D7,1,K*%
%TO.N,R3*%
X140208000Y-48260000D03*
D17*
%TO.P,D7,2,A*%
%TO.N,Net-(D7-A)*%
X130048000Y-48260000D03*
%TD*%
D16*
%TO.P,D6,1,K*%
%TO.N,R2*%
X121412000Y-91186000D03*
D17*
%TO.P,D6,2,A*%
%TO.N,Net-(D6-A)*%
X111252000Y-91186000D03*
%TD*%
D16*
%TO.P,D5,1,K*%
%TO.N,R2*%
X121158000Y-48260000D03*
D17*
%TO.P,D5,2,A*%
%TO.N,Net-(D5-A)*%
X110998000Y-48260000D03*
%TD*%
D16*
%TO.P,D4,1,K*%
%TO.N,R1*%
X101854000Y-91186000D03*
D17*
%TO.P,D4,2,A*%
%TO.N,Net-(D4-A)*%
X91694000Y-91186000D03*
%TD*%
D16*
%TO.P,D3,1,K*%
%TO.N,R1*%
X102108000Y-48260000D03*
D17*
%TO.P,D3,2,A*%
%TO.N,Net-(D3-A)*%
X91948000Y-48260000D03*
%TD*%
D16*
%TO.P,D2,1,K*%
%TO.N,R0*%
X83058000Y-91186000D03*
D17*
%TO.P,D2,2,A*%
%TO.N,Net-(D2-A)*%
X72898000Y-91186000D03*
%TD*%
D16*
%TO.P,D1,1,K*%
%TO.N,R0*%
X83058000Y-48260000D03*
D17*
%TO.P,D1,2,A*%
%TO.N,Net-(D1-A)*%
X72898000Y-48260000D03*
%TD*%
D18*
%TO.N,R2*%
X124968000Y-68580000D03*
%TO.N,R1*%
X105918000Y-69850000D03*
%TO.N,R0*%
X86868000Y-71120000D03*
%TD*%
D19*
%TO.N,R3*%
X148082000Y-61976000D02*
X146558000Y-61976000D01*
X146558000Y-61976000D02*
X144018000Y-59436000D01*
X144018000Y-52070000D02*
X144018000Y-59436000D01*
X144018000Y-59436000D02*
X144018000Y-61722000D01*
X144018000Y-61722000D02*
X144018000Y-87122000D01*
%TO.N,R2*%
X124968000Y-70612000D02*
X124968000Y-87630000D01*
%TO.N,R1*%
X105918000Y-68834000D02*
X105918000Y-87122000D01*
%TO.N,R0*%
X86868000Y-67818000D02*
X86868000Y-87376000D01*
%TO.N,Net-(D1-A)*%
X72898000Y-56388000D02*
X74168000Y-57658000D01*
X72898000Y-48260000D02*
X72898000Y-56388000D01*
%TO.N,Net-(D7-A)*%
X130048000Y-56388000D02*
X131318000Y-57658000D01*
X130048000Y-48260000D02*
X130048000Y-56388000D01*
%TO.N,Net-(D5-A)*%
X110998000Y-56388000D02*
X112268000Y-57658000D01*
X110998000Y-48260000D02*
X110998000Y-56388000D01*
%TO.N,Net-(D3-A)*%
X91948000Y-56388000D02*
X93218000Y-57658000D01*
X91948000Y-48260000D02*
X91948000Y-56388000D01*
%TO.N,R3*%
X144018000Y-87122000D02*
X139954000Y-91186000D01*
X140208000Y-48260000D02*
X144018000Y-52070000D01*
%TO.N,R2*%
X124968000Y-87630000D02*
X121412000Y-91186000D01*
X124968000Y-52070000D02*
X124968000Y-70612000D01*
X121158000Y-48260000D02*
X124968000Y-52070000D01*
%TO.N,R1*%
X105918000Y-52070000D02*
X105918000Y-68834000D01*
X105918000Y-87122000D02*
X101854000Y-91186000D01*
X102108000Y-48260000D02*
X105918000Y-52070000D01*
%TO.N,R0*%
X86868000Y-87376000D02*
X83058000Y-91186000D01*
X84836000Y-48260000D02*
X86868000Y-50292000D01*
X83058000Y-48260000D02*
X84836000Y-48260000D01*
X86868000Y-50292000D02*
X86868000Y-67818000D01*
%TD*%
%TA.AperFunction,Conductor*%
%TO.N,GND*%
G36*
X176280418Y-43426816D02*
G01*
X176485111Y-43441455D01*
X176502620Y-43443973D01*
X176698813Y-43486653D01*
X176715768Y-43491630D01*
X176903909Y-43561803D01*
X176919987Y-43569147D01*
X177096210Y-43665371D01*
X177111084Y-43674929D01*
X177271822Y-43795257D01*
X177285192Y-43806843D01*
X177427156Y-43948807D01*
X177438742Y-43962177D01*
X177559066Y-44122910D01*
X177568631Y-44137794D01*
X177664850Y-44314007D01*
X177672200Y-44330100D01*
X177742364Y-44518217D01*
X177747348Y-44535193D01*
X177790026Y-44731379D01*
X177792544Y-44748891D01*
X177807184Y-44953581D01*
X177807500Y-44962427D01*
X177807500Y-94229572D01*
X177807184Y-94238418D01*
X177792544Y-94443108D01*
X177790026Y-94460620D01*
X177747348Y-94656806D01*
X177742364Y-94673782D01*
X177672200Y-94861899D01*
X177664850Y-94877992D01*
X177568631Y-95054205D01*
X177559066Y-95069089D01*
X177438742Y-95229822D01*
X177427156Y-95243192D01*
X177285192Y-95385156D01*
X177271822Y-95396742D01*
X177111089Y-95517066D01*
X177096205Y-95526631D01*
X176919992Y-95622850D01*
X176903899Y-95630200D01*
X176715782Y-95700364D01*
X176698806Y-95705348D01*
X176502620Y-95748026D01*
X176485108Y-95750544D01*
X176280418Y-95765184D01*
X176271572Y-95765500D01*
X61980428Y-95765500D01*
X61971582Y-95765184D01*
X61766891Y-95750544D01*
X61749379Y-95748026D01*
X61553193Y-95705348D01*
X61536222Y-95700365D01*
X61348096Y-95630198D01*
X61332007Y-95622850D01*
X61155794Y-95526631D01*
X61140910Y-95517066D01*
X60980177Y-95396742D01*
X60966807Y-95385156D01*
X60824843Y-95243192D01*
X60813257Y-95229822D01*
X60692929Y-95069084D01*
X60683371Y-95054210D01*
X60587147Y-94877987D01*
X60579803Y-94861909D01*
X60509630Y-94673768D01*
X60504653Y-94656813D01*
X60461973Y-94460620D01*
X60459455Y-94443108D01*
X60444816Y-94238418D01*
X60444500Y-94229572D01*
X60444500Y-91826711D01*
X62665500Y-91826711D01*
X62665500Y-92069288D01*
X62697161Y-92309785D01*
X62759947Y-92544104D01*
X62852773Y-92768205D01*
X62852777Y-92768214D01*
X62866191Y-92791448D01*
X62974064Y-92978289D01*
X62974066Y-92978292D01*
X62974067Y-92978293D01*
X63121733Y-93170736D01*
X63121739Y-93170743D01*
X63293256Y-93342260D01*
X63293262Y-93342265D01*
X63485711Y-93489936D01*
X63695788Y-93611224D01*
X63919900Y-93704054D01*
X64154211Y-93766838D01*
X64334586Y-93790584D01*
X64394711Y-93798500D01*
X64394712Y-93798500D01*
X64637289Y-93798500D01*
X64685388Y-93792167D01*
X64877789Y-93766838D01*
X65112100Y-93704054D01*
X65336212Y-93611224D01*
X65546289Y-93489936D01*
X65738738Y-93342265D01*
X65910265Y-93170738D01*
X66057936Y-92978289D01*
X66179224Y-92768212D01*
X66272054Y-92544100D01*
X66334838Y-92309789D01*
X66366500Y-92069288D01*
X66366500Y-91826712D01*
X66334838Y-91586211D01*
X66272054Y-91351900D01*
X66203336Y-91186000D01*
X71292551Y-91186000D01*
X71312317Y-91437151D01*
X71371126Y-91682110D01*
X71467533Y-91914859D01*
X71599160Y-92129653D01*
X71599161Y-92129656D01*
X71599164Y-92129659D01*
X71762776Y-92321224D01*
X71911066Y-92447875D01*
X71954343Y-92484838D01*
X71954346Y-92484839D01*
X72169140Y-92616466D01*
X72401889Y-92712873D01*
X72646852Y-92771683D01*
X72898000Y-92791449D01*
X73149148Y-92771683D01*
X73394111Y-92712873D01*
X73626859Y-92616466D01*
X73841659Y-92484836D01*
X74033224Y-92321224D01*
X74196836Y-92129659D01*
X74328466Y-91914859D01*
X74424873Y-91682111D01*
X74483683Y-91437148D01*
X74503449Y-91186000D01*
X74483683Y-90934852D01*
X74424873Y-90689889D01*
X74368478Y-90553739D01*
X74328466Y-90457140D01*
X74196839Y-90242346D01*
X74196838Y-90242343D01*
X74097184Y-90125664D01*
X74033224Y-90050776D01*
X73853659Y-89897413D01*
X73841656Y-89887161D01*
X73841653Y-89887160D01*
X73626859Y-89755533D01*
X73394110Y-89659126D01*
X73149151Y-89600317D01*
X72898000Y-89580551D01*
X72646848Y-89600317D01*
X72401889Y-89659126D01*
X72169140Y-89755533D01*
X71954346Y-89887160D01*
X71954343Y-89887161D01*
X71762776Y-90050776D01*
X71599161Y-90242343D01*
X71599160Y-90242346D01*
X71467533Y-90457140D01*
X71371126Y-90689889D01*
X71312317Y-90934848D01*
X71292551Y-91186000D01*
X66203336Y-91186000D01*
X66179224Y-91127788D01*
X66057936Y-90917711D01*
X65932384Y-90754088D01*
X65910266Y-90725263D01*
X65910260Y-90725256D01*
X65738743Y-90553739D01*
X65738736Y-90553733D01*
X65546293Y-90406067D01*
X65546292Y-90406066D01*
X65546289Y-90406064D01*
X65369885Y-90304217D01*
X65336214Y-90284777D01*
X65336205Y-90284773D01*
X65112104Y-90191947D01*
X64877785Y-90129161D01*
X64637289Y-90097500D01*
X64637288Y-90097500D01*
X64394712Y-90097500D01*
X64394711Y-90097500D01*
X64154214Y-90129161D01*
X63919895Y-90191947D01*
X63695794Y-90284773D01*
X63695785Y-90284777D01*
X63586554Y-90347842D01*
X63498960Y-90398415D01*
X63485706Y-90406067D01*
X63293263Y-90553733D01*
X63293256Y-90553739D01*
X63121739Y-90725256D01*
X63121733Y-90725263D01*
X62974067Y-90917706D01*
X62852777Y-91127785D01*
X62852773Y-91127794D01*
X62759947Y-91351895D01*
X62697161Y-91586214D01*
X62665500Y-91826711D01*
X60444500Y-91826711D01*
X60444500Y-79161389D01*
X71797500Y-79161389D01*
X71797500Y-79334611D01*
X71824598Y-79505701D01*
X71878127Y-79670445D01*
X71956768Y-79824788D01*
X72058586Y-79964928D01*
X72181072Y-80087414D01*
X72321212Y-80189232D01*
X72475555Y-80267873D01*
X72640299Y-80321402D01*
X72811389Y-80348500D01*
X72811390Y-80348500D01*
X72984610Y-80348500D01*
X72984611Y-80348500D01*
X73155701Y-80321402D01*
X73320445Y-80267873D01*
X73474788Y-80189232D01*
X73614928Y-80087414D01*
X73737414Y-79964928D01*
X73839232Y-79824788D01*
X73917873Y-79670445D01*
X73971402Y-79505701D01*
X73998500Y-79334611D01*
X73998500Y-79161389D01*
X73988854Y-79100486D01*
X75727500Y-79100486D01*
X75727500Y-79395513D01*
X75759571Y-79639113D01*
X75766007Y-79687993D01*
X75840212Y-79964930D01*
X75842361Y-79972951D01*
X75842364Y-79972961D01*
X75955254Y-80245500D01*
X75955258Y-80245510D01*
X76102761Y-80500993D01*
X76282352Y-80735040D01*
X76282358Y-80735047D01*
X76490952Y-80943641D01*
X76490959Y-80943647D01*
X76725006Y-81123238D01*
X76980489Y-81270741D01*
X76980490Y-81270741D01*
X76980493Y-81270743D01*
X77253048Y-81383639D01*
X77538007Y-81459993D01*
X77830494Y-81498500D01*
X77830501Y-81498500D01*
X78125499Y-81498500D01*
X78125506Y-81498500D01*
X78417993Y-81459993D01*
X78702952Y-81383639D01*
X78975507Y-81270743D01*
X79230994Y-81123238D01*
X79465042Y-80943646D01*
X79673646Y-80735042D01*
X79853238Y-80500994D01*
X80000743Y-80245507D01*
X80113639Y-79972952D01*
X80189993Y-79687993D01*
X80228500Y-79395506D01*
X80228500Y-79161389D01*
X81957500Y-79161389D01*
X81957500Y-79334611D01*
X81984598Y-79505701D01*
X82038127Y-79670445D01*
X82116768Y-79824788D01*
X82218586Y-79964928D01*
X82341072Y-80087414D01*
X82481212Y-80189232D01*
X82635555Y-80267873D01*
X82800299Y-80321402D01*
X82971389Y-80348500D01*
X82971390Y-80348500D01*
X83144610Y-80348500D01*
X83144611Y-80348500D01*
X83315701Y-80321402D01*
X83480445Y-80267873D01*
X83634788Y-80189232D01*
X83774928Y-80087414D01*
X83897414Y-79964928D01*
X83999232Y-79824788D01*
X84077873Y-79670445D01*
X84131402Y-79505701D01*
X84158500Y-79334611D01*
X84158500Y-79161389D01*
X84131402Y-78990299D01*
X84077873Y-78825555D01*
X83999232Y-78671212D01*
X83897414Y-78531072D01*
X83774928Y-78408586D01*
X83634788Y-78306768D01*
X83480445Y-78228127D01*
X83315701Y-78174598D01*
X83315699Y-78174597D01*
X83315698Y-78174597D01*
X83184271Y-78153781D01*
X83144611Y-78147500D01*
X82971389Y-78147500D01*
X82931728Y-78153781D01*
X82800302Y-78174597D01*
X82635552Y-78228128D01*
X82481211Y-78306768D01*
X82426432Y-78346568D01*
X82341072Y-78408586D01*
X82341070Y-78408588D01*
X82341069Y-78408588D01*
X82218588Y-78531069D01*
X82218588Y-78531070D01*
X82218586Y-78531072D01*
X82174859Y-78591256D01*
X82116768Y-78671211D01*
X82038128Y-78825552D01*
X81984597Y-78990302D01*
X81967146Y-79100486D01*
X81957500Y-79161389D01*
X80228500Y-79161389D01*
X80228500Y-79100494D01*
X80189993Y-78808007D01*
X80113639Y-78523048D01*
X80104769Y-78501635D01*
X80080374Y-78442739D01*
X80000743Y-78250493D01*
X79936064Y-78138466D01*
X79853238Y-77995006D01*
X79673647Y-77760959D01*
X79673641Y-77760952D01*
X79465047Y-77552358D01*
X79465040Y-77552352D01*
X79230993Y-77372761D01*
X78975510Y-77225258D01*
X78975500Y-77225254D01*
X78702961Y-77112364D01*
X78702954Y-77112362D01*
X78702952Y-77112361D01*
X78417993Y-77036007D01*
X78369113Y-77029571D01*
X78125513Y-76997500D01*
X78125506Y-76997500D01*
X77830494Y-76997500D01*
X77830486Y-76997500D01*
X77552085Y-77034153D01*
X77538007Y-77036007D01*
X77253048Y-77112361D01*
X77253038Y-77112364D01*
X76980499Y-77225254D01*
X76980489Y-77225258D01*
X76725006Y-77372761D01*
X76490959Y-77552352D01*
X76490952Y-77552358D01*
X76282358Y-77760952D01*
X76282352Y-77760959D01*
X76102761Y-77995006D01*
X75955258Y-78250489D01*
X75955254Y-78250499D01*
X75842364Y-78523038D01*
X75842361Y-78523048D01*
X75766008Y-78808004D01*
X75766006Y-78808015D01*
X75727500Y-79100486D01*
X73988854Y-79100486D01*
X73971402Y-78990299D01*
X73917873Y-78825555D01*
X73839232Y-78671212D01*
X73737414Y-78531072D01*
X73679232Y-78472890D01*
X73645747Y-78411567D01*
X73650731Y-78341875D01*
X73692603Y-78285942D01*
X73758067Y-78261525D01*
X73795856Y-78264634D01*
X73916852Y-78293683D01*
X74168000Y-78313449D01*
X74419148Y-78293683D01*
X74664111Y-78234873D01*
X74896859Y-78138466D01*
X75111659Y-78006836D01*
X75303224Y-77843224D01*
X75466836Y-77651659D01*
X75598466Y-77436859D01*
X75694873Y-77204111D01*
X75753683Y-76959148D01*
X75773449Y-76708000D01*
X75753683Y-76456852D01*
X75694873Y-76211889D01*
X75642493Y-76085431D01*
X75598466Y-75979140D01*
X75466839Y-75764346D01*
X75466838Y-75764343D01*
X75325165Y-75598466D01*
X75303224Y-75572776D01*
X75176571Y-75464604D01*
X75111656Y-75409161D01*
X75111653Y-75409160D01*
X74896859Y-75277533D01*
X74664110Y-75181126D01*
X74419151Y-75122317D01*
X74168000Y-75102551D01*
X73916848Y-75122317D01*
X73671889Y-75181126D01*
X73439140Y-75277533D01*
X73224346Y-75409160D01*
X73224343Y-75409161D01*
X73032776Y-75572776D01*
X72869161Y-75764343D01*
X72869160Y-75764346D01*
X72737533Y-75979140D01*
X72641126Y-76211889D01*
X72582317Y-76456848D01*
X72562551Y-76708000D01*
X72582317Y-76959151D01*
X72641126Y-77204110D01*
X72737533Y-77436859D01*
X72869160Y-77651653D01*
X72869161Y-77651656D01*
X72924604Y-77716571D01*
X73032776Y-77843224D01*
X73062646Y-77868735D01*
X73146783Y-77940595D01*
X73184976Y-77999102D01*
X73185474Y-78068970D01*
X73148121Y-78128016D01*
X73084774Y-78157494D01*
X73046854Y-78157358D01*
X72984611Y-78147500D01*
X72811389Y-78147500D01*
X72771728Y-78153781D01*
X72640302Y-78174597D01*
X72475552Y-78228128D01*
X72321211Y-78306768D01*
X72266432Y-78346568D01*
X72181072Y-78408586D01*
X72181070Y-78408588D01*
X72181069Y-78408588D01*
X72058588Y-78531069D01*
X72058588Y-78531070D01*
X72058586Y-78531072D01*
X72014859Y-78591256D01*
X71956768Y-78671211D01*
X71878128Y-78825552D01*
X71824597Y-78990302D01*
X71807146Y-79100486D01*
X71797500Y-79161389D01*
X60444500Y-79161389D01*
X60444500Y-74168000D01*
X78912551Y-74168000D01*
X78932317Y-74419151D01*
X78991126Y-74664110D01*
X79087533Y-74896859D01*
X79219160Y-75111653D01*
X79219161Y-75111656D01*
X79274604Y-75176571D01*
X79382776Y-75303224D01*
X79506811Y-75409160D01*
X79574343Y-75466838D01*
X79574346Y-75466839D01*
X79789140Y-75598466D01*
X80021889Y-75694873D01*
X80266852Y-75753683D01*
X80518000Y-75773449D01*
X80769148Y-75753683D01*
X81014111Y-75694873D01*
X81246859Y-75598466D01*
X81461659Y-75466836D01*
X81653224Y-75303224D01*
X81816836Y-75111659D01*
X81948466Y-74896859D01*
X82044873Y-74664111D01*
X82103683Y-74419148D01*
X82123449Y-74168000D01*
X82103683Y-73916852D01*
X82044873Y-73671889D01*
X81948466Y-73439141D01*
X81948466Y-73439140D01*
X81816839Y-73224346D01*
X81816838Y-73224343D01*
X81779875Y-73181066D01*
X81653224Y-73032776D01*
X81526571Y-72924604D01*
X81461656Y-72869161D01*
X81461653Y-72869160D01*
X81246859Y-72737533D01*
X81014110Y-72641126D01*
X80769151Y-72582317D01*
X80518000Y-72562551D01*
X80266848Y-72582317D01*
X80021889Y-72641126D01*
X79789140Y-72737533D01*
X79574346Y-72869160D01*
X79574343Y-72869161D01*
X79382776Y-73032776D01*
X79219161Y-73224343D01*
X79219160Y-73224346D01*
X79087533Y-73439140D01*
X78991126Y-73671889D01*
X78932317Y-73916848D01*
X78912551Y-74168000D01*
X60444500Y-74168000D01*
X60444500Y-46868711D01*
X62665500Y-46868711D01*
X62665500Y-47111288D01*
X62697161Y-47351785D01*
X62759947Y-47586104D01*
X62819286Y-47729360D01*
X62852776Y-47810212D01*
X62974064Y-48020289D01*
X62974066Y-48020292D01*
X62974067Y-48020293D01*
X63121733Y-48212736D01*
X63121739Y-48212743D01*
X63293256Y-48384260D01*
X63293262Y-48384265D01*
X63485711Y-48531936D01*
X63695788Y-48653224D01*
X63919900Y-48746054D01*
X64154211Y-48808838D01*
X64334586Y-48832584D01*
X64394711Y-48840500D01*
X64394712Y-48840500D01*
X64637289Y-48840500D01*
X64685388Y-48834167D01*
X64877789Y-48808838D01*
X65112100Y-48746054D01*
X65336212Y-48653224D01*
X65546289Y-48531936D01*
X65738738Y-48384265D01*
X65863003Y-48260000D01*
X71292551Y-48260000D01*
X71312317Y-48511151D01*
X71371126Y-48756110D01*
X71467533Y-48988859D01*
X71599160Y-49203653D01*
X71599161Y-49203656D01*
X71599164Y-49203659D01*
X71762776Y-49395224D01*
X71847384Y-49467486D01*
X71954343Y-49558838D01*
X71954345Y-49558838D01*
X72169141Y-49690466D01*
X72220953Y-49711927D01*
X72275355Y-49755765D01*
X72297421Y-49822059D01*
X72297500Y-49826487D01*
X72297500Y-56301330D01*
X72297499Y-56301348D01*
X72297499Y-56467054D01*
X72297498Y-56467054D01*
X72338423Y-56619786D01*
X72352906Y-56644869D01*
X72352907Y-56644874D01*
X72352909Y-56644874D01*
X72417479Y-56756714D01*
X72417481Y-56756717D01*
X72536349Y-56875585D01*
X72536355Y-56875590D01*
X72635707Y-56974942D01*
X72669192Y-57036265D01*
X72664208Y-57105957D01*
X72662588Y-57110073D01*
X72641127Y-57161886D01*
X72641127Y-57161887D01*
X72582317Y-57406848D01*
X72562551Y-57658000D01*
X72582317Y-57909151D01*
X72641126Y-58154110D01*
X72737533Y-58386859D01*
X72869160Y-58601653D01*
X72869161Y-58601656D01*
X72869164Y-58601659D01*
X73032776Y-58793224D01*
X73146783Y-58890595D01*
X73184976Y-58949102D01*
X73185474Y-59018970D01*
X73148121Y-59078016D01*
X73084774Y-59107494D01*
X73046854Y-59107358D01*
X72984611Y-59097500D01*
X72811389Y-59097500D01*
X72771728Y-59103781D01*
X72640302Y-59124597D01*
X72475552Y-59178128D01*
X72321211Y-59256768D01*
X72241256Y-59314859D01*
X72181072Y-59358586D01*
X72181070Y-59358588D01*
X72181069Y-59358588D01*
X72058588Y-59481069D01*
X72058588Y-59481070D01*
X72058586Y-59481072D01*
X72014859Y-59541256D01*
X71956768Y-59621211D01*
X71878128Y-59775552D01*
X71824597Y-59940302D01*
X71807146Y-60050486D01*
X71797500Y-60111389D01*
X71797500Y-60284611D01*
X71824598Y-60455701D01*
X71878127Y-60620445D01*
X71956768Y-60774788D01*
X72058586Y-60914928D01*
X72181072Y-61037414D01*
X72321212Y-61139232D01*
X72475555Y-61217873D01*
X72640299Y-61271402D01*
X72811389Y-61298500D01*
X72811390Y-61298500D01*
X72984610Y-61298500D01*
X72984611Y-61298500D01*
X73155701Y-61271402D01*
X73320445Y-61217873D01*
X73474788Y-61139232D01*
X73614928Y-61037414D01*
X73737414Y-60914928D01*
X73839232Y-60774788D01*
X73917873Y-60620445D01*
X73971402Y-60455701D01*
X73998500Y-60284611D01*
X73998500Y-60111389D01*
X73988854Y-60050486D01*
X75727500Y-60050486D01*
X75727500Y-60345513D01*
X75759571Y-60589113D01*
X75766007Y-60637993D01*
X75840212Y-60914930D01*
X75842361Y-60922951D01*
X75842364Y-60922961D01*
X75955254Y-61195500D01*
X75955258Y-61195510D01*
X76102761Y-61450993D01*
X76282352Y-61685040D01*
X76282358Y-61685047D01*
X76490952Y-61893641D01*
X76490959Y-61893647D01*
X76725006Y-62073238D01*
X76980489Y-62220741D01*
X76980490Y-62220741D01*
X76980493Y-62220743D01*
X77191296Y-62308060D01*
X77243183Y-62329553D01*
X77253048Y-62333639D01*
X77538007Y-62409993D01*
X77830494Y-62448500D01*
X77830501Y-62448500D01*
X78125499Y-62448500D01*
X78125506Y-62448500D01*
X78417993Y-62409993D01*
X78702952Y-62333639D01*
X78975507Y-62220743D01*
X79230994Y-62073238D01*
X79465042Y-61893646D01*
X79673646Y-61685042D01*
X79853238Y-61450994D01*
X80000743Y-61195507D01*
X80113639Y-60922952D01*
X80189993Y-60637993D01*
X80228500Y-60345506D01*
X80228500Y-60111389D01*
X81957500Y-60111389D01*
X81957500Y-60284611D01*
X81984598Y-60455701D01*
X82038127Y-60620445D01*
X82116768Y-60774788D01*
X82218586Y-60914928D01*
X82341072Y-61037414D01*
X82481212Y-61139232D01*
X82635555Y-61217873D01*
X82800299Y-61271402D01*
X82971389Y-61298500D01*
X82971390Y-61298500D01*
X83144610Y-61298500D01*
X83144611Y-61298500D01*
X83315701Y-61271402D01*
X83480445Y-61217873D01*
X83634788Y-61139232D01*
X83774928Y-61037414D01*
X83897414Y-60914928D01*
X83999232Y-60774788D01*
X84077873Y-60620445D01*
X84131402Y-60455701D01*
X84158500Y-60284611D01*
X84158500Y-60111389D01*
X84131402Y-59940299D01*
X84077873Y-59775555D01*
X83999232Y-59621212D01*
X83897414Y-59481072D01*
X83774928Y-59358586D01*
X83634788Y-59256768D01*
X83524333Y-59200489D01*
X83480447Y-59178128D01*
X83480446Y-59178127D01*
X83480445Y-59178127D01*
X83315701Y-59124598D01*
X83315699Y-59124597D01*
X83315698Y-59124597D01*
X83184271Y-59103781D01*
X83144611Y-59097500D01*
X82971389Y-59097500D01*
X82931728Y-59103781D01*
X82800302Y-59124597D01*
X82635552Y-59178128D01*
X82481211Y-59256768D01*
X82401256Y-59314859D01*
X82341072Y-59358586D01*
X82341070Y-59358588D01*
X82341069Y-59358588D01*
X82218588Y-59481069D01*
X82218588Y-59481070D01*
X82218586Y-59481072D01*
X82174859Y-59541256D01*
X82116768Y-59621211D01*
X82038128Y-59775552D01*
X81984597Y-59940302D01*
X81967146Y-60050486D01*
X81957500Y-60111389D01*
X80228500Y-60111389D01*
X80228500Y-60050494D01*
X80189993Y-59758007D01*
X80113639Y-59473048D01*
X80000743Y-59200493D01*
X79936064Y-59088466D01*
X79853238Y-58945006D01*
X79673647Y-58710959D01*
X79673641Y-58710952D01*
X79465047Y-58502358D01*
X79465040Y-58502352D01*
X79230993Y-58322761D01*
X78975510Y-58175258D01*
X78975500Y-58175254D01*
X78702961Y-58062364D01*
X78702954Y-58062362D01*
X78702952Y-58062361D01*
X78417993Y-57986007D01*
X78369113Y-57979571D01*
X78125513Y-57947500D01*
X78125506Y-57947500D01*
X77830494Y-57947500D01*
X77830486Y-57947500D01*
X77552085Y-57984153D01*
X77538007Y-57986007D01*
X77253048Y-58062361D01*
X77253038Y-58062364D01*
X76980499Y-58175254D01*
X76980489Y-58175258D01*
X76725006Y-58322761D01*
X76490959Y-58502352D01*
X76490952Y-58502358D01*
X76282358Y-58710952D01*
X76282352Y-58710959D01*
X76102761Y-58945006D01*
X75955258Y-59200489D01*
X75955254Y-59200499D01*
X75842364Y-59473038D01*
X75842361Y-59473048D01*
X75766008Y-59758004D01*
X75766006Y-59758015D01*
X75727500Y-60050486D01*
X73988854Y-60050486D01*
X73971402Y-59940299D01*
X73917873Y-59775555D01*
X73839232Y-59621212D01*
X73737414Y-59481072D01*
X73679232Y-59422890D01*
X73645747Y-59361567D01*
X73650731Y-59291875D01*
X73692603Y-59235942D01*
X73758067Y-59211525D01*
X73795856Y-59214634D01*
X73916852Y-59243683D01*
X74168000Y-59263449D01*
X74419148Y-59243683D01*
X74664111Y-59184873D01*
X74896859Y-59088466D01*
X75111659Y-58956836D01*
X75303224Y-58793224D01*
X75466836Y-58601659D01*
X75598466Y-58386859D01*
X75694873Y-58154111D01*
X75753683Y-57909148D01*
X75773449Y-57658000D01*
X75753683Y-57406852D01*
X75694873Y-57161889D01*
X75641705Y-57033529D01*
X75598466Y-56929140D01*
X75466839Y-56714346D01*
X75466838Y-56714343D01*
X75429875Y-56671066D01*
X75303224Y-56522776D01*
X75176571Y-56414604D01*
X75111656Y-56359161D01*
X75111653Y-56359160D01*
X74896859Y-56227533D01*
X74664110Y-56131126D01*
X74419151Y-56072317D01*
X74168000Y-56052551D01*
X73916848Y-56072317D01*
X73671888Y-56131126D01*
X73669942Y-56131933D01*
X73669143Y-56132018D01*
X73667256Y-56132632D01*
X73667127Y-56132235D01*
X73600472Y-56139395D01*
X73537996Y-56108114D01*
X73502349Y-56048022D01*
X73498500Y-56017367D01*
X73498500Y-55118000D01*
X78912551Y-55118000D01*
X78932317Y-55369151D01*
X78991126Y-55614110D01*
X79087533Y-55846859D01*
X79219160Y-56061653D01*
X79219161Y-56061656D01*
X79258840Y-56108114D01*
X79382776Y-56253224D01*
X79448015Y-56308943D01*
X79574343Y-56416838D01*
X79574346Y-56416839D01*
X79789140Y-56548466D01*
X79961321Y-56619785D01*
X80021889Y-56644873D01*
X80266852Y-56703683D01*
X80518000Y-56723449D01*
X80769148Y-56703683D01*
X81014111Y-56644873D01*
X81246859Y-56548466D01*
X81461659Y-56416836D01*
X81653224Y-56253224D01*
X81816836Y-56061659D01*
X81948466Y-55846859D01*
X82044873Y-55614111D01*
X82103683Y-55369148D01*
X82123449Y-55118000D01*
X82103683Y-54866852D01*
X82044873Y-54621889D01*
X81948466Y-54389141D01*
X81948466Y-54389140D01*
X81816839Y-54174346D01*
X81816838Y-54174343D01*
X81779875Y-54131066D01*
X81653224Y-53982776D01*
X81526571Y-53874604D01*
X81461656Y-53819161D01*
X81461653Y-53819160D01*
X81246859Y-53687533D01*
X81014110Y-53591126D01*
X80769151Y-53532317D01*
X80518000Y-53512551D01*
X80266848Y-53532317D01*
X80021889Y-53591126D01*
X79789140Y-53687533D01*
X79574346Y-53819160D01*
X79574343Y-53819161D01*
X79382776Y-53982776D01*
X79219161Y-54174343D01*
X79219160Y-54174346D01*
X79087533Y-54389140D01*
X78991126Y-54621889D01*
X78932317Y-54866848D01*
X78912551Y-55118000D01*
X73498500Y-55118000D01*
X73498500Y-49826487D01*
X73518185Y-49759448D01*
X73570989Y-49713693D01*
X73575002Y-49711945D01*
X73626859Y-49690466D01*
X73841659Y-49558836D01*
X74033224Y-49395224D01*
X74196836Y-49203659D01*
X74328466Y-48988859D01*
X74424873Y-48756111D01*
X74483683Y-48511148D01*
X74503449Y-48260000D01*
X74483683Y-48008852D01*
X74424873Y-47763889D01*
X74381634Y-47659500D01*
X74328466Y-47531140D01*
X74196839Y-47316346D01*
X74196838Y-47316343D01*
X74159875Y-47273066D01*
X74033224Y-47124776D01*
X74018423Y-47112135D01*
X81457500Y-47112135D01*
X81457500Y-49407870D01*
X81457501Y-49407876D01*
X81463908Y-49467483D01*
X81514202Y-49602328D01*
X81514206Y-49602335D01*
X81600452Y-49717544D01*
X81600455Y-49717547D01*
X81715664Y-49803793D01*
X81715671Y-49803797D01*
X81850517Y-49854091D01*
X81850516Y-49854091D01*
X81857444Y-49854835D01*
X81910127Y-49860500D01*
X84205872Y-49860499D01*
X84265483Y-49854091D01*
X84400331Y-49803796D01*
X84515546Y-49717546D01*
X84601796Y-49602331D01*
X84652091Y-49467483D01*
X84658500Y-49407873D01*
X84658499Y-49231094D01*
X84678183Y-49164057D01*
X84730987Y-49118302D01*
X84800145Y-49108358D01*
X84863701Y-49137383D01*
X84870180Y-49143415D01*
X86231181Y-50504416D01*
X86264666Y-50565739D01*
X86267500Y-50592097D01*
X86267500Y-70537587D01*
X86247815Y-70604626D01*
X86240450Y-70614896D01*
X86238186Y-70617734D01*
X86142211Y-70770476D01*
X86082631Y-70940745D01*
X86082630Y-70940750D01*
X86062435Y-71119996D01*
X86062435Y-71120003D01*
X86082630Y-71299249D01*
X86082631Y-71299254D01*
X86142211Y-71469523D01*
X86238185Y-71622263D01*
X86240445Y-71625097D01*
X86241334Y-71627275D01*
X86241889Y-71628158D01*
X86241734Y-71628255D01*
X86266855Y-71689783D01*
X86267500Y-71702412D01*
X86267500Y-87075902D01*
X86247815Y-87142941D01*
X86231181Y-87163583D01*
X83845582Y-89549181D01*
X83784259Y-89582666D01*
X83757901Y-89585500D01*
X81910129Y-89585500D01*
X81910123Y-89585501D01*
X81850516Y-89591908D01*
X81715671Y-89642202D01*
X81715664Y-89642206D01*
X81600455Y-89728452D01*
X81600452Y-89728455D01*
X81514206Y-89843664D01*
X81514202Y-89843671D01*
X81463908Y-89978517D01*
X81457501Y-90038116D01*
X81457500Y-90038135D01*
X81457500Y-92333870D01*
X81457501Y-92333876D01*
X81463908Y-92393483D01*
X81514202Y-92528328D01*
X81514206Y-92528335D01*
X81600452Y-92643544D01*
X81600455Y-92643547D01*
X81715664Y-92729793D01*
X81715671Y-92729797D01*
X81850517Y-92780091D01*
X81850516Y-92780091D01*
X81857444Y-92780835D01*
X81910127Y-92786500D01*
X84205872Y-92786499D01*
X84265483Y-92780091D01*
X84400331Y-92729796D01*
X84515546Y-92643546D01*
X84601796Y-92528331D01*
X84652091Y-92393483D01*
X84658500Y-92333873D01*
X84658499Y-91186000D01*
X90088551Y-91186000D01*
X90108317Y-91437151D01*
X90167126Y-91682110D01*
X90263533Y-91914859D01*
X90395160Y-92129653D01*
X90395161Y-92129656D01*
X90395164Y-92129659D01*
X90558776Y-92321224D01*
X90707066Y-92447875D01*
X90750343Y-92484838D01*
X90750346Y-92484839D01*
X90965140Y-92616466D01*
X91197889Y-92712873D01*
X91442852Y-92771683D01*
X91694000Y-92791449D01*
X91945148Y-92771683D01*
X92190111Y-92712873D01*
X92422859Y-92616466D01*
X92637659Y-92484836D01*
X92829224Y-92321224D01*
X92992836Y-92129659D01*
X93124466Y-91914859D01*
X93220873Y-91682111D01*
X93279683Y-91437148D01*
X93299449Y-91186000D01*
X93279683Y-90934852D01*
X93220873Y-90689889D01*
X93164478Y-90553739D01*
X93124466Y-90457140D01*
X92992839Y-90242346D01*
X92992838Y-90242343D01*
X92893184Y-90125664D01*
X92829224Y-90050776D01*
X92814423Y-90038135D01*
X100253500Y-90038135D01*
X100253500Y-92333870D01*
X100253501Y-92333876D01*
X100259908Y-92393483D01*
X100310202Y-92528328D01*
X100310206Y-92528335D01*
X100396452Y-92643544D01*
X100396455Y-92643547D01*
X100511664Y-92729793D01*
X100511671Y-92729797D01*
X100646517Y-92780091D01*
X100646516Y-92780091D01*
X100653444Y-92780835D01*
X100706127Y-92786500D01*
X103001872Y-92786499D01*
X103061483Y-92780091D01*
X103196331Y-92729796D01*
X103311546Y-92643546D01*
X103397796Y-92528331D01*
X103448091Y-92393483D01*
X103454500Y-92333873D01*
X103454499Y-91186000D01*
X109646551Y-91186000D01*
X109666317Y-91437151D01*
X109725126Y-91682110D01*
X109821533Y-91914859D01*
X109953160Y-92129653D01*
X109953161Y-92129656D01*
X109953164Y-92129659D01*
X110116776Y-92321224D01*
X110265066Y-92447875D01*
X110308343Y-92484838D01*
X110308346Y-92484839D01*
X110523140Y-92616466D01*
X110755889Y-92712873D01*
X111000852Y-92771683D01*
X111252000Y-92791449D01*
X111503148Y-92771683D01*
X111748111Y-92712873D01*
X111980859Y-92616466D01*
X112195659Y-92484836D01*
X112387224Y-92321224D01*
X112550836Y-92129659D01*
X112682466Y-91914859D01*
X112778873Y-91682111D01*
X112837683Y-91437148D01*
X112857449Y-91186000D01*
X112837683Y-90934852D01*
X112778873Y-90689889D01*
X112722478Y-90553739D01*
X112682466Y-90457140D01*
X112550839Y-90242346D01*
X112550838Y-90242343D01*
X112451184Y-90125664D01*
X112387224Y-90050776D01*
X112207659Y-89897413D01*
X112195656Y-89887161D01*
X112195653Y-89887160D01*
X111980859Y-89755533D01*
X111748110Y-89659126D01*
X111503151Y-89600317D01*
X111252000Y-89580551D01*
X111000848Y-89600317D01*
X110755889Y-89659126D01*
X110523140Y-89755533D01*
X110308346Y-89887160D01*
X110308343Y-89887161D01*
X110116776Y-90050776D01*
X109953161Y-90242343D01*
X109953160Y-90242346D01*
X109821533Y-90457140D01*
X109725126Y-90689889D01*
X109666317Y-90934848D01*
X109646551Y-91186000D01*
X103454499Y-91186000D01*
X103454499Y-90486095D01*
X103474184Y-90419057D01*
X103490813Y-90398420D01*
X106276506Y-87612728D01*
X106276511Y-87612724D01*
X106286714Y-87602520D01*
X106286716Y-87602520D01*
X106398520Y-87490716D01*
X106451924Y-87398216D01*
X106477577Y-87353785D01*
X106518501Y-87201057D01*
X106518501Y-87042943D01*
X106518501Y-87035348D01*
X106518500Y-87035330D01*
X106518500Y-79161389D01*
X109897500Y-79161389D01*
X109897500Y-79334611D01*
X109924598Y-79505701D01*
X109978127Y-79670445D01*
X110056768Y-79824788D01*
X110158586Y-79964928D01*
X110281072Y-80087414D01*
X110421212Y-80189232D01*
X110575555Y-80267873D01*
X110740299Y-80321402D01*
X110911389Y-80348500D01*
X110911390Y-80348500D01*
X111084610Y-80348500D01*
X111084611Y-80348500D01*
X111255701Y-80321402D01*
X111420445Y-80267873D01*
X111574788Y-80189232D01*
X111714928Y-80087414D01*
X111837414Y-79964928D01*
X111939232Y-79824788D01*
X112017873Y-79670445D01*
X112071402Y-79505701D01*
X112098500Y-79334611D01*
X112098500Y-79161389D01*
X112088854Y-79100486D01*
X113827500Y-79100486D01*
X113827500Y-79395513D01*
X113859571Y-79639113D01*
X113866007Y-79687993D01*
X113940212Y-79964930D01*
X113942361Y-79972951D01*
X113942364Y-79972961D01*
X114055254Y-80245500D01*
X114055258Y-80245510D01*
X114202761Y-80500993D01*
X114382352Y-80735040D01*
X114382358Y-80735047D01*
X114590952Y-80943641D01*
X114590959Y-80943647D01*
X114825006Y-81123238D01*
X115080489Y-81270741D01*
X115080490Y-81270741D01*
X115080493Y-81270743D01*
X115353048Y-81383639D01*
X115638007Y-81459993D01*
X115930494Y-81498500D01*
X115930501Y-81498500D01*
X116225499Y-81498500D01*
X116225506Y-81498500D01*
X116517993Y-81459993D01*
X116802952Y-81383639D01*
X117075507Y-81270743D01*
X117330994Y-81123238D01*
X117565042Y-80943646D01*
X117773646Y-80735042D01*
X117953238Y-80500994D01*
X118100743Y-80245507D01*
X118213639Y-79972952D01*
X118289993Y-79687993D01*
X118328500Y-79395506D01*
X118328500Y-79161389D01*
X120057500Y-79161389D01*
X120057500Y-79334611D01*
X120084598Y-79505701D01*
X120138127Y-79670445D01*
X120216768Y-79824788D01*
X120318586Y-79964928D01*
X120441072Y-80087414D01*
X120581212Y-80189232D01*
X120735555Y-80267873D01*
X120900299Y-80321402D01*
X121071389Y-80348500D01*
X121071390Y-80348500D01*
X121244610Y-80348500D01*
X121244611Y-80348500D01*
X121415701Y-80321402D01*
X121580445Y-80267873D01*
X121734788Y-80189232D01*
X121874928Y-80087414D01*
X121997414Y-79964928D01*
X122099232Y-79824788D01*
X122177873Y-79670445D01*
X122231402Y-79505701D01*
X122258500Y-79334611D01*
X122258500Y-79161389D01*
X122231402Y-78990299D01*
X122177873Y-78825555D01*
X122099232Y-78671212D01*
X121997414Y-78531072D01*
X121874928Y-78408586D01*
X121734788Y-78306768D01*
X121580445Y-78228127D01*
X121415701Y-78174598D01*
X121415699Y-78174597D01*
X121415698Y-78174597D01*
X121284271Y-78153781D01*
X121244611Y-78147500D01*
X121071389Y-78147500D01*
X121031728Y-78153781D01*
X120900302Y-78174597D01*
X120735552Y-78228128D01*
X120581211Y-78306768D01*
X120526432Y-78346568D01*
X120441072Y-78408586D01*
X120441070Y-78408588D01*
X120441069Y-78408588D01*
X120318588Y-78531069D01*
X120318588Y-78531070D01*
X120318586Y-78531072D01*
X120274859Y-78591256D01*
X120216768Y-78671211D01*
X120138128Y-78825552D01*
X120084597Y-78990302D01*
X120067146Y-79100486D01*
X120057500Y-79161389D01*
X118328500Y-79161389D01*
X118328500Y-79100494D01*
X118289993Y-78808007D01*
X118213639Y-78523048D01*
X118204769Y-78501635D01*
X118180374Y-78442739D01*
X118100743Y-78250493D01*
X118036064Y-78138466D01*
X117953238Y-77995006D01*
X117773647Y-77760959D01*
X117773641Y-77760952D01*
X117565047Y-77552358D01*
X117565040Y-77552352D01*
X117330993Y-77372761D01*
X117075510Y-77225258D01*
X117075500Y-77225254D01*
X116802961Y-77112364D01*
X116802954Y-77112362D01*
X116802952Y-77112361D01*
X116517993Y-77036007D01*
X116469113Y-77029571D01*
X116225513Y-76997500D01*
X116225506Y-76997500D01*
X115930494Y-76997500D01*
X115930486Y-76997500D01*
X115652085Y-77034153D01*
X115638007Y-77036007D01*
X115353048Y-77112361D01*
X115353038Y-77112364D01*
X115080499Y-77225254D01*
X115080489Y-77225258D01*
X114825006Y-77372761D01*
X114590959Y-77552352D01*
X114590952Y-77552358D01*
X114382358Y-77760952D01*
X114382352Y-77760959D01*
X114202761Y-77995006D01*
X114055258Y-78250489D01*
X114055254Y-78250499D01*
X113942364Y-78523038D01*
X113942361Y-78523048D01*
X113866008Y-78808004D01*
X113866006Y-78808015D01*
X113827500Y-79100486D01*
X112088854Y-79100486D01*
X112071402Y-78990299D01*
X112017873Y-78825555D01*
X111939232Y-78671212D01*
X111837414Y-78531072D01*
X111779232Y-78472890D01*
X111745747Y-78411567D01*
X111750731Y-78341875D01*
X111792603Y-78285942D01*
X111858067Y-78261525D01*
X111895856Y-78264634D01*
X112016852Y-78293683D01*
X112268000Y-78313449D01*
X112519148Y-78293683D01*
X112764111Y-78234873D01*
X112996859Y-78138466D01*
X113211659Y-78006836D01*
X113403224Y-77843224D01*
X113566836Y-77651659D01*
X113698466Y-77436859D01*
X113794873Y-77204111D01*
X113853683Y-76959148D01*
X113873449Y-76708000D01*
X113853683Y-76456852D01*
X113794873Y-76211889D01*
X113742493Y-76085431D01*
X113698466Y-75979140D01*
X113566839Y-75764346D01*
X113566838Y-75764343D01*
X113425165Y-75598466D01*
X113403224Y-75572776D01*
X113276571Y-75464604D01*
X113211656Y-75409161D01*
X113211653Y-75409160D01*
X112996859Y-75277533D01*
X112764110Y-75181126D01*
X112519151Y-75122317D01*
X112268000Y-75102551D01*
X112016848Y-75122317D01*
X111771889Y-75181126D01*
X111539140Y-75277533D01*
X111324346Y-75409160D01*
X111324343Y-75409161D01*
X111132776Y-75572776D01*
X110969161Y-75764343D01*
X110969160Y-75764346D01*
X110837533Y-75979140D01*
X110741126Y-76211889D01*
X110682317Y-76456848D01*
X110662551Y-76708000D01*
X110682317Y-76959151D01*
X110741126Y-77204110D01*
X110837533Y-77436859D01*
X110969160Y-77651653D01*
X110969161Y-77651656D01*
X111024604Y-77716571D01*
X111132776Y-77843224D01*
X111162646Y-77868735D01*
X111246783Y-77940595D01*
X111284976Y-77999102D01*
X111285474Y-78068970D01*
X111248121Y-78128016D01*
X111184774Y-78157494D01*
X111146854Y-78157358D01*
X111084611Y-78147500D01*
X110911389Y-78147500D01*
X110871728Y-78153781D01*
X110740302Y-78174597D01*
X110575552Y-78228128D01*
X110421211Y-78306768D01*
X110366432Y-78346568D01*
X110281072Y-78408586D01*
X110281070Y-78408588D01*
X110281069Y-78408588D01*
X110158588Y-78531069D01*
X110158588Y-78531070D01*
X110158586Y-78531072D01*
X110114859Y-78591256D01*
X110056768Y-78671211D01*
X109978128Y-78825552D01*
X109924597Y-78990302D01*
X109907146Y-79100486D01*
X109897500Y-79161389D01*
X106518500Y-79161389D01*
X106518500Y-74168000D01*
X117012551Y-74168000D01*
X117032317Y-74419151D01*
X117091126Y-74664110D01*
X117187533Y-74896859D01*
X117319160Y-75111653D01*
X117319161Y-75111656D01*
X117374604Y-75176571D01*
X117482776Y-75303224D01*
X117606811Y-75409160D01*
X117674343Y-75466838D01*
X117674346Y-75466839D01*
X117889140Y-75598466D01*
X118121889Y-75694873D01*
X118366852Y-75753683D01*
X118618000Y-75773449D01*
X118869148Y-75753683D01*
X119114111Y-75694873D01*
X119346859Y-75598466D01*
X119561659Y-75466836D01*
X119753224Y-75303224D01*
X119916836Y-75111659D01*
X120048466Y-74896859D01*
X120144873Y-74664111D01*
X120203683Y-74419148D01*
X120223449Y-74168000D01*
X120203683Y-73916852D01*
X120144873Y-73671889D01*
X120048466Y-73439141D01*
X120048466Y-73439140D01*
X119916839Y-73224346D01*
X119916838Y-73224343D01*
X119879875Y-73181066D01*
X119753224Y-73032776D01*
X119626571Y-72924604D01*
X119561656Y-72869161D01*
X119561653Y-72869160D01*
X119346859Y-72737533D01*
X119114110Y-72641126D01*
X118869151Y-72582317D01*
X118618000Y-72562551D01*
X118366848Y-72582317D01*
X118121889Y-72641126D01*
X117889140Y-72737533D01*
X117674346Y-72869160D01*
X117674343Y-72869161D01*
X117482776Y-73032776D01*
X117319161Y-73224343D01*
X117319160Y-73224346D01*
X117187533Y-73439140D01*
X117091126Y-73671889D01*
X117032317Y-73916848D01*
X117012551Y-74168000D01*
X106518500Y-74168000D01*
X106518500Y-70432412D01*
X106538185Y-70365373D01*
X106545555Y-70355097D01*
X106547810Y-70352267D01*
X106547816Y-70352262D01*
X106643789Y-70199522D01*
X106703368Y-70029255D01*
X106723565Y-69850000D01*
X106703368Y-69670745D01*
X106643789Y-69500478D01*
X106547816Y-69347738D01*
X106547814Y-69347736D01*
X106547813Y-69347734D01*
X106545550Y-69344896D01*
X106544659Y-69342715D01*
X106544111Y-69341842D01*
X106544264Y-69341745D01*
X106519144Y-69280209D01*
X106518500Y-69267587D01*
X106518500Y-52159060D01*
X106518501Y-52159047D01*
X106518501Y-51990944D01*
X106477576Y-51838214D01*
X106477573Y-51838209D01*
X106398524Y-51701290D01*
X106398518Y-51701282D01*
X103744818Y-49047582D01*
X103711333Y-48986259D01*
X103708499Y-48959901D01*
X103708499Y-48260000D01*
X109392551Y-48260000D01*
X109412317Y-48511151D01*
X109471126Y-48756110D01*
X109567533Y-48988859D01*
X109699160Y-49203653D01*
X109699161Y-49203656D01*
X109699164Y-49203659D01*
X109862776Y-49395224D01*
X109947384Y-49467486D01*
X110054343Y-49558838D01*
X110054345Y-49558838D01*
X110269141Y-49690466D01*
X110320953Y-49711927D01*
X110375355Y-49755765D01*
X110397421Y-49822059D01*
X110397500Y-49826487D01*
X110397500Y-56301330D01*
X110397499Y-56301348D01*
X110397499Y-56467054D01*
X110397498Y-56467054D01*
X110438423Y-56619786D01*
X110452906Y-56644869D01*
X110452907Y-56644874D01*
X110452909Y-56644874D01*
X110517479Y-56756714D01*
X110517481Y-56756717D01*
X110636349Y-56875585D01*
X110636355Y-56875590D01*
X110735707Y-56974942D01*
X110769192Y-57036265D01*
X110764208Y-57105957D01*
X110762588Y-57110073D01*
X110741127Y-57161886D01*
X110741127Y-57161887D01*
X110682317Y-57406848D01*
X110662551Y-57658000D01*
X110682317Y-57909151D01*
X110741126Y-58154110D01*
X110837533Y-58386859D01*
X110969160Y-58601653D01*
X110969161Y-58601656D01*
X110969164Y-58601659D01*
X111132776Y-58793224D01*
X111246783Y-58890595D01*
X111284976Y-58949102D01*
X111285474Y-59018970D01*
X111248121Y-59078016D01*
X111184774Y-59107494D01*
X111146854Y-59107358D01*
X111084611Y-59097500D01*
X110911389Y-59097500D01*
X110871728Y-59103781D01*
X110740302Y-59124597D01*
X110575552Y-59178128D01*
X110421211Y-59256768D01*
X110341256Y-59314859D01*
X110281072Y-59358586D01*
X110281070Y-59358588D01*
X110281069Y-59358588D01*
X110158588Y-59481069D01*
X110158588Y-59481070D01*
X110158586Y-59481072D01*
X110114859Y-59541256D01*
X110056768Y-59621211D01*
X109978128Y-59775552D01*
X109924597Y-59940302D01*
X109907146Y-60050486D01*
X109897500Y-60111389D01*
X109897500Y-60284611D01*
X109924598Y-60455701D01*
X109978127Y-60620445D01*
X110056768Y-60774788D01*
X110158586Y-60914928D01*
X110281072Y-61037414D01*
X110421212Y-61139232D01*
X110575555Y-61217873D01*
X110740299Y-61271402D01*
X110911389Y-61298500D01*
X110911390Y-61298500D01*
X111084610Y-61298500D01*
X111084611Y-61298500D01*
X111255701Y-61271402D01*
X111420445Y-61217873D01*
X111574788Y-61139232D01*
X111714928Y-61037414D01*
X111837414Y-60914928D01*
X111939232Y-60774788D01*
X112017873Y-60620445D01*
X112071402Y-60455701D01*
X112098500Y-60284611D01*
X112098500Y-60111389D01*
X112088854Y-60050486D01*
X113827500Y-60050486D01*
X113827500Y-60345513D01*
X113859571Y-60589113D01*
X113866007Y-60637993D01*
X113940212Y-60914930D01*
X113942361Y-60922951D01*
X113942364Y-60922961D01*
X114055254Y-61195500D01*
X114055258Y-61195510D01*
X114202761Y-61450993D01*
X114382352Y-61685040D01*
X114382358Y-61685047D01*
X114590952Y-61893641D01*
X114590959Y-61893647D01*
X114825006Y-62073238D01*
X115080489Y-62220741D01*
X115080490Y-62220741D01*
X115080493Y-62220743D01*
X115291296Y-62308060D01*
X115343183Y-62329553D01*
X115353048Y-62333639D01*
X115638007Y-62409993D01*
X115930494Y-62448500D01*
X115930501Y-62448500D01*
X116225499Y-62448500D01*
X116225506Y-62448500D01*
X116517993Y-62409993D01*
X116802952Y-62333639D01*
X117075507Y-62220743D01*
X117330994Y-62073238D01*
X117565042Y-61893646D01*
X117773646Y-61685042D01*
X117953238Y-61450994D01*
X118100743Y-61195507D01*
X118213639Y-60922952D01*
X118289993Y-60637993D01*
X118328500Y-60345506D01*
X118328500Y-60111389D01*
X120057500Y-60111389D01*
X120057500Y-60284611D01*
X120084598Y-60455701D01*
X120138127Y-60620445D01*
X120216768Y-60774788D01*
X120318586Y-60914928D01*
X120441072Y-61037414D01*
X120581212Y-61139232D01*
X120735555Y-61217873D01*
X120900299Y-61271402D01*
X121071389Y-61298500D01*
X121071390Y-61298500D01*
X121244610Y-61298500D01*
X121244611Y-61298500D01*
X121415701Y-61271402D01*
X121580445Y-61217873D01*
X121734788Y-61139232D01*
X121874928Y-61037414D01*
X121997414Y-60914928D01*
X122099232Y-60774788D01*
X122177873Y-60620445D01*
X122231402Y-60455701D01*
X122258500Y-60284611D01*
X122258500Y-60111389D01*
X122231402Y-59940299D01*
X122177873Y-59775555D01*
X122099232Y-59621212D01*
X121997414Y-59481072D01*
X121874928Y-59358586D01*
X121734788Y-59256768D01*
X121624333Y-59200489D01*
X121580447Y-59178128D01*
X121580446Y-59178127D01*
X121580445Y-59178127D01*
X121415701Y-59124598D01*
X121415699Y-59124597D01*
X121415698Y-59124597D01*
X121284271Y-59103781D01*
X121244611Y-59097500D01*
X121071389Y-59097500D01*
X121031728Y-59103781D01*
X120900302Y-59124597D01*
X120735552Y-59178128D01*
X120581211Y-59256768D01*
X120501256Y-59314859D01*
X120441072Y-59358586D01*
X120441070Y-59358588D01*
X120441069Y-59358588D01*
X120318588Y-59481069D01*
X120318588Y-59481070D01*
X120318586Y-59481072D01*
X120274859Y-59541256D01*
X120216768Y-59621211D01*
X120138128Y-59775552D01*
X120084597Y-59940302D01*
X120067146Y-60050486D01*
X120057500Y-60111389D01*
X118328500Y-60111389D01*
X118328500Y-60050494D01*
X118289993Y-59758007D01*
X118213639Y-59473048D01*
X118100743Y-59200493D01*
X118036064Y-59088466D01*
X117953238Y-58945006D01*
X117773647Y-58710959D01*
X117773641Y-58710952D01*
X117565047Y-58502358D01*
X117565040Y-58502352D01*
X117330993Y-58322761D01*
X117075510Y-58175258D01*
X117075500Y-58175254D01*
X116802961Y-58062364D01*
X116802954Y-58062362D01*
X116802952Y-58062361D01*
X116517993Y-57986007D01*
X116469113Y-57979571D01*
X116225513Y-57947500D01*
X116225506Y-57947500D01*
X115930494Y-57947500D01*
X115930486Y-57947500D01*
X115652085Y-57984153D01*
X115638007Y-57986007D01*
X115353048Y-58062361D01*
X115353038Y-58062364D01*
X115080499Y-58175254D01*
X115080489Y-58175258D01*
X114825006Y-58322761D01*
X114590959Y-58502352D01*
X114590952Y-58502358D01*
X114382358Y-58710952D01*
X114382352Y-58710959D01*
X114202761Y-58945006D01*
X114055258Y-59200489D01*
X114055254Y-59200499D01*
X113942364Y-59473038D01*
X113942361Y-59473048D01*
X113866008Y-59758004D01*
X113866006Y-59758015D01*
X113827500Y-60050486D01*
X112088854Y-60050486D01*
X112071402Y-59940299D01*
X112017873Y-59775555D01*
X111939232Y-59621212D01*
X111837414Y-59481072D01*
X111779232Y-59422890D01*
X111745747Y-59361567D01*
X111750731Y-59291875D01*
X111792603Y-59235942D01*
X111858067Y-59211525D01*
X111895856Y-59214634D01*
X112016852Y-59243683D01*
X112268000Y-59263449D01*
X112519148Y-59243683D01*
X112764111Y-59184873D01*
X112996859Y-59088466D01*
X113211659Y-58956836D01*
X113403224Y-58793224D01*
X113566836Y-58601659D01*
X113698466Y-58386859D01*
X113794873Y-58154111D01*
X113853683Y-57909148D01*
X113873449Y-57658000D01*
X113853683Y-57406852D01*
X113794873Y-57161889D01*
X113741705Y-57033529D01*
X113698466Y-56929140D01*
X113566839Y-56714346D01*
X113566838Y-56714343D01*
X113529875Y-56671066D01*
X113403224Y-56522776D01*
X113276571Y-56414604D01*
X113211656Y-56359161D01*
X113211653Y-56359160D01*
X112996859Y-56227533D01*
X112764110Y-56131126D01*
X112519151Y-56072317D01*
X112268000Y-56052551D01*
X112016848Y-56072317D01*
X111771888Y-56131126D01*
X111769942Y-56131933D01*
X111769143Y-56132018D01*
X111767256Y-56132632D01*
X111767127Y-56132235D01*
X111700472Y-56139395D01*
X111637996Y-56108114D01*
X111602349Y-56048022D01*
X111598500Y-56017367D01*
X111598500Y-55118000D01*
X117012551Y-55118000D01*
X117032317Y-55369151D01*
X117091126Y-55614110D01*
X117187533Y-55846859D01*
X117319160Y-56061653D01*
X117319161Y-56061656D01*
X117358840Y-56108114D01*
X117482776Y-56253224D01*
X117548015Y-56308943D01*
X117674343Y-56416838D01*
X117674346Y-56416839D01*
X117889140Y-56548466D01*
X118061321Y-56619785D01*
X118121889Y-56644873D01*
X118366852Y-56703683D01*
X118618000Y-56723449D01*
X118869148Y-56703683D01*
X119114111Y-56644873D01*
X119346859Y-56548466D01*
X119561659Y-56416836D01*
X119753224Y-56253224D01*
X119916836Y-56061659D01*
X120048466Y-55846859D01*
X120144873Y-55614111D01*
X120203683Y-55369148D01*
X120223449Y-55118000D01*
X120203683Y-54866852D01*
X120144873Y-54621889D01*
X120048466Y-54389141D01*
X120048466Y-54389140D01*
X119916839Y-54174346D01*
X119916838Y-54174343D01*
X119879875Y-54131066D01*
X119753224Y-53982776D01*
X119626571Y-53874604D01*
X119561656Y-53819161D01*
X119561653Y-53819160D01*
X119346859Y-53687533D01*
X119114110Y-53591126D01*
X118869151Y-53532317D01*
X118618000Y-53512551D01*
X118366848Y-53532317D01*
X118121889Y-53591126D01*
X117889140Y-53687533D01*
X117674346Y-53819160D01*
X117674343Y-53819161D01*
X117482776Y-53982776D01*
X117319161Y-54174343D01*
X117319160Y-54174346D01*
X117187533Y-54389140D01*
X117091126Y-54621889D01*
X117032317Y-54866848D01*
X117012551Y-55118000D01*
X111598500Y-55118000D01*
X111598500Y-49826487D01*
X111618185Y-49759448D01*
X111670989Y-49713693D01*
X111675002Y-49711945D01*
X111726859Y-49690466D01*
X111941659Y-49558836D01*
X112133224Y-49395224D01*
X112296836Y-49203659D01*
X112428466Y-48988859D01*
X112524873Y-48756111D01*
X112583683Y-48511148D01*
X112603449Y-48260000D01*
X112583683Y-48008852D01*
X112524873Y-47763889D01*
X112481634Y-47659500D01*
X112428466Y-47531140D01*
X112296839Y-47316346D01*
X112296838Y-47316343D01*
X112259875Y-47273066D01*
X112133224Y-47124776D01*
X112118423Y-47112135D01*
X119557500Y-47112135D01*
X119557500Y-49407870D01*
X119557501Y-49407876D01*
X119563908Y-49467483D01*
X119614202Y-49602328D01*
X119614206Y-49602335D01*
X119700452Y-49717544D01*
X119700455Y-49717547D01*
X119815664Y-49803793D01*
X119815671Y-49803797D01*
X119950517Y-49854091D01*
X119950516Y-49854091D01*
X119957444Y-49854835D01*
X120010127Y-49860500D01*
X121857901Y-49860499D01*
X121924940Y-49880184D01*
X121945582Y-49896818D01*
X124331181Y-52282416D01*
X124364666Y-52343739D01*
X124367500Y-52370097D01*
X124367500Y-67997587D01*
X124347815Y-68064626D01*
X124340450Y-68074896D01*
X124338186Y-68077734D01*
X124242211Y-68230476D01*
X124182631Y-68400745D01*
X124182630Y-68400750D01*
X124162435Y-68579996D01*
X124162435Y-68580003D01*
X124182630Y-68759249D01*
X124182631Y-68759254D01*
X124242211Y-68929523D01*
X124338185Y-69082263D01*
X124340445Y-69085097D01*
X124341334Y-69087275D01*
X124341889Y-69088158D01*
X124341734Y-69088255D01*
X124366855Y-69149783D01*
X124367500Y-69162412D01*
X124367500Y-87329902D01*
X124347815Y-87396941D01*
X124331181Y-87417583D01*
X122199582Y-89549181D01*
X122138259Y-89582666D01*
X122111901Y-89585500D01*
X120264129Y-89585500D01*
X120264123Y-89585501D01*
X120204516Y-89591908D01*
X120069671Y-89642202D01*
X120069664Y-89642206D01*
X119954455Y-89728452D01*
X119954452Y-89728455D01*
X119868206Y-89843664D01*
X119868202Y-89843671D01*
X119817908Y-89978517D01*
X119811501Y-90038116D01*
X119811500Y-90038135D01*
X119811500Y-92333870D01*
X119811501Y-92333876D01*
X119817908Y-92393483D01*
X119868202Y-92528328D01*
X119868206Y-92528335D01*
X119954452Y-92643544D01*
X119954455Y-92643547D01*
X120069664Y-92729793D01*
X120069671Y-92729797D01*
X120204517Y-92780091D01*
X120204516Y-92780091D01*
X120211444Y-92780835D01*
X120264127Y-92786500D01*
X122559872Y-92786499D01*
X122619483Y-92780091D01*
X122754331Y-92729796D01*
X122869546Y-92643546D01*
X122955796Y-92528331D01*
X123006091Y-92393483D01*
X123012500Y-92333873D01*
X123012499Y-91186000D01*
X128188551Y-91186000D01*
X128208317Y-91437151D01*
X128267126Y-91682110D01*
X128363533Y-91914859D01*
X128495160Y-92129653D01*
X128495161Y-92129656D01*
X128495164Y-92129659D01*
X128658776Y-92321224D01*
X128807066Y-92447875D01*
X128850343Y-92484838D01*
X128850346Y-92484839D01*
X129065140Y-92616466D01*
X129297889Y-92712873D01*
X129542852Y-92771683D01*
X129794000Y-92791449D01*
X130045148Y-92771683D01*
X130290111Y-92712873D01*
X130522859Y-92616466D01*
X130737659Y-92484836D01*
X130929224Y-92321224D01*
X131092836Y-92129659D01*
X131224466Y-91914859D01*
X131320873Y-91682111D01*
X131379683Y-91437148D01*
X131399449Y-91186000D01*
X131379683Y-90934852D01*
X131320873Y-90689889D01*
X131264478Y-90553739D01*
X131224466Y-90457140D01*
X131092839Y-90242346D01*
X131092838Y-90242343D01*
X130993184Y-90125664D01*
X130929224Y-90050776D01*
X130914423Y-90038135D01*
X138353500Y-90038135D01*
X138353500Y-92333870D01*
X138353501Y-92333876D01*
X138359908Y-92393483D01*
X138410202Y-92528328D01*
X138410206Y-92528335D01*
X138496452Y-92643544D01*
X138496455Y-92643547D01*
X138611664Y-92729793D01*
X138611671Y-92729797D01*
X138746517Y-92780091D01*
X138746516Y-92780091D01*
X138753444Y-92780835D01*
X138806127Y-92786500D01*
X141101872Y-92786499D01*
X141161483Y-92780091D01*
X141296331Y-92729796D01*
X141411546Y-92643546D01*
X141497796Y-92528331D01*
X141548091Y-92393483D01*
X141554500Y-92333873D01*
X141554500Y-91826711D01*
X172139500Y-91826711D01*
X172139500Y-92069288D01*
X172171161Y-92309785D01*
X172233947Y-92544104D01*
X172326773Y-92768205D01*
X172326777Y-92768214D01*
X172340191Y-92791448D01*
X172448064Y-92978289D01*
X172448066Y-92978292D01*
X172448067Y-92978293D01*
X172595733Y-93170736D01*
X172595739Y-93170743D01*
X172767256Y-93342260D01*
X172767262Y-93342265D01*
X172959711Y-93489936D01*
X173169788Y-93611224D01*
X173393900Y-93704054D01*
X173628211Y-93766838D01*
X173808586Y-93790584D01*
X173868711Y-93798500D01*
X173868712Y-93798500D01*
X174111289Y-93798500D01*
X174159388Y-93792167D01*
X174351789Y-93766838D01*
X174586100Y-93704054D01*
X174810212Y-93611224D01*
X175020289Y-93489936D01*
X175212738Y-93342265D01*
X175384265Y-93170738D01*
X175531936Y-92978289D01*
X175653224Y-92768212D01*
X175746054Y-92544100D01*
X175808838Y-92309789D01*
X175840500Y-92069288D01*
X175840500Y-91826712D01*
X175808838Y-91586211D01*
X175746054Y-91351900D01*
X175653224Y-91127788D01*
X175531936Y-90917711D01*
X175406384Y-90754088D01*
X175384266Y-90725263D01*
X175384260Y-90725256D01*
X175212743Y-90553739D01*
X175212736Y-90553733D01*
X175020293Y-90406067D01*
X175020292Y-90406066D01*
X175020289Y-90406064D01*
X174843885Y-90304217D01*
X174810214Y-90284777D01*
X174810205Y-90284773D01*
X174586104Y-90191947D01*
X174351785Y-90129161D01*
X174111289Y-90097500D01*
X174111288Y-90097500D01*
X173868712Y-90097500D01*
X173868711Y-90097500D01*
X173628214Y-90129161D01*
X173393895Y-90191947D01*
X173169794Y-90284773D01*
X173169785Y-90284777D01*
X173060554Y-90347842D01*
X172972960Y-90398415D01*
X172959706Y-90406067D01*
X172767263Y-90553733D01*
X172767256Y-90553739D01*
X172595739Y-90725256D01*
X172595733Y-90725263D01*
X172448067Y-90917706D01*
X172326777Y-91127785D01*
X172326773Y-91127794D01*
X172233947Y-91351895D01*
X172171161Y-91586214D01*
X172139500Y-91826711D01*
X141554500Y-91826711D01*
X141554499Y-90486095D01*
X141574184Y-90419057D01*
X141590813Y-90398420D01*
X142327234Y-89661999D01*
X154600341Y-89661999D01*
X154600341Y-89662000D01*
X154620936Y-89897403D01*
X154620938Y-89897413D01*
X154682094Y-90125655D01*
X154682096Y-90125659D01*
X154682097Y-90125663D01*
X154756293Y-90284776D01*
X154781965Y-90339830D01*
X154781967Y-90339834D01*
X154837440Y-90419057D01*
X154917505Y-90533401D01*
X155084599Y-90700495D01*
X155161135Y-90754086D01*
X155278165Y-90836032D01*
X155278167Y-90836033D01*
X155278170Y-90836035D01*
X155492337Y-90935903D01*
X155720592Y-90997063D01*
X155891319Y-91012000D01*
X155955999Y-91017659D01*
X155956000Y-91017659D01*
X155956001Y-91017659D01*
X156020681Y-91012000D01*
X156191408Y-90997063D01*
X156419663Y-90935903D01*
X156633830Y-90836035D01*
X156827401Y-90700495D01*
X156994495Y-90533401D01*
X157124425Y-90347842D01*
X157179002Y-90304217D01*
X157248500Y-90297023D01*
X157310855Y-90328546D01*
X157327575Y-90347842D01*
X157457500Y-90533395D01*
X157457505Y-90533401D01*
X157624599Y-90700495D01*
X157701135Y-90754086D01*
X157818165Y-90836032D01*
X157818167Y-90836033D01*
X157818170Y-90836035D01*
X158032337Y-90935903D01*
X158260592Y-90997063D01*
X158431319Y-91012000D01*
X158495999Y-91017659D01*
X158496000Y-91017659D01*
X158496001Y-91017659D01*
X158560681Y-91012000D01*
X158731408Y-90997063D01*
X158959663Y-90935903D01*
X159173830Y-90836035D01*
X159367401Y-90700495D01*
X159534495Y-90533401D01*
X159664425Y-90347842D01*
X159719002Y-90304217D01*
X159788500Y-90297023D01*
X159850855Y-90328546D01*
X159867575Y-90347842D01*
X159997500Y-90533395D01*
X159997505Y-90533401D01*
X160164599Y-90700495D01*
X160241135Y-90754086D01*
X160358165Y-90836032D01*
X160358167Y-90836033D01*
X160358170Y-90836035D01*
X160572337Y-90935903D01*
X160800592Y-90997063D01*
X160971319Y-91012000D01*
X161035999Y-91017659D01*
X161036000Y-91017659D01*
X161036001Y-91017659D01*
X161100681Y-91012000D01*
X161271408Y-90997063D01*
X161499663Y-90935903D01*
X161713830Y-90836035D01*
X161907401Y-90700495D01*
X162029717Y-90578178D01*
X162091036Y-90544696D01*
X162160728Y-90549680D01*
X162216662Y-90591551D01*
X162233577Y-90622528D01*
X162282646Y-90754088D01*
X162282649Y-90754093D01*
X162368809Y-90869187D01*
X162368812Y-90869190D01*
X162483906Y-90955350D01*
X162483913Y-90955354D01*
X162618620Y-91005596D01*
X162618627Y-91005598D01*
X162678155Y-91011999D01*
X162678172Y-91012000D01*
X163326000Y-91012000D01*
X163326000Y-90095012D01*
X163383007Y-90127925D01*
X163510174Y-90162000D01*
X163641826Y-90162000D01*
X163768993Y-90127925D01*
X163826000Y-90095012D01*
X163826000Y-91012000D01*
X164473828Y-91012000D01*
X164473844Y-91011999D01*
X164533372Y-91005598D01*
X164533379Y-91005596D01*
X164668086Y-90955354D01*
X164668093Y-90955350D01*
X164783187Y-90869190D01*
X164783190Y-90869187D01*
X164869350Y-90754093D01*
X164869354Y-90754086D01*
X164919596Y-90619379D01*
X164919598Y-90619372D01*
X164925999Y-90559844D01*
X164926000Y-90559827D01*
X164926000Y-89912000D01*
X164009012Y-89912000D01*
X164041925Y-89854993D01*
X164076000Y-89727826D01*
X164076000Y-89596174D01*
X164041925Y-89469007D01*
X164009012Y-89412000D01*
X164926000Y-89412000D01*
X164926000Y-88764172D01*
X164925999Y-88764155D01*
X164919598Y-88704627D01*
X164919596Y-88704620D01*
X164869354Y-88569913D01*
X164869350Y-88569906D01*
X164783190Y-88454812D01*
X164783187Y-88454809D01*
X164668093Y-88368649D01*
X164668086Y-88368645D01*
X164533379Y-88318403D01*
X164533372Y-88318401D01*
X164473844Y-88312000D01*
X163826000Y-88312000D01*
X163826000Y-89228988D01*
X163768993Y-89196075D01*
X163641826Y-89162000D01*
X163510174Y-89162000D01*
X163383007Y-89196075D01*
X163326000Y-89228988D01*
X163326000Y-88312000D01*
X162678155Y-88312000D01*
X162618627Y-88318401D01*
X162618620Y-88318403D01*
X162483913Y-88368645D01*
X162483906Y-88368649D01*
X162368812Y-88454809D01*
X162368809Y-88454812D01*
X162282649Y-88569906D01*
X162282645Y-88569913D01*
X162233578Y-88701470D01*
X162191707Y-88757404D01*
X162126242Y-88781821D01*
X162057969Y-88766969D01*
X162029715Y-88745819D01*
X161985366Y-88701470D01*
X161907401Y-88623505D01*
X161907397Y-88623502D01*
X161907396Y-88623501D01*
X161713834Y-88487967D01*
X161713830Y-88487965D01*
X161642727Y-88454809D01*
X161499663Y-88388097D01*
X161499659Y-88388096D01*
X161499655Y-88388094D01*
X161271413Y-88326938D01*
X161271403Y-88326936D01*
X161036001Y-88306341D01*
X161035999Y-88306341D01*
X160800596Y-88326936D01*
X160800586Y-88326938D01*
X160572344Y-88388094D01*
X160572335Y-88388098D01*
X160358171Y-88487964D01*
X160358169Y-88487965D01*
X160164597Y-88623505D01*
X159997505Y-88790597D01*
X159867575Y-88976158D01*
X159812998Y-89019783D01*
X159743500Y-89026977D01*
X159681145Y-88995454D01*
X159664425Y-88976158D01*
X159534494Y-88790597D01*
X159367402Y-88623506D01*
X159367395Y-88623501D01*
X159173834Y-88487967D01*
X159173830Y-88487965D01*
X159102727Y-88454809D01*
X158959663Y-88388097D01*
X158959659Y-88388096D01*
X158959655Y-88388094D01*
X158731413Y-88326938D01*
X158731403Y-88326936D01*
X158496001Y-88306341D01*
X158495999Y-88306341D01*
X158260596Y-88326936D01*
X158260586Y-88326938D01*
X158032344Y-88388094D01*
X158032335Y-88388098D01*
X157818171Y-88487964D01*
X157818169Y-88487965D01*
X157624597Y-88623505D01*
X157457505Y-88790597D01*
X157327575Y-88976158D01*
X157272998Y-89019783D01*
X157203500Y-89026977D01*
X157141145Y-88995454D01*
X157124425Y-88976158D01*
X156994494Y-88790597D01*
X156827402Y-88623506D01*
X156827395Y-88623501D01*
X156633834Y-88487967D01*
X156633830Y-88487965D01*
X156562727Y-88454809D01*
X156419663Y-88388097D01*
X156419659Y-88388096D01*
X156419655Y-88388094D01*
X156191413Y-88326938D01*
X156191403Y-88326936D01*
X155956001Y-88306341D01*
X155955999Y-88306341D01*
X155720596Y-88326936D01*
X155720586Y-88326938D01*
X155492344Y-88388094D01*
X155492335Y-88388098D01*
X155278171Y-88487964D01*
X155278169Y-88487965D01*
X155084597Y-88623505D01*
X154917505Y-88790597D01*
X154781965Y-88984169D01*
X154781964Y-88984171D01*
X154682098Y-89198335D01*
X154682094Y-89198344D01*
X154620938Y-89426586D01*
X154620936Y-89426596D01*
X154600341Y-89661999D01*
X142327234Y-89661999D01*
X144376506Y-87612728D01*
X144376511Y-87612724D01*
X144386714Y-87602520D01*
X144386716Y-87602520D01*
X144498520Y-87490716D01*
X144551924Y-87398216D01*
X144577577Y-87353785D01*
X144618501Y-87201057D01*
X144618501Y-87042943D01*
X144618501Y-87035348D01*
X144618500Y-87035330D01*
X144618500Y-85815994D01*
X166694859Y-85815994D01*
X166694859Y-85816005D01*
X166715385Y-86063729D01*
X166715387Y-86063738D01*
X166776412Y-86304717D01*
X166876266Y-86532364D01*
X166976564Y-86685882D01*
X167676212Y-85986234D01*
X167687482Y-86028292D01*
X167759890Y-86153708D01*
X167862292Y-86256110D01*
X167987708Y-86328518D01*
X168029765Y-86339787D01*
X167329942Y-87039609D01*
X167376768Y-87076055D01*
X167376770Y-87076056D01*
X167595385Y-87194364D01*
X167595396Y-87194369D01*
X167830506Y-87275083D01*
X168075707Y-87316000D01*
X168324293Y-87316000D01*
X168569493Y-87275083D01*
X168804603Y-87194369D01*
X168804614Y-87194364D01*
X169023228Y-87076057D01*
X169023231Y-87076055D01*
X169070056Y-87039609D01*
X168370234Y-86339787D01*
X168412292Y-86328518D01*
X168537708Y-86256110D01*
X168640110Y-86153708D01*
X168712518Y-86028292D01*
X168723787Y-85986235D01*
X169423434Y-86685882D01*
X169523731Y-86532369D01*
X169623587Y-86304717D01*
X169684612Y-86063738D01*
X169684614Y-86063729D01*
X169705141Y-85816005D01*
X169705141Y-85815994D01*
X173194859Y-85815994D01*
X173194859Y-85816005D01*
X173215385Y-86063729D01*
X173215387Y-86063738D01*
X173276412Y-86304717D01*
X173376266Y-86532364D01*
X173476564Y-86685882D01*
X174176212Y-85986234D01*
X174187482Y-86028292D01*
X174259890Y-86153708D01*
X174362292Y-86256110D01*
X174487708Y-86328518D01*
X174529765Y-86339787D01*
X173829942Y-87039609D01*
X173876768Y-87076055D01*
X173876770Y-87076056D01*
X174095385Y-87194364D01*
X174095396Y-87194369D01*
X174330506Y-87275083D01*
X174575707Y-87316000D01*
X174824293Y-87316000D01*
X175069493Y-87275083D01*
X175304603Y-87194369D01*
X175304614Y-87194364D01*
X175523228Y-87076057D01*
X175523231Y-87076055D01*
X175570056Y-87039609D01*
X174870234Y-86339787D01*
X174912292Y-86328518D01*
X175037708Y-86256110D01*
X175140110Y-86153708D01*
X175212518Y-86028292D01*
X175223787Y-85986235D01*
X175923434Y-86685882D01*
X176023731Y-86532369D01*
X176123587Y-86304717D01*
X176184612Y-86063738D01*
X176184614Y-86063729D01*
X176205141Y-85816005D01*
X176205141Y-85815994D01*
X176184614Y-85568270D01*
X176184612Y-85568261D01*
X176123587Y-85327282D01*
X176023731Y-85099630D01*
X175923434Y-84946116D01*
X175223787Y-85645764D01*
X175212518Y-85603708D01*
X175140110Y-85478292D01*
X175037708Y-85375890D01*
X174912292Y-85303482D01*
X174870235Y-85292212D01*
X175570057Y-84592390D01*
X175570056Y-84592389D01*
X175523229Y-84555943D01*
X175304614Y-84437635D01*
X175304603Y-84437630D01*
X175069493Y-84356916D01*
X174824293Y-84316000D01*
X174575707Y-84316000D01*
X174330506Y-84356916D01*
X174095396Y-84437630D01*
X174095390Y-84437632D01*
X173876761Y-84555949D01*
X173829942Y-84592388D01*
X173829942Y-84592390D01*
X174529765Y-85292212D01*
X174487708Y-85303482D01*
X174362292Y-85375890D01*
X174259890Y-85478292D01*
X174187482Y-85603708D01*
X174176212Y-85645764D01*
X173476564Y-84946116D01*
X173376267Y-85099632D01*
X173276412Y-85327282D01*
X173215387Y-85568261D01*
X173215385Y-85568270D01*
X173194859Y-85815994D01*
X169705141Y-85815994D01*
X169684614Y-85568270D01*
X169684612Y-85568261D01*
X169623587Y-85327282D01*
X169523731Y-85099630D01*
X169423434Y-84946116D01*
X168723787Y-85645764D01*
X168712518Y-85603708D01*
X168640110Y-85478292D01*
X168537708Y-85375890D01*
X168412292Y-85303482D01*
X168370235Y-85292212D01*
X169070057Y-84592390D01*
X169070056Y-84592389D01*
X169023229Y-84555943D01*
X168804614Y-84437635D01*
X168804603Y-84437630D01*
X168569493Y-84356916D01*
X168324293Y-84316000D01*
X168075707Y-84316000D01*
X167830506Y-84356916D01*
X167595396Y-84437630D01*
X167595390Y-84437632D01*
X167376761Y-84555949D01*
X167329942Y-84592388D01*
X167329942Y-84592390D01*
X168029765Y-85292212D01*
X167987708Y-85303482D01*
X167862292Y-85375890D01*
X167759890Y-85478292D01*
X167687482Y-85603708D01*
X167676212Y-85645764D01*
X166976564Y-84946116D01*
X166876267Y-85099632D01*
X166776412Y-85327282D01*
X166715387Y-85568261D01*
X166715385Y-85568270D01*
X166694859Y-85815994D01*
X144618500Y-85815994D01*
X144618500Y-81315994D01*
X166694357Y-81315994D01*
X166694357Y-81316005D01*
X166714890Y-81563812D01*
X166714892Y-81563824D01*
X166775936Y-81804881D01*
X166875826Y-82032606D01*
X167011833Y-82240782D01*
X167011836Y-82240785D01*
X167180256Y-82423738D01*
X167376491Y-82576474D01*
X167595190Y-82694828D01*
X167830386Y-82775571D01*
X168075665Y-82816500D01*
X168324335Y-82816500D01*
X168569614Y-82775571D01*
X168804810Y-82694828D01*
X169023509Y-82576474D01*
X169219744Y-82423738D01*
X169388164Y-82240785D01*
X169524173Y-82032607D01*
X169624063Y-81804881D01*
X169685108Y-81563821D01*
X169690521Y-81498499D01*
X169705643Y-81316005D01*
X169705643Y-81315994D01*
X173194357Y-81315994D01*
X173194357Y-81316005D01*
X173214890Y-81563812D01*
X173214892Y-81563824D01*
X173275936Y-81804881D01*
X173375826Y-82032606D01*
X173511833Y-82240782D01*
X173511836Y-82240785D01*
X173680256Y-82423738D01*
X173876491Y-82576474D01*
X174095190Y-82694828D01*
X174330386Y-82775571D01*
X174575665Y-82816500D01*
X174824335Y-82816500D01*
X175069614Y-82775571D01*
X175304810Y-82694828D01*
X175523509Y-82576474D01*
X175719744Y-82423738D01*
X175888164Y-82240785D01*
X176024173Y-82032607D01*
X176124063Y-81804881D01*
X176185108Y-81563821D01*
X176190521Y-81498499D01*
X176205643Y-81316005D01*
X176205643Y-81315994D01*
X176185109Y-81068187D01*
X176185107Y-81068175D01*
X176124063Y-80827118D01*
X176024173Y-80599393D01*
X175888166Y-80391217D01*
X175848842Y-80348500D01*
X175719744Y-80208262D01*
X175523509Y-80055526D01*
X175523507Y-80055525D01*
X175523506Y-80055524D01*
X175304811Y-79937172D01*
X175304802Y-79937169D01*
X175069616Y-79856429D01*
X174824335Y-79815500D01*
X174575665Y-79815500D01*
X174330383Y-79856429D01*
X174095197Y-79937169D01*
X174095188Y-79937172D01*
X173876493Y-80055524D01*
X173680257Y-80208261D01*
X173511833Y-80391217D01*
X173375826Y-80599393D01*
X173275936Y-80827118D01*
X173214892Y-81068175D01*
X173214890Y-81068187D01*
X173194357Y-81315994D01*
X169705643Y-81315994D01*
X169685109Y-81068187D01*
X169685107Y-81068175D01*
X169624063Y-80827118D01*
X169524173Y-80599393D01*
X169388166Y-80391217D01*
X169348842Y-80348500D01*
X169219744Y-80208262D01*
X169023509Y-80055526D01*
X169023507Y-80055525D01*
X169023506Y-80055524D01*
X168804811Y-79937172D01*
X168804802Y-79937169D01*
X168569616Y-79856429D01*
X168324335Y-79815500D01*
X168075665Y-79815500D01*
X167830383Y-79856429D01*
X167595197Y-79937169D01*
X167595188Y-79937172D01*
X167376493Y-80055524D01*
X167180257Y-80208261D01*
X167011833Y-80391217D01*
X166875826Y-80599393D01*
X166775936Y-80827118D01*
X166714892Y-81068175D01*
X166714890Y-81068187D01*
X166694357Y-81315994D01*
X144618500Y-81315994D01*
X144618500Y-77215998D01*
X146776532Y-77215998D01*
X146776532Y-77216001D01*
X146796364Y-77442686D01*
X146796366Y-77442697D01*
X146855258Y-77662488D01*
X146855261Y-77662497D01*
X146951431Y-77868732D01*
X146951432Y-77868734D01*
X147081954Y-78055141D01*
X147242858Y-78216045D01*
X147289693Y-78248839D01*
X147429266Y-78346568D01*
X147635504Y-78442739D01*
X147855308Y-78501635D01*
X148017230Y-78515801D01*
X148081998Y-78521468D01*
X148082000Y-78521468D01*
X148082002Y-78521468D01*
X148138673Y-78516509D01*
X148308692Y-78501635D01*
X148528496Y-78442739D01*
X148734734Y-78346568D01*
X148921139Y-78216047D01*
X149082047Y-78055139D01*
X149212568Y-77868734D01*
X149239618Y-77810724D01*
X149285790Y-77758285D01*
X149352983Y-77739133D01*
X149419865Y-77759348D01*
X149464382Y-77810725D01*
X149491429Y-77868728D01*
X149491432Y-77868734D01*
X149621954Y-78055141D01*
X149782858Y-78216045D01*
X149829693Y-78248839D01*
X149969266Y-78346568D01*
X150175504Y-78442739D01*
X150395308Y-78501635D01*
X150557230Y-78515801D01*
X150621998Y-78521468D01*
X150622000Y-78521468D01*
X150622002Y-78521468D01*
X150678673Y-78516509D01*
X150848692Y-78501635D01*
X151068496Y-78442739D01*
X151274734Y-78346568D01*
X151461139Y-78216047D01*
X151622047Y-78055139D01*
X151752568Y-77868734D01*
X151779618Y-77810724D01*
X151825790Y-77758285D01*
X151892983Y-77739133D01*
X151959865Y-77759348D01*
X152004382Y-77810725D01*
X152031429Y-77868728D01*
X152031432Y-77868734D01*
X152161954Y-78055141D01*
X152322858Y-78216045D01*
X152369693Y-78248839D01*
X152509266Y-78346568D01*
X152715504Y-78442739D01*
X152935308Y-78501635D01*
X153097230Y-78515801D01*
X153161998Y-78521468D01*
X153162000Y-78521468D01*
X153162002Y-78521468D01*
X153218673Y-78516509D01*
X153388692Y-78501635D01*
X153608496Y-78442739D01*
X153814734Y-78346568D01*
X154001139Y-78216047D01*
X154162047Y-78055139D01*
X154292568Y-77868734D01*
X154319618Y-77810724D01*
X154365790Y-77758285D01*
X154432983Y-77739133D01*
X154499865Y-77759348D01*
X154544382Y-77810725D01*
X154571429Y-77868728D01*
X154571432Y-77868734D01*
X154701954Y-78055141D01*
X154862858Y-78216045D01*
X154909693Y-78248839D01*
X155049266Y-78346568D01*
X155255504Y-78442739D01*
X155475308Y-78501635D01*
X155637230Y-78515801D01*
X155701998Y-78521468D01*
X155702000Y-78521468D01*
X155702002Y-78521468D01*
X155758673Y-78516509D01*
X155928692Y-78501635D01*
X156148496Y-78442739D01*
X156354734Y-78346568D01*
X156541139Y-78216047D01*
X156702047Y-78055139D01*
X156832568Y-77868734D01*
X156859618Y-77810724D01*
X156905790Y-77758285D01*
X156972983Y-77739133D01*
X157039865Y-77759348D01*
X157084382Y-77810725D01*
X157111429Y-77868728D01*
X157111432Y-77868734D01*
X157241954Y-78055141D01*
X157402858Y-78216045D01*
X157449693Y-78248839D01*
X157589266Y-78346568D01*
X157795504Y-78442739D01*
X158015308Y-78501635D01*
X158177230Y-78515801D01*
X158241998Y-78521468D01*
X158242000Y-78521468D01*
X158242002Y-78521468D01*
X158298673Y-78516509D01*
X158468692Y-78501635D01*
X158688496Y-78442739D01*
X158894734Y-78346568D01*
X159081139Y-78216047D01*
X159242047Y-78055139D01*
X159372568Y-77868734D01*
X159399618Y-77810724D01*
X159445790Y-77758285D01*
X159512983Y-77739133D01*
X159579865Y-77759348D01*
X159624382Y-77810725D01*
X159651429Y-77868728D01*
X159651432Y-77868734D01*
X159781954Y-78055141D01*
X159942858Y-78216045D01*
X159989693Y-78248839D01*
X160129266Y-78346568D01*
X160335504Y-78442739D01*
X160555308Y-78501635D01*
X160717230Y-78515801D01*
X160781998Y-78521468D01*
X160782000Y-78521468D01*
X160782002Y-78521468D01*
X160838673Y-78516509D01*
X161008692Y-78501635D01*
X161228496Y-78442739D01*
X161434734Y-78346568D01*
X161621139Y-78216047D01*
X161782047Y-78055139D01*
X161912568Y-77868734D01*
X161939618Y-77810724D01*
X161985790Y-77758285D01*
X162052983Y-77739133D01*
X162119865Y-77759348D01*
X162164382Y-77810725D01*
X162191429Y-77868728D01*
X162191432Y-77868734D01*
X162321954Y-78055141D01*
X162482858Y-78216045D01*
X162529693Y-78248839D01*
X162669266Y-78346568D01*
X162875504Y-78442739D01*
X163095308Y-78501635D01*
X163257230Y-78515801D01*
X163321998Y-78521468D01*
X163322000Y-78521468D01*
X163322002Y-78521468D01*
X163378673Y-78516509D01*
X163548692Y-78501635D01*
X163768496Y-78442739D01*
X163974734Y-78346568D01*
X164161139Y-78216047D01*
X164322047Y-78055139D01*
X164452568Y-77868734D01*
X164479618Y-77810724D01*
X164525790Y-77758285D01*
X164592983Y-77739133D01*
X164659865Y-77759348D01*
X164704382Y-77810725D01*
X164731429Y-77868728D01*
X164731432Y-77868734D01*
X164861954Y-78055141D01*
X165022858Y-78216045D01*
X165069693Y-78248839D01*
X165209266Y-78346568D01*
X165415504Y-78442739D01*
X165635308Y-78501635D01*
X165797230Y-78515801D01*
X165861998Y-78521468D01*
X165862000Y-78521468D01*
X165862002Y-78521468D01*
X165918673Y-78516509D01*
X166088692Y-78501635D01*
X166308496Y-78442739D01*
X166514734Y-78346568D01*
X166701139Y-78216047D01*
X166862047Y-78055139D01*
X166992568Y-77868734D01*
X167019618Y-77810724D01*
X167065790Y-77758285D01*
X167132983Y-77739133D01*
X167199865Y-77759348D01*
X167244382Y-77810725D01*
X167271429Y-77868728D01*
X167271432Y-77868734D01*
X167401954Y-78055141D01*
X167562858Y-78216045D01*
X167609693Y-78248839D01*
X167749266Y-78346568D01*
X167955504Y-78442739D01*
X168175308Y-78501635D01*
X168337230Y-78515801D01*
X168401998Y-78521468D01*
X168402000Y-78521468D01*
X168402002Y-78521468D01*
X168458673Y-78516509D01*
X168628692Y-78501635D01*
X168848496Y-78442739D01*
X169054734Y-78346568D01*
X169241139Y-78216047D01*
X169402047Y-78055139D01*
X169532568Y-77868734D01*
X169559618Y-77810724D01*
X169605790Y-77758285D01*
X169672983Y-77739133D01*
X169739865Y-77759348D01*
X169784382Y-77810725D01*
X169811429Y-77868728D01*
X169811432Y-77868734D01*
X169941954Y-78055141D01*
X170102858Y-78216045D01*
X170149693Y-78248839D01*
X170289266Y-78346568D01*
X170495504Y-78442739D01*
X170715308Y-78501635D01*
X170877230Y-78515801D01*
X170941998Y-78521468D01*
X170942000Y-78521468D01*
X170942002Y-78521468D01*
X170998673Y-78516509D01*
X171168692Y-78501635D01*
X171388496Y-78442739D01*
X171594734Y-78346568D01*
X171781139Y-78216047D01*
X171942047Y-78055139D01*
X172072568Y-77868734D01*
X172099893Y-77810134D01*
X172146065Y-77757695D01*
X172213258Y-77738543D01*
X172280139Y-77758758D01*
X172324657Y-77810134D01*
X172351864Y-77868480D01*
X172402974Y-77941472D01*
X172958212Y-77386234D01*
X172969482Y-77428292D01*
X173041890Y-77553708D01*
X173144292Y-77656110D01*
X173269708Y-77728518D01*
X173311765Y-77739787D01*
X172756526Y-78295025D01*
X172829513Y-78346132D01*
X172829521Y-78346136D01*
X173035668Y-78442264D01*
X173035682Y-78442269D01*
X173255389Y-78501139D01*
X173255400Y-78501141D01*
X173481998Y-78520966D01*
X173482002Y-78520966D01*
X173708599Y-78501141D01*
X173708610Y-78501139D01*
X173928317Y-78442269D01*
X173928331Y-78442264D01*
X174134478Y-78346136D01*
X174207471Y-78295024D01*
X173652234Y-77739787D01*
X173694292Y-77728518D01*
X173819708Y-77656110D01*
X173922110Y-77553708D01*
X173994518Y-77428292D01*
X174005787Y-77386234D01*
X174561024Y-77941471D01*
X174612133Y-77868482D01*
X174639341Y-77810135D01*
X174685513Y-77757696D01*
X174752707Y-77738543D01*
X174819588Y-77758758D01*
X174864105Y-77810132D01*
X174891432Y-77868734D01*
X174891433Y-77868735D01*
X175021954Y-78055141D01*
X175182858Y-78216045D01*
X175229693Y-78248839D01*
X175369266Y-78346568D01*
X175575504Y-78442739D01*
X175795308Y-78501635D01*
X175957230Y-78515801D01*
X176021998Y-78521468D01*
X176022000Y-78521468D01*
X176022002Y-78521468D01*
X176078673Y-78516509D01*
X176248692Y-78501635D01*
X176468496Y-78442739D01*
X176674734Y-78346568D01*
X176861139Y-78216047D01*
X177022047Y-78055139D01*
X177152568Y-77868734D01*
X177248739Y-77662496D01*
X177307635Y-77442692D01*
X177327468Y-77216000D01*
X177307635Y-76989308D01*
X177248739Y-76769504D01*
X177152568Y-76563266D01*
X177022047Y-76376861D01*
X177022045Y-76376858D01*
X176861141Y-76215954D01*
X176674734Y-76085432D01*
X176674732Y-76085431D01*
X176468497Y-75989261D01*
X176468488Y-75989258D01*
X176248697Y-75930366D01*
X176248693Y-75930365D01*
X176248692Y-75930365D01*
X176248691Y-75930364D01*
X176248686Y-75930364D01*
X176022002Y-75910532D01*
X176021998Y-75910532D01*
X175795313Y-75930364D01*
X175795302Y-75930366D01*
X175575511Y-75989258D01*
X175575502Y-75989261D01*
X175369267Y-76085431D01*
X175369265Y-76085432D01*
X175182858Y-76215954D01*
X175021954Y-76376858D01*
X174891432Y-76563265D01*
X174891428Y-76563272D01*
X174864105Y-76621866D01*
X174817932Y-76674305D01*
X174750738Y-76693456D01*
X174683858Y-76673239D01*
X174639342Y-76621864D01*
X174612136Y-76563521D01*
X174612132Y-76563513D01*
X174561025Y-76490526D01*
X174005787Y-77045764D01*
X173994518Y-77003708D01*
X173922110Y-76878292D01*
X173819708Y-76775890D01*
X173694292Y-76703482D01*
X173652234Y-76692212D01*
X174207472Y-76136974D01*
X174134478Y-76085863D01*
X173928331Y-75989735D01*
X173928317Y-75989730D01*
X173708610Y-75930860D01*
X173708599Y-75930858D01*
X173482002Y-75911034D01*
X173481998Y-75911034D01*
X173255400Y-75930858D01*
X173255389Y-75930860D01*
X173035682Y-75989730D01*
X173035673Y-75989734D01*
X172829516Y-76085866D01*
X172829512Y-76085868D01*
X172756526Y-76136973D01*
X172756526Y-76136974D01*
X173311765Y-76692212D01*
X173269708Y-76703482D01*
X173144292Y-76775890D01*
X173041890Y-76878292D01*
X172969482Y-77003708D01*
X172958212Y-77045764D01*
X172402974Y-76490526D01*
X172402973Y-76490526D01*
X172351868Y-76563512D01*
X172351868Y-76563513D01*
X172324657Y-76621867D01*
X172278484Y-76674306D01*
X172211290Y-76693457D01*
X172144409Y-76673241D01*
X172099893Y-76621865D01*
X172072682Y-76563512D01*
X172072568Y-76563266D01*
X171942047Y-76376861D01*
X171942045Y-76376858D01*
X171781141Y-76215954D01*
X171594734Y-76085432D01*
X171594732Y-76085431D01*
X171388497Y-75989261D01*
X171388488Y-75989258D01*
X171168697Y-75930366D01*
X171168693Y-75930365D01*
X171168692Y-75930365D01*
X171168691Y-75930364D01*
X171168686Y-75930364D01*
X170942002Y-75910532D01*
X170941998Y-75910532D01*
X170715313Y-75930364D01*
X170715302Y-75930366D01*
X170495511Y-75989258D01*
X170495502Y-75989261D01*
X170289267Y-76085431D01*
X170289265Y-76085432D01*
X170102858Y-76215954D01*
X169941954Y-76376858D01*
X169811432Y-76563265D01*
X169811431Y-76563267D01*
X169784382Y-76621275D01*
X169738209Y-76673714D01*
X169671016Y-76692866D01*
X169604135Y-76672650D01*
X169559618Y-76621275D01*
X169532568Y-76563266D01*
X169402047Y-76376861D01*
X169402045Y-76376858D01*
X169241141Y-76215954D01*
X169054734Y-76085432D01*
X169054732Y-76085431D01*
X168848497Y-75989261D01*
X168848488Y-75989258D01*
X168628697Y-75930366D01*
X168628693Y-75930365D01*
X168628692Y-75930365D01*
X168628691Y-75930364D01*
X168628686Y-75930364D01*
X168402002Y-75910532D01*
X168401998Y-75910532D01*
X168175313Y-75930364D01*
X168175302Y-75930366D01*
X167955511Y-75989258D01*
X167955502Y-75989261D01*
X167749267Y-76085431D01*
X167749265Y-76085432D01*
X167562858Y-76215954D01*
X167401954Y-76376858D01*
X167271432Y-76563265D01*
X167271431Y-76563267D01*
X167244382Y-76621275D01*
X167198209Y-76673714D01*
X167131016Y-76692866D01*
X167064135Y-76672650D01*
X167019618Y-76621275D01*
X166992568Y-76563266D01*
X166862047Y-76376861D01*
X166862045Y-76376858D01*
X166701141Y-76215954D01*
X166514734Y-76085432D01*
X166514732Y-76085431D01*
X166308497Y-75989261D01*
X166308488Y-75989258D01*
X166088697Y-75930366D01*
X166088693Y-75930365D01*
X166088692Y-75930365D01*
X166088691Y-75930364D01*
X166088686Y-75930364D01*
X165862002Y-75910532D01*
X165861998Y-75910532D01*
X165635313Y-75930364D01*
X165635302Y-75930366D01*
X165415511Y-75989258D01*
X165415502Y-75989261D01*
X165209267Y-76085431D01*
X165209265Y-76085432D01*
X165022858Y-76215954D01*
X164861954Y-76376858D01*
X164731432Y-76563265D01*
X164731431Y-76563267D01*
X164704382Y-76621275D01*
X164658209Y-76673714D01*
X164591016Y-76692866D01*
X164524135Y-76672650D01*
X164479618Y-76621275D01*
X164452568Y-76563266D01*
X164322047Y-76376861D01*
X164322045Y-76376858D01*
X164161141Y-76215954D01*
X163974734Y-76085432D01*
X163974732Y-76085431D01*
X163768497Y-75989261D01*
X163768488Y-75989258D01*
X163548697Y-75930366D01*
X163548693Y-75930365D01*
X163548692Y-75930365D01*
X163548691Y-75930364D01*
X163548686Y-75930364D01*
X163322002Y-75910532D01*
X163321998Y-75910532D01*
X163095313Y-75930364D01*
X163095302Y-75930366D01*
X162875511Y-75989258D01*
X162875502Y-75989261D01*
X162669267Y-76085431D01*
X162669265Y-76085432D01*
X162482858Y-76215954D01*
X162321954Y-76376858D01*
X162191432Y-76563265D01*
X162191431Y-76563267D01*
X162164382Y-76621275D01*
X162118209Y-76673714D01*
X162051016Y-76692866D01*
X161984135Y-76672650D01*
X161939618Y-76621275D01*
X161912568Y-76563266D01*
X161782047Y-76376861D01*
X161782045Y-76376858D01*
X161621141Y-76215954D01*
X161434734Y-76085432D01*
X161434732Y-76085431D01*
X161228497Y-75989261D01*
X161228488Y-75989258D01*
X161008697Y-75930366D01*
X161008693Y-75930365D01*
X161008692Y-75930365D01*
X161008691Y-75930364D01*
X161008686Y-75930364D01*
X160782002Y-75910532D01*
X160781998Y-75910532D01*
X160555313Y-75930364D01*
X160555302Y-75930366D01*
X160335511Y-75989258D01*
X160335502Y-75989261D01*
X160129267Y-76085431D01*
X160129265Y-76085432D01*
X159942858Y-76215954D01*
X159781954Y-76376858D01*
X159651432Y-76563265D01*
X159651431Y-76563267D01*
X159624382Y-76621275D01*
X159578209Y-76673714D01*
X159511016Y-76692866D01*
X159444135Y-76672650D01*
X159399618Y-76621275D01*
X159372568Y-76563266D01*
X159242047Y-76376861D01*
X159242045Y-76376858D01*
X159081141Y-76215954D01*
X158894734Y-76085432D01*
X158894732Y-76085431D01*
X158688497Y-75989261D01*
X158688488Y-75989258D01*
X158468697Y-75930366D01*
X158468693Y-75930365D01*
X158468692Y-75930365D01*
X158468691Y-75930364D01*
X158468686Y-75930364D01*
X158242002Y-75910532D01*
X158241998Y-75910532D01*
X158015313Y-75930364D01*
X158015302Y-75930366D01*
X157795511Y-75989258D01*
X157795502Y-75989261D01*
X157589267Y-76085431D01*
X157589265Y-76085432D01*
X157402858Y-76215954D01*
X157241954Y-76376858D01*
X157111432Y-76563265D01*
X157111431Y-76563267D01*
X157084382Y-76621275D01*
X157038209Y-76673714D01*
X156971016Y-76692866D01*
X156904135Y-76672650D01*
X156859618Y-76621275D01*
X156832568Y-76563266D01*
X156702047Y-76376861D01*
X156702045Y-76376858D01*
X156541141Y-76215954D01*
X156354734Y-76085432D01*
X156354732Y-76085431D01*
X156148497Y-75989261D01*
X156148488Y-75989258D01*
X155928697Y-75930366D01*
X155928693Y-75930365D01*
X155928692Y-75930365D01*
X155928691Y-75930364D01*
X155928686Y-75930364D01*
X155702002Y-75910532D01*
X155701998Y-75910532D01*
X155475313Y-75930364D01*
X155475302Y-75930366D01*
X155255511Y-75989258D01*
X155255502Y-75989261D01*
X155049267Y-76085431D01*
X155049265Y-76085432D01*
X154862858Y-76215954D01*
X154701954Y-76376858D01*
X154571432Y-76563265D01*
X154571431Y-76563267D01*
X154544382Y-76621275D01*
X154498209Y-76673714D01*
X154431016Y-76692866D01*
X154364135Y-76672650D01*
X154319618Y-76621275D01*
X154292568Y-76563266D01*
X154162047Y-76376861D01*
X154162045Y-76376858D01*
X154001141Y-76215954D01*
X153814734Y-76085432D01*
X153814732Y-76085431D01*
X153608497Y-75989261D01*
X153608488Y-75989258D01*
X153388697Y-75930366D01*
X153388693Y-75930365D01*
X153388692Y-75930365D01*
X153388691Y-75930364D01*
X153388686Y-75930364D01*
X153162002Y-75910532D01*
X153161998Y-75910532D01*
X152935313Y-75930364D01*
X152935302Y-75930366D01*
X152715511Y-75989258D01*
X152715502Y-75989261D01*
X152509267Y-76085431D01*
X152509265Y-76085432D01*
X152322858Y-76215954D01*
X152161954Y-76376858D01*
X152031432Y-76563265D01*
X152031431Y-76563267D01*
X152004382Y-76621275D01*
X151958209Y-76673714D01*
X151891016Y-76692866D01*
X151824135Y-76672650D01*
X151779618Y-76621275D01*
X151752568Y-76563266D01*
X151622047Y-76376861D01*
X151622045Y-76376858D01*
X151461141Y-76215954D01*
X151274734Y-76085432D01*
X151274732Y-76085431D01*
X151068497Y-75989261D01*
X151068488Y-75989258D01*
X150848697Y-75930366D01*
X150848693Y-75930365D01*
X150848692Y-75930365D01*
X150848691Y-75930364D01*
X150848686Y-75930364D01*
X150622002Y-75910532D01*
X150621998Y-75910532D01*
X150395313Y-75930364D01*
X150395302Y-75930366D01*
X150175511Y-75989258D01*
X150175502Y-75989261D01*
X149969267Y-76085431D01*
X149969265Y-76085432D01*
X149782858Y-76215954D01*
X149621954Y-76376858D01*
X149491432Y-76563265D01*
X149491431Y-76563267D01*
X149464382Y-76621275D01*
X149418209Y-76673714D01*
X149351016Y-76692866D01*
X149284135Y-76672650D01*
X149239618Y-76621275D01*
X149212568Y-76563266D01*
X149082047Y-76376861D01*
X149082045Y-76376858D01*
X148921141Y-76215954D01*
X148734734Y-76085432D01*
X148734732Y-76085431D01*
X148528497Y-75989261D01*
X148528488Y-75989258D01*
X148308697Y-75930366D01*
X148308693Y-75930365D01*
X148308692Y-75930365D01*
X148308691Y-75930364D01*
X148308686Y-75930364D01*
X148082002Y-75910532D01*
X148081998Y-75910532D01*
X147855313Y-75930364D01*
X147855302Y-75930366D01*
X147635511Y-75989258D01*
X147635502Y-75989261D01*
X147429267Y-76085431D01*
X147429265Y-76085432D01*
X147242858Y-76215954D01*
X147081954Y-76376858D01*
X146951432Y-76563265D01*
X146951431Y-76563267D01*
X146855261Y-76769502D01*
X146855258Y-76769511D01*
X146796366Y-76989302D01*
X146796364Y-76989313D01*
X146776532Y-77215998D01*
X144618500Y-77215998D01*
X144618500Y-61185097D01*
X144638185Y-61118058D01*
X144690989Y-61072303D01*
X144760147Y-61062359D01*
X144823703Y-61091384D01*
X144830181Y-61097416D01*
X146073139Y-62340374D01*
X146073149Y-62340385D01*
X146077479Y-62344715D01*
X146077480Y-62344716D01*
X146189284Y-62456520D01*
X146189286Y-62456521D01*
X146189290Y-62456524D01*
X146296265Y-62518285D01*
X146326216Y-62535577D01*
X146438019Y-62565534D01*
X146478942Y-62576500D01*
X146478943Y-62576500D01*
X146850308Y-62576500D01*
X146917347Y-62596185D01*
X146951880Y-62629374D01*
X147029143Y-62739718D01*
X147081954Y-62815141D01*
X147242858Y-62976045D01*
X147242861Y-62976047D01*
X147429266Y-63106568D01*
X147635504Y-63202739D01*
X147855308Y-63261635D01*
X148017230Y-63275801D01*
X148081998Y-63281468D01*
X148082000Y-63281468D01*
X148082002Y-63281468D01*
X148138807Y-63276498D01*
X148308692Y-63261635D01*
X148528496Y-63202739D01*
X148734734Y-63106568D01*
X148921139Y-62976047D01*
X149082047Y-62815139D01*
X149212568Y-62628734D01*
X149239618Y-62570724D01*
X149285790Y-62518285D01*
X149352983Y-62499133D01*
X149419865Y-62519348D01*
X149464382Y-62570725D01*
X149491429Y-62628728D01*
X149491432Y-62628734D01*
X149621954Y-62815141D01*
X149782858Y-62976045D01*
X149782861Y-62976047D01*
X149969266Y-63106568D01*
X150175504Y-63202739D01*
X150395308Y-63261635D01*
X150557230Y-63275801D01*
X150621998Y-63281468D01*
X150622000Y-63281468D01*
X150622002Y-63281468D01*
X150678807Y-63276498D01*
X150848692Y-63261635D01*
X151068496Y-63202739D01*
X151274734Y-63106568D01*
X151461139Y-62976047D01*
X151622047Y-62815139D01*
X151752568Y-62628734D01*
X151779618Y-62570724D01*
X151825790Y-62518285D01*
X151892983Y-62499133D01*
X151959865Y-62519348D01*
X152004382Y-62570725D01*
X152031429Y-62628728D01*
X152031432Y-62628734D01*
X152161954Y-62815141D01*
X152322858Y-62976045D01*
X152322861Y-62976047D01*
X152509266Y-63106568D01*
X152715504Y-63202739D01*
X152935308Y-63261635D01*
X153097230Y-63275801D01*
X153161998Y-63281468D01*
X153162000Y-63281468D01*
X153162002Y-63281468D01*
X153218807Y-63276498D01*
X153388692Y-63261635D01*
X153608496Y-63202739D01*
X153814734Y-63106568D01*
X154001139Y-62976047D01*
X154162047Y-62815139D01*
X154292568Y-62628734D01*
X154319618Y-62570724D01*
X154365790Y-62518285D01*
X154432983Y-62499133D01*
X154499865Y-62519348D01*
X154544382Y-62570725D01*
X154571429Y-62628728D01*
X154571432Y-62628734D01*
X154701954Y-62815141D01*
X154862858Y-62976045D01*
X154862861Y-62976047D01*
X155049266Y-63106568D01*
X155255504Y-63202739D01*
X155475308Y-63261635D01*
X155637230Y-63275801D01*
X155701998Y-63281468D01*
X155702000Y-63281468D01*
X155702002Y-63281468D01*
X155758807Y-63276498D01*
X155928692Y-63261635D01*
X156148496Y-63202739D01*
X156354734Y-63106568D01*
X156541139Y-62976047D01*
X156702047Y-62815139D01*
X156832568Y-62628734D01*
X156859618Y-62570724D01*
X156905790Y-62518285D01*
X156972983Y-62499133D01*
X157039865Y-62519348D01*
X157084382Y-62570725D01*
X157111429Y-62628728D01*
X157111432Y-62628734D01*
X157241954Y-62815141D01*
X157402858Y-62976045D01*
X157402861Y-62976047D01*
X157589266Y-63106568D01*
X157795504Y-63202739D01*
X158015308Y-63261635D01*
X158177230Y-63275801D01*
X158241998Y-63281468D01*
X158242000Y-63281468D01*
X158242002Y-63281468D01*
X158298807Y-63276498D01*
X158468692Y-63261635D01*
X158688496Y-63202739D01*
X158894734Y-63106568D01*
X159081139Y-62976047D01*
X159242047Y-62815139D01*
X159372568Y-62628734D01*
X159399618Y-62570724D01*
X159445790Y-62518285D01*
X159512983Y-62499133D01*
X159579865Y-62519348D01*
X159624382Y-62570725D01*
X159651429Y-62628728D01*
X159651432Y-62628734D01*
X159781954Y-62815141D01*
X159942858Y-62976045D01*
X159942861Y-62976047D01*
X160129266Y-63106568D01*
X160335504Y-63202739D01*
X160555308Y-63261635D01*
X160717230Y-63275801D01*
X160781998Y-63281468D01*
X160782000Y-63281468D01*
X160782002Y-63281468D01*
X160838807Y-63276498D01*
X161008692Y-63261635D01*
X161228496Y-63202739D01*
X161434734Y-63106568D01*
X161621139Y-62976047D01*
X161782047Y-62815139D01*
X161912568Y-62628734D01*
X161939618Y-62570724D01*
X161985790Y-62518285D01*
X162052983Y-62499133D01*
X162119865Y-62519348D01*
X162164382Y-62570725D01*
X162191429Y-62628728D01*
X162191432Y-62628734D01*
X162321954Y-62815141D01*
X162482858Y-62976045D01*
X162482861Y-62976047D01*
X162669266Y-63106568D01*
X162875504Y-63202739D01*
X163095308Y-63261635D01*
X163257230Y-63275801D01*
X163321998Y-63281468D01*
X163322000Y-63281468D01*
X163322002Y-63281468D01*
X163378807Y-63276498D01*
X163548692Y-63261635D01*
X163768496Y-63202739D01*
X163974734Y-63106568D01*
X164161139Y-62976047D01*
X164322047Y-62815139D01*
X164452568Y-62628734D01*
X164479618Y-62570724D01*
X164525790Y-62518285D01*
X164592983Y-62499133D01*
X164659865Y-62519348D01*
X164704382Y-62570725D01*
X164731429Y-62628728D01*
X164731432Y-62628734D01*
X164861954Y-62815141D01*
X165022858Y-62976045D01*
X165022861Y-62976047D01*
X165209266Y-63106568D01*
X165415504Y-63202739D01*
X165635308Y-63261635D01*
X165797230Y-63275801D01*
X165861998Y-63281468D01*
X165862000Y-63281468D01*
X165862002Y-63281468D01*
X165918807Y-63276498D01*
X166088692Y-63261635D01*
X166308496Y-63202739D01*
X166514734Y-63106568D01*
X166701139Y-62976047D01*
X166862047Y-62815139D01*
X166992568Y-62628734D01*
X167019893Y-62570134D01*
X167066065Y-62517695D01*
X167133258Y-62498543D01*
X167200139Y-62518758D01*
X167244657Y-62570134D01*
X167271864Y-62628480D01*
X167322974Y-62701472D01*
X167878212Y-62146234D01*
X167889482Y-62188292D01*
X167961890Y-62313708D01*
X168064292Y-62416110D01*
X168189708Y-62488518D01*
X168231765Y-62499787D01*
X167676526Y-63055025D01*
X167749513Y-63106132D01*
X167749521Y-63106136D01*
X167955668Y-63202264D01*
X167955682Y-63202269D01*
X168175389Y-63261139D01*
X168175400Y-63261141D01*
X168401998Y-63280966D01*
X168402002Y-63280966D01*
X168628599Y-63261141D01*
X168628610Y-63261139D01*
X168848317Y-63202269D01*
X168848331Y-63202264D01*
X169054478Y-63106136D01*
X169127471Y-63055024D01*
X168572234Y-62499787D01*
X168614292Y-62488518D01*
X168739708Y-62416110D01*
X168842110Y-62313708D01*
X168914518Y-62188292D01*
X168925787Y-62146234D01*
X169481024Y-62701471D01*
X169532136Y-62628478D01*
X169559618Y-62569544D01*
X169605790Y-62517104D01*
X169672983Y-62497952D01*
X169739864Y-62518167D01*
X169784382Y-62569544D01*
X169811863Y-62628478D01*
X169862974Y-62701472D01*
X170418212Y-62146234D01*
X170429482Y-62188292D01*
X170501890Y-62313708D01*
X170604292Y-62416110D01*
X170729708Y-62488518D01*
X170771765Y-62499787D01*
X170216526Y-63055025D01*
X170289513Y-63106132D01*
X170289521Y-63106136D01*
X170495668Y-63202264D01*
X170495682Y-63202269D01*
X170715389Y-63261139D01*
X170715400Y-63261141D01*
X170941998Y-63280966D01*
X170942002Y-63280966D01*
X171168599Y-63261141D01*
X171168610Y-63261139D01*
X171388317Y-63202269D01*
X171388331Y-63202264D01*
X171594478Y-63106136D01*
X171667471Y-63055024D01*
X171112234Y-62499787D01*
X171154292Y-62488518D01*
X171279708Y-62416110D01*
X171382110Y-62313708D01*
X171454518Y-62188292D01*
X171465787Y-62146234D01*
X172021024Y-62701471D01*
X172072133Y-62628482D01*
X172099341Y-62570135D01*
X172145513Y-62517696D01*
X172212707Y-62498543D01*
X172279588Y-62518758D01*
X172324105Y-62570132D01*
X172351432Y-62628734D01*
X172402363Y-62701471D01*
X172481954Y-62815141D01*
X172642858Y-62976045D01*
X172642861Y-62976047D01*
X172829266Y-63106568D01*
X173035504Y-63202739D01*
X173255308Y-63261635D01*
X173417230Y-63275801D01*
X173481998Y-63281468D01*
X173482000Y-63281468D01*
X173482002Y-63281468D01*
X173538807Y-63276498D01*
X173708692Y-63261635D01*
X173928496Y-63202739D01*
X174134734Y-63106568D01*
X174321139Y-62976047D01*
X174482047Y-62815139D01*
X174499272Y-62790539D01*
X174553848Y-62746913D01*
X174623346Y-62739718D01*
X174685701Y-62771239D01*
X174721116Y-62831468D01*
X174724138Y-62848406D01*
X174727908Y-62883483D01*
X174778202Y-63018328D01*
X174778206Y-63018335D01*
X174864452Y-63133544D01*
X174864455Y-63133547D01*
X174979664Y-63219793D01*
X174979671Y-63219797D01*
X175114517Y-63270091D01*
X175114516Y-63270091D01*
X175121444Y-63270835D01*
X175174127Y-63276500D01*
X176869872Y-63276499D01*
X176929483Y-63270091D01*
X177064331Y-63219796D01*
X177179546Y-63133546D01*
X177265796Y-63018331D01*
X177316091Y-62883483D01*
X177322500Y-62823873D01*
X177322499Y-61128128D01*
X177316091Y-61068517D01*
X177313794Y-61062359D01*
X177265797Y-60933671D01*
X177265793Y-60933664D01*
X177179547Y-60818455D01*
X177179544Y-60818452D01*
X177064335Y-60732206D01*
X177064328Y-60732202D01*
X176929482Y-60681908D01*
X176929483Y-60681908D01*
X176869883Y-60675501D01*
X176869881Y-60675500D01*
X176869873Y-60675500D01*
X176869864Y-60675500D01*
X175174129Y-60675500D01*
X175174123Y-60675501D01*
X175114516Y-60681908D01*
X174979671Y-60732202D01*
X174979664Y-60732206D01*
X174864455Y-60818452D01*
X174864452Y-60818455D01*
X174778206Y-60933664D01*
X174778202Y-60933671D01*
X174727908Y-61068516D01*
X174724137Y-61103596D01*
X174697398Y-61168146D01*
X174640006Y-61207994D01*
X174570180Y-61210487D01*
X174510092Y-61174834D01*
X174499273Y-61161462D01*
X174482045Y-61136858D01*
X174321141Y-60975954D01*
X174134734Y-60845432D01*
X174134732Y-60845431D01*
X173928497Y-60749261D01*
X173928488Y-60749258D01*
X173708697Y-60690366D01*
X173708693Y-60690365D01*
X173708692Y-60690365D01*
X173708691Y-60690364D01*
X173708686Y-60690364D01*
X173482002Y-60670532D01*
X173481998Y-60670532D01*
X173255313Y-60690364D01*
X173255302Y-60690366D01*
X173035511Y-60749258D01*
X173035502Y-60749261D01*
X172829267Y-60845431D01*
X172829265Y-60845432D01*
X172642858Y-60975954D01*
X172481954Y-61136858D01*
X172351432Y-61323265D01*
X172351428Y-61323272D01*
X172324105Y-61381866D01*
X172277932Y-61434305D01*
X172210738Y-61453456D01*
X172143858Y-61433239D01*
X172099342Y-61381864D01*
X172072136Y-61323521D01*
X172072132Y-61323513D01*
X172021025Y-61250526D01*
X171465787Y-61805764D01*
X171454518Y-61763708D01*
X171382110Y-61638292D01*
X171279708Y-61535890D01*
X171154292Y-61463482D01*
X171112234Y-61452212D01*
X171667472Y-60896974D01*
X171594478Y-60845863D01*
X171388331Y-60749735D01*
X171388317Y-60749730D01*
X171168610Y-60690860D01*
X171168599Y-60690858D01*
X170942002Y-60671034D01*
X170941998Y-60671034D01*
X170715400Y-60690858D01*
X170715389Y-60690860D01*
X170495682Y-60749730D01*
X170495673Y-60749734D01*
X170289516Y-60845866D01*
X170289512Y-60845868D01*
X170216526Y-60896973D01*
X170216526Y-60896974D01*
X170771765Y-61452212D01*
X170729708Y-61463482D01*
X170604292Y-61535890D01*
X170501890Y-61638292D01*
X170429482Y-61763708D01*
X170418212Y-61805764D01*
X169862974Y-61250526D01*
X169862973Y-61250526D01*
X169811868Y-61323512D01*
X169784382Y-61382457D01*
X169738209Y-61434895D01*
X169671015Y-61454047D01*
X169604134Y-61433831D01*
X169559618Y-61382456D01*
X169532134Y-61323517D01*
X169532132Y-61323513D01*
X169481025Y-61250526D01*
X168925787Y-61805764D01*
X168914518Y-61763708D01*
X168842110Y-61638292D01*
X168739708Y-61535890D01*
X168614292Y-61463482D01*
X168572234Y-61452212D01*
X169127472Y-60896974D01*
X169054478Y-60845863D01*
X168848331Y-60749735D01*
X168848317Y-60749730D01*
X168628610Y-60690860D01*
X168628599Y-60690858D01*
X168402002Y-60671034D01*
X168401998Y-60671034D01*
X168175400Y-60690858D01*
X168175389Y-60690860D01*
X167955682Y-60749730D01*
X167955673Y-60749734D01*
X167749516Y-60845866D01*
X167749512Y-60845868D01*
X167676526Y-60896973D01*
X167676526Y-60896974D01*
X168231765Y-61452212D01*
X168189708Y-61463482D01*
X168064292Y-61535890D01*
X167961890Y-61638292D01*
X167889482Y-61763708D01*
X167878212Y-61805764D01*
X167322974Y-61250526D01*
X167322973Y-61250526D01*
X167271868Y-61323512D01*
X167271868Y-61323513D01*
X167244657Y-61381867D01*
X167198484Y-61434306D01*
X167131290Y-61453457D01*
X167064409Y-61433241D01*
X167019893Y-61381865D01*
X166997852Y-61334599D01*
X166992568Y-61323266D01*
X166863707Y-61139232D01*
X166862045Y-61136858D01*
X166701141Y-60975954D01*
X166514734Y-60845432D01*
X166514732Y-60845431D01*
X166308497Y-60749261D01*
X166308488Y-60749258D01*
X166088697Y-60690366D01*
X166088693Y-60690365D01*
X166088692Y-60690365D01*
X166088691Y-60690364D01*
X166088686Y-60690364D01*
X165862002Y-60670532D01*
X165861998Y-60670532D01*
X165635313Y-60690364D01*
X165635302Y-60690366D01*
X165415511Y-60749258D01*
X165415502Y-60749261D01*
X165209267Y-60845431D01*
X165209265Y-60845432D01*
X165022858Y-60975954D01*
X164861954Y-61136858D01*
X164731432Y-61323265D01*
X164731431Y-61323267D01*
X164704382Y-61381275D01*
X164658209Y-61433714D01*
X164591016Y-61452866D01*
X164524135Y-61432650D01*
X164479618Y-61381275D01*
X164459129Y-61337337D01*
X164452568Y-61323266D01*
X164323707Y-61139232D01*
X164322045Y-61136858D01*
X164161141Y-60975954D01*
X163974734Y-60845432D01*
X163974732Y-60845431D01*
X163768497Y-60749261D01*
X163768488Y-60749258D01*
X163548697Y-60690366D01*
X163548693Y-60690365D01*
X163548692Y-60690365D01*
X163548691Y-60690364D01*
X163548686Y-60690364D01*
X163322002Y-60670532D01*
X163321998Y-60670532D01*
X163095313Y-60690364D01*
X163095302Y-60690366D01*
X162875511Y-60749258D01*
X162875502Y-60749261D01*
X162669267Y-60845431D01*
X162669265Y-60845432D01*
X162482858Y-60975954D01*
X162321954Y-61136858D01*
X162191432Y-61323265D01*
X162191431Y-61323267D01*
X162164382Y-61381275D01*
X162118209Y-61433714D01*
X162051016Y-61452866D01*
X161984135Y-61432650D01*
X161939618Y-61381275D01*
X161919129Y-61337337D01*
X161912568Y-61323266D01*
X161783707Y-61139232D01*
X161782045Y-61136858D01*
X161621141Y-60975954D01*
X161434734Y-60845432D01*
X161434732Y-60845431D01*
X161228497Y-60749261D01*
X161228488Y-60749258D01*
X161008697Y-60690366D01*
X161008693Y-60690365D01*
X161008692Y-60690365D01*
X161008691Y-60690364D01*
X161008686Y-60690364D01*
X160782002Y-60670532D01*
X160781998Y-60670532D01*
X160555313Y-60690364D01*
X160555302Y-60690366D01*
X160335511Y-60749258D01*
X160335502Y-60749261D01*
X160129267Y-60845431D01*
X160129265Y-60845432D01*
X159942858Y-60975954D01*
X159781954Y-61136858D01*
X159651432Y-61323265D01*
X159651431Y-61323267D01*
X159624382Y-61381275D01*
X159578209Y-61433714D01*
X159511016Y-61452866D01*
X159444135Y-61432650D01*
X159399618Y-61381275D01*
X159379129Y-61337337D01*
X159372568Y-61323266D01*
X159243707Y-61139232D01*
X159242045Y-61136858D01*
X159081141Y-60975954D01*
X158894734Y-60845432D01*
X158894732Y-60845431D01*
X158688497Y-60749261D01*
X158688488Y-60749258D01*
X158468697Y-60690366D01*
X158468693Y-60690365D01*
X158468692Y-60690365D01*
X158468691Y-60690364D01*
X158468686Y-60690364D01*
X158242002Y-60670532D01*
X158241998Y-60670532D01*
X158015313Y-60690364D01*
X158015302Y-60690366D01*
X157795511Y-60749258D01*
X157795502Y-60749261D01*
X157589267Y-60845431D01*
X157589265Y-60845432D01*
X157402858Y-60975954D01*
X157241954Y-61136858D01*
X157111432Y-61323265D01*
X157111431Y-61323267D01*
X157084382Y-61381275D01*
X157038209Y-61433714D01*
X156971016Y-61452866D01*
X156904135Y-61432650D01*
X156859618Y-61381275D01*
X156839129Y-61337337D01*
X156832568Y-61323266D01*
X156703707Y-61139232D01*
X156702045Y-61136858D01*
X156541141Y-60975954D01*
X156354734Y-60845432D01*
X156354732Y-60845431D01*
X156148497Y-60749261D01*
X156148488Y-60749258D01*
X155928697Y-60690366D01*
X155928693Y-60690365D01*
X155928692Y-60690365D01*
X155928691Y-60690364D01*
X155928686Y-60690364D01*
X155702002Y-60670532D01*
X155701998Y-60670532D01*
X155475313Y-60690364D01*
X155475302Y-60690366D01*
X155255511Y-60749258D01*
X155255502Y-60749261D01*
X155049267Y-60845431D01*
X155049265Y-60845432D01*
X154862858Y-60975954D01*
X154701954Y-61136858D01*
X154571432Y-61323265D01*
X154571431Y-61323267D01*
X154544382Y-61381275D01*
X154498209Y-61433714D01*
X154431016Y-61452866D01*
X154364135Y-61432650D01*
X154319618Y-61381275D01*
X154299129Y-61337337D01*
X154292568Y-61323266D01*
X154163707Y-61139232D01*
X154162045Y-61136858D01*
X154001141Y-60975954D01*
X153814734Y-60845432D01*
X153814732Y-60845431D01*
X153608497Y-60749261D01*
X153608488Y-60749258D01*
X153388697Y-60690366D01*
X153388693Y-60690365D01*
X153388692Y-60690365D01*
X153388691Y-60690364D01*
X153388686Y-60690364D01*
X153162002Y-60670532D01*
X153161998Y-60670532D01*
X152935313Y-60690364D01*
X152935302Y-60690366D01*
X152715511Y-60749258D01*
X152715502Y-60749261D01*
X152509267Y-60845431D01*
X152509265Y-60845432D01*
X152322858Y-60975954D01*
X152161954Y-61136858D01*
X152031432Y-61323265D01*
X152031431Y-61323267D01*
X152004382Y-61381275D01*
X151958209Y-61433714D01*
X151891016Y-61452866D01*
X151824135Y-61432650D01*
X151779618Y-61381275D01*
X151759129Y-61337337D01*
X151752568Y-61323266D01*
X151623707Y-61139232D01*
X151622045Y-61136858D01*
X151461141Y-60975954D01*
X151274734Y-60845432D01*
X151274732Y-60845431D01*
X151068497Y-60749261D01*
X151068488Y-60749258D01*
X150848697Y-60690366D01*
X150848693Y-60690365D01*
X150848692Y-60690365D01*
X150848691Y-60690364D01*
X150848686Y-60690364D01*
X150622002Y-60670532D01*
X150621998Y-60670532D01*
X150395313Y-60690364D01*
X150395302Y-60690366D01*
X150175511Y-60749258D01*
X150175502Y-60749261D01*
X149969267Y-60845431D01*
X149969265Y-60845432D01*
X149782858Y-60975954D01*
X149621954Y-61136858D01*
X149491432Y-61323265D01*
X149491431Y-61323267D01*
X149464382Y-61381275D01*
X149418209Y-61433714D01*
X149351016Y-61452866D01*
X149284135Y-61432650D01*
X149239618Y-61381275D01*
X149219129Y-61337337D01*
X149212568Y-61323266D01*
X149083707Y-61139232D01*
X149082045Y-61136858D01*
X148921141Y-60975954D01*
X148734734Y-60845432D01*
X148734732Y-60845431D01*
X148528497Y-60749261D01*
X148528488Y-60749258D01*
X148308697Y-60690366D01*
X148308693Y-60690365D01*
X148308692Y-60690365D01*
X148308691Y-60690364D01*
X148308686Y-60690364D01*
X148082002Y-60670532D01*
X148081998Y-60670532D01*
X147855313Y-60690364D01*
X147855302Y-60690366D01*
X147635511Y-60749258D01*
X147635502Y-60749261D01*
X147429267Y-60845431D01*
X147429265Y-60845432D01*
X147242858Y-60975954D01*
X147081954Y-61136858D01*
X146955090Y-61318041D01*
X146900513Y-61361666D01*
X146831015Y-61368860D01*
X146768660Y-61337337D01*
X146765834Y-61334599D01*
X144654819Y-59223584D01*
X144621334Y-59162261D01*
X144618500Y-59135903D01*
X144618500Y-52159060D01*
X144618501Y-52159047D01*
X144618501Y-51990944D01*
X144577576Y-51838214D01*
X144577573Y-51838209D01*
X144498524Y-51701290D01*
X144498518Y-51701282D01*
X141844818Y-49047582D01*
X141811333Y-48986259D01*
X141808499Y-48959901D01*
X141808499Y-47112129D01*
X141808498Y-47112123D01*
X141808497Y-47112116D01*
X141802091Y-47052517D01*
X141768017Y-46961161D01*
X141751797Y-46917671D01*
X141751793Y-46917664D01*
X141715147Y-46868711D01*
X172139500Y-46868711D01*
X172139500Y-47111288D01*
X172171161Y-47351785D01*
X172233947Y-47586104D01*
X172293286Y-47729360D01*
X172326776Y-47810212D01*
X172448064Y-48020289D01*
X172448066Y-48020292D01*
X172448067Y-48020293D01*
X172595733Y-48212736D01*
X172595739Y-48212743D01*
X172767256Y-48384260D01*
X172767262Y-48384265D01*
X172959711Y-48531936D01*
X173169788Y-48653224D01*
X173393900Y-48746054D01*
X173628211Y-48808838D01*
X173808586Y-48832584D01*
X173868711Y-48840500D01*
X173868712Y-48840500D01*
X174111289Y-48840500D01*
X174159388Y-48834167D01*
X174351789Y-48808838D01*
X174586100Y-48746054D01*
X174810212Y-48653224D01*
X175020289Y-48531936D01*
X175212738Y-48384265D01*
X175384265Y-48212738D01*
X175531936Y-48020289D01*
X175653224Y-47810212D01*
X175746054Y-47586100D01*
X175808838Y-47351789D01*
X175840500Y-47111288D01*
X175840500Y-46868712D01*
X175808838Y-46628211D01*
X175746054Y-46393900D01*
X175653224Y-46169788D01*
X175531936Y-45959711D01*
X175384265Y-45767262D01*
X175384260Y-45767256D01*
X175212743Y-45595739D01*
X175212736Y-45595733D01*
X175020293Y-45448067D01*
X175020292Y-45448066D01*
X175020289Y-45448064D01*
X174810212Y-45326776D01*
X174810205Y-45326773D01*
X174586104Y-45233947D01*
X174351785Y-45171161D01*
X174111289Y-45139500D01*
X174111288Y-45139500D01*
X173868712Y-45139500D01*
X173868711Y-45139500D01*
X173628214Y-45171161D01*
X173393895Y-45233947D01*
X173169794Y-45326773D01*
X173169785Y-45326777D01*
X172959706Y-45448067D01*
X172767263Y-45595733D01*
X172767256Y-45595739D01*
X172595739Y-45767256D01*
X172595733Y-45767263D01*
X172448067Y-45959706D01*
X172326777Y-46169785D01*
X172326773Y-46169794D01*
X172233947Y-46393895D01*
X172171161Y-46628214D01*
X172139500Y-46868711D01*
X141715147Y-46868711D01*
X141665547Y-46802455D01*
X141665544Y-46802452D01*
X141550335Y-46716206D01*
X141550328Y-46716202D01*
X141415482Y-46665908D01*
X141415483Y-46665908D01*
X141355883Y-46659501D01*
X141355881Y-46659500D01*
X141355873Y-46659500D01*
X141355864Y-46659500D01*
X139060129Y-46659500D01*
X139060123Y-46659501D01*
X139000516Y-46665908D01*
X138865671Y-46716202D01*
X138865664Y-46716206D01*
X138750455Y-46802452D01*
X138750452Y-46802455D01*
X138664206Y-46917664D01*
X138664202Y-46917671D01*
X138613908Y-47052517D01*
X138607590Y-47111288D01*
X138607501Y-47112123D01*
X138607500Y-47112135D01*
X138607500Y-49407870D01*
X138607501Y-49407876D01*
X138613908Y-49467483D01*
X138664202Y-49602328D01*
X138664206Y-49602335D01*
X138750452Y-49717544D01*
X138750455Y-49717547D01*
X138865664Y-49803793D01*
X138865671Y-49803797D01*
X139000517Y-49854091D01*
X139000516Y-49854091D01*
X139007444Y-49854835D01*
X139060127Y-49860500D01*
X140907901Y-49860499D01*
X140974940Y-49880184D01*
X140995582Y-49896818D01*
X143381181Y-52282416D01*
X143414666Y-52343739D01*
X143417500Y-52370097D01*
X143417500Y-59349330D01*
X143417499Y-59349348D01*
X143417499Y-59525046D01*
X143417500Y-59525059D01*
X143417500Y-86821902D01*
X143397815Y-86888941D01*
X143381181Y-86909583D01*
X140741582Y-89549181D01*
X140680259Y-89582666D01*
X140653901Y-89585500D01*
X138806129Y-89585500D01*
X138806123Y-89585501D01*
X138746516Y-89591908D01*
X138611671Y-89642202D01*
X138611664Y-89642206D01*
X138496455Y-89728452D01*
X138496452Y-89728455D01*
X138410206Y-89843664D01*
X138410202Y-89843671D01*
X138359908Y-89978517D01*
X138353501Y-90038116D01*
X138353500Y-90038135D01*
X130914423Y-90038135D01*
X130749659Y-89897413D01*
X130737656Y-89887161D01*
X130737653Y-89887160D01*
X130522859Y-89755533D01*
X130290110Y-89659126D01*
X130045151Y-89600317D01*
X129794000Y-89580551D01*
X129542848Y-89600317D01*
X129297889Y-89659126D01*
X129065140Y-89755533D01*
X128850346Y-89887160D01*
X128850343Y-89887161D01*
X128658776Y-90050776D01*
X128495161Y-90242343D01*
X128495160Y-90242346D01*
X128363533Y-90457140D01*
X128267126Y-90689889D01*
X128208317Y-90934848D01*
X128188551Y-91186000D01*
X123012499Y-91186000D01*
X123012499Y-90486095D01*
X123032184Y-90419057D01*
X123048813Y-90398420D01*
X125326506Y-88120728D01*
X125326511Y-88120724D01*
X125336714Y-88110520D01*
X125336716Y-88110520D01*
X125448520Y-87998716D01*
X125527577Y-87861784D01*
X125568500Y-87709057D01*
X125568500Y-79161389D01*
X128947500Y-79161389D01*
X128947500Y-79334611D01*
X128974598Y-79505701D01*
X129028127Y-79670445D01*
X129106768Y-79824788D01*
X129208586Y-79964928D01*
X129331072Y-80087414D01*
X129471212Y-80189232D01*
X129625555Y-80267873D01*
X129790299Y-80321402D01*
X129961389Y-80348500D01*
X129961390Y-80348500D01*
X130134610Y-80348500D01*
X130134611Y-80348500D01*
X130305701Y-80321402D01*
X130470445Y-80267873D01*
X130624788Y-80189232D01*
X130764928Y-80087414D01*
X130887414Y-79964928D01*
X130989232Y-79824788D01*
X131067873Y-79670445D01*
X131121402Y-79505701D01*
X131148500Y-79334611D01*
X131148500Y-79161389D01*
X131138854Y-79100486D01*
X132877500Y-79100486D01*
X132877500Y-79395513D01*
X132909571Y-79639113D01*
X132916007Y-79687993D01*
X132990212Y-79964930D01*
X132992361Y-79972951D01*
X132992364Y-79972961D01*
X133105254Y-80245500D01*
X133105258Y-80245510D01*
X133252761Y-80500993D01*
X133432352Y-80735040D01*
X133432358Y-80735047D01*
X133640952Y-80943641D01*
X133640959Y-80943647D01*
X133875006Y-81123238D01*
X134130489Y-81270741D01*
X134130490Y-81270741D01*
X134130493Y-81270743D01*
X134403048Y-81383639D01*
X134688007Y-81459993D01*
X134980494Y-81498500D01*
X134980501Y-81498500D01*
X135275499Y-81498500D01*
X135275506Y-81498500D01*
X135567993Y-81459993D01*
X135852952Y-81383639D01*
X136125507Y-81270743D01*
X136380994Y-81123238D01*
X136615042Y-80943646D01*
X136823646Y-80735042D01*
X137003238Y-80500994D01*
X137150743Y-80245507D01*
X137263639Y-79972952D01*
X137339993Y-79687993D01*
X137378500Y-79395506D01*
X137378500Y-79161389D01*
X139107500Y-79161389D01*
X139107500Y-79334611D01*
X139134598Y-79505701D01*
X139188127Y-79670445D01*
X139266768Y-79824788D01*
X139368586Y-79964928D01*
X139491072Y-80087414D01*
X139631212Y-80189232D01*
X139785555Y-80267873D01*
X139950299Y-80321402D01*
X140121389Y-80348500D01*
X140121390Y-80348500D01*
X140294610Y-80348500D01*
X140294611Y-80348500D01*
X140465701Y-80321402D01*
X140630445Y-80267873D01*
X140784788Y-80189232D01*
X140924928Y-80087414D01*
X141047414Y-79964928D01*
X141149232Y-79824788D01*
X141227873Y-79670445D01*
X141281402Y-79505701D01*
X141308500Y-79334611D01*
X141308500Y-79161389D01*
X141281402Y-78990299D01*
X141227873Y-78825555D01*
X141149232Y-78671212D01*
X141047414Y-78531072D01*
X140924928Y-78408586D01*
X140784788Y-78306768D01*
X140630445Y-78228127D01*
X140465701Y-78174598D01*
X140465699Y-78174597D01*
X140465698Y-78174597D01*
X140334271Y-78153781D01*
X140294611Y-78147500D01*
X140121389Y-78147500D01*
X140081728Y-78153781D01*
X139950302Y-78174597D01*
X139785552Y-78228128D01*
X139631211Y-78306768D01*
X139576432Y-78346568D01*
X139491072Y-78408586D01*
X139491070Y-78408588D01*
X139491069Y-78408588D01*
X139368588Y-78531069D01*
X139368588Y-78531070D01*
X139368586Y-78531072D01*
X139324859Y-78591256D01*
X139266768Y-78671211D01*
X139188128Y-78825552D01*
X139134597Y-78990302D01*
X139117146Y-79100486D01*
X139107500Y-79161389D01*
X137378500Y-79161389D01*
X137378500Y-79100494D01*
X137339993Y-78808007D01*
X137263639Y-78523048D01*
X137254769Y-78501635D01*
X137230374Y-78442739D01*
X137150743Y-78250493D01*
X137086064Y-78138466D01*
X137003238Y-77995006D01*
X136823647Y-77760959D01*
X136823641Y-77760952D01*
X136615047Y-77552358D01*
X136615040Y-77552352D01*
X136380993Y-77372761D01*
X136125510Y-77225258D01*
X136125500Y-77225254D01*
X135852961Y-77112364D01*
X135852954Y-77112362D01*
X135852952Y-77112361D01*
X135567993Y-77036007D01*
X135519113Y-77029571D01*
X135275513Y-76997500D01*
X135275506Y-76997500D01*
X134980494Y-76997500D01*
X134980486Y-76997500D01*
X134702085Y-77034153D01*
X134688007Y-77036007D01*
X134403048Y-77112361D01*
X134403038Y-77112364D01*
X134130499Y-77225254D01*
X134130489Y-77225258D01*
X133875006Y-77372761D01*
X133640959Y-77552352D01*
X133640952Y-77552358D01*
X133432358Y-77760952D01*
X133432352Y-77760959D01*
X133252761Y-77995006D01*
X133105258Y-78250489D01*
X133105254Y-78250499D01*
X132992364Y-78523038D01*
X132992361Y-78523048D01*
X132916008Y-78808004D01*
X132916006Y-78808015D01*
X132877500Y-79100486D01*
X131138854Y-79100486D01*
X131121402Y-78990299D01*
X131067873Y-78825555D01*
X130989232Y-78671212D01*
X130887414Y-78531072D01*
X130829232Y-78472890D01*
X130795747Y-78411567D01*
X130800731Y-78341875D01*
X130842603Y-78285942D01*
X130908067Y-78261525D01*
X130945856Y-78264634D01*
X131066852Y-78293683D01*
X131318000Y-78313449D01*
X131569148Y-78293683D01*
X131814111Y-78234873D01*
X132046859Y-78138466D01*
X132261659Y-78006836D01*
X132453224Y-77843224D01*
X132616836Y-77651659D01*
X132748466Y-77436859D01*
X132844873Y-77204111D01*
X132903683Y-76959148D01*
X132923449Y-76708000D01*
X132903683Y-76456852D01*
X132844873Y-76211889D01*
X132792493Y-76085431D01*
X132748466Y-75979140D01*
X132616839Y-75764346D01*
X132616838Y-75764343D01*
X132475165Y-75598466D01*
X132453224Y-75572776D01*
X132326571Y-75464604D01*
X132261656Y-75409161D01*
X132261653Y-75409160D01*
X132046859Y-75277533D01*
X131814110Y-75181126D01*
X131569151Y-75122317D01*
X131318000Y-75102551D01*
X131066848Y-75122317D01*
X130821889Y-75181126D01*
X130589140Y-75277533D01*
X130374346Y-75409160D01*
X130374343Y-75409161D01*
X130182776Y-75572776D01*
X130019161Y-75764343D01*
X130019160Y-75764346D01*
X129887533Y-75979140D01*
X129791126Y-76211889D01*
X129732317Y-76456848D01*
X129712551Y-76708000D01*
X129732317Y-76959151D01*
X129791126Y-77204110D01*
X129887533Y-77436859D01*
X130019160Y-77651653D01*
X130019161Y-77651656D01*
X130074604Y-77716571D01*
X130182776Y-77843224D01*
X130212646Y-77868735D01*
X130296783Y-77940595D01*
X130334976Y-77999102D01*
X130335474Y-78068970D01*
X130298121Y-78128016D01*
X130234774Y-78157494D01*
X130196854Y-78157358D01*
X130134611Y-78147500D01*
X129961389Y-78147500D01*
X129921728Y-78153781D01*
X129790302Y-78174597D01*
X129625552Y-78228128D01*
X129471211Y-78306768D01*
X129416432Y-78346568D01*
X129331072Y-78408586D01*
X129331070Y-78408588D01*
X129331069Y-78408588D01*
X129208588Y-78531069D01*
X129208588Y-78531070D01*
X129208586Y-78531072D01*
X129164859Y-78591256D01*
X129106768Y-78671211D01*
X129028128Y-78825552D01*
X128974597Y-78990302D01*
X128957146Y-79100486D01*
X128947500Y-79161389D01*
X125568500Y-79161389D01*
X125568500Y-74168000D01*
X136062551Y-74168000D01*
X136082317Y-74419151D01*
X136141126Y-74664110D01*
X136237533Y-74896859D01*
X136369160Y-75111653D01*
X136369161Y-75111656D01*
X136424604Y-75176571D01*
X136532776Y-75303224D01*
X136656811Y-75409160D01*
X136724343Y-75466838D01*
X136724346Y-75466839D01*
X136939140Y-75598466D01*
X137171889Y-75694873D01*
X137416852Y-75753683D01*
X137668000Y-75773449D01*
X137919148Y-75753683D01*
X138164111Y-75694873D01*
X138396859Y-75598466D01*
X138611659Y-75466836D01*
X138803224Y-75303224D01*
X138966836Y-75111659D01*
X139098466Y-74896859D01*
X139194873Y-74664111D01*
X139253683Y-74419148D01*
X139273449Y-74168000D01*
X139253683Y-73916852D01*
X139194873Y-73671889D01*
X139098466Y-73439141D01*
X139098466Y-73439140D01*
X138966839Y-73224346D01*
X138966838Y-73224343D01*
X138929875Y-73181066D01*
X138803224Y-73032776D01*
X138676571Y-72924604D01*
X138611656Y-72869161D01*
X138611653Y-72869160D01*
X138396859Y-72737533D01*
X138164110Y-72641126D01*
X137919151Y-72582317D01*
X137668000Y-72562551D01*
X137416848Y-72582317D01*
X137171889Y-72641126D01*
X136939140Y-72737533D01*
X136724346Y-72869160D01*
X136724343Y-72869161D01*
X136532776Y-73032776D01*
X136369161Y-73224343D01*
X136369160Y-73224346D01*
X136237533Y-73439140D01*
X136141126Y-73671889D01*
X136082317Y-73916848D01*
X136062551Y-74168000D01*
X125568500Y-74168000D01*
X125568500Y-70532943D01*
X125568500Y-69162412D01*
X125588185Y-69095373D01*
X125595555Y-69085097D01*
X125597810Y-69082267D01*
X125597816Y-69082262D01*
X125693789Y-68929522D01*
X125753368Y-68759255D01*
X125773565Y-68580000D01*
X125753368Y-68400745D01*
X125693789Y-68230478D01*
X125597816Y-68077738D01*
X125597814Y-68077736D01*
X125597813Y-68077734D01*
X125595550Y-68074896D01*
X125594659Y-68072715D01*
X125594111Y-68071842D01*
X125594264Y-68071745D01*
X125569144Y-68010209D01*
X125568500Y-67997587D01*
X125568500Y-52159060D01*
X125568501Y-52159047D01*
X125568501Y-51990944D01*
X125527576Y-51838214D01*
X125527573Y-51838209D01*
X125448524Y-51701290D01*
X125448518Y-51701282D01*
X122794818Y-49047582D01*
X122761333Y-48986259D01*
X122758499Y-48959901D01*
X122758499Y-48260000D01*
X128442551Y-48260000D01*
X128462317Y-48511151D01*
X128521126Y-48756110D01*
X128617533Y-48988859D01*
X128749160Y-49203653D01*
X128749161Y-49203656D01*
X128749164Y-49203659D01*
X128912776Y-49395224D01*
X128997384Y-49467486D01*
X129104343Y-49558838D01*
X129104345Y-49558838D01*
X129319141Y-49690466D01*
X129370953Y-49711927D01*
X129425355Y-49755765D01*
X129447421Y-49822059D01*
X129447500Y-49826487D01*
X129447500Y-56301330D01*
X129447499Y-56301348D01*
X129447499Y-56467054D01*
X129447498Y-56467054D01*
X129488423Y-56619786D01*
X129502906Y-56644869D01*
X129502907Y-56644874D01*
X129502909Y-56644874D01*
X129567479Y-56756714D01*
X129567481Y-56756717D01*
X129686349Y-56875585D01*
X129686355Y-56875590D01*
X129785707Y-56974942D01*
X129819192Y-57036265D01*
X129814208Y-57105957D01*
X129812588Y-57110073D01*
X129791127Y-57161886D01*
X129791127Y-57161887D01*
X129732317Y-57406848D01*
X129712551Y-57658000D01*
X129732317Y-57909151D01*
X129791126Y-58154110D01*
X129887533Y-58386859D01*
X130019160Y-58601653D01*
X130019161Y-58601656D01*
X130019164Y-58601659D01*
X130182776Y-58793224D01*
X130296783Y-58890595D01*
X130334976Y-58949102D01*
X130335474Y-59018970D01*
X130298121Y-59078016D01*
X130234774Y-59107494D01*
X130196854Y-59107358D01*
X130134611Y-59097500D01*
X129961389Y-59097500D01*
X129921728Y-59103781D01*
X129790302Y-59124597D01*
X129625552Y-59178128D01*
X129471211Y-59256768D01*
X129391256Y-59314859D01*
X129331072Y-59358586D01*
X129331070Y-59358588D01*
X129331069Y-59358588D01*
X129208588Y-59481069D01*
X129208588Y-59481070D01*
X129208586Y-59481072D01*
X129164859Y-59541256D01*
X129106768Y-59621211D01*
X129028128Y-59775552D01*
X128974597Y-59940302D01*
X128957146Y-60050486D01*
X128947500Y-60111389D01*
X128947500Y-60284611D01*
X128974598Y-60455701D01*
X129028127Y-60620445D01*
X129106768Y-60774788D01*
X129208586Y-60914928D01*
X129331072Y-61037414D01*
X129471212Y-61139232D01*
X129625555Y-61217873D01*
X129790299Y-61271402D01*
X129961389Y-61298500D01*
X129961390Y-61298500D01*
X130134610Y-61298500D01*
X130134611Y-61298500D01*
X130305701Y-61271402D01*
X130470445Y-61217873D01*
X130624788Y-61139232D01*
X130764928Y-61037414D01*
X130887414Y-60914928D01*
X130989232Y-60774788D01*
X131067873Y-60620445D01*
X131121402Y-60455701D01*
X131148500Y-60284611D01*
X131148500Y-60111389D01*
X131138854Y-60050486D01*
X132877500Y-60050486D01*
X132877500Y-60345513D01*
X132909571Y-60589113D01*
X132916007Y-60637993D01*
X132990212Y-60914930D01*
X132992361Y-60922951D01*
X132992364Y-60922961D01*
X133105254Y-61195500D01*
X133105258Y-61195510D01*
X133252761Y-61450993D01*
X133432352Y-61685040D01*
X133432358Y-61685047D01*
X133640952Y-61893641D01*
X133640959Y-61893647D01*
X133875006Y-62073238D01*
X134130489Y-62220741D01*
X134130490Y-62220741D01*
X134130493Y-62220743D01*
X134341296Y-62308060D01*
X134393183Y-62329553D01*
X134403048Y-62333639D01*
X134688007Y-62409993D01*
X134980494Y-62448500D01*
X134980501Y-62448500D01*
X135275499Y-62448500D01*
X135275506Y-62448500D01*
X135567993Y-62409993D01*
X135852952Y-62333639D01*
X136125507Y-62220743D01*
X136380994Y-62073238D01*
X136615042Y-61893646D01*
X136823646Y-61685042D01*
X137003238Y-61450994D01*
X137150743Y-61195507D01*
X137263639Y-60922952D01*
X137339993Y-60637993D01*
X137378500Y-60345506D01*
X137378500Y-60111389D01*
X139107500Y-60111389D01*
X139107500Y-60284611D01*
X139134598Y-60455701D01*
X139188127Y-60620445D01*
X139266768Y-60774788D01*
X139368586Y-60914928D01*
X139491072Y-61037414D01*
X139631212Y-61139232D01*
X139785555Y-61217873D01*
X139950299Y-61271402D01*
X140121389Y-61298500D01*
X140121390Y-61298500D01*
X140294610Y-61298500D01*
X140294611Y-61298500D01*
X140465701Y-61271402D01*
X140630445Y-61217873D01*
X140784788Y-61139232D01*
X140924928Y-61037414D01*
X141047414Y-60914928D01*
X141149232Y-60774788D01*
X141227873Y-60620445D01*
X141281402Y-60455701D01*
X141308500Y-60284611D01*
X141308500Y-60111389D01*
X141281402Y-59940299D01*
X141227873Y-59775555D01*
X141149232Y-59621212D01*
X141047414Y-59481072D01*
X140924928Y-59358586D01*
X140784788Y-59256768D01*
X140674333Y-59200489D01*
X140630447Y-59178128D01*
X140630446Y-59178127D01*
X140630445Y-59178127D01*
X140465701Y-59124598D01*
X140465699Y-59124597D01*
X140465698Y-59124597D01*
X140334271Y-59103781D01*
X140294611Y-59097500D01*
X140121389Y-59097500D01*
X140081728Y-59103781D01*
X139950302Y-59124597D01*
X139785552Y-59178128D01*
X139631211Y-59256768D01*
X139551256Y-59314859D01*
X139491072Y-59358586D01*
X139491070Y-59358588D01*
X139491069Y-59358588D01*
X139368588Y-59481069D01*
X139368588Y-59481070D01*
X139368586Y-59481072D01*
X139324859Y-59541256D01*
X139266768Y-59621211D01*
X139188128Y-59775552D01*
X139134597Y-59940302D01*
X139117146Y-60050486D01*
X139107500Y-60111389D01*
X137378500Y-60111389D01*
X137378500Y-60050494D01*
X137339993Y-59758007D01*
X137263639Y-59473048D01*
X137150743Y-59200493D01*
X137086064Y-59088466D01*
X137003238Y-58945006D01*
X136823647Y-58710959D01*
X136823641Y-58710952D01*
X136615047Y-58502358D01*
X136615040Y-58502352D01*
X136380993Y-58322761D01*
X136125510Y-58175258D01*
X136125500Y-58175254D01*
X135852961Y-58062364D01*
X135852954Y-58062362D01*
X135852952Y-58062361D01*
X135567993Y-57986007D01*
X135519113Y-57979571D01*
X135275513Y-57947500D01*
X135275506Y-57947500D01*
X134980494Y-57947500D01*
X134980486Y-57947500D01*
X134702085Y-57984153D01*
X134688007Y-57986007D01*
X134403048Y-58062361D01*
X134403038Y-58062364D01*
X134130499Y-58175254D01*
X134130489Y-58175258D01*
X133875006Y-58322761D01*
X133640959Y-58502352D01*
X133640952Y-58502358D01*
X133432358Y-58710952D01*
X133432352Y-58710959D01*
X133252761Y-58945006D01*
X133105258Y-59200489D01*
X133105254Y-59200499D01*
X132992364Y-59473038D01*
X132992361Y-59473048D01*
X132916008Y-59758004D01*
X132916006Y-59758015D01*
X132877500Y-60050486D01*
X131138854Y-60050486D01*
X131121402Y-59940299D01*
X131067873Y-59775555D01*
X130989232Y-59621212D01*
X130887414Y-59481072D01*
X130829232Y-59422890D01*
X130795747Y-59361567D01*
X130800731Y-59291875D01*
X130842603Y-59235942D01*
X130908067Y-59211525D01*
X130945856Y-59214634D01*
X131066852Y-59243683D01*
X131318000Y-59263449D01*
X131569148Y-59243683D01*
X131814111Y-59184873D01*
X132046859Y-59088466D01*
X132261659Y-58956836D01*
X132453224Y-58793224D01*
X132616836Y-58601659D01*
X132748466Y-58386859D01*
X132844873Y-58154111D01*
X132903683Y-57909148D01*
X132923449Y-57658000D01*
X132903683Y-57406852D01*
X132844873Y-57161889D01*
X132791705Y-57033529D01*
X132748466Y-56929140D01*
X132616839Y-56714346D01*
X132616838Y-56714343D01*
X132579875Y-56671066D01*
X132453224Y-56522776D01*
X132326571Y-56414604D01*
X132261656Y-56359161D01*
X132261653Y-56359160D01*
X132046859Y-56227533D01*
X131814110Y-56131126D01*
X131569151Y-56072317D01*
X131318000Y-56052551D01*
X131066848Y-56072317D01*
X130821888Y-56131126D01*
X130819942Y-56131933D01*
X130819143Y-56132018D01*
X130817256Y-56132632D01*
X130817127Y-56132235D01*
X130750472Y-56139395D01*
X130687996Y-56108114D01*
X130652349Y-56048022D01*
X130648500Y-56017367D01*
X130648500Y-55118000D01*
X136062551Y-55118000D01*
X136082317Y-55369151D01*
X136141126Y-55614110D01*
X136237533Y-55846859D01*
X136369160Y-56061653D01*
X136369161Y-56061656D01*
X136408840Y-56108114D01*
X136532776Y-56253224D01*
X136598015Y-56308943D01*
X136724343Y-56416838D01*
X136724346Y-56416839D01*
X136939140Y-56548466D01*
X137111321Y-56619785D01*
X137171889Y-56644873D01*
X137416852Y-56703683D01*
X137668000Y-56723449D01*
X137919148Y-56703683D01*
X138164111Y-56644873D01*
X138396859Y-56548466D01*
X138611659Y-56416836D01*
X138803224Y-56253224D01*
X138966836Y-56061659D01*
X139098466Y-55846859D01*
X139194873Y-55614111D01*
X139253683Y-55369148D01*
X139273449Y-55118000D01*
X139253683Y-54866852D01*
X139194873Y-54621889D01*
X139098466Y-54389141D01*
X139098466Y-54389140D01*
X138966839Y-54174346D01*
X138966838Y-54174343D01*
X138929875Y-54131066D01*
X138803224Y-53982776D01*
X138676571Y-53874604D01*
X138611656Y-53819161D01*
X138611653Y-53819160D01*
X138396859Y-53687533D01*
X138164110Y-53591126D01*
X137919151Y-53532317D01*
X137668000Y-53512551D01*
X137416848Y-53532317D01*
X137171889Y-53591126D01*
X136939140Y-53687533D01*
X136724346Y-53819160D01*
X136724343Y-53819161D01*
X136532776Y-53982776D01*
X136369161Y-54174343D01*
X136369160Y-54174346D01*
X136237533Y-54389140D01*
X136141126Y-54621889D01*
X136082317Y-54866848D01*
X136062551Y-55118000D01*
X130648500Y-55118000D01*
X130648500Y-49826487D01*
X130668185Y-49759448D01*
X130720989Y-49713693D01*
X130725002Y-49711945D01*
X130776859Y-49690466D01*
X130991659Y-49558836D01*
X131183224Y-49395224D01*
X131346836Y-49203659D01*
X131478466Y-48988859D01*
X131574873Y-48756111D01*
X131633683Y-48511148D01*
X131653449Y-48260000D01*
X131633683Y-48008852D01*
X131574873Y-47763889D01*
X131531634Y-47659500D01*
X131478466Y-47531140D01*
X131346839Y-47316346D01*
X131346838Y-47316343D01*
X131309875Y-47273066D01*
X131183224Y-47124776D01*
X131056571Y-47016604D01*
X130991656Y-46961161D01*
X130991653Y-46961160D01*
X130776859Y-46829533D01*
X130544110Y-46733126D01*
X130299151Y-46674317D01*
X130048000Y-46654551D01*
X129796848Y-46674317D01*
X129551889Y-46733126D01*
X129319140Y-46829533D01*
X129104346Y-46961160D01*
X129104343Y-46961161D01*
X128912776Y-47124776D01*
X128749161Y-47316343D01*
X128749160Y-47316346D01*
X128617533Y-47531140D01*
X128521126Y-47763889D01*
X128462317Y-48008848D01*
X128442551Y-48260000D01*
X122758499Y-48260000D01*
X122758499Y-47112129D01*
X122758498Y-47112123D01*
X122758497Y-47112116D01*
X122752091Y-47052517D01*
X122718017Y-46961161D01*
X122701797Y-46917671D01*
X122701793Y-46917664D01*
X122615547Y-46802455D01*
X122615544Y-46802452D01*
X122500335Y-46716206D01*
X122500328Y-46716202D01*
X122365482Y-46665908D01*
X122365483Y-46665908D01*
X122305883Y-46659501D01*
X122305881Y-46659500D01*
X122305873Y-46659500D01*
X122305864Y-46659500D01*
X120010129Y-46659500D01*
X120010123Y-46659501D01*
X119950516Y-46665908D01*
X119815671Y-46716202D01*
X119815664Y-46716206D01*
X119700455Y-46802452D01*
X119700452Y-46802455D01*
X119614206Y-46917664D01*
X119614202Y-46917671D01*
X119563908Y-47052517D01*
X119557590Y-47111288D01*
X119557501Y-47112123D01*
X119557500Y-47112135D01*
X112118423Y-47112135D01*
X112006571Y-47016604D01*
X111941656Y-46961161D01*
X111941653Y-46961160D01*
X111726859Y-46829533D01*
X111494110Y-46733126D01*
X111249151Y-46674317D01*
X110998000Y-46654551D01*
X110746848Y-46674317D01*
X110501889Y-46733126D01*
X110269140Y-46829533D01*
X110054346Y-46961160D01*
X110054343Y-46961161D01*
X109862776Y-47124776D01*
X109699161Y-47316343D01*
X109699160Y-47316346D01*
X109567533Y-47531140D01*
X109471126Y-47763889D01*
X109412317Y-48008848D01*
X109392551Y-48260000D01*
X103708499Y-48260000D01*
X103708499Y-47112129D01*
X103708498Y-47112123D01*
X103708497Y-47112116D01*
X103702091Y-47052517D01*
X103668017Y-46961161D01*
X103651797Y-46917671D01*
X103651793Y-46917664D01*
X103565547Y-46802455D01*
X103565544Y-46802452D01*
X103450335Y-46716206D01*
X103450328Y-46716202D01*
X103315482Y-46665908D01*
X103315483Y-46665908D01*
X103255883Y-46659501D01*
X103255881Y-46659500D01*
X103255873Y-46659500D01*
X103255864Y-46659500D01*
X100960129Y-46659500D01*
X100960123Y-46659501D01*
X100900516Y-46665908D01*
X100765671Y-46716202D01*
X100765664Y-46716206D01*
X100650455Y-46802452D01*
X100650452Y-46802455D01*
X100564206Y-46917664D01*
X100564202Y-46917671D01*
X100513908Y-47052517D01*
X100507590Y-47111288D01*
X100507501Y-47112123D01*
X100507500Y-47112135D01*
X100507500Y-49407870D01*
X100507501Y-49407876D01*
X100513908Y-49467483D01*
X100564202Y-49602328D01*
X100564206Y-49602335D01*
X100650452Y-49717544D01*
X100650455Y-49717547D01*
X100765664Y-49803793D01*
X100765671Y-49803797D01*
X100900517Y-49854091D01*
X100900516Y-49854091D01*
X100907444Y-49854835D01*
X100960127Y-49860500D01*
X102807901Y-49860499D01*
X102874940Y-49880184D01*
X102895582Y-49896818D01*
X105281181Y-52282416D01*
X105314666Y-52343739D01*
X105317500Y-52370097D01*
X105317500Y-69267587D01*
X105297815Y-69334626D01*
X105290450Y-69344896D01*
X105288186Y-69347734D01*
X105192211Y-69500476D01*
X105132631Y-69670745D01*
X105132630Y-69670750D01*
X105112435Y-69849996D01*
X105112435Y-69850003D01*
X105132630Y-70029249D01*
X105132631Y-70029254D01*
X105192211Y-70199523D01*
X105288185Y-70352263D01*
X105290445Y-70355097D01*
X105291334Y-70357275D01*
X105291889Y-70358158D01*
X105291734Y-70358255D01*
X105316855Y-70419783D01*
X105317500Y-70432412D01*
X105317500Y-86821902D01*
X105297815Y-86888941D01*
X105281181Y-86909583D01*
X102641582Y-89549181D01*
X102580259Y-89582666D01*
X102553901Y-89585500D01*
X100706129Y-89585500D01*
X100706123Y-89585501D01*
X100646516Y-89591908D01*
X100511671Y-89642202D01*
X100511664Y-89642206D01*
X100396455Y-89728452D01*
X100396452Y-89728455D01*
X100310206Y-89843664D01*
X100310202Y-89843671D01*
X100259908Y-89978517D01*
X100253501Y-90038116D01*
X100253500Y-90038135D01*
X92814423Y-90038135D01*
X92649659Y-89897413D01*
X92637656Y-89887161D01*
X92637653Y-89887160D01*
X92422859Y-89755533D01*
X92190110Y-89659126D01*
X91945151Y-89600317D01*
X91694000Y-89580551D01*
X91442848Y-89600317D01*
X91197889Y-89659126D01*
X90965140Y-89755533D01*
X90750346Y-89887160D01*
X90750343Y-89887161D01*
X90558776Y-90050776D01*
X90395161Y-90242343D01*
X90395160Y-90242346D01*
X90263533Y-90457140D01*
X90167126Y-90689889D01*
X90108317Y-90934848D01*
X90088551Y-91186000D01*
X84658499Y-91186000D01*
X84658499Y-90486096D01*
X84678184Y-90419058D01*
X84694813Y-90398421D01*
X87348520Y-87744716D01*
X87427577Y-87607784D01*
X87468501Y-87455057D01*
X87468501Y-87296942D01*
X87468501Y-87289347D01*
X87468500Y-87289329D01*
X87468500Y-79161389D01*
X90847500Y-79161389D01*
X90847500Y-79334611D01*
X90874598Y-79505701D01*
X90928127Y-79670445D01*
X91006768Y-79824788D01*
X91108586Y-79964928D01*
X91231072Y-80087414D01*
X91371212Y-80189232D01*
X91525555Y-80267873D01*
X91690299Y-80321402D01*
X91861389Y-80348500D01*
X91861390Y-80348500D01*
X92034610Y-80348500D01*
X92034611Y-80348500D01*
X92205701Y-80321402D01*
X92370445Y-80267873D01*
X92524788Y-80189232D01*
X92664928Y-80087414D01*
X92787414Y-79964928D01*
X92889232Y-79824788D01*
X92967873Y-79670445D01*
X93021402Y-79505701D01*
X93048500Y-79334611D01*
X93048500Y-79161389D01*
X93038854Y-79100486D01*
X94777500Y-79100486D01*
X94777500Y-79395513D01*
X94809571Y-79639113D01*
X94816007Y-79687993D01*
X94890212Y-79964930D01*
X94892361Y-79972951D01*
X94892364Y-79972961D01*
X95005254Y-80245500D01*
X95005258Y-80245510D01*
X95152761Y-80500993D01*
X95332352Y-80735040D01*
X95332358Y-80735047D01*
X95540952Y-80943641D01*
X95540959Y-80943647D01*
X95775006Y-81123238D01*
X96030489Y-81270741D01*
X96030490Y-81270741D01*
X96030493Y-81270743D01*
X96303048Y-81383639D01*
X96588007Y-81459993D01*
X96880494Y-81498500D01*
X96880501Y-81498500D01*
X97175499Y-81498500D01*
X97175506Y-81498500D01*
X97467993Y-81459993D01*
X97752952Y-81383639D01*
X98025507Y-81270743D01*
X98280994Y-81123238D01*
X98515042Y-80943646D01*
X98723646Y-80735042D01*
X98903238Y-80500994D01*
X99050743Y-80245507D01*
X99163639Y-79972952D01*
X99239993Y-79687993D01*
X99278500Y-79395506D01*
X99278500Y-79161389D01*
X101007500Y-79161389D01*
X101007500Y-79334611D01*
X101034598Y-79505701D01*
X101088127Y-79670445D01*
X101166768Y-79824788D01*
X101268586Y-79964928D01*
X101391072Y-80087414D01*
X101531212Y-80189232D01*
X101685555Y-80267873D01*
X101850299Y-80321402D01*
X102021389Y-80348500D01*
X102021390Y-80348500D01*
X102194610Y-80348500D01*
X102194611Y-80348500D01*
X102365701Y-80321402D01*
X102530445Y-80267873D01*
X102684788Y-80189232D01*
X102824928Y-80087414D01*
X102947414Y-79964928D01*
X103049232Y-79824788D01*
X103127873Y-79670445D01*
X103181402Y-79505701D01*
X103208500Y-79334611D01*
X103208500Y-79161389D01*
X103181402Y-78990299D01*
X103127873Y-78825555D01*
X103049232Y-78671212D01*
X102947414Y-78531072D01*
X102824928Y-78408586D01*
X102684788Y-78306768D01*
X102530445Y-78228127D01*
X102365701Y-78174598D01*
X102365699Y-78174597D01*
X102365698Y-78174597D01*
X102234271Y-78153781D01*
X102194611Y-78147500D01*
X102021389Y-78147500D01*
X101981728Y-78153781D01*
X101850302Y-78174597D01*
X101685552Y-78228128D01*
X101531211Y-78306768D01*
X101476432Y-78346568D01*
X101391072Y-78408586D01*
X101391070Y-78408588D01*
X101391069Y-78408588D01*
X101268588Y-78531069D01*
X101268588Y-78531070D01*
X101268586Y-78531072D01*
X101224859Y-78591256D01*
X101166768Y-78671211D01*
X101088128Y-78825552D01*
X101034597Y-78990302D01*
X101017146Y-79100486D01*
X101007500Y-79161389D01*
X99278500Y-79161389D01*
X99278500Y-79100494D01*
X99239993Y-78808007D01*
X99163639Y-78523048D01*
X99154769Y-78501635D01*
X99130374Y-78442739D01*
X99050743Y-78250493D01*
X98986064Y-78138466D01*
X98903238Y-77995006D01*
X98723647Y-77760959D01*
X98723641Y-77760952D01*
X98515047Y-77552358D01*
X98515040Y-77552352D01*
X98280993Y-77372761D01*
X98025510Y-77225258D01*
X98025500Y-77225254D01*
X97752961Y-77112364D01*
X97752954Y-77112362D01*
X97752952Y-77112361D01*
X97467993Y-77036007D01*
X97419113Y-77029571D01*
X97175513Y-76997500D01*
X97175506Y-76997500D01*
X96880494Y-76997500D01*
X96880486Y-76997500D01*
X96602085Y-77034153D01*
X96588007Y-77036007D01*
X96303048Y-77112361D01*
X96303038Y-77112364D01*
X96030499Y-77225254D01*
X96030489Y-77225258D01*
X95775006Y-77372761D01*
X95540959Y-77552352D01*
X95540952Y-77552358D01*
X95332358Y-77760952D01*
X95332352Y-77760959D01*
X95152761Y-77995006D01*
X95005258Y-78250489D01*
X95005254Y-78250499D01*
X94892364Y-78523038D01*
X94892361Y-78523048D01*
X94816008Y-78808004D01*
X94816006Y-78808015D01*
X94777500Y-79100486D01*
X93038854Y-79100486D01*
X93021402Y-78990299D01*
X92967873Y-78825555D01*
X92889232Y-78671212D01*
X92787414Y-78531072D01*
X92729232Y-78472890D01*
X92695747Y-78411567D01*
X92700731Y-78341875D01*
X92742603Y-78285942D01*
X92808067Y-78261525D01*
X92845856Y-78264634D01*
X92966852Y-78293683D01*
X93218000Y-78313449D01*
X93469148Y-78293683D01*
X93714111Y-78234873D01*
X93946859Y-78138466D01*
X94161659Y-78006836D01*
X94353224Y-77843224D01*
X94516836Y-77651659D01*
X94648466Y-77436859D01*
X94744873Y-77204111D01*
X94803683Y-76959148D01*
X94823449Y-76708000D01*
X94803683Y-76456852D01*
X94744873Y-76211889D01*
X94692493Y-76085431D01*
X94648466Y-75979140D01*
X94516839Y-75764346D01*
X94516838Y-75764343D01*
X94375165Y-75598466D01*
X94353224Y-75572776D01*
X94226571Y-75464604D01*
X94161656Y-75409161D01*
X94161653Y-75409160D01*
X93946859Y-75277533D01*
X93714110Y-75181126D01*
X93469151Y-75122317D01*
X93218000Y-75102551D01*
X92966848Y-75122317D01*
X92721889Y-75181126D01*
X92489140Y-75277533D01*
X92274346Y-75409160D01*
X92274343Y-75409161D01*
X92082776Y-75572776D01*
X91919161Y-75764343D01*
X91919160Y-75764346D01*
X91787533Y-75979140D01*
X91691126Y-76211889D01*
X91632317Y-76456848D01*
X91612551Y-76708000D01*
X91632317Y-76959151D01*
X91691126Y-77204110D01*
X91787533Y-77436859D01*
X91919160Y-77651653D01*
X91919161Y-77651656D01*
X91974604Y-77716571D01*
X92082776Y-77843224D01*
X92112646Y-77868735D01*
X92196783Y-77940595D01*
X92234976Y-77999102D01*
X92235474Y-78068970D01*
X92198121Y-78128016D01*
X92134774Y-78157494D01*
X92096854Y-78157358D01*
X92034611Y-78147500D01*
X91861389Y-78147500D01*
X91821728Y-78153781D01*
X91690302Y-78174597D01*
X91525552Y-78228128D01*
X91371211Y-78306768D01*
X91316432Y-78346568D01*
X91231072Y-78408586D01*
X91231070Y-78408588D01*
X91231069Y-78408588D01*
X91108588Y-78531069D01*
X91108588Y-78531070D01*
X91108586Y-78531072D01*
X91064859Y-78591256D01*
X91006768Y-78671211D01*
X90928128Y-78825552D01*
X90874597Y-78990302D01*
X90857146Y-79100486D01*
X90847500Y-79161389D01*
X87468500Y-79161389D01*
X87468500Y-74168000D01*
X97962551Y-74168000D01*
X97982317Y-74419151D01*
X98041126Y-74664110D01*
X98137533Y-74896859D01*
X98269160Y-75111653D01*
X98269161Y-75111656D01*
X98324604Y-75176571D01*
X98432776Y-75303224D01*
X98556811Y-75409160D01*
X98624343Y-75466838D01*
X98624346Y-75466839D01*
X98839140Y-75598466D01*
X99071889Y-75694873D01*
X99316852Y-75753683D01*
X99568000Y-75773449D01*
X99819148Y-75753683D01*
X100064111Y-75694873D01*
X100296859Y-75598466D01*
X100511659Y-75466836D01*
X100703224Y-75303224D01*
X100866836Y-75111659D01*
X100998466Y-74896859D01*
X101094873Y-74664111D01*
X101153683Y-74419148D01*
X101173449Y-74168000D01*
X101153683Y-73916852D01*
X101094873Y-73671889D01*
X100998466Y-73439141D01*
X100998466Y-73439140D01*
X100866839Y-73224346D01*
X100866838Y-73224343D01*
X100829875Y-73181066D01*
X100703224Y-73032776D01*
X100576571Y-72924604D01*
X100511656Y-72869161D01*
X100511653Y-72869160D01*
X100296859Y-72737533D01*
X100064110Y-72641126D01*
X99819151Y-72582317D01*
X99568000Y-72562551D01*
X99316848Y-72582317D01*
X99071889Y-72641126D01*
X98839140Y-72737533D01*
X98624346Y-72869160D01*
X98624343Y-72869161D01*
X98432776Y-73032776D01*
X98269161Y-73224343D01*
X98269160Y-73224346D01*
X98137533Y-73439140D01*
X98041126Y-73671889D01*
X97982317Y-73916848D01*
X97962551Y-74168000D01*
X87468500Y-74168000D01*
X87468500Y-71702412D01*
X87488185Y-71635373D01*
X87495555Y-71625097D01*
X87497810Y-71622267D01*
X87497816Y-71622262D01*
X87593789Y-71469522D01*
X87653368Y-71299255D01*
X87673565Y-71120000D01*
X87653368Y-70940745D01*
X87593789Y-70770478D01*
X87497816Y-70617738D01*
X87497814Y-70617736D01*
X87497813Y-70617734D01*
X87495550Y-70614896D01*
X87494659Y-70612715D01*
X87494111Y-70611842D01*
X87494264Y-70611745D01*
X87469144Y-70550209D01*
X87468500Y-70537587D01*
X87468500Y-50381059D01*
X87468501Y-50381046D01*
X87468501Y-50212945D01*
X87468501Y-50212943D01*
X87427577Y-50060215D01*
X87398639Y-50010095D01*
X87348520Y-49923284D01*
X87236716Y-49811480D01*
X87236715Y-49811479D01*
X87232385Y-49807149D01*
X87232374Y-49807139D01*
X85685235Y-48260000D01*
X90342551Y-48260000D01*
X90362317Y-48511151D01*
X90421126Y-48756110D01*
X90517533Y-48988859D01*
X90649160Y-49203653D01*
X90649161Y-49203656D01*
X90649164Y-49203659D01*
X90812776Y-49395224D01*
X90897384Y-49467486D01*
X91004343Y-49558838D01*
X91004345Y-49558838D01*
X91219141Y-49690466D01*
X91270953Y-49711927D01*
X91325355Y-49755765D01*
X91347421Y-49822059D01*
X91347500Y-49826487D01*
X91347500Y-56301330D01*
X91347499Y-56301348D01*
X91347499Y-56467054D01*
X91347498Y-56467054D01*
X91388423Y-56619786D01*
X91402906Y-56644869D01*
X91402907Y-56644874D01*
X91402909Y-56644874D01*
X91467479Y-56756714D01*
X91467481Y-56756717D01*
X91586349Y-56875585D01*
X91586355Y-56875590D01*
X91685707Y-56974942D01*
X91719192Y-57036265D01*
X91714208Y-57105957D01*
X91712588Y-57110073D01*
X91691127Y-57161886D01*
X91691127Y-57161887D01*
X91632317Y-57406848D01*
X91612551Y-57658000D01*
X91632317Y-57909151D01*
X91691126Y-58154110D01*
X91787533Y-58386859D01*
X91919160Y-58601653D01*
X91919161Y-58601656D01*
X91919164Y-58601659D01*
X92082776Y-58793224D01*
X92196783Y-58890595D01*
X92234976Y-58949102D01*
X92235474Y-59018970D01*
X92198121Y-59078016D01*
X92134774Y-59107494D01*
X92096854Y-59107358D01*
X92034611Y-59097500D01*
X91861389Y-59097500D01*
X91821728Y-59103781D01*
X91690302Y-59124597D01*
X91525552Y-59178128D01*
X91371211Y-59256768D01*
X91291256Y-59314859D01*
X91231072Y-59358586D01*
X91231070Y-59358588D01*
X91231069Y-59358588D01*
X91108588Y-59481069D01*
X91108588Y-59481070D01*
X91108586Y-59481072D01*
X91064859Y-59541256D01*
X91006768Y-59621211D01*
X90928128Y-59775552D01*
X90874597Y-59940302D01*
X90857146Y-60050486D01*
X90847500Y-60111389D01*
X90847500Y-60284611D01*
X90874598Y-60455701D01*
X90928127Y-60620445D01*
X91006768Y-60774788D01*
X91108586Y-60914928D01*
X91231072Y-61037414D01*
X91371212Y-61139232D01*
X91525555Y-61217873D01*
X91690299Y-61271402D01*
X91861389Y-61298500D01*
X91861390Y-61298500D01*
X92034610Y-61298500D01*
X92034611Y-61298500D01*
X92205701Y-61271402D01*
X92370445Y-61217873D01*
X92524788Y-61139232D01*
X92664928Y-61037414D01*
X92787414Y-60914928D01*
X92889232Y-60774788D01*
X92967873Y-60620445D01*
X93021402Y-60455701D01*
X93048500Y-60284611D01*
X93048500Y-60111389D01*
X93038854Y-60050486D01*
X94777500Y-60050486D01*
X94777500Y-60345513D01*
X94809571Y-60589113D01*
X94816007Y-60637993D01*
X94890212Y-60914930D01*
X94892361Y-60922951D01*
X94892364Y-60922961D01*
X95005254Y-61195500D01*
X95005258Y-61195510D01*
X95152761Y-61450993D01*
X95332352Y-61685040D01*
X95332358Y-61685047D01*
X95540952Y-61893641D01*
X95540959Y-61893647D01*
X95775006Y-62073238D01*
X96030489Y-62220741D01*
X96030490Y-62220741D01*
X96030493Y-62220743D01*
X96241296Y-62308060D01*
X96293183Y-62329553D01*
X96303048Y-62333639D01*
X96588007Y-62409993D01*
X96880494Y-62448500D01*
X96880501Y-62448500D01*
X97175499Y-62448500D01*
X97175506Y-62448500D01*
X97467993Y-62409993D01*
X97752952Y-62333639D01*
X98025507Y-62220743D01*
X98280994Y-62073238D01*
X98515042Y-61893646D01*
X98723646Y-61685042D01*
X98903238Y-61450994D01*
X99050743Y-61195507D01*
X99163639Y-60922952D01*
X99239993Y-60637993D01*
X99278500Y-60345506D01*
X99278500Y-60111389D01*
X101007500Y-60111389D01*
X101007500Y-60284611D01*
X101034598Y-60455701D01*
X101088127Y-60620445D01*
X101166768Y-60774788D01*
X101268586Y-60914928D01*
X101391072Y-61037414D01*
X101531212Y-61139232D01*
X101685555Y-61217873D01*
X101850299Y-61271402D01*
X102021389Y-61298500D01*
X102021390Y-61298500D01*
X102194610Y-61298500D01*
X102194611Y-61298500D01*
X102365701Y-61271402D01*
X102530445Y-61217873D01*
X102684788Y-61139232D01*
X102824928Y-61037414D01*
X102947414Y-60914928D01*
X103049232Y-60774788D01*
X103127873Y-60620445D01*
X103181402Y-60455701D01*
X103208500Y-60284611D01*
X103208500Y-60111389D01*
X103181402Y-59940299D01*
X103127873Y-59775555D01*
X103049232Y-59621212D01*
X102947414Y-59481072D01*
X102824928Y-59358586D01*
X102684788Y-59256768D01*
X102574333Y-59200489D01*
X102530447Y-59178128D01*
X102530446Y-59178127D01*
X102530445Y-59178127D01*
X102365701Y-59124598D01*
X102365699Y-59124597D01*
X102365698Y-59124597D01*
X102234271Y-59103781D01*
X102194611Y-59097500D01*
X102021389Y-59097500D01*
X101981728Y-59103781D01*
X101850302Y-59124597D01*
X101685552Y-59178128D01*
X101531211Y-59256768D01*
X101451256Y-59314859D01*
X101391072Y-59358586D01*
X101391070Y-59358588D01*
X101391069Y-59358588D01*
X101268588Y-59481069D01*
X101268588Y-59481070D01*
X101268586Y-59481072D01*
X101224859Y-59541256D01*
X101166768Y-59621211D01*
X101088128Y-59775552D01*
X101034597Y-59940302D01*
X101017146Y-60050486D01*
X101007500Y-60111389D01*
X99278500Y-60111389D01*
X99278500Y-60050494D01*
X99239993Y-59758007D01*
X99163639Y-59473048D01*
X99050743Y-59200493D01*
X98986064Y-59088466D01*
X98903238Y-58945006D01*
X98723647Y-58710959D01*
X98723641Y-58710952D01*
X98515047Y-58502358D01*
X98515040Y-58502352D01*
X98280993Y-58322761D01*
X98025510Y-58175258D01*
X98025500Y-58175254D01*
X97752961Y-58062364D01*
X97752954Y-58062362D01*
X97752952Y-58062361D01*
X97467993Y-57986007D01*
X97419113Y-57979571D01*
X97175513Y-57947500D01*
X97175506Y-57947500D01*
X96880494Y-57947500D01*
X96880486Y-57947500D01*
X96602085Y-57984153D01*
X96588007Y-57986007D01*
X96303048Y-58062361D01*
X96303038Y-58062364D01*
X96030499Y-58175254D01*
X96030489Y-58175258D01*
X95775006Y-58322761D01*
X95540959Y-58502352D01*
X95540952Y-58502358D01*
X95332358Y-58710952D01*
X95332352Y-58710959D01*
X95152761Y-58945006D01*
X95005258Y-59200489D01*
X95005254Y-59200499D01*
X94892364Y-59473038D01*
X94892361Y-59473048D01*
X94816008Y-59758004D01*
X94816006Y-59758015D01*
X94777500Y-60050486D01*
X93038854Y-60050486D01*
X93021402Y-59940299D01*
X92967873Y-59775555D01*
X92889232Y-59621212D01*
X92787414Y-59481072D01*
X92729232Y-59422890D01*
X92695747Y-59361567D01*
X92700731Y-59291875D01*
X92742603Y-59235942D01*
X92808067Y-59211525D01*
X92845856Y-59214634D01*
X92966852Y-59243683D01*
X93218000Y-59263449D01*
X93469148Y-59243683D01*
X93714111Y-59184873D01*
X93946859Y-59088466D01*
X94161659Y-58956836D01*
X94353224Y-58793224D01*
X94516836Y-58601659D01*
X94648466Y-58386859D01*
X94744873Y-58154111D01*
X94803683Y-57909148D01*
X94823449Y-57658000D01*
X94803683Y-57406852D01*
X94744873Y-57161889D01*
X94691705Y-57033529D01*
X94648466Y-56929140D01*
X94516839Y-56714346D01*
X94516838Y-56714343D01*
X94479875Y-56671066D01*
X94353224Y-56522776D01*
X94226571Y-56414604D01*
X94161656Y-56359161D01*
X94161653Y-56359160D01*
X93946859Y-56227533D01*
X93714110Y-56131126D01*
X93469151Y-56072317D01*
X93218000Y-56052551D01*
X92966848Y-56072317D01*
X92721888Y-56131126D01*
X92719942Y-56131933D01*
X92719143Y-56132018D01*
X92717256Y-56132632D01*
X92717127Y-56132235D01*
X92650472Y-56139395D01*
X92587996Y-56108114D01*
X92552349Y-56048022D01*
X92548500Y-56017367D01*
X92548500Y-55118000D01*
X97962551Y-55118000D01*
X97982317Y-55369151D01*
X98041126Y-55614110D01*
X98137533Y-55846859D01*
X98269160Y-56061653D01*
X98269161Y-56061656D01*
X98308840Y-56108114D01*
X98432776Y-56253224D01*
X98498015Y-56308943D01*
X98624343Y-56416838D01*
X98624346Y-56416839D01*
X98839140Y-56548466D01*
X99011321Y-56619785D01*
X99071889Y-56644873D01*
X99316852Y-56703683D01*
X99568000Y-56723449D01*
X99819148Y-56703683D01*
X100064111Y-56644873D01*
X100296859Y-56548466D01*
X100511659Y-56416836D01*
X100703224Y-56253224D01*
X100866836Y-56061659D01*
X100998466Y-55846859D01*
X101094873Y-55614111D01*
X101153683Y-55369148D01*
X101173449Y-55118000D01*
X101153683Y-54866852D01*
X101094873Y-54621889D01*
X100998466Y-54389141D01*
X100998466Y-54389140D01*
X100866839Y-54174346D01*
X100866838Y-54174343D01*
X100829875Y-54131066D01*
X100703224Y-53982776D01*
X100576571Y-53874604D01*
X100511656Y-53819161D01*
X100511653Y-53819160D01*
X100296859Y-53687533D01*
X100064110Y-53591126D01*
X99819151Y-53532317D01*
X99568000Y-53512551D01*
X99316848Y-53532317D01*
X99071889Y-53591126D01*
X98839140Y-53687533D01*
X98624346Y-53819160D01*
X98624343Y-53819161D01*
X98432776Y-53982776D01*
X98269161Y-54174343D01*
X98269160Y-54174346D01*
X98137533Y-54389140D01*
X98041126Y-54621889D01*
X97982317Y-54866848D01*
X97962551Y-55118000D01*
X92548500Y-55118000D01*
X92548500Y-49826487D01*
X92568185Y-49759448D01*
X92620989Y-49713693D01*
X92625002Y-49711945D01*
X92676859Y-49690466D01*
X92891659Y-49558836D01*
X93083224Y-49395224D01*
X93246836Y-49203659D01*
X93378466Y-48988859D01*
X93474873Y-48756111D01*
X93533683Y-48511148D01*
X93553449Y-48260000D01*
X93533683Y-48008852D01*
X93474873Y-47763889D01*
X93431634Y-47659500D01*
X93378466Y-47531140D01*
X93246839Y-47316346D01*
X93246838Y-47316343D01*
X93209875Y-47273066D01*
X93083224Y-47124776D01*
X92956571Y-47016604D01*
X92891656Y-46961161D01*
X92891653Y-46961160D01*
X92676859Y-46829533D01*
X92444110Y-46733126D01*
X92199151Y-46674317D01*
X91948000Y-46654551D01*
X91696848Y-46674317D01*
X91451889Y-46733126D01*
X91219140Y-46829533D01*
X91004346Y-46961160D01*
X91004343Y-46961161D01*
X90812776Y-47124776D01*
X90649161Y-47316343D01*
X90649160Y-47316346D01*
X90517533Y-47531140D01*
X90421126Y-47763889D01*
X90362317Y-48008848D01*
X90342551Y-48260000D01*
X85685235Y-48260000D01*
X85323590Y-47898355D01*
X85323588Y-47898352D01*
X85204717Y-47779481D01*
X85204716Y-47779480D01*
X85117904Y-47729360D01*
X85117904Y-47729359D01*
X85117900Y-47729358D01*
X85067785Y-47700423D01*
X84915057Y-47659499D01*
X84782499Y-47659499D01*
X84715460Y-47639814D01*
X84669705Y-47587010D01*
X84658499Y-47535499D01*
X84658499Y-47112129D01*
X84658498Y-47112123D01*
X84658497Y-47112116D01*
X84652091Y-47052517D01*
X84618017Y-46961161D01*
X84601797Y-46917671D01*
X84601793Y-46917664D01*
X84515547Y-46802455D01*
X84515544Y-46802452D01*
X84400335Y-46716206D01*
X84400328Y-46716202D01*
X84265482Y-46665908D01*
X84265483Y-46665908D01*
X84205883Y-46659501D01*
X84205881Y-46659500D01*
X84205873Y-46659500D01*
X84205864Y-46659500D01*
X81910129Y-46659500D01*
X81910123Y-46659501D01*
X81850516Y-46665908D01*
X81715671Y-46716202D01*
X81715664Y-46716206D01*
X81600455Y-46802452D01*
X81600452Y-46802455D01*
X81514206Y-46917664D01*
X81514202Y-46917671D01*
X81463908Y-47052517D01*
X81457590Y-47111288D01*
X81457501Y-47112123D01*
X81457500Y-47112135D01*
X74018423Y-47112135D01*
X73906571Y-47016604D01*
X73841656Y-46961161D01*
X73841653Y-46961160D01*
X73626859Y-46829533D01*
X73394110Y-46733126D01*
X73149151Y-46674317D01*
X72898000Y-46654551D01*
X72646848Y-46674317D01*
X72401889Y-46733126D01*
X72169140Y-46829533D01*
X71954346Y-46961160D01*
X71954343Y-46961161D01*
X71762776Y-47124776D01*
X71599161Y-47316343D01*
X71599160Y-47316346D01*
X71467533Y-47531140D01*
X71371126Y-47763889D01*
X71312317Y-48008848D01*
X71292551Y-48260000D01*
X65863003Y-48260000D01*
X65910265Y-48212738D01*
X66057936Y-48020289D01*
X66179224Y-47810212D01*
X66272054Y-47586100D01*
X66334838Y-47351789D01*
X66366500Y-47111288D01*
X66366500Y-46868712D01*
X66334838Y-46628211D01*
X66272054Y-46393900D01*
X66179224Y-46169788D01*
X66057936Y-45959711D01*
X65910265Y-45767262D01*
X65910260Y-45767256D01*
X65738743Y-45595739D01*
X65738736Y-45595733D01*
X65546293Y-45448067D01*
X65546292Y-45448066D01*
X65546289Y-45448064D01*
X65336212Y-45326776D01*
X65336205Y-45326773D01*
X65112104Y-45233947D01*
X64877785Y-45171161D01*
X64637289Y-45139500D01*
X64637288Y-45139500D01*
X64394712Y-45139500D01*
X64394711Y-45139500D01*
X64154214Y-45171161D01*
X63919895Y-45233947D01*
X63695794Y-45326773D01*
X63695785Y-45326777D01*
X63485706Y-45448067D01*
X63293263Y-45595733D01*
X63293256Y-45595739D01*
X63121739Y-45767256D01*
X63121733Y-45767263D01*
X62974067Y-45959706D01*
X62852777Y-46169785D01*
X62852773Y-46169794D01*
X62759947Y-46393895D01*
X62697161Y-46628214D01*
X62665500Y-46868711D01*
X60444500Y-46868711D01*
X60444500Y-44962427D01*
X60444816Y-44953581D01*
X60459455Y-44748886D01*
X60461973Y-44731379D01*
X60504654Y-44535182D01*
X60509629Y-44518235D01*
X60579806Y-44330084D01*
X60587144Y-44314017D01*
X60683375Y-44137782D01*
X60692925Y-44122921D01*
X60813264Y-43962168D01*
X60824836Y-43948814D01*
X60966814Y-43806836D01*
X60980168Y-43795264D01*
X61140921Y-43674925D01*
X61155782Y-43665375D01*
X61332017Y-43569144D01*
X61348084Y-43561806D01*
X61536235Y-43491629D01*
X61553182Y-43486654D01*
X61749381Y-43443972D01*
X61766886Y-43441455D01*
X61971582Y-43426816D01*
X61980428Y-43426500D01*
X62041892Y-43426500D01*
X176210108Y-43426500D01*
X176271572Y-43426500D01*
X176280418Y-43426816D01*
G37*
%TD.AperFunction*%
%TD*%
M02*
