%TF.GenerationSoftware,KiCad,Pcbnew,8.0.5*%
%TF.CreationDate,2024-10-03T21:29:06+02:00*%
%TF.ProjectId,knowabunga-macro,6b6e6f77-6162-4756-9e67-612d6d616372,rev?*%
%TF.SameCoordinates,Original*%
%TF.FileFunction,Legend,Top*%
%TF.FilePolarity,Positive*%
%FSLAX46Y46*%
G04 Gerber Fmt 4.6, Leading zero omitted, Abs format (unit mm)*
G04 Created by KiCad (PCBNEW 8.0.5) date 2024-10-03 21:29:06*
%MOMM*%
%LPD*%
G01*
G04 APERTURE LIST*
%ADD10C,0.100000*%
%ADD11C,0.150000*%
%ADD12C,0.120000*%
G04 APERTURE END LIST*
D10*
X73233598Y-83454419D02*
X73233598Y-84168704D01*
X73233598Y-84168704D02*
X73185979Y-84311561D01*
X73185979Y-84311561D02*
X73090741Y-84406800D01*
X73090741Y-84406800D02*
X72947884Y-84454419D01*
X72947884Y-84454419D02*
X72852646Y-84454419D01*
X74185979Y-84454419D02*
X73709789Y-84454419D01*
X73709789Y-84454419D02*
X73709789Y-83454419D01*
X75090741Y-84359180D02*
X75043122Y-84406800D01*
X75043122Y-84406800D02*
X74900265Y-84454419D01*
X74900265Y-84454419D02*
X74805027Y-84454419D01*
X74805027Y-84454419D02*
X74662170Y-84406800D01*
X74662170Y-84406800D02*
X74566932Y-84311561D01*
X74566932Y-84311561D02*
X74519313Y-84216323D01*
X74519313Y-84216323D02*
X74471694Y-84025847D01*
X74471694Y-84025847D02*
X74471694Y-83882990D01*
X74471694Y-83882990D02*
X74519313Y-83692514D01*
X74519313Y-83692514D02*
X74566932Y-83597276D01*
X74566932Y-83597276D02*
X74662170Y-83502038D01*
X74662170Y-83502038D02*
X74805027Y-83454419D01*
X74805027Y-83454419D02*
X74900265Y-83454419D01*
X74900265Y-83454419D02*
X75043122Y-83502038D01*
X75043122Y-83502038D02*
X75090741Y-83549657D01*
X75805027Y-83454419D02*
X75805027Y-84168704D01*
X75805027Y-84168704D02*
X75757408Y-84311561D01*
X75757408Y-84311561D02*
X75662170Y-84406800D01*
X75662170Y-84406800D02*
X75519313Y-84454419D01*
X75519313Y-84454419D02*
X75424075Y-84454419D01*
X76757408Y-84454419D02*
X76281218Y-84454419D01*
X76281218Y-84454419D02*
X76281218Y-83454419D01*
X77662170Y-84359180D02*
X77614551Y-84406800D01*
X77614551Y-84406800D02*
X77471694Y-84454419D01*
X77471694Y-84454419D02*
X77376456Y-84454419D01*
X77376456Y-84454419D02*
X77233599Y-84406800D01*
X77233599Y-84406800D02*
X77138361Y-84311561D01*
X77138361Y-84311561D02*
X77090742Y-84216323D01*
X77090742Y-84216323D02*
X77043123Y-84025847D01*
X77043123Y-84025847D02*
X77043123Y-83882990D01*
X77043123Y-83882990D02*
X77090742Y-83692514D01*
X77090742Y-83692514D02*
X77138361Y-83597276D01*
X77138361Y-83597276D02*
X77233599Y-83502038D01*
X77233599Y-83502038D02*
X77376456Y-83454419D01*
X77376456Y-83454419D02*
X77471694Y-83454419D01*
X77471694Y-83454419D02*
X77614551Y-83502038D01*
X77614551Y-83502038D02*
X77662170Y-83549657D01*
X78376456Y-83454419D02*
X78376456Y-84168704D01*
X78376456Y-84168704D02*
X78328837Y-84311561D01*
X78328837Y-84311561D02*
X78233599Y-84406800D01*
X78233599Y-84406800D02*
X78090742Y-84454419D01*
X78090742Y-84454419D02*
X77995504Y-84454419D01*
X79328837Y-84454419D02*
X78852647Y-84454419D01*
X78852647Y-84454419D02*
X78852647Y-83454419D01*
X80233599Y-84359180D02*
X80185980Y-84406800D01*
X80185980Y-84406800D02*
X80043123Y-84454419D01*
X80043123Y-84454419D02*
X79947885Y-84454419D01*
X79947885Y-84454419D02*
X79805028Y-84406800D01*
X79805028Y-84406800D02*
X79709790Y-84311561D01*
X79709790Y-84311561D02*
X79662171Y-84216323D01*
X79662171Y-84216323D02*
X79614552Y-84025847D01*
X79614552Y-84025847D02*
X79614552Y-83882990D01*
X79614552Y-83882990D02*
X79662171Y-83692514D01*
X79662171Y-83692514D02*
X79709790Y-83597276D01*
X79709790Y-83597276D02*
X79805028Y-83502038D01*
X79805028Y-83502038D02*
X79947885Y-83454419D01*
X79947885Y-83454419D02*
X80043123Y-83454419D01*
X80043123Y-83454419D02*
X80185980Y-83502038D01*
X80185980Y-83502038D02*
X80233599Y-83549657D01*
X146099884Y-45674531D02*
X146099884Y-44674531D01*
X146671312Y-45674531D02*
X146242741Y-45103102D01*
X146671312Y-44674531D02*
X146099884Y-45245959D01*
X147099884Y-45007864D02*
X147099884Y-45674531D01*
X147099884Y-45103102D02*
X147147503Y-45055483D01*
X147147503Y-45055483D02*
X147242741Y-45007864D01*
X147242741Y-45007864D02*
X147385598Y-45007864D01*
X147385598Y-45007864D02*
X147480836Y-45055483D01*
X147480836Y-45055483D02*
X147528455Y-45150721D01*
X147528455Y-45150721D02*
X147528455Y-45674531D01*
X148147503Y-45674531D02*
X148052265Y-45626912D01*
X148052265Y-45626912D02*
X148004646Y-45579292D01*
X148004646Y-45579292D02*
X147957027Y-45484054D01*
X147957027Y-45484054D02*
X147957027Y-45198340D01*
X147957027Y-45198340D02*
X148004646Y-45103102D01*
X148004646Y-45103102D02*
X148052265Y-45055483D01*
X148052265Y-45055483D02*
X148147503Y-45007864D01*
X148147503Y-45007864D02*
X148290360Y-45007864D01*
X148290360Y-45007864D02*
X148385598Y-45055483D01*
X148385598Y-45055483D02*
X148433217Y-45103102D01*
X148433217Y-45103102D02*
X148480836Y-45198340D01*
X148480836Y-45198340D02*
X148480836Y-45484054D01*
X148480836Y-45484054D02*
X148433217Y-45579292D01*
X148433217Y-45579292D02*
X148385598Y-45626912D01*
X148385598Y-45626912D02*
X148290360Y-45674531D01*
X148290360Y-45674531D02*
X148147503Y-45674531D01*
X148814170Y-45007864D02*
X149004646Y-45674531D01*
X149004646Y-45674531D02*
X149195122Y-45198340D01*
X149195122Y-45198340D02*
X149385598Y-45674531D01*
X149385598Y-45674531D02*
X149576074Y-45007864D01*
X150385598Y-45674531D02*
X150385598Y-45150721D01*
X150385598Y-45150721D02*
X150337979Y-45055483D01*
X150337979Y-45055483D02*
X150242741Y-45007864D01*
X150242741Y-45007864D02*
X150052265Y-45007864D01*
X150052265Y-45007864D02*
X149957027Y-45055483D01*
X150385598Y-45626912D02*
X150290360Y-45674531D01*
X150290360Y-45674531D02*
X150052265Y-45674531D01*
X150052265Y-45674531D02*
X149957027Y-45626912D01*
X149957027Y-45626912D02*
X149909408Y-45531673D01*
X149909408Y-45531673D02*
X149909408Y-45436435D01*
X149909408Y-45436435D02*
X149957027Y-45341197D01*
X149957027Y-45341197D02*
X150052265Y-45293578D01*
X150052265Y-45293578D02*
X150290360Y-45293578D01*
X150290360Y-45293578D02*
X150385598Y-45245959D01*
X150861789Y-45674531D02*
X150861789Y-44674531D01*
X150861789Y-45055483D02*
X150957027Y-45007864D01*
X150957027Y-45007864D02*
X151147503Y-45007864D01*
X151147503Y-45007864D02*
X151242741Y-45055483D01*
X151242741Y-45055483D02*
X151290360Y-45103102D01*
X151290360Y-45103102D02*
X151337979Y-45198340D01*
X151337979Y-45198340D02*
X151337979Y-45484054D01*
X151337979Y-45484054D02*
X151290360Y-45579292D01*
X151290360Y-45579292D02*
X151242741Y-45626912D01*
X151242741Y-45626912D02*
X151147503Y-45674531D01*
X151147503Y-45674531D02*
X150957027Y-45674531D01*
X150957027Y-45674531D02*
X150861789Y-45626912D01*
X152195122Y-45007864D02*
X152195122Y-45674531D01*
X151766551Y-45007864D02*
X151766551Y-45531673D01*
X151766551Y-45531673D02*
X151814170Y-45626912D01*
X151814170Y-45626912D02*
X151909408Y-45674531D01*
X151909408Y-45674531D02*
X152052265Y-45674531D01*
X152052265Y-45674531D02*
X152147503Y-45626912D01*
X152147503Y-45626912D02*
X152195122Y-45579292D01*
X152671313Y-45007864D02*
X152671313Y-45674531D01*
X152671313Y-45103102D02*
X152718932Y-45055483D01*
X152718932Y-45055483D02*
X152814170Y-45007864D01*
X152814170Y-45007864D02*
X152957027Y-45007864D01*
X152957027Y-45007864D02*
X153052265Y-45055483D01*
X153052265Y-45055483D02*
X153099884Y-45150721D01*
X153099884Y-45150721D02*
X153099884Y-45674531D01*
X154004646Y-45007864D02*
X154004646Y-45817388D01*
X154004646Y-45817388D02*
X153957027Y-45912626D01*
X153957027Y-45912626D02*
X153909408Y-45960245D01*
X153909408Y-45960245D02*
X153814170Y-46007864D01*
X153814170Y-46007864D02*
X153671313Y-46007864D01*
X153671313Y-46007864D02*
X153576075Y-45960245D01*
X154004646Y-45626912D02*
X153909408Y-45674531D01*
X153909408Y-45674531D02*
X153718932Y-45674531D01*
X153718932Y-45674531D02*
X153623694Y-45626912D01*
X153623694Y-45626912D02*
X153576075Y-45579292D01*
X153576075Y-45579292D02*
X153528456Y-45484054D01*
X153528456Y-45484054D02*
X153528456Y-45198340D01*
X153528456Y-45198340D02*
X153576075Y-45103102D01*
X153576075Y-45103102D02*
X153623694Y-45055483D01*
X153623694Y-45055483D02*
X153718932Y-45007864D01*
X153718932Y-45007864D02*
X153909408Y-45007864D01*
X153909408Y-45007864D02*
X154004646Y-45055483D01*
X154909408Y-45674531D02*
X154909408Y-45150721D01*
X154909408Y-45150721D02*
X154861789Y-45055483D01*
X154861789Y-45055483D02*
X154766551Y-45007864D01*
X154766551Y-45007864D02*
X154576075Y-45007864D01*
X154576075Y-45007864D02*
X154480837Y-45055483D01*
X154909408Y-45626912D02*
X154814170Y-45674531D01*
X154814170Y-45674531D02*
X154576075Y-45674531D01*
X154576075Y-45674531D02*
X154480837Y-45626912D01*
X154480837Y-45626912D02*
X154433218Y-45531673D01*
X154433218Y-45531673D02*
X154433218Y-45436435D01*
X154433218Y-45436435D02*
X154480837Y-45341197D01*
X154480837Y-45341197D02*
X154576075Y-45293578D01*
X154576075Y-45293578D02*
X154814170Y-45293578D01*
X154814170Y-45293578D02*
X154909408Y-45245959D01*
X156147504Y-45674531D02*
X156147504Y-45007864D01*
X156147504Y-45103102D02*
X156195123Y-45055483D01*
X156195123Y-45055483D02*
X156290361Y-45007864D01*
X156290361Y-45007864D02*
X156433218Y-45007864D01*
X156433218Y-45007864D02*
X156528456Y-45055483D01*
X156528456Y-45055483D02*
X156576075Y-45150721D01*
X156576075Y-45150721D02*
X156576075Y-45674531D01*
X156576075Y-45150721D02*
X156623694Y-45055483D01*
X156623694Y-45055483D02*
X156718932Y-45007864D01*
X156718932Y-45007864D02*
X156861789Y-45007864D01*
X156861789Y-45007864D02*
X156957028Y-45055483D01*
X156957028Y-45055483D02*
X157004647Y-45150721D01*
X157004647Y-45150721D02*
X157004647Y-45674531D01*
X157909408Y-45674531D02*
X157909408Y-45150721D01*
X157909408Y-45150721D02*
X157861789Y-45055483D01*
X157861789Y-45055483D02*
X157766551Y-45007864D01*
X157766551Y-45007864D02*
X157576075Y-45007864D01*
X157576075Y-45007864D02*
X157480837Y-45055483D01*
X157909408Y-45626912D02*
X157814170Y-45674531D01*
X157814170Y-45674531D02*
X157576075Y-45674531D01*
X157576075Y-45674531D02*
X157480837Y-45626912D01*
X157480837Y-45626912D02*
X157433218Y-45531673D01*
X157433218Y-45531673D02*
X157433218Y-45436435D01*
X157433218Y-45436435D02*
X157480837Y-45341197D01*
X157480837Y-45341197D02*
X157576075Y-45293578D01*
X157576075Y-45293578D02*
X157814170Y-45293578D01*
X157814170Y-45293578D02*
X157909408Y-45245959D01*
X158814170Y-45626912D02*
X158718932Y-45674531D01*
X158718932Y-45674531D02*
X158528456Y-45674531D01*
X158528456Y-45674531D02*
X158433218Y-45626912D01*
X158433218Y-45626912D02*
X158385599Y-45579292D01*
X158385599Y-45579292D02*
X158337980Y-45484054D01*
X158337980Y-45484054D02*
X158337980Y-45198340D01*
X158337980Y-45198340D02*
X158385599Y-45103102D01*
X158385599Y-45103102D02*
X158433218Y-45055483D01*
X158433218Y-45055483D02*
X158528456Y-45007864D01*
X158528456Y-45007864D02*
X158718932Y-45007864D01*
X158718932Y-45007864D02*
X158814170Y-45055483D01*
X159242742Y-45674531D02*
X159242742Y-45007864D01*
X159242742Y-45198340D02*
X159290361Y-45103102D01*
X159290361Y-45103102D02*
X159337980Y-45055483D01*
X159337980Y-45055483D02*
X159433218Y-45007864D01*
X159433218Y-45007864D02*
X159528456Y-45007864D01*
X160004647Y-45674531D02*
X159909409Y-45626912D01*
X159909409Y-45626912D02*
X159861790Y-45579292D01*
X159861790Y-45579292D02*
X159814171Y-45484054D01*
X159814171Y-45484054D02*
X159814171Y-45198340D01*
X159814171Y-45198340D02*
X159861790Y-45103102D01*
X159861790Y-45103102D02*
X159909409Y-45055483D01*
X159909409Y-45055483D02*
X160004647Y-45007864D01*
X160004647Y-45007864D02*
X160147504Y-45007864D01*
X160147504Y-45007864D02*
X160242742Y-45055483D01*
X160242742Y-45055483D02*
X160290361Y-45103102D01*
X160290361Y-45103102D02*
X160337980Y-45198340D01*
X160337980Y-45198340D02*
X160337980Y-45484054D01*
X160337980Y-45484054D02*
X160290361Y-45579292D01*
X160290361Y-45579292D02*
X160242742Y-45626912D01*
X160242742Y-45626912D02*
X160147504Y-45674531D01*
X160147504Y-45674531D02*
X160004647Y-45674531D01*
X161528457Y-45674531D02*
X161528457Y-44674531D01*
X161623695Y-45293578D02*
X161909409Y-45674531D01*
X161909409Y-45007864D02*
X161528457Y-45388816D01*
X162718933Y-45626912D02*
X162623695Y-45674531D01*
X162623695Y-45674531D02*
X162433219Y-45674531D01*
X162433219Y-45674531D02*
X162337981Y-45626912D01*
X162337981Y-45626912D02*
X162290362Y-45531673D01*
X162290362Y-45531673D02*
X162290362Y-45150721D01*
X162290362Y-45150721D02*
X162337981Y-45055483D01*
X162337981Y-45055483D02*
X162433219Y-45007864D01*
X162433219Y-45007864D02*
X162623695Y-45007864D01*
X162623695Y-45007864D02*
X162718933Y-45055483D01*
X162718933Y-45055483D02*
X162766552Y-45150721D01*
X162766552Y-45150721D02*
X162766552Y-45245959D01*
X162766552Y-45245959D02*
X162290362Y-45341197D01*
X163099886Y-45007864D02*
X163337981Y-45674531D01*
X163576076Y-45007864D02*
X163337981Y-45674531D01*
X163337981Y-45674531D02*
X163242743Y-45912626D01*
X163242743Y-45912626D02*
X163195124Y-45960245D01*
X163195124Y-45960245D02*
X163099886Y-46007864D01*
X163957029Y-45674531D02*
X163957029Y-44674531D01*
X163957029Y-45055483D02*
X164052267Y-45007864D01*
X164052267Y-45007864D02*
X164242743Y-45007864D01*
X164242743Y-45007864D02*
X164337981Y-45055483D01*
X164337981Y-45055483D02*
X164385600Y-45103102D01*
X164385600Y-45103102D02*
X164433219Y-45198340D01*
X164433219Y-45198340D02*
X164433219Y-45484054D01*
X164433219Y-45484054D02*
X164385600Y-45579292D01*
X164385600Y-45579292D02*
X164337981Y-45626912D01*
X164337981Y-45626912D02*
X164242743Y-45674531D01*
X164242743Y-45674531D02*
X164052267Y-45674531D01*
X164052267Y-45674531D02*
X163957029Y-45626912D01*
X165004648Y-45674531D02*
X164909410Y-45626912D01*
X164909410Y-45626912D02*
X164861791Y-45579292D01*
X164861791Y-45579292D02*
X164814172Y-45484054D01*
X164814172Y-45484054D02*
X164814172Y-45198340D01*
X164814172Y-45198340D02*
X164861791Y-45103102D01*
X164861791Y-45103102D02*
X164909410Y-45055483D01*
X164909410Y-45055483D02*
X165004648Y-45007864D01*
X165004648Y-45007864D02*
X165147505Y-45007864D01*
X165147505Y-45007864D02*
X165242743Y-45055483D01*
X165242743Y-45055483D02*
X165290362Y-45103102D01*
X165290362Y-45103102D02*
X165337981Y-45198340D01*
X165337981Y-45198340D02*
X165337981Y-45484054D01*
X165337981Y-45484054D02*
X165290362Y-45579292D01*
X165290362Y-45579292D02*
X165242743Y-45626912D01*
X165242743Y-45626912D02*
X165147505Y-45674531D01*
X165147505Y-45674531D02*
X165004648Y-45674531D01*
X166195124Y-45674531D02*
X166195124Y-45150721D01*
X166195124Y-45150721D02*
X166147505Y-45055483D01*
X166147505Y-45055483D02*
X166052267Y-45007864D01*
X166052267Y-45007864D02*
X165861791Y-45007864D01*
X165861791Y-45007864D02*
X165766553Y-45055483D01*
X166195124Y-45626912D02*
X166099886Y-45674531D01*
X166099886Y-45674531D02*
X165861791Y-45674531D01*
X165861791Y-45674531D02*
X165766553Y-45626912D01*
X165766553Y-45626912D02*
X165718934Y-45531673D01*
X165718934Y-45531673D02*
X165718934Y-45436435D01*
X165718934Y-45436435D02*
X165766553Y-45341197D01*
X165766553Y-45341197D02*
X165861791Y-45293578D01*
X165861791Y-45293578D02*
X166099886Y-45293578D01*
X166099886Y-45293578D02*
X166195124Y-45245959D01*
X166671315Y-45674531D02*
X166671315Y-45007864D01*
X166671315Y-45198340D02*
X166718934Y-45103102D01*
X166718934Y-45103102D02*
X166766553Y-45055483D01*
X166766553Y-45055483D02*
X166861791Y-45007864D01*
X166861791Y-45007864D02*
X166957029Y-45007864D01*
X167718934Y-45674531D02*
X167718934Y-44674531D01*
X167718934Y-45626912D02*
X167623696Y-45674531D01*
X167623696Y-45674531D02*
X167433220Y-45674531D01*
X167433220Y-45674531D02*
X167337982Y-45626912D01*
X167337982Y-45626912D02*
X167290363Y-45579292D01*
X167290363Y-45579292D02*
X167242744Y-45484054D01*
X167242744Y-45484054D02*
X167242744Y-45198340D01*
X167242744Y-45198340D02*
X167290363Y-45103102D01*
X167290363Y-45103102D02*
X167337982Y-45055483D01*
X167337982Y-45055483D02*
X167433220Y-45007864D01*
X167433220Y-45007864D02*
X167623696Y-45007864D01*
X167623696Y-45007864D02*
X167718934Y-45055483D01*
X146433217Y-46760665D02*
X146576074Y-46808284D01*
X146576074Y-46808284D02*
X146623693Y-46855903D01*
X146623693Y-46855903D02*
X146671312Y-46951141D01*
X146671312Y-46951141D02*
X146671312Y-47093998D01*
X146671312Y-47093998D02*
X146623693Y-47189236D01*
X146623693Y-47189236D02*
X146576074Y-47236856D01*
X146576074Y-47236856D02*
X146480836Y-47284475D01*
X146480836Y-47284475D02*
X146099884Y-47284475D01*
X146099884Y-47284475D02*
X146099884Y-46284475D01*
X146099884Y-46284475D02*
X146433217Y-46284475D01*
X146433217Y-46284475D02*
X146528455Y-46332094D01*
X146528455Y-46332094D02*
X146576074Y-46379713D01*
X146576074Y-46379713D02*
X146623693Y-46474951D01*
X146623693Y-46474951D02*
X146623693Y-46570189D01*
X146623693Y-46570189D02*
X146576074Y-46665427D01*
X146576074Y-46665427D02*
X146528455Y-46713046D01*
X146528455Y-46713046D02*
X146433217Y-46760665D01*
X146433217Y-46760665D02*
X146099884Y-46760665D01*
X147242741Y-47284475D02*
X147147503Y-47236856D01*
X147147503Y-47236856D02*
X147099884Y-47189236D01*
X147099884Y-47189236D02*
X147052265Y-47093998D01*
X147052265Y-47093998D02*
X147052265Y-46808284D01*
X147052265Y-46808284D02*
X147099884Y-46713046D01*
X147099884Y-46713046D02*
X147147503Y-46665427D01*
X147147503Y-46665427D02*
X147242741Y-46617808D01*
X147242741Y-46617808D02*
X147385598Y-46617808D01*
X147385598Y-46617808D02*
X147480836Y-46665427D01*
X147480836Y-46665427D02*
X147528455Y-46713046D01*
X147528455Y-46713046D02*
X147576074Y-46808284D01*
X147576074Y-46808284D02*
X147576074Y-47093998D01*
X147576074Y-47093998D02*
X147528455Y-47189236D01*
X147528455Y-47189236D02*
X147480836Y-47236856D01*
X147480836Y-47236856D02*
X147385598Y-47284475D01*
X147385598Y-47284475D02*
X147242741Y-47284475D01*
X148004646Y-47284475D02*
X148004646Y-46617808D01*
X148004646Y-46808284D02*
X148052265Y-46713046D01*
X148052265Y-46713046D02*
X148099884Y-46665427D01*
X148099884Y-46665427D02*
X148195122Y-46617808D01*
X148195122Y-46617808D02*
X148290360Y-46617808D01*
X148766551Y-47284475D02*
X148671313Y-47236856D01*
X148671313Y-47236856D02*
X148623694Y-47141617D01*
X148623694Y-47141617D02*
X148623694Y-46284475D01*
X149576075Y-47284475D02*
X149576075Y-46760665D01*
X149576075Y-46760665D02*
X149528456Y-46665427D01*
X149528456Y-46665427D02*
X149433218Y-46617808D01*
X149433218Y-46617808D02*
X149242742Y-46617808D01*
X149242742Y-46617808D02*
X149147504Y-46665427D01*
X149576075Y-47236856D02*
X149480837Y-47284475D01*
X149480837Y-47284475D02*
X149242742Y-47284475D01*
X149242742Y-47284475D02*
X149147504Y-47236856D01*
X149147504Y-47236856D02*
X149099885Y-47141617D01*
X149099885Y-47141617D02*
X149099885Y-47046379D01*
X149099885Y-47046379D02*
X149147504Y-46951141D01*
X149147504Y-46951141D02*
X149242742Y-46903522D01*
X149242742Y-46903522D02*
X149480837Y-46903522D01*
X149480837Y-46903522D02*
X149576075Y-46855903D01*
X149147504Y-46284475D02*
X149195123Y-46332094D01*
X149195123Y-46332094D02*
X149147504Y-46379713D01*
X149147504Y-46379713D02*
X149099885Y-46332094D01*
X149099885Y-46332094D02*
X149147504Y-46284475D01*
X149147504Y-46284475D02*
X149147504Y-46379713D01*
X149528456Y-46284475D02*
X149576075Y-46332094D01*
X149576075Y-46332094D02*
X149528456Y-46379713D01*
X149528456Y-46379713D02*
X149480837Y-46332094D01*
X149480837Y-46332094D02*
X149528456Y-46284475D01*
X149528456Y-46284475D02*
X149528456Y-46379713D01*
X150052266Y-46617808D02*
X150052266Y-47284475D01*
X150052266Y-46713046D02*
X150099885Y-46665427D01*
X150099885Y-46665427D02*
X150195123Y-46617808D01*
X150195123Y-46617808D02*
X150337980Y-46617808D01*
X150337980Y-46617808D02*
X150433218Y-46665427D01*
X150433218Y-46665427D02*
X150480837Y-46760665D01*
X150480837Y-46760665D02*
X150480837Y-47284475D01*
X151385599Y-46617808D02*
X151385599Y-47427332D01*
X151385599Y-47427332D02*
X151337980Y-47522570D01*
X151337980Y-47522570D02*
X151290361Y-47570189D01*
X151290361Y-47570189D02*
X151195123Y-47617808D01*
X151195123Y-47617808D02*
X151052266Y-47617808D01*
X151052266Y-47617808D02*
X150957028Y-47570189D01*
X151385599Y-47236856D02*
X151290361Y-47284475D01*
X151290361Y-47284475D02*
X151099885Y-47284475D01*
X151099885Y-47284475D02*
X151004647Y-47236856D01*
X151004647Y-47236856D02*
X150957028Y-47189236D01*
X150957028Y-47189236D02*
X150909409Y-47093998D01*
X150909409Y-47093998D02*
X150909409Y-46808284D01*
X150909409Y-46808284D02*
X150957028Y-46713046D01*
X150957028Y-46713046D02*
X151004647Y-46665427D01*
X151004647Y-46665427D02*
X151099885Y-46617808D01*
X151099885Y-46617808D02*
X151290361Y-46617808D01*
X151290361Y-46617808D02*
X151385599Y-46665427D01*
X152242742Y-47236856D02*
X152147504Y-47284475D01*
X152147504Y-47284475D02*
X151957028Y-47284475D01*
X151957028Y-47284475D02*
X151861790Y-47236856D01*
X151861790Y-47236856D02*
X151814171Y-47141617D01*
X151814171Y-47141617D02*
X151814171Y-46760665D01*
X151814171Y-46760665D02*
X151861790Y-46665427D01*
X151861790Y-46665427D02*
X151957028Y-46617808D01*
X151957028Y-46617808D02*
X152147504Y-46617808D01*
X152147504Y-46617808D02*
X152242742Y-46665427D01*
X152242742Y-46665427D02*
X152290361Y-46760665D01*
X152290361Y-46760665D02*
X152290361Y-46855903D01*
X152290361Y-46855903D02*
X151814171Y-46951141D01*
X152766552Y-47236856D02*
X152766552Y-47284475D01*
X152766552Y-47284475D02*
X152718933Y-47379713D01*
X152718933Y-47379713D02*
X152671314Y-47427332D01*
X153909409Y-46379713D02*
X153957028Y-46332094D01*
X153957028Y-46332094D02*
X154052266Y-46284475D01*
X154052266Y-46284475D02*
X154290361Y-46284475D01*
X154290361Y-46284475D02*
X154385599Y-46332094D01*
X154385599Y-46332094D02*
X154433218Y-46379713D01*
X154433218Y-46379713D02*
X154480837Y-46474951D01*
X154480837Y-46474951D02*
X154480837Y-46570189D01*
X154480837Y-46570189D02*
X154433218Y-46713046D01*
X154433218Y-46713046D02*
X153861790Y-47284475D01*
X153861790Y-47284475D02*
X154480837Y-47284475D01*
X155099885Y-46284475D02*
X155195123Y-46284475D01*
X155195123Y-46284475D02*
X155290361Y-46332094D01*
X155290361Y-46332094D02*
X155337980Y-46379713D01*
X155337980Y-46379713D02*
X155385599Y-46474951D01*
X155385599Y-46474951D02*
X155433218Y-46665427D01*
X155433218Y-46665427D02*
X155433218Y-46903522D01*
X155433218Y-46903522D02*
X155385599Y-47093998D01*
X155385599Y-47093998D02*
X155337980Y-47189236D01*
X155337980Y-47189236D02*
X155290361Y-47236856D01*
X155290361Y-47236856D02*
X155195123Y-47284475D01*
X155195123Y-47284475D02*
X155099885Y-47284475D01*
X155099885Y-47284475D02*
X155004647Y-47236856D01*
X155004647Y-47236856D02*
X154957028Y-47189236D01*
X154957028Y-47189236D02*
X154909409Y-47093998D01*
X154909409Y-47093998D02*
X154861790Y-46903522D01*
X154861790Y-46903522D02*
X154861790Y-46665427D01*
X154861790Y-46665427D02*
X154909409Y-46474951D01*
X154909409Y-46474951D02*
X154957028Y-46379713D01*
X154957028Y-46379713D02*
X155004647Y-46332094D01*
X155004647Y-46332094D02*
X155099885Y-46284475D01*
X155814171Y-46379713D02*
X155861790Y-46332094D01*
X155861790Y-46332094D02*
X155957028Y-46284475D01*
X155957028Y-46284475D02*
X156195123Y-46284475D01*
X156195123Y-46284475D02*
X156290361Y-46332094D01*
X156290361Y-46332094D02*
X156337980Y-46379713D01*
X156337980Y-46379713D02*
X156385599Y-46474951D01*
X156385599Y-46474951D02*
X156385599Y-46570189D01*
X156385599Y-46570189D02*
X156337980Y-46713046D01*
X156337980Y-46713046D02*
X155766552Y-47284475D01*
X155766552Y-47284475D02*
X156385599Y-47284475D01*
X157242742Y-46617808D02*
X157242742Y-47284475D01*
X157004647Y-46236856D02*
X156766552Y-46951141D01*
X156766552Y-46951141D02*
X157385599Y-46951141D01*
X146004646Y-48227752D02*
X146242741Y-48894419D01*
X146242741Y-48894419D02*
X146480836Y-48227752D01*
X147385598Y-48894419D02*
X146814170Y-48894419D01*
X147099884Y-48894419D02*
X147099884Y-47894419D01*
X147099884Y-47894419D02*
X147004646Y-48037276D01*
X147004646Y-48037276D02*
X146909408Y-48132514D01*
X146909408Y-48132514D02*
X146814170Y-48180133D01*
X147814170Y-48799180D02*
X147861789Y-48846800D01*
X147861789Y-48846800D02*
X147814170Y-48894419D01*
X147814170Y-48894419D02*
X147766551Y-48846800D01*
X147766551Y-48846800D02*
X147814170Y-48799180D01*
X147814170Y-48799180D02*
X147814170Y-48894419D01*
X148480836Y-47894419D02*
X148576074Y-47894419D01*
X148576074Y-47894419D02*
X148671312Y-47942038D01*
X148671312Y-47942038D02*
X148718931Y-47989657D01*
X148718931Y-47989657D02*
X148766550Y-48084895D01*
X148766550Y-48084895D02*
X148814169Y-48275371D01*
X148814169Y-48275371D02*
X148814169Y-48513466D01*
X148814169Y-48513466D02*
X148766550Y-48703942D01*
X148766550Y-48703942D02*
X148718931Y-48799180D01*
X148718931Y-48799180D02*
X148671312Y-48846800D01*
X148671312Y-48846800D02*
X148576074Y-48894419D01*
X148576074Y-48894419D02*
X148480836Y-48894419D01*
X148480836Y-48894419D02*
X148385598Y-48846800D01*
X148385598Y-48846800D02*
X148337979Y-48799180D01*
X148337979Y-48799180D02*
X148290360Y-48703942D01*
X148290360Y-48703942D02*
X148242741Y-48513466D01*
X148242741Y-48513466D02*
X148242741Y-48275371D01*
X148242741Y-48275371D02*
X148290360Y-48084895D01*
X148290360Y-48084895D02*
X148337979Y-47989657D01*
X148337979Y-47989657D02*
X148385598Y-47942038D01*
X148385598Y-47942038D02*
X148480836Y-47894419D01*
X150004646Y-48513466D02*
X150766551Y-48513466D01*
X152004646Y-48894419D02*
X152004646Y-47894419D01*
X152004646Y-48275371D02*
X152099884Y-48227752D01*
X152099884Y-48227752D02*
X152290360Y-48227752D01*
X152290360Y-48227752D02*
X152385598Y-48275371D01*
X152385598Y-48275371D02*
X152433217Y-48322990D01*
X152433217Y-48322990D02*
X152480836Y-48418228D01*
X152480836Y-48418228D02*
X152480836Y-48703942D01*
X152480836Y-48703942D02*
X152433217Y-48799180D01*
X152433217Y-48799180D02*
X152385598Y-48846800D01*
X152385598Y-48846800D02*
X152290360Y-48894419D01*
X152290360Y-48894419D02*
X152099884Y-48894419D01*
X152099884Y-48894419D02*
X152004646Y-48846800D01*
X152814170Y-48227752D02*
X153052265Y-48894419D01*
X153290360Y-48227752D02*
X153052265Y-48894419D01*
X153052265Y-48894419D02*
X152957027Y-49132514D01*
X152957027Y-49132514D02*
X152909408Y-49180133D01*
X152909408Y-49180133D02*
X152814170Y-49227752D01*
X154433218Y-48227752D02*
X154433218Y-48894419D01*
X154433218Y-48322990D02*
X154480837Y-48275371D01*
X154480837Y-48275371D02*
X154576075Y-48227752D01*
X154576075Y-48227752D02*
X154718932Y-48227752D01*
X154718932Y-48227752D02*
X154814170Y-48275371D01*
X154814170Y-48275371D02*
X154861789Y-48370609D01*
X154861789Y-48370609D02*
X154861789Y-48894419D01*
X155480837Y-48894419D02*
X155385599Y-48846800D01*
X155385599Y-48846800D02*
X155337980Y-48799180D01*
X155337980Y-48799180D02*
X155290361Y-48703942D01*
X155290361Y-48703942D02*
X155290361Y-48418228D01*
X155290361Y-48418228D02*
X155337980Y-48322990D01*
X155337980Y-48322990D02*
X155385599Y-48275371D01*
X155385599Y-48275371D02*
X155480837Y-48227752D01*
X155480837Y-48227752D02*
X155623694Y-48227752D01*
X155623694Y-48227752D02*
X155718932Y-48275371D01*
X155718932Y-48275371D02*
X155766551Y-48322990D01*
X155766551Y-48322990D02*
X155814170Y-48418228D01*
X155814170Y-48418228D02*
X155814170Y-48703942D01*
X155814170Y-48703942D02*
X155766551Y-48799180D01*
X155766551Y-48799180D02*
X155718932Y-48846800D01*
X155718932Y-48846800D02*
X155623694Y-48894419D01*
X155623694Y-48894419D02*
X155480837Y-48894419D01*
X156242742Y-48227752D02*
X156242742Y-49084895D01*
X156242742Y-49084895D02*
X156195123Y-49180133D01*
X156195123Y-49180133D02*
X156099885Y-49227752D01*
X156099885Y-49227752D02*
X156052266Y-49227752D01*
X156242742Y-47894419D02*
X156195123Y-47942038D01*
X156195123Y-47942038D02*
X156242742Y-47989657D01*
X156242742Y-47989657D02*
X156290361Y-47942038D01*
X156290361Y-47942038D02*
X156242742Y-47894419D01*
X156242742Y-47894419D02*
X156242742Y-47989657D01*
X157147503Y-48894419D02*
X157147503Y-48370609D01*
X157147503Y-48370609D02*
X157099884Y-48275371D01*
X157099884Y-48275371D02*
X157004646Y-48227752D01*
X157004646Y-48227752D02*
X156814170Y-48227752D01*
X156814170Y-48227752D02*
X156718932Y-48275371D01*
X157147503Y-48846800D02*
X157052265Y-48894419D01*
X157052265Y-48894419D02*
X156814170Y-48894419D01*
X156814170Y-48894419D02*
X156718932Y-48846800D01*
X156718932Y-48846800D02*
X156671313Y-48751561D01*
X156671313Y-48751561D02*
X156671313Y-48656323D01*
X156671313Y-48656323D02*
X156718932Y-48561085D01*
X156718932Y-48561085D02*
X156814170Y-48513466D01*
X156814170Y-48513466D02*
X157052265Y-48513466D01*
X157052265Y-48513466D02*
X157147503Y-48465847D01*
X157623694Y-48227752D02*
X157623694Y-48894419D01*
X157623694Y-48322990D02*
X157671313Y-48275371D01*
X157671313Y-48275371D02*
X157766551Y-48227752D01*
X157766551Y-48227752D02*
X157909408Y-48227752D01*
X157909408Y-48227752D02*
X158004646Y-48275371D01*
X158004646Y-48275371D02*
X158052265Y-48370609D01*
X158052265Y-48370609D02*
X158052265Y-48894419D01*
X159718932Y-48894419D02*
X159718932Y-48370609D01*
X159718932Y-48370609D02*
X159671313Y-48275371D01*
X159671313Y-48275371D02*
X159576075Y-48227752D01*
X159576075Y-48227752D02*
X159385599Y-48227752D01*
X159385599Y-48227752D02*
X159290361Y-48275371D01*
X159718932Y-48846800D02*
X159623694Y-48894419D01*
X159623694Y-48894419D02*
X159385599Y-48894419D01*
X159385599Y-48894419D02*
X159290361Y-48846800D01*
X159290361Y-48846800D02*
X159242742Y-48751561D01*
X159242742Y-48751561D02*
X159242742Y-48656323D01*
X159242742Y-48656323D02*
X159290361Y-48561085D01*
X159290361Y-48561085D02*
X159385599Y-48513466D01*
X159385599Y-48513466D02*
X159623694Y-48513466D01*
X159623694Y-48513466D02*
X159718932Y-48465847D01*
X160195123Y-48227752D02*
X160195123Y-48894419D01*
X160195123Y-48322990D02*
X160242742Y-48275371D01*
X160242742Y-48275371D02*
X160337980Y-48227752D01*
X160337980Y-48227752D02*
X160480837Y-48227752D01*
X160480837Y-48227752D02*
X160576075Y-48275371D01*
X160576075Y-48275371D02*
X160623694Y-48370609D01*
X160623694Y-48370609D02*
X160623694Y-48894419D01*
X161528456Y-48894419D02*
X161528456Y-47894419D01*
X161528456Y-48846800D02*
X161433218Y-48894419D01*
X161433218Y-48894419D02*
X161242742Y-48894419D01*
X161242742Y-48894419D02*
X161147504Y-48846800D01*
X161147504Y-48846800D02*
X161099885Y-48799180D01*
X161099885Y-48799180D02*
X161052266Y-48703942D01*
X161052266Y-48703942D02*
X161052266Y-48418228D01*
X161052266Y-48418228D02*
X161099885Y-48322990D01*
X161099885Y-48322990D02*
X161147504Y-48275371D01*
X161147504Y-48275371D02*
X161242742Y-48227752D01*
X161242742Y-48227752D02*
X161433218Y-48227752D01*
X161433218Y-48227752D02*
X161528456Y-48275371D01*
X163195123Y-48846800D02*
X163099885Y-48894419D01*
X163099885Y-48894419D02*
X162909409Y-48894419D01*
X162909409Y-48894419D02*
X162814171Y-48846800D01*
X162814171Y-48846800D02*
X162766552Y-48799180D01*
X162766552Y-48799180D02*
X162718933Y-48703942D01*
X162718933Y-48703942D02*
X162718933Y-48418228D01*
X162718933Y-48418228D02*
X162766552Y-48322990D01*
X162766552Y-48322990D02*
X162814171Y-48275371D01*
X162814171Y-48275371D02*
X162909409Y-48227752D01*
X162909409Y-48227752D02*
X163099885Y-48227752D01*
X163099885Y-48227752D02*
X163195123Y-48275371D01*
X163623695Y-48894419D02*
X163623695Y-48227752D01*
X163623695Y-48418228D02*
X163671314Y-48322990D01*
X163671314Y-48322990D02*
X163718933Y-48275371D01*
X163718933Y-48275371D02*
X163814171Y-48227752D01*
X163814171Y-48227752D02*
X163909409Y-48227752D01*
X164671314Y-48894419D02*
X164671314Y-48370609D01*
X164671314Y-48370609D02*
X164623695Y-48275371D01*
X164623695Y-48275371D02*
X164528457Y-48227752D01*
X164528457Y-48227752D02*
X164337981Y-48227752D01*
X164337981Y-48227752D02*
X164242743Y-48275371D01*
X164671314Y-48846800D02*
X164576076Y-48894419D01*
X164576076Y-48894419D02*
X164337981Y-48894419D01*
X164337981Y-48894419D02*
X164242743Y-48846800D01*
X164242743Y-48846800D02*
X164195124Y-48751561D01*
X164195124Y-48751561D02*
X164195124Y-48656323D01*
X164195124Y-48656323D02*
X164242743Y-48561085D01*
X164242743Y-48561085D02*
X164337981Y-48513466D01*
X164337981Y-48513466D02*
X164576076Y-48513466D01*
X164576076Y-48513466D02*
X164671314Y-48465847D01*
X165147505Y-48227752D02*
X165147505Y-49227752D01*
X165147505Y-48275371D02*
X165242743Y-48227752D01*
X165242743Y-48227752D02*
X165433219Y-48227752D01*
X165433219Y-48227752D02*
X165528457Y-48275371D01*
X165528457Y-48275371D02*
X165576076Y-48322990D01*
X165576076Y-48322990D02*
X165623695Y-48418228D01*
X165623695Y-48418228D02*
X165623695Y-48703942D01*
X165623695Y-48703942D02*
X165576076Y-48799180D01*
X165576076Y-48799180D02*
X165528457Y-48846800D01*
X165528457Y-48846800D02*
X165433219Y-48894419D01*
X165433219Y-48894419D02*
X165242743Y-48894419D01*
X165242743Y-48894419D02*
X165147505Y-48846800D01*
X166052267Y-48894419D02*
X166052267Y-48227752D01*
X166052267Y-47894419D02*
X166004648Y-47942038D01*
X166004648Y-47942038D02*
X166052267Y-47989657D01*
X166052267Y-47989657D02*
X166099886Y-47942038D01*
X166099886Y-47942038D02*
X166052267Y-47894419D01*
X166052267Y-47894419D02*
X166052267Y-47989657D01*
X166385600Y-48227752D02*
X166766552Y-48227752D01*
X166528457Y-47894419D02*
X166528457Y-48751561D01*
X166528457Y-48751561D02*
X166576076Y-48846800D01*
X166576076Y-48846800D02*
X166671314Y-48894419D01*
X166671314Y-48894419D02*
X166766552Y-48894419D01*
X167528457Y-48894419D02*
X167528457Y-48370609D01*
X167528457Y-48370609D02*
X167480838Y-48275371D01*
X167480838Y-48275371D02*
X167385600Y-48227752D01*
X167385600Y-48227752D02*
X167195124Y-48227752D01*
X167195124Y-48227752D02*
X167099886Y-48275371D01*
X167528457Y-48846800D02*
X167433219Y-48894419D01*
X167433219Y-48894419D02*
X167195124Y-48894419D01*
X167195124Y-48894419D02*
X167099886Y-48846800D01*
X167099886Y-48846800D02*
X167052267Y-48751561D01*
X167052267Y-48751561D02*
X167052267Y-48656323D01*
X167052267Y-48656323D02*
X167099886Y-48561085D01*
X167099886Y-48561085D02*
X167195124Y-48513466D01*
X167195124Y-48513466D02*
X167433219Y-48513466D01*
X167433219Y-48513466D02*
X167528457Y-48465847D01*
X168004648Y-48227752D02*
X168004648Y-48894419D01*
X168004648Y-48322990D02*
X168052267Y-48275371D01*
X168052267Y-48275371D02*
X168147505Y-48227752D01*
X168147505Y-48227752D02*
X168290362Y-48227752D01*
X168290362Y-48227752D02*
X168385600Y-48275371D01*
X168385600Y-48275371D02*
X168433219Y-48370609D01*
X168433219Y-48370609D02*
X168433219Y-48894419D01*
X163004038Y-86548306D02*
X162956419Y-86643544D01*
X162956419Y-86643544D02*
X162956419Y-86786401D01*
X162956419Y-86786401D02*
X163004038Y-86929258D01*
X163004038Y-86929258D02*
X163099276Y-87024496D01*
X163099276Y-87024496D02*
X163194514Y-87072115D01*
X163194514Y-87072115D02*
X163384990Y-87119734D01*
X163384990Y-87119734D02*
X163527847Y-87119734D01*
X163527847Y-87119734D02*
X163718323Y-87072115D01*
X163718323Y-87072115D02*
X163813561Y-87024496D01*
X163813561Y-87024496D02*
X163908800Y-86929258D01*
X163908800Y-86929258D02*
X163956419Y-86786401D01*
X163956419Y-86786401D02*
X163956419Y-86691163D01*
X163956419Y-86691163D02*
X163908800Y-86548306D01*
X163908800Y-86548306D02*
X163861180Y-86500687D01*
X163861180Y-86500687D02*
X163527847Y-86500687D01*
X163527847Y-86500687D02*
X163527847Y-86691163D01*
X163956419Y-86072115D02*
X162956419Y-86072115D01*
X162956419Y-86072115D02*
X163956419Y-85500687D01*
X163956419Y-85500687D02*
X162956419Y-85500687D01*
X163956419Y-85024496D02*
X162956419Y-85024496D01*
X162956419Y-85024496D02*
X162956419Y-84786401D01*
X162956419Y-84786401D02*
X163004038Y-84643544D01*
X163004038Y-84643544D02*
X163099276Y-84548306D01*
X163099276Y-84548306D02*
X163194514Y-84500687D01*
X163194514Y-84500687D02*
X163384990Y-84453068D01*
X163384990Y-84453068D02*
X163527847Y-84453068D01*
X163527847Y-84453068D02*
X163718323Y-84500687D01*
X163718323Y-84500687D02*
X163813561Y-84548306D01*
X163813561Y-84548306D02*
X163908800Y-84643544D01*
X163908800Y-84643544D02*
X163956419Y-84786401D01*
X163956419Y-84786401D02*
X163956419Y-85024496D01*
X160416419Y-87214972D02*
X161416419Y-86881639D01*
X161416419Y-86881639D02*
X160416419Y-86548306D01*
X161321180Y-85643544D02*
X161368800Y-85691163D01*
X161368800Y-85691163D02*
X161416419Y-85834020D01*
X161416419Y-85834020D02*
X161416419Y-85929258D01*
X161416419Y-85929258D02*
X161368800Y-86072115D01*
X161368800Y-86072115D02*
X161273561Y-86167353D01*
X161273561Y-86167353D02*
X161178323Y-86214972D01*
X161178323Y-86214972D02*
X160987847Y-86262591D01*
X160987847Y-86262591D02*
X160844990Y-86262591D01*
X160844990Y-86262591D02*
X160654514Y-86214972D01*
X160654514Y-86214972D02*
X160559276Y-86167353D01*
X160559276Y-86167353D02*
X160464038Y-86072115D01*
X160464038Y-86072115D02*
X160416419Y-85929258D01*
X160416419Y-85929258D02*
X160416419Y-85834020D01*
X160416419Y-85834020D02*
X160464038Y-85691163D01*
X160464038Y-85691163D02*
X160511657Y-85643544D01*
X161321180Y-84643544D02*
X161368800Y-84691163D01*
X161368800Y-84691163D02*
X161416419Y-84834020D01*
X161416419Y-84834020D02*
X161416419Y-84929258D01*
X161416419Y-84929258D02*
X161368800Y-85072115D01*
X161368800Y-85072115D02*
X161273561Y-85167353D01*
X161273561Y-85167353D02*
X161178323Y-85214972D01*
X161178323Y-85214972D02*
X160987847Y-85262591D01*
X160987847Y-85262591D02*
X160844990Y-85262591D01*
X160844990Y-85262591D02*
X160654514Y-85214972D01*
X160654514Y-85214972D02*
X160559276Y-85167353D01*
X160559276Y-85167353D02*
X160464038Y-85072115D01*
X160464038Y-85072115D02*
X160416419Y-84929258D01*
X160416419Y-84929258D02*
X160416419Y-84834020D01*
X160416419Y-84834020D02*
X160464038Y-84691163D01*
X160464038Y-84691163D02*
X160511657Y-84643544D01*
X158828800Y-87119734D02*
X158876419Y-86976877D01*
X158876419Y-86976877D02*
X158876419Y-86738782D01*
X158876419Y-86738782D02*
X158828800Y-86643544D01*
X158828800Y-86643544D02*
X158781180Y-86595925D01*
X158781180Y-86595925D02*
X158685942Y-86548306D01*
X158685942Y-86548306D02*
X158590704Y-86548306D01*
X158590704Y-86548306D02*
X158495466Y-86595925D01*
X158495466Y-86595925D02*
X158447847Y-86643544D01*
X158447847Y-86643544D02*
X158400228Y-86738782D01*
X158400228Y-86738782D02*
X158352609Y-86929258D01*
X158352609Y-86929258D02*
X158304990Y-87024496D01*
X158304990Y-87024496D02*
X158257371Y-87072115D01*
X158257371Y-87072115D02*
X158162133Y-87119734D01*
X158162133Y-87119734D02*
X158066895Y-87119734D01*
X158066895Y-87119734D02*
X157971657Y-87072115D01*
X157971657Y-87072115D02*
X157924038Y-87024496D01*
X157924038Y-87024496D02*
X157876419Y-86929258D01*
X157876419Y-86929258D02*
X157876419Y-86691163D01*
X157876419Y-86691163D02*
X157924038Y-86548306D01*
X158781180Y-85548306D02*
X158828800Y-85595925D01*
X158828800Y-85595925D02*
X158876419Y-85738782D01*
X158876419Y-85738782D02*
X158876419Y-85834020D01*
X158876419Y-85834020D02*
X158828800Y-85976877D01*
X158828800Y-85976877D02*
X158733561Y-86072115D01*
X158733561Y-86072115D02*
X158638323Y-86119734D01*
X158638323Y-86119734D02*
X158447847Y-86167353D01*
X158447847Y-86167353D02*
X158304990Y-86167353D01*
X158304990Y-86167353D02*
X158114514Y-86119734D01*
X158114514Y-86119734D02*
X158019276Y-86072115D01*
X158019276Y-86072115D02*
X157924038Y-85976877D01*
X157924038Y-85976877D02*
X157876419Y-85834020D01*
X157876419Y-85834020D02*
X157876419Y-85738782D01*
X157876419Y-85738782D02*
X157924038Y-85595925D01*
X157924038Y-85595925D02*
X157971657Y-85548306D01*
X158876419Y-84643544D02*
X158876419Y-85119734D01*
X158876419Y-85119734D02*
X157876419Y-85119734D01*
X156288800Y-87119734D02*
X156336419Y-86976877D01*
X156336419Y-86976877D02*
X156336419Y-86738782D01*
X156336419Y-86738782D02*
X156288800Y-86643544D01*
X156288800Y-86643544D02*
X156241180Y-86595925D01*
X156241180Y-86595925D02*
X156145942Y-86548306D01*
X156145942Y-86548306D02*
X156050704Y-86548306D01*
X156050704Y-86548306D02*
X155955466Y-86595925D01*
X155955466Y-86595925D02*
X155907847Y-86643544D01*
X155907847Y-86643544D02*
X155860228Y-86738782D01*
X155860228Y-86738782D02*
X155812609Y-86929258D01*
X155812609Y-86929258D02*
X155764990Y-87024496D01*
X155764990Y-87024496D02*
X155717371Y-87072115D01*
X155717371Y-87072115D02*
X155622133Y-87119734D01*
X155622133Y-87119734D02*
X155526895Y-87119734D01*
X155526895Y-87119734D02*
X155431657Y-87072115D01*
X155431657Y-87072115D02*
X155384038Y-87024496D01*
X155384038Y-87024496D02*
X155336419Y-86929258D01*
X155336419Y-86929258D02*
X155336419Y-86691163D01*
X155336419Y-86691163D02*
X155384038Y-86548306D01*
X156336419Y-86119734D02*
X155336419Y-86119734D01*
X155336419Y-86119734D02*
X155336419Y-85881639D01*
X155336419Y-85881639D02*
X155384038Y-85738782D01*
X155384038Y-85738782D02*
X155479276Y-85643544D01*
X155479276Y-85643544D02*
X155574514Y-85595925D01*
X155574514Y-85595925D02*
X155764990Y-85548306D01*
X155764990Y-85548306D02*
X155907847Y-85548306D01*
X155907847Y-85548306D02*
X156098323Y-85595925D01*
X156098323Y-85595925D02*
X156193561Y-85643544D01*
X156193561Y-85643544D02*
X156288800Y-85738782D01*
X156288800Y-85738782D02*
X156336419Y-85881639D01*
X156336419Y-85881639D02*
X156336419Y-86119734D01*
X156050704Y-85167353D02*
X156050704Y-84691163D01*
X156336419Y-85262591D02*
X155336419Y-84929258D01*
X155336419Y-84929258D02*
X156336419Y-84595925D01*
D11*
X170902380Y-88270819D02*
X170569047Y-87794628D01*
X170330952Y-88270819D02*
X170330952Y-87270819D01*
X170330952Y-87270819D02*
X170711904Y-87270819D01*
X170711904Y-87270819D02*
X170807142Y-87318438D01*
X170807142Y-87318438D02*
X170854761Y-87366057D01*
X170854761Y-87366057D02*
X170902380Y-87461295D01*
X170902380Y-87461295D02*
X170902380Y-87604152D01*
X170902380Y-87604152D02*
X170854761Y-87699390D01*
X170854761Y-87699390D02*
X170807142Y-87747009D01*
X170807142Y-87747009D02*
X170711904Y-87794628D01*
X170711904Y-87794628D02*
X170330952Y-87794628D01*
X171283333Y-88223200D02*
X171426190Y-88270819D01*
X171426190Y-88270819D02*
X171664285Y-88270819D01*
X171664285Y-88270819D02*
X171759523Y-88223200D01*
X171759523Y-88223200D02*
X171807142Y-88175580D01*
X171807142Y-88175580D02*
X171854761Y-88080342D01*
X171854761Y-88080342D02*
X171854761Y-87985104D01*
X171854761Y-87985104D02*
X171807142Y-87889866D01*
X171807142Y-87889866D02*
X171759523Y-87842247D01*
X171759523Y-87842247D02*
X171664285Y-87794628D01*
X171664285Y-87794628D02*
X171473809Y-87747009D01*
X171473809Y-87747009D02*
X171378571Y-87699390D01*
X171378571Y-87699390D02*
X171330952Y-87651771D01*
X171330952Y-87651771D02*
X171283333Y-87556533D01*
X171283333Y-87556533D02*
X171283333Y-87461295D01*
X171283333Y-87461295D02*
X171330952Y-87366057D01*
X171330952Y-87366057D02*
X171378571Y-87318438D01*
X171378571Y-87318438D02*
X171473809Y-87270819D01*
X171473809Y-87270819D02*
X171711904Y-87270819D01*
X171711904Y-87270819D02*
X171854761Y-87318438D01*
X172140476Y-87270819D02*
X172711904Y-87270819D01*
X172426190Y-88270819D02*
X172426190Y-87270819D01*
X165360819Y-89995333D02*
X166075104Y-89995333D01*
X166075104Y-89995333D02*
X166217961Y-90042952D01*
X166217961Y-90042952D02*
X166313200Y-90138190D01*
X166313200Y-90138190D02*
X166360819Y-90281047D01*
X166360819Y-90281047D02*
X166360819Y-90376285D01*
X166360819Y-88995333D02*
X166360819Y-89566761D01*
X166360819Y-89281047D02*
X165360819Y-89281047D01*
X165360819Y-89281047D02*
X165503676Y-89376285D01*
X165503676Y-89376285D02*
X165598914Y-89471523D01*
X165598914Y-89471523D02*
X165646533Y-89566761D01*
X133794667Y-71781200D02*
X133937524Y-71828819D01*
X133937524Y-71828819D02*
X134175619Y-71828819D01*
X134175619Y-71828819D02*
X134270857Y-71781200D01*
X134270857Y-71781200D02*
X134318476Y-71733580D01*
X134318476Y-71733580D02*
X134366095Y-71638342D01*
X134366095Y-71638342D02*
X134366095Y-71543104D01*
X134366095Y-71543104D02*
X134318476Y-71447866D01*
X134318476Y-71447866D02*
X134270857Y-71400247D01*
X134270857Y-71400247D02*
X134175619Y-71352628D01*
X134175619Y-71352628D02*
X133985143Y-71305009D01*
X133985143Y-71305009D02*
X133889905Y-71257390D01*
X133889905Y-71257390D02*
X133842286Y-71209771D01*
X133842286Y-71209771D02*
X133794667Y-71114533D01*
X133794667Y-71114533D02*
X133794667Y-71019295D01*
X133794667Y-71019295D02*
X133842286Y-70924057D01*
X133842286Y-70924057D02*
X133889905Y-70876438D01*
X133889905Y-70876438D02*
X133985143Y-70828819D01*
X133985143Y-70828819D02*
X134223238Y-70828819D01*
X134223238Y-70828819D02*
X134366095Y-70876438D01*
X134699429Y-70828819D02*
X134937524Y-71828819D01*
X134937524Y-71828819D02*
X135128000Y-71114533D01*
X135128000Y-71114533D02*
X135318476Y-71828819D01*
X135318476Y-71828819D02*
X135556572Y-70828819D01*
X136080381Y-71257390D02*
X135985143Y-71209771D01*
X135985143Y-71209771D02*
X135937524Y-71162152D01*
X135937524Y-71162152D02*
X135889905Y-71066914D01*
X135889905Y-71066914D02*
X135889905Y-71019295D01*
X135889905Y-71019295D02*
X135937524Y-70924057D01*
X135937524Y-70924057D02*
X135985143Y-70876438D01*
X135985143Y-70876438D02*
X136080381Y-70828819D01*
X136080381Y-70828819D02*
X136270857Y-70828819D01*
X136270857Y-70828819D02*
X136366095Y-70876438D01*
X136366095Y-70876438D02*
X136413714Y-70924057D01*
X136413714Y-70924057D02*
X136461333Y-71019295D01*
X136461333Y-71019295D02*
X136461333Y-71066914D01*
X136461333Y-71066914D02*
X136413714Y-71162152D01*
X136413714Y-71162152D02*
X136366095Y-71209771D01*
X136366095Y-71209771D02*
X136270857Y-71257390D01*
X136270857Y-71257390D02*
X136080381Y-71257390D01*
X136080381Y-71257390D02*
X135985143Y-71305009D01*
X135985143Y-71305009D02*
X135937524Y-71352628D01*
X135937524Y-71352628D02*
X135889905Y-71447866D01*
X135889905Y-71447866D02*
X135889905Y-71638342D01*
X135889905Y-71638342D02*
X135937524Y-71733580D01*
X135937524Y-71733580D02*
X135985143Y-71781200D01*
X135985143Y-71781200D02*
X136080381Y-71828819D01*
X136080381Y-71828819D02*
X136270857Y-71828819D01*
X136270857Y-71828819D02*
X136366095Y-71781200D01*
X136366095Y-71781200D02*
X136413714Y-71733580D01*
X136413714Y-71733580D02*
X136461333Y-71638342D01*
X136461333Y-71638342D02*
X136461333Y-71447866D01*
X136461333Y-71447866D02*
X136413714Y-71352628D01*
X136413714Y-71352628D02*
X136366095Y-71305009D01*
X136366095Y-71305009D02*
X136270857Y-71257390D01*
X133794667Y-52731200D02*
X133937524Y-52778819D01*
X133937524Y-52778819D02*
X134175619Y-52778819D01*
X134175619Y-52778819D02*
X134270857Y-52731200D01*
X134270857Y-52731200D02*
X134318476Y-52683580D01*
X134318476Y-52683580D02*
X134366095Y-52588342D01*
X134366095Y-52588342D02*
X134366095Y-52493104D01*
X134366095Y-52493104D02*
X134318476Y-52397866D01*
X134318476Y-52397866D02*
X134270857Y-52350247D01*
X134270857Y-52350247D02*
X134175619Y-52302628D01*
X134175619Y-52302628D02*
X133985143Y-52255009D01*
X133985143Y-52255009D02*
X133889905Y-52207390D01*
X133889905Y-52207390D02*
X133842286Y-52159771D01*
X133842286Y-52159771D02*
X133794667Y-52064533D01*
X133794667Y-52064533D02*
X133794667Y-51969295D01*
X133794667Y-51969295D02*
X133842286Y-51874057D01*
X133842286Y-51874057D02*
X133889905Y-51826438D01*
X133889905Y-51826438D02*
X133985143Y-51778819D01*
X133985143Y-51778819D02*
X134223238Y-51778819D01*
X134223238Y-51778819D02*
X134366095Y-51826438D01*
X134699429Y-51778819D02*
X134937524Y-52778819D01*
X134937524Y-52778819D02*
X135128000Y-52064533D01*
X135128000Y-52064533D02*
X135318476Y-52778819D01*
X135318476Y-52778819D02*
X135556572Y-51778819D01*
X135842286Y-51778819D02*
X136508952Y-51778819D01*
X136508952Y-51778819D02*
X136080381Y-52778819D01*
X114744667Y-71781200D02*
X114887524Y-71828819D01*
X114887524Y-71828819D02*
X115125619Y-71828819D01*
X115125619Y-71828819D02*
X115220857Y-71781200D01*
X115220857Y-71781200D02*
X115268476Y-71733580D01*
X115268476Y-71733580D02*
X115316095Y-71638342D01*
X115316095Y-71638342D02*
X115316095Y-71543104D01*
X115316095Y-71543104D02*
X115268476Y-71447866D01*
X115268476Y-71447866D02*
X115220857Y-71400247D01*
X115220857Y-71400247D02*
X115125619Y-71352628D01*
X115125619Y-71352628D02*
X114935143Y-71305009D01*
X114935143Y-71305009D02*
X114839905Y-71257390D01*
X114839905Y-71257390D02*
X114792286Y-71209771D01*
X114792286Y-71209771D02*
X114744667Y-71114533D01*
X114744667Y-71114533D02*
X114744667Y-71019295D01*
X114744667Y-71019295D02*
X114792286Y-70924057D01*
X114792286Y-70924057D02*
X114839905Y-70876438D01*
X114839905Y-70876438D02*
X114935143Y-70828819D01*
X114935143Y-70828819D02*
X115173238Y-70828819D01*
X115173238Y-70828819D02*
X115316095Y-70876438D01*
X115649429Y-70828819D02*
X115887524Y-71828819D01*
X115887524Y-71828819D02*
X116078000Y-71114533D01*
X116078000Y-71114533D02*
X116268476Y-71828819D01*
X116268476Y-71828819D02*
X116506572Y-70828819D01*
X117316095Y-70828819D02*
X117125619Y-70828819D01*
X117125619Y-70828819D02*
X117030381Y-70876438D01*
X117030381Y-70876438D02*
X116982762Y-70924057D01*
X116982762Y-70924057D02*
X116887524Y-71066914D01*
X116887524Y-71066914D02*
X116839905Y-71257390D01*
X116839905Y-71257390D02*
X116839905Y-71638342D01*
X116839905Y-71638342D02*
X116887524Y-71733580D01*
X116887524Y-71733580D02*
X116935143Y-71781200D01*
X116935143Y-71781200D02*
X117030381Y-71828819D01*
X117030381Y-71828819D02*
X117220857Y-71828819D01*
X117220857Y-71828819D02*
X117316095Y-71781200D01*
X117316095Y-71781200D02*
X117363714Y-71733580D01*
X117363714Y-71733580D02*
X117411333Y-71638342D01*
X117411333Y-71638342D02*
X117411333Y-71400247D01*
X117411333Y-71400247D02*
X117363714Y-71305009D01*
X117363714Y-71305009D02*
X117316095Y-71257390D01*
X117316095Y-71257390D02*
X117220857Y-71209771D01*
X117220857Y-71209771D02*
X117030381Y-71209771D01*
X117030381Y-71209771D02*
X116935143Y-71257390D01*
X116935143Y-71257390D02*
X116887524Y-71305009D01*
X116887524Y-71305009D02*
X116839905Y-71400247D01*
X114744667Y-52731200D02*
X114887524Y-52778819D01*
X114887524Y-52778819D02*
X115125619Y-52778819D01*
X115125619Y-52778819D02*
X115220857Y-52731200D01*
X115220857Y-52731200D02*
X115268476Y-52683580D01*
X115268476Y-52683580D02*
X115316095Y-52588342D01*
X115316095Y-52588342D02*
X115316095Y-52493104D01*
X115316095Y-52493104D02*
X115268476Y-52397866D01*
X115268476Y-52397866D02*
X115220857Y-52350247D01*
X115220857Y-52350247D02*
X115125619Y-52302628D01*
X115125619Y-52302628D02*
X114935143Y-52255009D01*
X114935143Y-52255009D02*
X114839905Y-52207390D01*
X114839905Y-52207390D02*
X114792286Y-52159771D01*
X114792286Y-52159771D02*
X114744667Y-52064533D01*
X114744667Y-52064533D02*
X114744667Y-51969295D01*
X114744667Y-51969295D02*
X114792286Y-51874057D01*
X114792286Y-51874057D02*
X114839905Y-51826438D01*
X114839905Y-51826438D02*
X114935143Y-51778819D01*
X114935143Y-51778819D02*
X115173238Y-51778819D01*
X115173238Y-51778819D02*
X115316095Y-51826438D01*
X115649429Y-51778819D02*
X115887524Y-52778819D01*
X115887524Y-52778819D02*
X116078000Y-52064533D01*
X116078000Y-52064533D02*
X116268476Y-52778819D01*
X116268476Y-52778819D02*
X116506572Y-51778819D01*
X117363714Y-51778819D02*
X116887524Y-51778819D01*
X116887524Y-51778819D02*
X116839905Y-52255009D01*
X116839905Y-52255009D02*
X116887524Y-52207390D01*
X116887524Y-52207390D02*
X116982762Y-52159771D01*
X116982762Y-52159771D02*
X117220857Y-52159771D01*
X117220857Y-52159771D02*
X117316095Y-52207390D01*
X117316095Y-52207390D02*
X117363714Y-52255009D01*
X117363714Y-52255009D02*
X117411333Y-52350247D01*
X117411333Y-52350247D02*
X117411333Y-52588342D01*
X117411333Y-52588342D02*
X117363714Y-52683580D01*
X117363714Y-52683580D02*
X117316095Y-52731200D01*
X117316095Y-52731200D02*
X117220857Y-52778819D01*
X117220857Y-52778819D02*
X116982762Y-52778819D01*
X116982762Y-52778819D02*
X116887524Y-52731200D01*
X116887524Y-52731200D02*
X116839905Y-52683580D01*
X95694667Y-71781200D02*
X95837524Y-71828819D01*
X95837524Y-71828819D02*
X96075619Y-71828819D01*
X96075619Y-71828819D02*
X96170857Y-71781200D01*
X96170857Y-71781200D02*
X96218476Y-71733580D01*
X96218476Y-71733580D02*
X96266095Y-71638342D01*
X96266095Y-71638342D02*
X96266095Y-71543104D01*
X96266095Y-71543104D02*
X96218476Y-71447866D01*
X96218476Y-71447866D02*
X96170857Y-71400247D01*
X96170857Y-71400247D02*
X96075619Y-71352628D01*
X96075619Y-71352628D02*
X95885143Y-71305009D01*
X95885143Y-71305009D02*
X95789905Y-71257390D01*
X95789905Y-71257390D02*
X95742286Y-71209771D01*
X95742286Y-71209771D02*
X95694667Y-71114533D01*
X95694667Y-71114533D02*
X95694667Y-71019295D01*
X95694667Y-71019295D02*
X95742286Y-70924057D01*
X95742286Y-70924057D02*
X95789905Y-70876438D01*
X95789905Y-70876438D02*
X95885143Y-70828819D01*
X95885143Y-70828819D02*
X96123238Y-70828819D01*
X96123238Y-70828819D02*
X96266095Y-70876438D01*
X96599429Y-70828819D02*
X96837524Y-71828819D01*
X96837524Y-71828819D02*
X97028000Y-71114533D01*
X97028000Y-71114533D02*
X97218476Y-71828819D01*
X97218476Y-71828819D02*
X97456572Y-70828819D01*
X98266095Y-71162152D02*
X98266095Y-71828819D01*
X98028000Y-70781200D02*
X97789905Y-71495485D01*
X97789905Y-71495485D02*
X98408952Y-71495485D01*
X95694667Y-52731200D02*
X95837524Y-52778819D01*
X95837524Y-52778819D02*
X96075619Y-52778819D01*
X96075619Y-52778819D02*
X96170857Y-52731200D01*
X96170857Y-52731200D02*
X96218476Y-52683580D01*
X96218476Y-52683580D02*
X96266095Y-52588342D01*
X96266095Y-52588342D02*
X96266095Y-52493104D01*
X96266095Y-52493104D02*
X96218476Y-52397866D01*
X96218476Y-52397866D02*
X96170857Y-52350247D01*
X96170857Y-52350247D02*
X96075619Y-52302628D01*
X96075619Y-52302628D02*
X95885143Y-52255009D01*
X95885143Y-52255009D02*
X95789905Y-52207390D01*
X95789905Y-52207390D02*
X95742286Y-52159771D01*
X95742286Y-52159771D02*
X95694667Y-52064533D01*
X95694667Y-52064533D02*
X95694667Y-51969295D01*
X95694667Y-51969295D02*
X95742286Y-51874057D01*
X95742286Y-51874057D02*
X95789905Y-51826438D01*
X95789905Y-51826438D02*
X95885143Y-51778819D01*
X95885143Y-51778819D02*
X96123238Y-51778819D01*
X96123238Y-51778819D02*
X96266095Y-51826438D01*
X96599429Y-51778819D02*
X96837524Y-52778819D01*
X96837524Y-52778819D02*
X97028000Y-52064533D01*
X97028000Y-52064533D02*
X97218476Y-52778819D01*
X97218476Y-52778819D02*
X97456572Y-51778819D01*
X97742286Y-51778819D02*
X98361333Y-51778819D01*
X98361333Y-51778819D02*
X98028000Y-52159771D01*
X98028000Y-52159771D02*
X98170857Y-52159771D01*
X98170857Y-52159771D02*
X98266095Y-52207390D01*
X98266095Y-52207390D02*
X98313714Y-52255009D01*
X98313714Y-52255009D02*
X98361333Y-52350247D01*
X98361333Y-52350247D02*
X98361333Y-52588342D01*
X98361333Y-52588342D02*
X98313714Y-52683580D01*
X98313714Y-52683580D02*
X98266095Y-52731200D01*
X98266095Y-52731200D02*
X98170857Y-52778819D01*
X98170857Y-52778819D02*
X97885143Y-52778819D01*
X97885143Y-52778819D02*
X97789905Y-52731200D01*
X97789905Y-52731200D02*
X97742286Y-52683580D01*
X76644667Y-71781200D02*
X76787524Y-71828819D01*
X76787524Y-71828819D02*
X77025619Y-71828819D01*
X77025619Y-71828819D02*
X77120857Y-71781200D01*
X77120857Y-71781200D02*
X77168476Y-71733580D01*
X77168476Y-71733580D02*
X77216095Y-71638342D01*
X77216095Y-71638342D02*
X77216095Y-71543104D01*
X77216095Y-71543104D02*
X77168476Y-71447866D01*
X77168476Y-71447866D02*
X77120857Y-71400247D01*
X77120857Y-71400247D02*
X77025619Y-71352628D01*
X77025619Y-71352628D02*
X76835143Y-71305009D01*
X76835143Y-71305009D02*
X76739905Y-71257390D01*
X76739905Y-71257390D02*
X76692286Y-71209771D01*
X76692286Y-71209771D02*
X76644667Y-71114533D01*
X76644667Y-71114533D02*
X76644667Y-71019295D01*
X76644667Y-71019295D02*
X76692286Y-70924057D01*
X76692286Y-70924057D02*
X76739905Y-70876438D01*
X76739905Y-70876438D02*
X76835143Y-70828819D01*
X76835143Y-70828819D02*
X77073238Y-70828819D01*
X77073238Y-70828819D02*
X77216095Y-70876438D01*
X77549429Y-70828819D02*
X77787524Y-71828819D01*
X77787524Y-71828819D02*
X77978000Y-71114533D01*
X77978000Y-71114533D02*
X78168476Y-71828819D01*
X78168476Y-71828819D02*
X78406572Y-70828819D01*
X78739905Y-70924057D02*
X78787524Y-70876438D01*
X78787524Y-70876438D02*
X78882762Y-70828819D01*
X78882762Y-70828819D02*
X79120857Y-70828819D01*
X79120857Y-70828819D02*
X79216095Y-70876438D01*
X79216095Y-70876438D02*
X79263714Y-70924057D01*
X79263714Y-70924057D02*
X79311333Y-71019295D01*
X79311333Y-71019295D02*
X79311333Y-71114533D01*
X79311333Y-71114533D02*
X79263714Y-71257390D01*
X79263714Y-71257390D02*
X78692286Y-71828819D01*
X78692286Y-71828819D02*
X79311333Y-71828819D01*
X76644667Y-52731200D02*
X76787524Y-52778819D01*
X76787524Y-52778819D02*
X77025619Y-52778819D01*
X77025619Y-52778819D02*
X77120857Y-52731200D01*
X77120857Y-52731200D02*
X77168476Y-52683580D01*
X77168476Y-52683580D02*
X77216095Y-52588342D01*
X77216095Y-52588342D02*
X77216095Y-52493104D01*
X77216095Y-52493104D02*
X77168476Y-52397866D01*
X77168476Y-52397866D02*
X77120857Y-52350247D01*
X77120857Y-52350247D02*
X77025619Y-52302628D01*
X77025619Y-52302628D02*
X76835143Y-52255009D01*
X76835143Y-52255009D02*
X76739905Y-52207390D01*
X76739905Y-52207390D02*
X76692286Y-52159771D01*
X76692286Y-52159771D02*
X76644667Y-52064533D01*
X76644667Y-52064533D02*
X76644667Y-51969295D01*
X76644667Y-51969295D02*
X76692286Y-51874057D01*
X76692286Y-51874057D02*
X76739905Y-51826438D01*
X76739905Y-51826438D02*
X76835143Y-51778819D01*
X76835143Y-51778819D02*
X77073238Y-51778819D01*
X77073238Y-51778819D02*
X77216095Y-51826438D01*
X77549429Y-51778819D02*
X77787524Y-52778819D01*
X77787524Y-52778819D02*
X77978000Y-52064533D01*
X77978000Y-52064533D02*
X78168476Y-52778819D01*
X78168476Y-52778819D02*
X78406572Y-51778819D01*
X79311333Y-52778819D02*
X78739905Y-52778819D01*
X79025619Y-52778819D02*
X79025619Y-51778819D01*
X79025619Y-51778819D02*
X78930381Y-51921676D01*
X78930381Y-51921676D02*
X78835143Y-52016914D01*
X78835143Y-52016914D02*
X78739905Y-52064533D01*
X134135905Y-94110819D02*
X134135905Y-93110819D01*
X134135905Y-93110819D02*
X134374000Y-93110819D01*
X134374000Y-93110819D02*
X134516857Y-93158438D01*
X134516857Y-93158438D02*
X134612095Y-93253676D01*
X134612095Y-93253676D02*
X134659714Y-93348914D01*
X134659714Y-93348914D02*
X134707333Y-93539390D01*
X134707333Y-93539390D02*
X134707333Y-93682247D01*
X134707333Y-93682247D02*
X134659714Y-93872723D01*
X134659714Y-93872723D02*
X134612095Y-93967961D01*
X134612095Y-93967961D02*
X134516857Y-94063200D01*
X134516857Y-94063200D02*
X134374000Y-94110819D01*
X134374000Y-94110819D02*
X134135905Y-94110819D01*
X135278762Y-93539390D02*
X135183524Y-93491771D01*
X135183524Y-93491771D02*
X135135905Y-93444152D01*
X135135905Y-93444152D02*
X135088286Y-93348914D01*
X135088286Y-93348914D02*
X135088286Y-93301295D01*
X135088286Y-93301295D02*
X135135905Y-93206057D01*
X135135905Y-93206057D02*
X135183524Y-93158438D01*
X135183524Y-93158438D02*
X135278762Y-93110819D01*
X135278762Y-93110819D02*
X135469238Y-93110819D01*
X135469238Y-93110819D02*
X135564476Y-93158438D01*
X135564476Y-93158438D02*
X135612095Y-93206057D01*
X135612095Y-93206057D02*
X135659714Y-93301295D01*
X135659714Y-93301295D02*
X135659714Y-93348914D01*
X135659714Y-93348914D02*
X135612095Y-93444152D01*
X135612095Y-93444152D02*
X135564476Y-93491771D01*
X135564476Y-93491771D02*
X135469238Y-93539390D01*
X135469238Y-93539390D02*
X135278762Y-93539390D01*
X135278762Y-93539390D02*
X135183524Y-93587009D01*
X135183524Y-93587009D02*
X135135905Y-93634628D01*
X135135905Y-93634628D02*
X135088286Y-93729866D01*
X135088286Y-93729866D02*
X135088286Y-93920342D01*
X135088286Y-93920342D02*
X135135905Y-94015580D01*
X135135905Y-94015580D02*
X135183524Y-94063200D01*
X135183524Y-94063200D02*
X135278762Y-94110819D01*
X135278762Y-94110819D02*
X135469238Y-94110819D01*
X135469238Y-94110819D02*
X135564476Y-94063200D01*
X135564476Y-94063200D02*
X135612095Y-94015580D01*
X135612095Y-94015580D02*
X135659714Y-93920342D01*
X135659714Y-93920342D02*
X135659714Y-93729866D01*
X135659714Y-93729866D02*
X135612095Y-93634628D01*
X135612095Y-93634628D02*
X135564476Y-93587009D01*
X135564476Y-93587009D02*
X135469238Y-93539390D01*
X139692095Y-93740819D02*
X139692095Y-92740819D01*
X140263523Y-93740819D02*
X139834952Y-93169390D01*
X140263523Y-92740819D02*
X139692095Y-93312247D01*
X134389905Y-51184819D02*
X134389905Y-50184819D01*
X134389905Y-50184819D02*
X134628000Y-50184819D01*
X134628000Y-50184819D02*
X134770857Y-50232438D01*
X134770857Y-50232438D02*
X134866095Y-50327676D01*
X134866095Y-50327676D02*
X134913714Y-50422914D01*
X134913714Y-50422914D02*
X134961333Y-50613390D01*
X134961333Y-50613390D02*
X134961333Y-50756247D01*
X134961333Y-50756247D02*
X134913714Y-50946723D01*
X134913714Y-50946723D02*
X134866095Y-51041961D01*
X134866095Y-51041961D02*
X134770857Y-51137200D01*
X134770857Y-51137200D02*
X134628000Y-51184819D01*
X134628000Y-51184819D02*
X134389905Y-51184819D01*
X135294667Y-50184819D02*
X135961333Y-50184819D01*
X135961333Y-50184819D02*
X135532762Y-51184819D01*
X139946095Y-50814819D02*
X139946095Y-49814819D01*
X140517523Y-50814819D02*
X140088952Y-50243390D01*
X140517523Y-49814819D02*
X139946095Y-50386247D01*
X115593905Y-94110819D02*
X115593905Y-93110819D01*
X115593905Y-93110819D02*
X115832000Y-93110819D01*
X115832000Y-93110819D02*
X115974857Y-93158438D01*
X115974857Y-93158438D02*
X116070095Y-93253676D01*
X116070095Y-93253676D02*
X116117714Y-93348914D01*
X116117714Y-93348914D02*
X116165333Y-93539390D01*
X116165333Y-93539390D02*
X116165333Y-93682247D01*
X116165333Y-93682247D02*
X116117714Y-93872723D01*
X116117714Y-93872723D02*
X116070095Y-93967961D01*
X116070095Y-93967961D02*
X115974857Y-94063200D01*
X115974857Y-94063200D02*
X115832000Y-94110819D01*
X115832000Y-94110819D02*
X115593905Y-94110819D01*
X117022476Y-93110819D02*
X116832000Y-93110819D01*
X116832000Y-93110819D02*
X116736762Y-93158438D01*
X116736762Y-93158438D02*
X116689143Y-93206057D01*
X116689143Y-93206057D02*
X116593905Y-93348914D01*
X116593905Y-93348914D02*
X116546286Y-93539390D01*
X116546286Y-93539390D02*
X116546286Y-93920342D01*
X116546286Y-93920342D02*
X116593905Y-94015580D01*
X116593905Y-94015580D02*
X116641524Y-94063200D01*
X116641524Y-94063200D02*
X116736762Y-94110819D01*
X116736762Y-94110819D02*
X116927238Y-94110819D01*
X116927238Y-94110819D02*
X117022476Y-94063200D01*
X117022476Y-94063200D02*
X117070095Y-94015580D01*
X117070095Y-94015580D02*
X117117714Y-93920342D01*
X117117714Y-93920342D02*
X117117714Y-93682247D01*
X117117714Y-93682247D02*
X117070095Y-93587009D01*
X117070095Y-93587009D02*
X117022476Y-93539390D01*
X117022476Y-93539390D02*
X116927238Y-93491771D01*
X116927238Y-93491771D02*
X116736762Y-93491771D01*
X116736762Y-93491771D02*
X116641524Y-93539390D01*
X116641524Y-93539390D02*
X116593905Y-93587009D01*
X116593905Y-93587009D02*
X116546286Y-93682247D01*
X121150095Y-93740819D02*
X121150095Y-92740819D01*
X121721523Y-93740819D02*
X121292952Y-93169390D01*
X121721523Y-92740819D02*
X121150095Y-93312247D01*
X115339905Y-51184819D02*
X115339905Y-50184819D01*
X115339905Y-50184819D02*
X115578000Y-50184819D01*
X115578000Y-50184819D02*
X115720857Y-50232438D01*
X115720857Y-50232438D02*
X115816095Y-50327676D01*
X115816095Y-50327676D02*
X115863714Y-50422914D01*
X115863714Y-50422914D02*
X115911333Y-50613390D01*
X115911333Y-50613390D02*
X115911333Y-50756247D01*
X115911333Y-50756247D02*
X115863714Y-50946723D01*
X115863714Y-50946723D02*
X115816095Y-51041961D01*
X115816095Y-51041961D02*
X115720857Y-51137200D01*
X115720857Y-51137200D02*
X115578000Y-51184819D01*
X115578000Y-51184819D02*
X115339905Y-51184819D01*
X116816095Y-50184819D02*
X116339905Y-50184819D01*
X116339905Y-50184819D02*
X116292286Y-50661009D01*
X116292286Y-50661009D02*
X116339905Y-50613390D01*
X116339905Y-50613390D02*
X116435143Y-50565771D01*
X116435143Y-50565771D02*
X116673238Y-50565771D01*
X116673238Y-50565771D02*
X116768476Y-50613390D01*
X116768476Y-50613390D02*
X116816095Y-50661009D01*
X116816095Y-50661009D02*
X116863714Y-50756247D01*
X116863714Y-50756247D02*
X116863714Y-50994342D01*
X116863714Y-50994342D02*
X116816095Y-51089580D01*
X116816095Y-51089580D02*
X116768476Y-51137200D01*
X116768476Y-51137200D02*
X116673238Y-51184819D01*
X116673238Y-51184819D02*
X116435143Y-51184819D01*
X116435143Y-51184819D02*
X116339905Y-51137200D01*
X116339905Y-51137200D02*
X116292286Y-51089580D01*
X120896095Y-50814819D02*
X120896095Y-49814819D01*
X121467523Y-50814819D02*
X121038952Y-50243390D01*
X121467523Y-49814819D02*
X120896095Y-50386247D01*
X96035905Y-94110819D02*
X96035905Y-93110819D01*
X96035905Y-93110819D02*
X96274000Y-93110819D01*
X96274000Y-93110819D02*
X96416857Y-93158438D01*
X96416857Y-93158438D02*
X96512095Y-93253676D01*
X96512095Y-93253676D02*
X96559714Y-93348914D01*
X96559714Y-93348914D02*
X96607333Y-93539390D01*
X96607333Y-93539390D02*
X96607333Y-93682247D01*
X96607333Y-93682247D02*
X96559714Y-93872723D01*
X96559714Y-93872723D02*
X96512095Y-93967961D01*
X96512095Y-93967961D02*
X96416857Y-94063200D01*
X96416857Y-94063200D02*
X96274000Y-94110819D01*
X96274000Y-94110819D02*
X96035905Y-94110819D01*
X97464476Y-93444152D02*
X97464476Y-94110819D01*
X97226381Y-93063200D02*
X96988286Y-93777485D01*
X96988286Y-93777485D02*
X97607333Y-93777485D01*
X101592095Y-93740819D02*
X101592095Y-92740819D01*
X102163523Y-93740819D02*
X101734952Y-93169390D01*
X102163523Y-92740819D02*
X101592095Y-93312247D01*
X96289905Y-51184819D02*
X96289905Y-50184819D01*
X96289905Y-50184819D02*
X96528000Y-50184819D01*
X96528000Y-50184819D02*
X96670857Y-50232438D01*
X96670857Y-50232438D02*
X96766095Y-50327676D01*
X96766095Y-50327676D02*
X96813714Y-50422914D01*
X96813714Y-50422914D02*
X96861333Y-50613390D01*
X96861333Y-50613390D02*
X96861333Y-50756247D01*
X96861333Y-50756247D02*
X96813714Y-50946723D01*
X96813714Y-50946723D02*
X96766095Y-51041961D01*
X96766095Y-51041961D02*
X96670857Y-51137200D01*
X96670857Y-51137200D02*
X96528000Y-51184819D01*
X96528000Y-51184819D02*
X96289905Y-51184819D01*
X97194667Y-50184819D02*
X97813714Y-50184819D01*
X97813714Y-50184819D02*
X97480381Y-50565771D01*
X97480381Y-50565771D02*
X97623238Y-50565771D01*
X97623238Y-50565771D02*
X97718476Y-50613390D01*
X97718476Y-50613390D02*
X97766095Y-50661009D01*
X97766095Y-50661009D02*
X97813714Y-50756247D01*
X97813714Y-50756247D02*
X97813714Y-50994342D01*
X97813714Y-50994342D02*
X97766095Y-51089580D01*
X97766095Y-51089580D02*
X97718476Y-51137200D01*
X97718476Y-51137200D02*
X97623238Y-51184819D01*
X97623238Y-51184819D02*
X97337524Y-51184819D01*
X97337524Y-51184819D02*
X97242286Y-51137200D01*
X97242286Y-51137200D02*
X97194667Y-51089580D01*
X101846095Y-50814819D02*
X101846095Y-49814819D01*
X102417523Y-50814819D02*
X101988952Y-50243390D01*
X102417523Y-49814819D02*
X101846095Y-50386247D01*
X77239905Y-94110819D02*
X77239905Y-93110819D01*
X77239905Y-93110819D02*
X77478000Y-93110819D01*
X77478000Y-93110819D02*
X77620857Y-93158438D01*
X77620857Y-93158438D02*
X77716095Y-93253676D01*
X77716095Y-93253676D02*
X77763714Y-93348914D01*
X77763714Y-93348914D02*
X77811333Y-93539390D01*
X77811333Y-93539390D02*
X77811333Y-93682247D01*
X77811333Y-93682247D02*
X77763714Y-93872723D01*
X77763714Y-93872723D02*
X77716095Y-93967961D01*
X77716095Y-93967961D02*
X77620857Y-94063200D01*
X77620857Y-94063200D02*
X77478000Y-94110819D01*
X77478000Y-94110819D02*
X77239905Y-94110819D01*
X78192286Y-93206057D02*
X78239905Y-93158438D01*
X78239905Y-93158438D02*
X78335143Y-93110819D01*
X78335143Y-93110819D02*
X78573238Y-93110819D01*
X78573238Y-93110819D02*
X78668476Y-93158438D01*
X78668476Y-93158438D02*
X78716095Y-93206057D01*
X78716095Y-93206057D02*
X78763714Y-93301295D01*
X78763714Y-93301295D02*
X78763714Y-93396533D01*
X78763714Y-93396533D02*
X78716095Y-93539390D01*
X78716095Y-93539390D02*
X78144667Y-94110819D01*
X78144667Y-94110819D02*
X78763714Y-94110819D01*
X82796095Y-93740819D02*
X82796095Y-92740819D01*
X83367523Y-93740819D02*
X82938952Y-93169390D01*
X83367523Y-92740819D02*
X82796095Y-93312247D01*
X77239905Y-51184819D02*
X77239905Y-50184819D01*
X77239905Y-50184819D02*
X77478000Y-50184819D01*
X77478000Y-50184819D02*
X77620857Y-50232438D01*
X77620857Y-50232438D02*
X77716095Y-50327676D01*
X77716095Y-50327676D02*
X77763714Y-50422914D01*
X77763714Y-50422914D02*
X77811333Y-50613390D01*
X77811333Y-50613390D02*
X77811333Y-50756247D01*
X77811333Y-50756247D02*
X77763714Y-50946723D01*
X77763714Y-50946723D02*
X77716095Y-51041961D01*
X77716095Y-51041961D02*
X77620857Y-51137200D01*
X77620857Y-51137200D02*
X77478000Y-51184819D01*
X77478000Y-51184819D02*
X77239905Y-51184819D01*
X78763714Y-51184819D02*
X78192286Y-51184819D01*
X78478000Y-51184819D02*
X78478000Y-50184819D01*
X78478000Y-50184819D02*
X78382762Y-50327676D01*
X78382762Y-50327676D02*
X78287524Y-50422914D01*
X78287524Y-50422914D02*
X78192286Y-50470533D01*
X82796095Y-50814819D02*
X82796095Y-49814819D01*
X83367523Y-50814819D02*
X82938952Y-50243390D01*
X83367523Y-49814819D02*
X82796095Y-50386247D01*
D12*
%TO.C,RST*%
X174950000Y-84316000D02*
X174950000Y-82816000D01*
X173700000Y-80316000D02*
X169200000Y-80316000D01*
X169200000Y-86816000D02*
X173700000Y-86816000D01*
X167950000Y-82816000D02*
X167950000Y-84316000D01*
%TO.C,J1*%
X164906000Y-88332000D02*
X164906000Y-89662000D01*
X163576000Y-88332000D02*
X164906000Y-88332000D01*
X162306000Y-88332000D02*
X154626000Y-88332000D01*
X162306000Y-88332000D02*
X162306000Y-90992000D01*
X154626000Y-88332000D02*
X154626000Y-90992000D01*
X162306000Y-90992000D02*
X154626000Y-90992000D01*
D11*
%TO.C,U1*%
X177292000Y-60706000D02*
X146812000Y-60706000D01*
X177292000Y-60706000D02*
X177292000Y-65786000D01*
X177292000Y-65786000D02*
X179832000Y-65786000D01*
X179832000Y-65786000D02*
X179832000Y-73406000D01*
X179832000Y-73406000D02*
X177292000Y-73406000D01*
X177292000Y-73406000D02*
X177292000Y-78486000D01*
X177292000Y-78486000D02*
X146812000Y-78486000D01*
X146812000Y-78486000D02*
X146812000Y-60706000D01*
D12*
%TO.C,SW8*%
X128143000Y-72263000D02*
X142113000Y-72263000D01*
X128143000Y-86233000D02*
X128143000Y-72263000D01*
X142113000Y-72263000D02*
X142113000Y-86233000D01*
X142113000Y-86233000D02*
X128143000Y-86233000D01*
%TO.C,SW7*%
X128143000Y-53213000D02*
X142113000Y-53213000D01*
X128143000Y-67183000D02*
X128143000Y-53213000D01*
X142113000Y-53213000D02*
X142113000Y-67183000D01*
X142113000Y-67183000D02*
X128143000Y-67183000D01*
%TO.C,SW6*%
X109093000Y-72263000D02*
X123063000Y-72263000D01*
X109093000Y-86233000D02*
X109093000Y-72263000D01*
X123063000Y-72263000D02*
X123063000Y-86233000D01*
X123063000Y-86233000D02*
X109093000Y-86233000D01*
%TO.C,SW5*%
X109093000Y-53213000D02*
X123063000Y-53213000D01*
X109093000Y-67183000D02*
X109093000Y-53213000D01*
X123063000Y-53213000D02*
X123063000Y-67183000D01*
X123063000Y-67183000D02*
X109093000Y-67183000D01*
%TO.C,SW4*%
X90043000Y-72263000D02*
X104013000Y-72263000D01*
X90043000Y-86233000D02*
X90043000Y-72263000D01*
X104013000Y-72263000D02*
X104013000Y-86233000D01*
X104013000Y-86233000D02*
X90043000Y-86233000D01*
%TO.C,SW3*%
X90043000Y-53213000D02*
X104013000Y-53213000D01*
X90043000Y-67183000D02*
X90043000Y-53213000D01*
X104013000Y-53213000D02*
X104013000Y-67183000D01*
X104013000Y-67183000D02*
X90043000Y-67183000D01*
%TO.C,SW2*%
X70993000Y-72263000D02*
X84963000Y-72263000D01*
X70993000Y-86233000D02*
X70993000Y-72263000D01*
X84963000Y-72263000D02*
X84963000Y-86233000D01*
X84963000Y-86233000D02*
X70993000Y-86233000D01*
%TO.C,SW1*%
X70993000Y-53213000D02*
X84963000Y-53213000D01*
X70993000Y-67183000D02*
X70993000Y-53213000D01*
X84963000Y-53213000D02*
X84963000Y-67183000D01*
X84963000Y-67183000D02*
X70993000Y-67183000D01*
%TO.C,D8*%
X138614000Y-91186000D02*
X137594000Y-91186000D01*
X137594000Y-92656000D02*
X137594000Y-89716000D01*
X137594000Y-89716000D02*
X132154000Y-89716000D01*
X136814000Y-92656000D02*
X136814000Y-89716000D01*
X136694000Y-92656000D02*
X136694000Y-89716000D01*
X136574000Y-92656000D02*
X136574000Y-89716000D01*
X132154000Y-92656000D02*
X137594000Y-92656000D01*
X132154000Y-89716000D02*
X132154000Y-92656000D01*
X131134000Y-91186000D02*
X132154000Y-91186000D01*
%TO.C,D7*%
X138868000Y-48260000D02*
X137848000Y-48260000D01*
X137848000Y-49730000D02*
X137848000Y-46790000D01*
X137848000Y-46790000D02*
X132408000Y-46790000D01*
X137068000Y-49730000D02*
X137068000Y-46790000D01*
X136948000Y-49730000D02*
X136948000Y-46790000D01*
X136828000Y-49730000D02*
X136828000Y-46790000D01*
X132408000Y-49730000D02*
X137848000Y-49730000D01*
X132408000Y-46790000D02*
X132408000Y-49730000D01*
X131388000Y-48260000D02*
X132408000Y-48260000D01*
%TO.C,D6*%
X120072000Y-91186000D02*
X119052000Y-91186000D01*
X119052000Y-92656000D02*
X119052000Y-89716000D01*
X119052000Y-89716000D02*
X113612000Y-89716000D01*
X118272000Y-92656000D02*
X118272000Y-89716000D01*
X118152000Y-92656000D02*
X118152000Y-89716000D01*
X118032000Y-92656000D02*
X118032000Y-89716000D01*
X113612000Y-92656000D02*
X119052000Y-92656000D01*
X113612000Y-89716000D02*
X113612000Y-92656000D01*
X112592000Y-91186000D02*
X113612000Y-91186000D01*
%TO.C,D5*%
X119818000Y-48260000D02*
X118798000Y-48260000D01*
X118798000Y-49730000D02*
X118798000Y-46790000D01*
X118798000Y-46790000D02*
X113358000Y-46790000D01*
X118018000Y-49730000D02*
X118018000Y-46790000D01*
X117898000Y-49730000D02*
X117898000Y-46790000D01*
X117778000Y-49730000D02*
X117778000Y-46790000D01*
X113358000Y-49730000D02*
X118798000Y-49730000D01*
X113358000Y-46790000D02*
X113358000Y-49730000D01*
X112338000Y-48260000D02*
X113358000Y-48260000D01*
%TO.C,D4*%
X100514000Y-91186000D02*
X99494000Y-91186000D01*
X99494000Y-92656000D02*
X99494000Y-89716000D01*
X99494000Y-89716000D02*
X94054000Y-89716000D01*
X98714000Y-92656000D02*
X98714000Y-89716000D01*
X98594000Y-92656000D02*
X98594000Y-89716000D01*
X98474000Y-92656000D02*
X98474000Y-89716000D01*
X94054000Y-92656000D02*
X99494000Y-92656000D01*
X94054000Y-89716000D02*
X94054000Y-92656000D01*
X93034000Y-91186000D02*
X94054000Y-91186000D01*
%TO.C,D3*%
X100768000Y-48260000D02*
X99748000Y-48260000D01*
X99748000Y-49730000D02*
X99748000Y-46790000D01*
X99748000Y-46790000D02*
X94308000Y-46790000D01*
X98968000Y-49730000D02*
X98968000Y-46790000D01*
X98848000Y-49730000D02*
X98848000Y-46790000D01*
X98728000Y-49730000D02*
X98728000Y-46790000D01*
X94308000Y-49730000D02*
X99748000Y-49730000D01*
X94308000Y-46790000D02*
X94308000Y-49730000D01*
X93288000Y-48260000D02*
X94308000Y-48260000D01*
%TO.C,D2*%
X81718000Y-91186000D02*
X80698000Y-91186000D01*
X80698000Y-92656000D02*
X80698000Y-89716000D01*
X80698000Y-89716000D02*
X75258000Y-89716000D01*
X79918000Y-92656000D02*
X79918000Y-89716000D01*
X79798000Y-92656000D02*
X79798000Y-89716000D01*
X79678000Y-92656000D02*
X79678000Y-89716000D01*
X75258000Y-92656000D02*
X80698000Y-92656000D01*
X75258000Y-89716000D02*
X75258000Y-92656000D01*
X74238000Y-91186000D02*
X75258000Y-91186000D01*
%TO.C,D1*%
X81718000Y-48260000D02*
X80698000Y-48260000D01*
X80698000Y-49730000D02*
X80698000Y-46790000D01*
X80698000Y-46790000D02*
X75258000Y-46790000D01*
X79918000Y-49730000D02*
X79918000Y-46790000D01*
X79798000Y-49730000D02*
X79798000Y-46790000D01*
X79678000Y-49730000D02*
X79678000Y-46790000D01*
X75258000Y-49730000D02*
X80698000Y-49730000D01*
X75258000Y-46790000D02*
X75258000Y-49730000D01*
X74238000Y-48260000D02*
X75258000Y-48260000D01*
%TD*%
M02*
